<svg xmlns="http://www.w3.org/2000/svg" xmlns:xlink="http://www.w3.org/1999/xlink" viewBox="0 0 380.54 380.54"><defs><style>.cls-1{fill:#ffff63;}.cls-2{fill:#935536;}.cls-3{fill:#837290;}.cls-4{fill:url(#linear-gradient);}.cls-5{fill:url(#linear-gradient-2);}.cls-6{fill:#a56340;}.cls-7{fill:#3f170c;}.cls-8{fill:url(#linear-gradient-3);}.cls-9{fill:#8e3b25;}.cls-10{fill:#7c2e20;}.cls-11{fill:#532e1b;}.cls-12{fill:#fff;}.cls-13{fill:#3f0d00;}</style><linearGradient id="linear-gradient" x1="187.99" y1="115.98" x2="187.99" y2="40.98" gradientUnits="userSpaceOnUse"><stop offset="0" stop-color="#0c1417"/><stop offset="1" stop-color="#3e6070"/></linearGradient><linearGradient id="linear-gradient-2" x1="187.97" y1="104.1" x2="187.97" y2="39.75" gradientUnits="userSpaceOnUse"><stop offset="0"/><stop offset="1" stop-color="#294653"/></linearGradient><linearGradient id="linear-gradient-3" x1="223.67" y1="247.96" x2="223.67" y2="221.68" gradientUnits="userSpaceOnUse"><stop offset="0" stop-color="#6c2c19"/><stop offset="1" stop-color="#a56340"/></linearGradient></defs><g id="Capa_2" data-name="Capa 2"><g id="Avatar_24"><circle class="cls-1" cx="190.27" cy="190.27" r="190.27" transform="translate(-78.81 190.27) rotate(-45)"/><path class="cls-2" d="M238.88,349.44c-13.46-28.34-7.08-55.25-7.08-85h-107c0,29.75,6.37,56.66-7.08,85a42.54,42.54,0,0,1-9.18,12.71,190.78,190.78,0,0,0,148.29,6.4A41.92,41.92,0,0,1,238.88,349.44Z"/><path class="cls-3" d="M287.53,254.59a30.74,30.74,0,0,0-5.71-.54c-15.3,0-26.57,11.75-30.56,22.66a35.15,35.15,0,0,0,14.8,41.84,29.09,29.09,0,0,0,15.37,4.3,34.32,34.32,0,0,0,26-12.47c6-7.4,7.37-16,7.46-21.86C314.69,274.64,306,258.11,287.53,254.59Zm24.72,33.93c-.23,15.35-10.89,31.85-30.17,32.18h-.53c-19.87,0-29.42-19.21-29.62-32.19-.23-15.22,11.24-31.85,30.17-32.18h.53C302.5,256.34,312.05,275.55,312.25,288.52Z"/><path class="cls-4" d="M298.37,138a22,22,0,0,0,2.84-1.42c-1.07-1.06-1.77-2.83-3.19-3.9a2.14,2.14,0,0,1,1.42-.35,4.16,4.16,0,0,0-2.84-3.9l1.07-1.77c0-1.77,1.41-2.48-1.42-3.54l2.12-1.06c-.7-.35-1.41-1.42-2.48-1.77,2.48-1.42,1.07-2.83-1.41-3.54a8.22,8.22,0,0,0,1.77-1.06,11.71,11.71,0,0,0-2.12-2.13c1.76-1.77.7-3.19-1.42-3.54a4.66,4.66,0,0,1,1.42-1.06c-1.07-.71-1.42-2.13-2.84-2.84a2.73,2.73,0,0,1,1.42-.71c-.71-.35-1.77-1.77-2.83-2.47a2.66,2.66,0,0,1,1.77-.71c-1.42-1.07-2.13-2.48-3.9-3.19.36,0,.71-.35,1.42-.71-1.42-.71-2.13-2.12-4.25-2.48.35-.35,1.06-.71,1.41-1.06-.7-1.06-1.77-1.42-3.18-1.77l-.71-1.42c.71-.35,1.06-.35,1.77-.71-1.06-.7-1.42-2.12-2.48-2.83.71-2.12-1.06-3.19-3.54-3.9l2.12-1.06c-1.06-.35-2.12-2.12-3.89-2.48a2.79,2.79,0,0,0,1.42-1.41,6.21,6.21,0,0,0-4.25-2.84c.35-.35,1.06-.7,1.06-1.06-1.06-.35-2.13-1.77-3.54-2.12a7.35,7.35,0,0,1,1.77-1.42c-1.42-.35-2.48-1.42-4.25-1.42.35-.71.71-1.06.71-1.41A8.67,8.67,0,0,0,264,67.18s1.06-1.07,1.06-1.42a24.66,24.66,0,0,1-2.83-1.06c0-.71.71-.71.71-1.42-1.42-.35-2.13-1.06-3.54-1.06,1.06-2.13-.71-2.84-3.19-2.48a3.9,3.9,0,0,0,.35-1.77c-1.06,0-2.83-.71-4.24-.36.7-.7.7-1.77,1.06-2.12-1.06,0-2.48-.71-3.9-.36.36-.7.36-1.77.71-2.12-1.42.35-2.83-.35-4.25,0,1.42-3.19-1.77-3.19-3.9-1.06a5.43,5.43,0,0,0,.36-3.19c-1.06-.35-2.13,0-3.54.71l-.71-.36c0-2.83-1.42-4.25-4.25-3.18,0-2.84-1.77-3.19-4.25-1.42,0-2.83-1.77-3.19-3.9-1.42,0-3.54-2.12-3.54-4.24-1.41-.36-2.84-2.13-3.55-4.25-1.07-.36-2.83-2.13-2.83-3.9-1.06-.71-2.83-2.84-3.19-4.61-1.06-1.06-2.13-2.83-2.48-4.6-.71-1.06-2.12-1.77-2.83-3.54-1.06-2.48-1.77-1.42-1.06-3.54-.36-2.48-1.06-1.77-.7-3.54,0-1.77-1.77-2.48-2.12-3.9-.35-2.48-1.42-2.12-1.06-4.25-.35-1.77-1.77-3.19-2.48-3.9.35-1.41-1.06-3.18-.71-4.25-1.06,0,.35.36,1.06,0,1.41-1.77-1.41-3.54-1.41-3.54,1.07-1.06-1.07-2.83-1.07-3.89-1.42v1.42c-2.13-1.07-4.25-1.07-5,1.06l-1.42.71c-1.77-.71-2.48-1.77-3.89,0-2.13-1.42-3.54-.71-3.9,1.77-1.77-2.13-3.19-1.77-3.89.35-2.13-1.77-3.19-1.41-3.55,1.42-2.47-1.42-3.54-.71-3.54,1.77-1.06-.35-3.18-.35-3.89-.71,0,.71-.36,1.42,0,2.13-.71-.36-2.84-.36-3.19-.71.35,1.06,0,2.12.35,3.19-1.41-.71-2.83-.36-3.89-.71.35.35.35,1.41.71,2.12-1.42-.71-2.84,0-3.55-.35a9.24,9.24,0,0,0,.71,2.48c-1.06-.36-2.83,0-3.54-.36.36.71,0,1.42.36,2.13-2.84-1.06-2.84,0-2.84,2.12l-.71,1.42c-2.83-1.77-6.37-.35-3.89,2.83-2.83-1.41-5-.71-3.54,2.48-2.84-1.41-3.9,0-2.84,2.48-2.83-1.06-5-.35-3.89,2.83-2.83-.7-4.25.36-2.83,3.19-2.48-1.06-3.55,0-2.48,2.83-2.84-.7-4.61,0-3.19,3.19-2.83-1.06-4.25.36-3.19,2.83-2.83-.7-3.89.36-2.48,2.84-3.19-.71-4.25,1.06-2.83,3.89-2.83-.35-3.54,1.07-2.83,3.55-3.19,0-3.9,2.12-2.13,4.6-.71,0-2.12.35-2.83.35.35.71.35,2.48,1.06,3.55-2.83-.36-3.9,1.77-1.42,3.89-2.83,0-3.89,1.06-1.77,3.19-2.83.71-1.77,1.42-.71,3.19l.71,1.41c-3.54-.71-7.43,3.54-3.18,6a22,22,0,0,0-2.84,1.42c.71.35,1.06,1.77,2.48,2.48-2.83.71-2.83,2.48-.71,4.6-3.18.36-3.89,2.48-1.06,4.25-2.83.71-2.83,2.13-.71,3.9-2.83.35-3.19,1.77-.71,3.54-2.12,1.42-2.48,2.12-.7,3.9-2.48,1.41-2.48,3.18-.36,4.95-1.06,2.13-1.06,1.42.71,3.55-1.42,2.47-1.77,1.77.71,3.54-1.42,1.77-2.13,2.48.71,3.54-1.07.35-1.42,1.77-2.13,2.12.71,0,1.42.71,2.48,1.07-2.48,1.41-2.48,3.18,0,4.25-2.12,1.77-2.12,2.47,0,3.89-2.48,1.77-2.48,3.9,0,5-1.42,2.13-1.06,3.9,1.77,3.54-2.12,2.13-2.83,5,0,5.67-1.77,1.77-2.12,4.25.36,5.31-1.42,2.12,0,2.12.35,3.9l25.85,34h1.41L85.25,193.94c-.34-1.74-1.73-1.74-.34-3.83-2.42-1-2.08-3.48-.35-5.22-2.76-.69-2.07-3.48,0-5.56-2.76.34-3.11-1.4-1.73-3.48-2.41-1-2.41-3.13,0-4.87-2.07-1.39-2.07-2.09,0-3.83-2.41-1-2.41-2.78,0-4.17-1-.35-1.72-1-2.41-1,.69-.35,1-1.74,2.07-2.09-2.77-1-2.07-1.73-.69-3.47-2.42-1.74-2.08-1.05-.69-3.48-1.73-2.09-1.73-1.39-.69-3.48-2.08-1.74-2.08-3.48.34-4.87-1.73-1.74-1.38-2.44.69-3.83-2.42-1.74-2.07-3.13.69-3.48-2.07-1.73-2.07-3.13.69-3.82-2.76-1.74-2.07-3.83,1-4.18-2.07-2.08-2.07-3.82.69-4.52-1.38-.7-1.73-2.09-2.42-2.43a20.25,20.25,0,0,1,2.77-1.4c-4.15-2.43-.35-6.61,3.11-5.91l-.7-1.39c-1-1.74-2.07-2.44.7-3.13-2.08-2.09-1-3.13,1.72-3.13-2.42-2.09-1.38-4.18,1.38-3.83-.69-1-.69-2.78-1-3.48.69,0,2.07-.35,2.76-.35-1.73-2.43-1-4.52,2.08-4.52-.7-2.43,0-3.83,2.76-3.48-1.38-2.78-.35-4.52,2.76-3.83-1.38-2.43-.34-3.47,2.42-2.78-1-2.43.35-3.82,3.11-2.78-1.38-3.13.35-3.83,3.11-3.13-1-2.78,0-3.83,2.42-2.78-1.38-2.79,0-3.83,2.76-3.13-1-3.14,1-3.83,3.8-2.79-1-2.43,0-3.82,2.77-2.43-1.39-3.13.69-3.83,3.45-2.44-2.42-3.13,1-4.52,3.8-2.78l.69-1.39c0-2.09,0-3.13,2.77-2.09-.35-.7,0-1.39-.35-2.09.69.35,2.42,0,3.46.35a8.8,8.8,0,0,1-.7-2.43c.7.34,2.08-.35,3.46.34-.35-.69-.35-1.74-.69-2.08,1,.34,2.42,0,3.8.69-.35-1,0-2.09-.35-3.13.35.35,2.42.35,3.11.7-.34-.7,0-1.4,0-2.09.69.35,2.77.35,3.8.69,0-2.43,1-3.13,3.46-1.73.34-2.79,1.38-3.13,3.45-1.4.69-2.08,2.07-2.43,3.8-.34.35-2.44,1.73-3.13,3.8-1.74,1.39-1.74,2.08-.7,3.8,0l1.39-.7c.69-2.09,2.76-2.09,4.83-1V41.92c1,.34,2.76.34,3.8,1.39,0-2.44,1.73-2.44,3.45-1.05.35-.34,0-1,0-1.39,1,.35,2.77,0,4.15,1.05.69-2.79,2.08-2.09,3.8-.35,2.08-.7,1.73-1,4.15.35,1.38-1.74,2.07-1.4,3.8.34,1.73-.69,1-1,3.45,0,2.08-.69,1-1.39,3.46.35,1.73-1.74,2.42-1,3.45,1,1.73-1.74,3.46-1.4,4.49.69,1.73-2.09,3.8-1.74,4.49,1,1.73-1.74,3.46-1.74,3.81,1,2.07-2.44,3.8-1.74,4.14,1,2.07-2.08,4.15-2.08,4.15,1.39,2.07-1.74,3.8-1.39,3.8,1.39,2.41-1.73,4.14-1.39,4.14,1.4,2.77-1,4.15.34,4.15,3.13l.69.35c1.38-.7,2.42-1,3.45-.7a5.35,5.35,0,0,1-.34,3.13c2.07-2.09,5.18-2.09,3.8,1,1.38-.34,2.76.35,4.14,0-.34.35-.34,1.39-.69,2.09,1.38-.35,2.77.35,3.8.35-.34.35-.34,1.39-1,2.09,1.38-.35,3.11.34,4.14.34a3.84,3.84,0,0,1-.34,1.74c2.42-.34,4.14.35,3.11,2.44,1.38,0,2.07.69,3.45,1,0,.7-.69.7-.69,1.39a23.91,23.91,0,0,0,2.76,1c0,.35-1,1.39-1,1.39a8.47,8.47,0,0,1,5.18,1.74c0,.35-.34.69-.69,1.39,1.73,0,2.76,1,4.14,1.39a7.39,7.39,0,0,0-1.72,1.39c1.38.35,2.42,1.74,3.45,2.09,0,.35-.69.7-1,1A6,6,0,0,1,277,84.36a2.75,2.75,0,0,1-1.38,1.39c1.73.35,2.76,2.08,3.8,2.43l-2.07,1c2.42.69,4.14,1.74,3.45,3.82,1,.7,1.38,2.09,2.42,2.79-.69.34-1,.34-1.73.69l.69,1.39a4.65,4.65,0,0,1,3.11,1.74c-.34.35-1,.7-1.38,1,2.07.34,2.76,1.74,4.15,2.43-.69.35-1,.7-1.39.7,1.73.69,2.42,2.09,3.8,3.13a2.64,2.64,0,0,0-1.72.69c1,.7,2.07,2.09,2.76,2.44a2.6,2.6,0,0,0-1.38.7c1.38.69,1.73,2.08,2.76,2.78a4.84,4.84,0,0,0-1.38,1c2.07.35,3.11,1.74,1.38,3.48a11.6,11.6,0,0,1,2.08,2.09,7.7,7.7,0,0,1-1.73,1c2.42.7,3.8,2.09,1.38,3.48,1,.35,1.73,1.39,2.42,1.74l-2.07,1c2.76,1,1.38,1.74,1.38,3.48l-1,1.74a4.07,4.07,0,0,1,2.76,3.83,2.06,2.06,0,0,0-1.38.35c1.38,1,2.07,2.78,3.11,3.82-.39.2-.89.5-1.43.79.67-.15,1.48-.66,1.78-.66C299.79,140.13,299.44,138.71,298.37,138Zm-1.06,47.1c0-.36,1.06-1.06,1.42-1.42l-2.13-2.12a10.9,10.9,0,0,0,1.77-1.07c-.27-.54-.95-.87-1.41-1.31a17.18,17.18,0,0,1-2,.83,11.12,11.12,0,0,0,2.07,1c-.35.69-1.38.69-1.73,1,.35.7,1.38,1,1.73,1.74a11,11,0,0,1-1.73,1l2.07,2.09c-.34.35-1.38,1-1.38,1.39a4.91,4.91,0,0,1,1.3,1.41,2.11,2.11,0,0,0,.73-.42.76.76,0,0,0-.71-.71l2.13-1.06C298.73,186.88,298.37,185.82,297.31,185.11Zm.22,6-1.54.77a.74.74,0,0,1,.69.7c-.34.34-.69.34-1.38.69.35.7,1,1,1.38,1.39a4.7,4.7,0,0,0-.69,5.57l-5.31,24.22h.61l6-27.27a4.74,4.74,0,0,1,.71-5.67C297.89,191.36,297.71,191.22,297.53,191.08Zm-.5-49a5.12,5.12,0,0,1,1.57,2.43,4.84,4.84,0,0,1,1.19-.5c-.33-.34-1.29-1.91-1.69-2.39A9.07,9.07,0,0,1,297,142.1Zm2.05,12.2a6.82,6.82,0,0,1-1.62-1.58,3.77,3.77,0,0,1-.78.52c0,.63.58,1.27.94,1.91A4,4,0,0,0,299.08,154.3Zm-1.41,3.78c.31-.13.7-.16.7-.59-.34-.69-1-1.38-1.05-2.06a12.43,12.43,0,0,1-1.67.59A12.78,12.78,0,0,0,297.67,158.08Zm-.22,11.55a17.68,17.68,0,0,0,1.63-.81c-.71-.36-1.41-1.06-2.12-1.42.71-.35,1.41-1.06,2.12-1.06-.71-.71-1.41-1.77-2.12-2.48a5.89,5.89,0,0,0,1.77-.71c-.36-.71-1.06-1.06-1.06-1.77,0-.35,1.06,0,1.06-.35-.36-.71-1.06-1.77-1.42-2.48a.5.5,0,0,1,0-.13c-.56.39-1.07.45-1.35.73,0,.69.69,1.39,1,2.09,0,.69-1,.34-1,1,.35.7,1,1.74,1.38,2.44,0,.34-1,0-1,.34,0,.7.69,1.05,1,1.74a5.71,5.71,0,0,1-1.72.7C296.25,168.1,296.85,169,297.45,169.63Zm-.77-24c.35.35,1.38,2.09,1.73,2.44-.35,0-1.38.69-1.73.69,1.08,1.09,1.62,2.18,1.37,3.1a4.36,4.36,0,0,1,1-.35c-.35-.7-1.06-1.41-1.06-2.12,2-1,1.8-2.64.28-4.31A4.79,4.79,0,0,1,296.68,145.58ZM297,175.5c-.35.35-1.38.7-1.73,1.05.52.52,1.05,1.45,1.57,2,.47-.21,1.22-.32,1.5-.9a12.06,12.06,0,0,1-2.12-1.06,17.51,17.51,0,0,0,2.48-1.06c-.71-.36-1.42-1.77-2.13-2.48.36-.36,1.42-.71,1.77-1.06a7.64,7.64,0,0,1-1.7-1.68,11.57,11.57,0,0,1-1,.65c.69.35,1.38,1,2.07,1.39a6.55,6.55,0,0,1-2.76,1C295.65,174.11,296.34,175.15,297,175.5Z"/><path class="cls-5" d="M84.17,110.18c-1.9-.27-4.43.57-5.1,2.58a2.66,2.66,0,0,0,.31,2.53c.1.14,1.11,1.08,1,1.14A20.86,20.86,0,0,0,78,117.66a.18.18,0,0,0,0,.32,13,13,0,0,1,1.63,1.9c.61.62.15.44-.52.8a1.85,1.85,0,0,0-.8,2.34c.07.17,1,1.78,1,1.78a3.63,3.63,0,0,0-1.69.68,1.78,1.78,0,0,0-.37,2.49c.09.16,1.06,1.14,1,1.15a3.65,3.65,0,0,0-1.47.83c-.66.61-.29,1.64.19,2.21.81.94.62.59-.34,1.06a1.88,1.88,0,0,0-1,.85c-.46.84.65,1.92,1.21,2.35.25.18-1,1.16-1.13,1.31a1.42,1.42,0,0,0-.34,1,3.12,3.12,0,0,0,.79,1.46c.2.25-1.24,1.59-1.42,1.95-.55,1.09.3,2.25,1,3s-.79,1.68,0,2.56,1.14,1.26.47,2.31c-.14.22-.46.61-.43.91.12.94,2.06,1.2,1.36,2.09-.35.44-1.08,1.31-.69,1.93a2.53,2.53,0,0,0,1,.86c.82.47.49.12-.07.87a5.6,5.6,0,0,1-1.1,1.32c-.13.09-.15.34,0,.37a9.06,9.06,0,0,1,2,.86s-.89.85-.94.92a1.84,1.84,0,0,0-.23,2.33c.15.18,1.33,1.07,1.09,1.28A3.12,3.12,0,0,0,77,165.24a2.08,2.08,0,0,0,1.16,2c.22.15-.93,1.35-1.11,1.61a2.68,2.68,0,0,0-.37,1.29c-.07.72,1.66,2.46,1.63,2.52-1.25,2-.29,3.41,1.71,3.46-.88,1-1.85,2.41-1.54,3.74a2.1,2.1,0,0,0,.76,1.32c1.13.78.67.57,0,1.81a2.77,2.77,0,0,0,.67,3.53c.86.58.19,1.19.2,2s.88,1.54,1.08,2.24c0,0,0,0,0,0-.38-1.47-1.2-2.22-.22-3.81a.16.16,0,0,0-.06-.22c-2.35-1.21-1.81-3.39-.29-5a.2.2,0,0,0-.09-.34c-3-.94-1.34-3.79.1-5.31a.23.23,0,0,0-.16-.38c-.8.06-1.91.19-2.31-.82-.3-.76.37-1.8.73-2.39a.22.22,0,0,0-.08-.31c-2.46-1.21-1.76-3.19,0-4.6a.23.23,0,0,0,0-.35c-.67-.46-1.8-1.06-1.34-2.12A5.07,5.07,0,0,1,79,163.66a.22.22,0,0,0,0-.34,4.25,4.25,0,0,1-1.28-.8c-1.5-1.27.51-2.61,1.28-3.09a.2.2,0,0,0-.06-.37c-.39-.16-1.81-1.13-2.17-.87.76-.55.94-1.5,1.87-1.95.17-.08.09-.31,0-.36-.56-.23-2.14-.7-1.67-1.78a6.43,6.43,0,0,1,1-1.43.21.21,0,0,0,0-.31c-.39-.28-1.92-1-1.64-1.65a18.25,18.25,0,0,1,1-1.63.18.18,0,0,0,0-.23c-.33-.39-.67-.77-1-1.16-.68-.76,0-1.45.33-2.15a.2.2,0,0,0,0-.24c-1.8-1.62-1.81-3.3.32-4.64a.21.21,0,0,0,0-.32,5.73,5.73,0,0,1-.91-1.11c-.7-1.1,1-2,1.58-2.47a.2.2,0,0,0,0-.34c-.57-.44-2.43-1.72-1-2.71a4.23,4.23,0,0,1,1.68-.48.18.18,0,0,0,.08-.31,7,7,0,0,1-1.2-1.3c-.91-1.33.87-2,1.83-2.29a.18.18,0,0,0,0-.34c-.91-.63-2.34-1.72-1.29-3a3.68,3.68,0,0,1,2.31-.89c.16,0,.18-.23.09-.32a8.49,8.49,0,0,1-1.21-1.58c-.84-1.48.63-2.36,1.83-2.71a.19.19,0,0,0,0-.35,7.21,7.21,0,0,1-2-2.07c-.26-.33-.32-.16-.09-.28a21.49,21.49,0,0,1,2.4-1.2.19.19,0,0,0,0-.34c-3.69-2.39-.41-6.17,3-5.66C84.32,110.62,84.44,110.22,84.17,110.18Zm36.2-51.71c0,.31.27,1.13.57,1.28a5,5,0,0,0-1.68-.48c-.74-.05-1.8.08-2,1a3.19,3.19,0,0,0,0,1.44c.19.93-.22.33-.94.23-1-.12-1.69.13-1.94,1.14a3.41,3.41,0,0,0,.18,1.58,16.7,16.7,0,0,0-1.71-.24,2.06,2.06,0,0,0-2.16,1.13,2.76,2.76,0,0,0-.1,1.48c.18.91-.67.48-1.34.48A1.72,1.72,0,0,0,107.47,69a3.41,3.41,0,0,0,.33,1.66s-.94-.13-1.19-.15a1.34,1.34,0,0,0-1.47,1.29,8.16,8.16,0,0,0,.19,1.85,6.13,6.13,0,0,0-1.91-.12,1.62,1.62,0,0,0-1.52,1.27,4,4,0,0,0,.27,1.87,18.11,18.11,0,0,0-1.85,0,1.7,1.7,0,0,0-1.49,1.67c0,.67.55,1.44-.42,1.29a2.77,2.77,0,0,0-1.56.13c-1.09.57-.81,1.69-.41,2.65-.1-.25-2.23.19-2.6.56-.94,1-.66,2.22-.23,3.35-.12-.31-2.25.52-2.52,1a2.94,2.94,0,0,0-.37,1.67,6.45,6.45,0,0,0,.14.88c0,.23-1,.3-1.11.34A2.31,2.31,0,0,0,87.9,92.5a4.22,4.22,0,0,0,.7,2c.15.27,0,.1-.34.15a19.62,19.62,0,0,1-2,.28c-.13,0-.27.14-.22.28.41,1,.34,2.24.88,3.22-.23-.42-2,.45-2.22.76a1.8,1.8,0,0,0-.23,1.85c.07.15.67,1.38.89,1.37a5.16,5.16,0,0,0-1.7.35,1.25,1.25,0,0,0-.82,1c0,.84,1.21,1.85.31,2.17-1.81.65-.5,2.06.17,3.12.08.12.29,0,.21-.12l-.76-1.22c-.74-1.18.63-1.54,1.41-1.75a.16.16,0,0,0,.07-.28c-.52-.58-1.94-2-.16-2.66a5.55,5.55,0,0,1,1.81-.22.19.19,0,0,0,.14-.33,2.87,2.87,0,0,1-1.27-2.53c.18-1.15,1.79-1.07,2.55-1a.21.21,0,0,0,.18-.32,13.22,13.22,0,0,1-.93-3.22S89,95,89.07,95a.22.22,0,0,0,.19-.33c-1.45-2.2-.94-4.15,1.94-4.27a.23.23,0,0,0,.22-.29A4.6,4.6,0,0,1,91.25,88c.26-1.24,1.83-1.16,2.78-1.08.18,0,.25-.19.19-.33a3.49,3.49,0,0,1-.39-2.94c.48-1.06,2.11-.8,3-.65a.2.2,0,0,0,.22-.29,3.2,3.2,0,0,1-.58-2c.16-1.18,2.23-.68,2.85-.54.11,0,.25-.08.2-.21-.34-.91-.67-2,.29-2.74.75-.56,1.93-.14,2.69.11.12,0,.26-.09.21-.2-.35-.86-.84-2-.13-2.81s2.32-.34,3.11-.16c.12,0,.27-.09.22-.22a4.45,4.45,0,0,1-.34-2.33c.25-1.23,2-.52,2.6-.28.16.06.26-.14.2-.27-.43-.94-1.07-2.43.32-3a4.13,4.13,0,0,1,2.31.09.19.19,0,0,0,.23-.23c-.32-1.08-.57-2.44.75-3a4.7,4.7,0,0,1,2.92.34c.11,0,.26-.09.21-.22a5,5,0,0,1-.43-1.58c-.19-2,2.2-1.11,3-.73.11.05.27,0,.21-.16-.38-1-.94-2.47.46-2.93.89-.3,2.09.27,2.87.63.13.06.32-.08.21-.22-.8-1.09-1.39-2.62.3-3.25a4.24,4.24,0,0,1,3.38.64.17.17,0,0,0,.17-.29C123.73,56.24,120.14,55.7,120.37,58.47ZM163.56,39a7,7,0,0,0-2.66-1c-1,0-1.06.89-2.15.49-1.83-.66-2.83.36-3.24,2-1.47-1.42-2.94-1.5-3.85.47-.69-.55-1.81-1.35-2.58-.79a2.32,2.32,0,0,0-.81,1.13c0,.1-.18,1.12-.41,1a5.22,5.22,0,0,0-1.27-.46,1.59,1.59,0,0,0-1.93,1,3.45,3.45,0,0,0-.18.77c-.08.76-.22.52-.92.41a13.24,13.24,0,0,1-2.72-.47c-.16-.06-.31.1-.32.25a7.1,7.1,0,0,0-.07,1.76,8.84,8.84,0,0,1-2.73-.56.26.26,0,0,0-.37.29c.2.92.16,1.83.29,2.75-1.16-.36-2.32-.29-3.53-.58a.25.25,0,0,0-.27.36,6.55,6.55,0,0,1,.56,1.65c-1.06-.23-2.06.06-3.12-.22a.22.22,0,0,0-.29.22,8,8,0,0,0,.59,2.2,16.47,16.47,0,0,1-3.15-.26.19.19,0,0,0-.23.23c.85,2.82-.51.82-1.76,1.63-.82.53-.65,1.73-.63,2.57a.1.1,0,1,0,.19,0,9.74,9.74,0,0,1,.13-1.7c.25-1.26,1.93-.49,2.56-.26a.18.18,0,0,0,.21-.21c-.17-.58-.54-1.84.13-1.74,1,.14,1.88,0,2.84.22a.22.22,0,0,0,.24-.31c0-.08-.6-2.06-.61-2.06,1,.29,2.09-.14,3.19.27a.24.24,0,0,0,.3-.29c-.22-.57-.3-1.17-.52-1.73a15.36,15.36,0,0,1,3.41.61c.19.08.34-.14.3-.3-.19-.9-.15-1.8-.27-2.7.87.31,1.93.2,2.8.53.19.08.36-.14.31-.31-.52-1.89-.1-1.67,1.06-1.51a21,21,0,0,1,2.52.4.26.26,0,0,0,.33-.24,4.19,4.19,0,0,1,.33-1.75c.54-1.11,2.2-.14,2.83.2a.26.26,0,0,0,.37-.15,9.55,9.55,0,0,1,.3-1.41c.53-1.78,2.09-.48,2.82.1a.26.26,0,0,0,.42-.11c.22-1.08,1-1.53,2.27-1.35a5.51,5.51,0,0,1,1.21,1.1.25.25,0,0,0,.41-.11,5,5,0,0,1,.53-1.62c.71-1.3,2.19-.5,3,0a.26.26,0,0,0,.3,0c1.24-1.4,2.35-.5,3.66.05C163.62,39.52,163.8,39.11,163.56,39Zm70.78,6.51s-.73-1.93-1.28-2.16a3.49,3.49,0,0,0-3.17.71c-.29-2.4-2-2.7-3.88-1.45-.06-1-.27-2.19-1.24-2.52-1.16-.39-2.23.32-3.08,1.08-.61-2.54-2.44-2.8-4.26-1.1-.56-2.2-2.23-2.38-3.93-1-.53-1.41-1.73-2.88-3.4-2a5.29,5.29,0,0,0-1.16.82c-.13.12-.82-.8-.95-.9a2.43,2.43,0,0,0-2.64-.39c-.11.06-1,.83-1.21.53a4.83,4.83,0,0,0-1-1.39,1.47,1.47,0,0,0-1.81.06c-1.12.63-1.37-.28-2.43-.46-.88-.15-1.15,1-2.27.52a2.47,2.47,0,0,0-2-.31c-.47.19-.85.66-1.35.17a4.39,4.39,0,0,0-1.26-1,1.62,1.62,0,0,0-1.85.29c-.93.9-1.8-.29-2.89-.29a2.48,2.48,0,0,0-.81.21c-.91.32-1.16.17-1.9-.43a2.36,2.36,0,0,0-2-.66c-.67.13-1,1-1.2,1.53,0-.07-3.9-.68-4.08-.72s-.34.12-.31.32c.18,1.13-.18.61-.89.36a2.62,2.62,0,0,0-1.51-.15c-.79.16-1,1-1.1,1.77a12,12,0,0,0-3.64-1.19.22.22,0,0,0-.26.2c0,.87.17,1.16-.72.83a4.19,4.19,0,0,0-1.92-.26,2.6,2.6,0,0,0-2.18,1.89c0,.08.1.13.13.06,1-2.16,3.06-1.76,4.8-.94a.19.19,0,0,0,.29-.16c0-.65-.25-1.2.55-1a6.5,6.5,0,0,1,3,1.18.23.23,0,0,0,.4-.16c.14-2.14,2-1.75,3.18-.85a.24.24,0,0,0,.34-.09,1.83,1.83,0,0,0,.1-1.21c1.31.25,2.6.2,3.8,1a.27.27,0,0,0,.39-.16c.25-.86.54-2.11,1.86-1.52a5.82,5.82,0,0,1,1.59,1.29.25.25,0,0,0,.26.06c.55-.19,1.09-.42,1.66-.58.76-.21,1.77.56,2.39.91a.26.26,0,0,0,.32,0c1.34-1.56,2.23-.9,3.52.35a.27.27,0,0,0,.32,0c.51-.21,1.13-.7,1.71-.6s1.27.82,1.77.63a7.8,7.8,0,0,0,1.31-.61c.65-.38,1.53.59,2,.94a.27.27,0,0,0,.32,0c1.52-1.42,2.39-.4,3.12,1a.27.27,0,0,0,.42,0c1.56-1.4,3.11-1.24,4.18.66a.28.28,0,0,0,.43,0,4.08,4.08,0,0,1,1.7-1.23c1.43-.5,2.14,1.17,2.45,2.17a.27.27,0,0,0,.45.12,4.94,4.94,0,0,1,1.6-1.07c1.32-.49,1.69,1.12,1.85,2a.26.26,0,0,0,.44.12,4.87,4.87,0,0,1,1.85-1.39c1.46-.53,1.82,1.52,2,2.34a.26.26,0,0,0,.44.11,5.55,5.55,0,0,1,1.93-1.29c1.59-.58,1.84,1.52,1.87,2.52a.27.27,0,0,0,.45.19,4,4,0,0,1,2.1-1c1.24-.12,1.32,1.53,1.35,2.24a.26.26,0,0,0,.39.22,6.93,6.93,0,0,1,2-1c1.45-.4,1.8,1.17,1.84,2.2a.26.26,0,0,0,.33.24c2.5-.83,3.84.42,3.88,2.94a.3.3,0,0,0,.6,0C238.35,46.52,237.06,44.84,234.34,45.51Zm50.1,45.17a18.69,18.69,0,0,1-1.8-2.19c-.63-.69-.35-1.25-.56-2.08-.33-1.26-1.83-1.9-3.07-2.3l1.46-.73a.31.31,0,0,0,0-.53c-1.3-.58-2.12-1.71-3.4-2.29a3.46,3.46,0,0,0,1-1.2.3.3,0,0,0,0-.29,7.19,7.19,0,0,0-3.88-2.82,2,2,0,0,0,.68-.79.28.28,0,0,0-.1-.38c-1.16-.51-2-1.45-3.18-2A8.69,8.69,0,0,1,273,72a.27.27,0,0,0-.06-.49,27,27,0,0,0-3.9-1.37,3.56,3.56,0,0,0,.54-1.13.27.27,0,0,0-.12-.3A9.4,9.4,0,0,0,264.61,67a3.1,3.1,0,0,0,.73-1.12.27.27,0,0,0-.18-.33c-.19-.06-2.87-.8-2.26-1.43a1.19,1.19,0,0,0,.32-.72A.27.27,0,0,0,263,63a23,23,0,0,0-3.24-1c.27-.78.37-1.73-.5-2.18a4,4,0,0,0-1.58-.42c-.1,0-1.1.12-1-.11a4.13,4.13,0,0,0,.16-1.31.29.29,0,0,0-.28-.28,29.87,29.87,0,0,0-3.74-.4,15.77,15.77,0,0,1,.78-1.67.26.26,0,0,0-.22-.39,24.16,24.16,0,0,0-3.56-.37,6.78,6.78,0,0,1,.58-1.73.24.24,0,0,0-.27-.35,11.81,11.81,0,0,1-3-.09c-.93-.08-.8.1-.66-.85a1.37,1.37,0,0,0-.41-1.23c-1.12-.85-2.62-.07-3.65.74a7.92,7.92,0,0,0,.11-2.59.16.16,0,0,0-.11-.14,5.31,5.31,0,0,0-3.63.77c-.1,0,0,.2.09.16s3.32-1.53,3.37-.47a5.34,5.34,0,0,1-.39,2.77c-.09.2.13.4.3.23,1.38-1.26,4.84-2.39,3.55.87-.07.18.12.29.27.27,1.28-.19,2.53.14,3.8.06-.24.57-.33,1.2-.55,1.79-.08.19.14.32.3.3a11.56,11.56,0,0,1,3.42.33,8.1,8.1,0,0,1-.84,1.73.27.27,0,0,0,.26.44,9.44,9.44,0,0,1,3.3.28c.94.17.59.67.26,1.52a.27.27,0,0,0,.26.34c1.37-.16,4-.31,2.95,2.07a.28.28,0,0,0,.24.41,10.14,10.14,0,0,1,2.9.88c.22.09-.3,1.1-.33,1.25a.28.28,0,0,0,.13.31,22.9,22.9,0,0,0,2.26.87c.68.24-.3.93-.55,1.19a.27.27,0,0,0,.19.45,9.82,9.82,0,0,1,3.09.57,8.3,8.3,0,0,1,1.7.88c.41.26-.3,1.15-.41,1.34a.27.27,0,0,0,.23.4,12.44,12.44,0,0,1,3.63,1.22A11.25,11.25,0,0,0,270.91,73a.28.28,0,0,0,.12.46,8.34,8.34,0,0,1,2.4,1.47,5.63,5.63,0,0,0,.72.48c.11.07-.7.71-.77.77a.29.29,0,0,0,.13.48A6.08,6.08,0,0,1,276.42,78a7.69,7.69,0,0,1,.62.66c.79.87-.07,1.3-.77,1.69a.3.3,0,0,0,.07.54c1.37.38,2.18,1.48,3.31,2.18l-1.62.81a.31.31,0,0,0,.08.56c1.71.53,3.89,1.29,3.31,3.52a.35.35,0,0,0,.08.31,25.23,25.23,0,0,1,2.12,2.5c-.45.18-.9.34-1.34.53s0,.72.32.56c.58-.26,1.19-.45,1.77-.71A.32.32,0,0,0,284.44,90.68Zm11.73,32.76c2,.82,1.18,1.62,1.24,3.23,0,.28.46.37.51.07.09-.69.55-1.59.4-2.29a2,2,0,0,0-1.32-1.34l1.54-.77a.32.32,0,0,0,0-.54c-.75-.47-1.32-1.09-2.05-1.53,1.8-1.45.61-2.79-1.22-3.56a7.85,7.85,0,0,0,1.21-.79.33.33,0,0,0,0-.45,18.52,18.52,0,0,0-1.92-1.94c1.26-1.64.62-3-1.22-3.65a7.05,7.05,0,0,1,.93-.66.29.29,0,0,0,.06-.46,10.22,10.22,0,0,1-1.42-1.59c-.57-.69-1.71-1.19-.13-1.49a.26.26,0,0,0,.06-.48,9.92,9.92,0,0,1-1.6-1.44c-.65-.64-1.74-1,.41-1.27.19,0,.37-.28.18-.43a29.4,29.4,0,0,0-3.48-3c.32-.16.62-.37.94-.54a.25.25,0,0,0,0-.42,28.68,28.68,0,0,1-2.4-1.74,5.26,5.26,0,0,0-1.37-.61,10.52,10.52,0,0,1,.93-.86.16.16,0,0,0,0-.24,5.45,5.45,0,0,0-3.27-1.78c-.16,0-.23.21-.07.25a9,9,0,0,1,2.2.85c1.24.72-.14,1.41-.54,1.72-.12.09,0,.3.1.34,1.58.39,2.55,1.45,3.84,2.27a3.45,3.45,0,0,1-1,.48.25.25,0,0,0-.05.45,15.33,15.33,0,0,1,3.45,2.82,3.34,3.34,0,0,0-1.39.68.27.27,0,0,0,.06.41c.85.64,1.54,1.49,2.38,2.15a3.67,3.67,0,0,0-1,.62.27.27,0,0,0,0,.43c1.07.65,1.61,1.73,2.48,2.55a7.31,7.31,0,0,0-1.14.89.31.31,0,0,0,.14.51c1.63.37,2.61,1.51,1.27,3a.33.33,0,0,0,.06.49,9.55,9.55,0,0,1,1.67,1.63c.4.47-.86.78-1.31,1a.33.33,0,0,0,.07.59c1.46.47,3.45,1.59,1.34,3-.18.12-.23.45,0,.55a10.19,10.19,0,0,1,2,1.45l-1.68.84C295.82,123,295.94,123.34,296.17,123.44Zm5.18,13a23.13,23.13,0,0,1-1.74-2.33c-.44-.61-1.75-1.57-.17-1.61a.18.18,0,0,0,.17-.17,4.49,4.49,0,0,0-2.94-4c-.15-.07-.29.16-.13.23a4.44,4.44,0,0,1,2.64,2.9c.26.91-.7.73-1.25,1.08a.18.18,0,0,0,0,.28,16.21,16.21,0,0,1,2.55,3.16c.74,1-1.28,1.51-2.12,1.83a.2.2,0,0,0-.09.34,6,6,0,0,1,1.6,2.5c.06.14-1.58.62-1.87.66s-.22.29-.11.41c.57.68,1,1.46,1.52,2.17a10.85,10.85,0,0,1-1.42.58.27.27,0,0,0-.12.46c1.22,1.32,2,3,0,4.16a.3.3,0,0,0-.13.33,5.16,5.16,0,0,0,.89,1.86,13.9,13.9,0,0,1-1.75.6.3.3,0,0,0-.13.5,17.41,17.41,0,0,0,1.83,1.91c-.47.3-1,.48-1.42.81a.32.32,0,0,0-.14.34,4.47,4.47,0,0,0,.85,1.77c.27.42-.46.67-.69.85-.7.56.83,2.3,1.08,2.74-.07-.13-1,.28-.89.66a2.37,2.37,0,0,0,.62,1.18c.56.69.15.53-.53.76l-.58.17a.31.31,0,0,0-.14.51c.63.67,1.2,1.4,1.81,2.1a10.69,10.69,0,0,0-1.75,1,.32.32,0,0,0,0,.53c.58.34,1.12.75,1.67,1.12a5.89,5.89,0,0,1-2.22.78.32.32,0,0,0-.22.53,19,19,0,0,0,1.82,1.88c-.46.28-1,.5-1.4.82a.32.32,0,0,0-.06.48c.63.71,1.11,1.55,1.79,2.19-.65.31-1.32.6-2,.85a.3.3,0,0,0-.07.55,17.76,17.76,0,0,0,1.72.93c-.41.3-.93.39-1.37.68a.32.32,0,0,0-.11.41,4.47,4.47,0,0,0,1,1c1,.79-.33,1.15-.88,1.43a.3.3,0,0,0-.07.47l1.28,1.27c.41.41.81.49.33.88a2.84,2.84,0,0,0-1,1.1.3.3,0,0,0,.07.29,11.83,11.83,0,0,1,1.89,2.17l-1.82.91a.29.29,0,0,0,.06.53c.81.25-.68.86-.78.89a.29.29,0,0,0-.1.4,5,5,0,0,0,1.21,1.26s-.72,1.17-.74,1.23a5.44,5.44,0,0,0,.26,4.58c.13.27.61.07.49-.21-.78-1.94-.79-3.77.66-5.39a.29.29,0,0,0,0-.41c-.17-.15-1.5-1-.71-1.28a2.69,2.69,0,0,0,.71-.43.31.31,0,0,0,.07-.29,1.27,1.27,0,0,0-.35-.62l1.63-.82a.29.29,0,0,0,.06-.46c-.5-.56-.89-1.21-1.36-1.8-.73-.91-.1-1,.66-1.68a.3.3,0,0,0,0-.42l-1.84-1.83a9,9,0,0,0,1.48-.94.29.29,0,0,0,.05-.36c-.16-.23-1.5-1.57-1.41-1.6a2.9,2.9,0,0,0,1.41-.93.3.3,0,0,0-.17-.44,5.42,5.42,0,0,1-1.52-.72c.66-.26,1.3-.54,1.94-.85a.31.31,0,0,0,0-.53,9.42,9.42,0,0,1-1.82-2.14c.48-.3,1-.53,1.47-.87a.31.31,0,0,0,0-.53,8.57,8.57,0,0,1-1.69-1.66,9.55,9.55,0,0,0,2.4-1,.31.31,0,0,0,0-.53c-.6-.34-1.14-.77-1.71-1.15a4.8,4.8,0,0,1,1.63-.77.31.31,0,0,0,.14-.51c-.63-.67-1.19-1.4-1.8-2.09a4.51,4.51,0,0,0,1.38-.61A.31.31,0,0,0,299,163c-.08-.12-1.05-1.49-.63-1.49a.65.65,0,0,0,.59-.27.33.33,0,0,0,0-.37c-.16-.31-1.62-2.35-1.07-2.56.23-.09.59-.2.67-.47.16-.58-.14-.84-.48-1.36s-.68-.91-.07-1.18a5.4,5.4,0,0,0,1.25-.79.29.29,0,0,0-.06-.47,8.76,8.76,0,0,1-1.73-1.71,12.57,12.57,0,0,1,1.66-.58.3.3,0,0,0,.18-.43c-.27-.46-1.28-1.53-.63-2.06a2.69,2.69,0,0,0,1-1.49c.29-1.05-.53-2.13-1.23-2.91a8.08,8.08,0,0,1,1.35-.58.27.27,0,0,0,.11-.44c-.58-.66-1-1.44-1.53-2.15.61-.17,1.14-.5,1.76-.64a.22.22,0,0,0,.13-.32,8.39,8.39,0,0,0-1.14-2.23c-.71-.8,1.43-1.38,2.12-1.74A.21.21,0,0,0,301.35,136.45Z"/><path d="M81.28,190.78c-.35-1.78-1.77-1.78-.35-3.9-2.48-1.06-2.13-3.54-.36-5.31-2.83-.71-2.12-3.54,0-5.67-2.83.36-3.19-1.41-1.77-3.54-2.48-1.06-2.48-3.19,0-5-2.12-1.42-2.12-2.12,0-3.89-2.48-1.07-2.48-2.84,0-4.25-1.06-.36-1.77-1.07-2.48-1.07.71-.35,1.06-1.77,2.13-2.12-2.84-1.06-2.13-1.77-.71-3.54-2.48-1.77-2.13-1.07-.71-3.54-1.77-2.13-1.77-1.42-.71-3.55-2.12-1.77-2.12-3.54.36-4.95-1.78-1.78-1.42-2.48.7-3.9-2.48-1.77-2.12-3.19.71-3.54-2.12-1.77-2.12-3.19.71-3.9-2.83-1.77-2.12-3.89,1.06-4.25-2.12-2.12-2.12-3.89.71-4.6-1.42-.71-1.77-2.13-2.48-2.48a22,22,0,0,1,2.84-1.42c-4.25-2.48-.36-6.73,3.18-6L83.4,109c-1.06-1.77-2.12-2.48.71-3.19-2.12-2.13-1.06-3.19,1.77-3.19-2.48-2.12-1.41-4.25,1.42-3.89-.71-1.07-.71-2.84-1.06-3.55.71,0,2.12-.35,2.83-.35C87.3,92.32,88,90.2,91.2,90.2c-.71-2.48,0-3.9,2.83-3.55-1.42-2.83-.36-4.6,2.83-3.89-1.41-2.48-.35-3.54,2.48-2.84-1.06-2.47.36-3.89,3.19-2.83-1.42-3.19.35-3.89,3.19-3.19-1.07-2.83,0-3.89,2.48-2.83-1.42-2.83,0-3.89,2.83-3.19-1.06-3.18,1.06-3.89,3.89-2.83-1.06-2.48,0-3.89,2.84-2.48-1.42-3.19.71-3.89,3.54-2.48-2.48-3.18,1.06-4.6,3.89-2.83l.71-1.42c0-2.12,0-3.18,2.84-2.12-.36-.71,0-1.42-.36-2.13.71.36,2.48,0,3.54.36a9.24,9.24,0,0,1-.71-2.48c.71.35,2.13-.36,3.55.35-.36-.71-.36-1.77-.71-2.12,1.06.35,2.48,0,3.89.71-.35-1.07,0-2.13-.35-3.19.35.35,2.48.35,3.19.71-.36-.71,0-1.42,0-2.13.71.36,2.83.36,3.89.71,0-2.48,1.07-3.19,3.54-1.77.36-2.83,1.42-3.19,3.55-1.42.7-2.12,2.12-2.48,3.89-.35.36-2.48,1.77-3.19,3.9-1.77,1.41-1.77,2.12-.71,3.89,0l1.42-.71c.71-2.13,2.83-2.13,5-1.06V36c1.06.35,2.83.35,3.89,1.42,0-2.48,1.77-2.48,3.54-1.07.36-.35,0-1.06,0-1.41,1.07.35,2.84,0,4.25,1.06.71-2.83,2.13-2.12,3.9-.35,2.13-.71,1.77-1.07,4.25.35,1.42-1.77,2.13-1.42,3.9.35,1.77-.7,1.06-1.06,3.54,0,2.12-.7,1.06-1.41,3.54.36,1.77-1.77,2.48-1.06,3.54,1.06,1.77-1.77,3.54-1.42,4.6.71,1.77-2.13,3.9-1.77,4.61,1.06,1.77-1.77,3.54-1.77,3.9,1.06,2.12-2.48,3.89-1.77,4.25,1.07,2.12-2.13,4.24-2.13,4.24,1.41,2.13-1.77,3.9-1.41,3.9,1.42,2.48-1.77,4.25-1.42,4.25,1.42,2.83-1.07,4.25.35,4.25,3.18l.71.36c1.41-.71,2.48-1.06,3.54-.71a5.43,5.43,0,0,1-.36,3.19c2.13-2.13,5.32-2.13,3.9,1.06,1.42-.35,2.83.35,4.25,0-.35.35-.35,1.42-.71,2.12,1.42-.35,2.84.36,3.9.36-.36.35-.36,1.42-1.06,2.12,1.41-.35,3.18.36,4.24.36a3.9,3.9,0,0,1-.35,1.77c2.48-.36,4.25.35,3.19,2.48,1.41,0,2.12.71,3.54,1.06,0,.71-.71.71-.71,1.42a24.66,24.66,0,0,0,2.83,1.06c0,.35-1.06,1.42-1.06,1.42A8.67,8.67,0,0,1,269.34,69c0,.35-.36.7-.71,1.41,1.77,0,2.83,1.07,4.25,1.42a7.35,7.35,0,0,0-1.77,1.42c1.41.35,2.48,1.77,3.54,2.12,0,.36-.71.71-1.06,1.06a6.21,6.21,0,0,1,4.25,2.84,2.79,2.79,0,0,1-1.42,1.41c1.77.36,2.83,2.13,3.89,2.48-.7.36-1.41.71-2.12,1.06,2.48.71,4.25,1.78,3.54,3.9,1.06.71,1.42,2.13,2.48,2.83-.71.36-1.06.36-1.77.71l.71,1.42c1.41.35,2.48.71,3.18,1.77-.35.35-1.06.71-1.41,1.06,2.12.36,2.83,1.77,4.25,2.48-.71.36-1.06.71-1.42.71,1.77.71,2.48,2.12,3.9,3.19a2.66,2.66,0,0,0-1.77.71c1.06.7,2.12,2.12,2.83,2.47a2.73,2.73,0,0,0-1.42.71c1.42.71,1.77,2.13,2.84,2.84a4.66,4.66,0,0,0-1.42,1.06c2.12.35,3.18,1.77,1.42,3.54a11.71,11.71,0,0,1,2.12,2.13,8.22,8.22,0,0,1-1.77,1.06c2.48.71,3.89,2.12,1.41,3.54,1.07.35,1.78,1.42,2.48,1.77l-2.12,1.06c2.83,1.06,1.42,1.77,1.42,3.54l-1.07,1.77a4.16,4.16,0,0,1,2.84,3.9,2.14,2.14,0,0,0-1.42.35c1.42,1.07,2.12,2.84,3.19,3.9a22,22,0,0,1-2.84,1.42c1.07.7,1.42,2.12,1.77,2.83-.35,0-1.41.71-2.12.71.35.35,1.42,2.12,1.77,2.48-.35,0-1.42.71-1.77.71,1.77,1.77,2.12,3.54,0,4.6,0,.71.71,1.42,1.06,2.12-.35,0-1.77.71-2.12.71.71.71,1.41,1.77,2.12,2.13-.71.71-1.41.71-1.77,1.06,0,.71.71,1.42,1.06,2.13,0,.7-1.06.35-1.06,1.06.36.71,1.06,1.77,1.42,2.48,0,.35-1.06,0-1.06.35,0,.71.7,1.06,1.06,1.77a5.89,5.89,0,0,1-1.77.71c.71.71,1.41,1.77,2.12,2.48-.71,0-1.41.71-2.12,1.06.71.36,1.41,1.06,2.12,1.42a6.82,6.82,0,0,1-2.83,1.06,12.55,12.55,0,0,0,2.12,2.13c-.35.35-1.41.7-1.77,1.06.71.71,1.42,2.12,2.13,2.48a17.51,17.51,0,0,1-2.48,1.06,12.06,12.06,0,0,0,2.12,1.06c-.35.71-1.41.71-1.77,1.07.36.7,1.42,1.06,1.77,1.76a10.9,10.9,0,0,1-1.77,1.07l2.13,2.12c-.36.36-1.42,1.06-1.42,1.42,1.06.71,1.42,1.77,2.13,2.48l-2.13,1.06a.76.76,0,0,1,.71.71c-.35.35-.71.35-1.42.71.36.71,1.07,1.06,1.42,1.41a4.74,4.74,0,0,0-.71,5.67l-6,27.27-184.16.35Z"/><path class="cls-6" d="M300.5,209.19l.32.13c1.49-5.45,2.37-11.39-3.15-14.65L297,194c-2.48,8.5-3.54,19.48-6,27.63l-2.83,17,2.48,1.15.7-5.4C292.71,228.67,297.31,214.15,300.5,209.19Z"/><path class="cls-6" d="M299.08,215.57c.42-1.86,1.13-4,1.74-6.25l-.32-.13c-3.19,5-7.79,19.48-9.21,25.15l-.7,5.4,2.12,1C297.67,233.27,297.31,224.07,299.08,215.57Z"/><path class="cls-7" d="M296.85,193.93c-2.6,9.07-3.48,18.54-6,27.65a0,0,0,0,0,.09,0c2.92-9,3.49-18.54,6.09-27.61A.11.11,0,0,0,296.85,193.93Zm.89.61a.15.15,0,0,0-.15.26c6.68,4.59,2.93,13.34,1.36,19.56-1.05,4.13-1.21,8.48-1.85,12.68a37.54,37.54,0,0,1-4.54,13.58.18.18,0,0,0,.3.18c5.63-7.83,4.6-18.46,7.22-27.36C302,207.05,305,198.63,297.74,194.54Z"/><path class="cls-6" d="M300.48,209.18c-2.42,3.66-3.94,7.92-5.42,12-.84,2.36-1.64,4.73-2.38,7.12a39.73,39.73,0,0,0-1.64,6,.26.26,0,0,0,.5.14c1.52-4.1,2.47-8.46,3.86-12.61s2.82-8.76,5.12-12.59c0,0,0-.06,0,0Z"/><path class="cls-6" d="M246.91,86.18l.53.39a6,6,0,0,1-.53-.86Zm19.83,4.25c.29.29.61.58.94.87v-.4S266.74,90,266.74,90.43Zm26.44,98.69c.47-7.56-6.61-23.14-6.14-40.61s-6.14-43.91-6.14-43.91c-.94-4.72-3.3-8-5.66-11.81h-1.89a2,2,0,0,1,.94,1.89,14.41,14.41,0,0,1-6.61-3.38v.08c-2.83,1.41-5.66,0-8-2.37,0,.48.48,1.42,1,1.42A9,9,0,0,1,253,87.6c0,.47.48,1.41.48,1.89a16.62,16.62,0,0,1-6.08-2.92c.43.62.88,1.17.88,1.5-2.83.47-5.66-.94-8-3.31l1,1.42a7.9,7.9,0,0,1-7.08-1.89c.47.47,1.41,1.42,1.41,1.89A14.23,14.23,0,0,1,228,83.82c0,.47.94,1.42.94,1.89a8.35,8.35,0,0,1-6.14-2.83c.47.47,1,1.41,1.42,1.88-2.83.48-5.2-.47-7.56-2.83a17.57,17.57,0,0,1,1.42,1.89,10.2,10.2,0,0,1-8-2.36,6.2,6.2,0,0,1,1.42,2.36,10.82,10.82,0,0,1-6.61-1.89,4.83,4.83,0,0,0,.47,1.42,7,7,0,0,1-6.61-1.89c0,.47.47,1.89.94,1.89-2.83,1.41-6.13.47-9-1.42.95.95,1.42,1.89,1.89,2.36-2.36,0-4.25.47-6.61-1.41,0,.47.94,1.88,1.42,1.88a8.66,8.66,0,0,1-7.56-.94c0,.47,1,1.42,1.42,1.89a6.25,6.25,0,0,1-5.67-.95L177,86.65c-1.89,0-3.31.95-6.14,0,0,.48.94.95.94,1.42a16.16,16.16,0,0,1-4.72-.47c0,.47,1.42,1.41,1,1.41-1.89,0-3.31.95-5.67,0,.47.48.94,1.42,1.42,1.89-1.89,0-3.78.48-5.67-.47a3.54,3.54,0,0,0,1,1.89c-1.89,0-3.31.94-5.67,0,0,.47.94,1.42,1.42,1.89-1.89,0-3.78.47-5.67,0,0,.47.94.94,1.42,1.42-1.89,0-3.78.47-6.14-.48,0,.95.47,1.42.47,1.89-1.42,0-2.36-.47-3.78-.47l-2.36.94c-6.61,9.45-6.14,41.09-6.14,41.09-14.64,12.75-20.3,38.72-19.83,47.69s-1.89,28.33-1.89,28.33c-2.36-3.3-7.56-10.39-9-14.16-1.42-3.31-.47-7.56-1.89-10.87-4.25-7.55-13.69-5.19-18.89-.47l-.86,1.55c-7.23,10.68.69,43.86,6.06,53.7,6.13,12.75,12.75,17.47,26.91,16.05l.94.48c0,16.66,17.9,34.82,28.34,46.27,18.68,20.51,48.63,43.92,77,40.61a47.08,47.08,0,0,0,27.75-14c10.9-11.33,17.37-26.27,25.43-39.56,7.72-12.75,15.71-27.48,19.06-42.26,3.47-15.3-.82-28-.43-43.27C291.5,202.09,292.77,195.66,293.18,189.12Z"/><path class="cls-6" d="M225,248.15a31.4,31.4,0,1,0,31.4,31.4A31.41,31.41,0,0,0,225,248.15Z"/><path class="cls-6" d="M174.64,241.22c-5.82-36.85-28.18-63.94-49.95-60.5A25.4,25.4,0,0,0,113,185.88c-.06.45-.13.9-.2,1.35.28,9.31-1.93,27.39-1.93,27.39l-1.21-1.68c1.93,13,6.88,34.74,6.88,34.74l6.14,15.58,10.38,27.86,6.72,13.08,2.73,3c1.9,2.1,3.93,4.22,6.06,6.34C168.64,307.79,180.2,276.43,174.64,241.22Z"/><path class="cls-6" d="M291.76,251.93c3.47-15.3-.82-28-.43-43.27.17-6.57,1.44-13,1.85-19.54.17-2.64-.6-6.27-1.63-10.62-13.75,7.54-26.78,29.59-32.33,57.28-5.73,28.62-1.76,54.78,8.8,66.52,1.52-2.74,3.07-5.46,4.68-8.11C280.42,281.44,288.41,266.71,291.76,251.93Z"/><path class="cls-6" d="M159.55,322.76c-25.5-24.08-24.56-47.22-35.42-65.17s-11.8-44.86-11.8-44.86l-.84-3.29c-.33,3.1-.58,5.18-.58,5.18-1.28-1.79-3.38-4.68-5.27-7.55,0,.15,0,.31.07.47,1.42,8.5,8.5,31.17,8,40.61s-9.91,11.8-9.91,11.8l.08.35a35.59,35.59,0,0,0,9.36.12l.94.48c0,16.66,17.9,34.82,28.34,46.27a175.56,175.56,0,0,0,20.84,19.5C162.3,325.46,161,324.16,159.55,322.76Zm133.54-85.89c-.62,9.11-3.42,17.64-9.83,31.58-5.52,12-11.26,25.16-14.31,32.19,1.23-2.18,2.47-4.34,3.75-6.45,7.72-12.75,15.71-27.48,19.06-42.26A58.87,58.87,0,0,0,293.09,236.87Z"/><path class="cls-6" d="M135,178.74s6.14-19.84,7.56-31.64c1.19-9.94.69-19.95,3-29.79,4.72-20.22,26.93-22.82,44.28-24.82a182.59,182.59,0,0,1,54,1.84c10.34,1.88,21.38,3.17,28.13,12.27,7.59,10.24,8,25.9,8,38.14,0,25.49,6.61,34.47,6.61,34.47L242.66,183l-43-.94h-37.3Z"/><path class="cls-6" d="M287,148.51c.47-17.47-6.14-43.91-6.14-43.91-.94-4.72-3.3-8-5.66-11.81h-1.89a2,2,0,0,1,.94,1.89,14.41,14.41,0,0,1-6.61-3.38v.08c-2.83,1.41-5.66,0-8-2.37,0,.48.48,1.42,1,1.42A9,9,0,0,1,253,87.6c0,.47.48,1.41.48,1.89a16.62,16.62,0,0,1-6.08-2.92c.43.62.88,1.17.88,1.5-2.83.47-5.66-.94-8-3.31l1,1.42a7.9,7.9,0,0,1-7.08-1.89c.47.47,1.41,1.42,1.41,1.89A14.23,14.23,0,0,1,228,83.82c0,.47.94,1.42.94,1.89a8.35,8.35,0,0,1-6.14-2.83c.47.47,1,1.41,1.42,1.88-2.83.48-5.2-.47-7.56-2.83a17.57,17.57,0,0,1,1.42,1.89,10.2,10.2,0,0,1-8-2.36,6.2,6.2,0,0,1,1.42,2.36,10.82,10.82,0,0,1-6.61-1.89,4.83,4.83,0,0,0,.47,1.42,7,7,0,0,1-6.61-1.89c0,.47.47,1.89.94,1.89-2.83,1.41-6.13.47-9-1.42.95.95,1.42,1.89,1.89,2.36-2.36,0-4.25.47-6.61-1.41,0,.47.94,1.88,1.42,1.88a8.66,8.66,0,0,1-7.56-.94c0,.47,1,1.42,1.42,1.89a6.25,6.25,0,0,1-5.67-.95L177,86.65c-1.89,0-3.31.95-6.14,0,0,.48.94.95.94,1.42a16.16,16.16,0,0,1-4.72-.47c0,.47,1.42,1.41,1,1.41-1.89,0-3.31.95-5.67,0,.47.48.94,1.42,1.42,1.89-1.89,0-3.78.48-5.67-.47a3.54,3.54,0,0,0,1,1.89c-1.89,0-3.31.94-5.67,0,0,.47.94,1.42,1.42,1.89-1.89,0-3.78.47-5.67,0,0,.47.94.94,1.42,1.42-1.89,0-3.78.47-6.14-.48,0,.95.47,1.42.47,1.89-1.42,0-2.36-.47-3.78-.47l-2.36.94c-6.61,9.45-6.14,41.09-6.14,41.09-14.64,12.75-20.3,38.72-19.83,47.69.28,5.25-.42,14-1,20.45,2.18-6,13.38-36.17,22.29-52.09,9.91-17.71,1.41-46.75,12-53.83,0,0,49.68-26.84,126.8-3.44,9.9,17.33,9.93,59.55,10.61,62.94.71,3.54,5,17.71,5,17.71l4.62,12.41c0-.44.07-.88.1-1.32C293.65,181.56,286.57,166,287,148.51Z"/><path class="cls-6" d="M135.94,200.93a21.84,21.84,0,0,1-2.36-20.78s10.86-14.64,27.86-11.8,37.3,14.16,37.3,14.16S203,199,192.6,211.32c0,0-18.89.47-20.3.94s-18.42-1.42-18.42-1.42l-9.44-4.25Z"/><path class="cls-6" d="M237,211.79s-4.25-15.11,4.72-29.28l11.33-9,12.75-4.72,9.92-.47,6.61,3.3s8.5,8,7.08,14.64-3.3,20.3-13.69,22.19-26,2.36-26,2.36Z"/><path class="cls-6" d="M201.57,248.38a73.91,73.91,0,0,0,7.32-9.91c2.36-4.25,2.13-23.14.47-24.08s-17.47,8.26-20.3,15.58-.23,20.54,8.5,27.62c0,0,.71-4.25,2.36-6.37l1.65-2.13Z"/><path class="cls-6" d="M245,246.26l-1.66,3.07a11.07,11.07,0,0,0-3.77-7.09c-3.54-3.06-7.8-14.16-6.85-28.09a82.35,82.35,0,0,0,6.14,6.85c2.12,1.88,22.19,15.34,11.1,34.23l-2.37-4.72Z"/><path class="cls-6" d="M236.57,241.72c1.23,1.24,2.54,2.15,3.45,3.88,1.88,3.59,2.36,8.56-1.34,11.18-5.41,3.85-11.92,4.11-18,1.81S213,249.82,215,243.66c2.83-8.5-.94-32.34-.94-32.34l16.76-.24s-.23,15.11,1.89,22.43c.66,2.47,1.44,5.37,3.09,7.39C236.07,241.19,236.32,241.46,236.57,241.72Z"/><path class="cls-6" d="M214.56,242.72a21.92,21.92,0,0,1,22-1l0-3a23.14,23.14,0,0,0-22.91,1.65Z"/><path class="cls-6" d="M198.27,256.18a17.36,17.36,0,0,1,3.07-7.32s4,.7,3.78,3.77-3.07,5.2-6.62,5.67Z"/><path class="cls-6" d="M246.43,248.15s5.2,6.61,2.13,12.27c0,0-4-3.3-4-6.37A12.17,12.17,0,0,1,246.43,248.15Z"/><path class="cls-6" d="M197.8,258.77c2.1,2.07,6.43-.77,9.44-.94,3.82-.22,7.36,1.76,10.86,3.3a25.53,25.53,0,0,0,12,1.66c4-.36,6.45-2.46,9.75-4.43a13.3,13.3,0,0,1,2.29-1.48c-.51,2.55,4,3.17,5.2,5.67,0,0-2.36,3.07-4,3.31a19.91,19.91,0,0,1-17,9.68c-11.81,0-26.92-9.92-26.92-9.92s-1.89-2.6-1.89-4.72Z"/><path class="cls-6" d="M110.44,241.54c-2.36-2.36-3.78-4.72-5.67-7.09V234c5.22-8.27-.62-13.63-4.7-20.57-2-3.39-2.91-7.1-4.1-10.82-2.17-6.76-6.34-18.44-14.34-9.69,0,0-2.48,22.31,1.77,33.65S94,250.27,97.57,250.63s8.5-5.31,10.63-5.31S110.44,241.54,110.44,241.54Z"/><path d="M206.3,262.14c3.54,4.78,8.49,1.24,8.49,1.24A12.89,12.89,0,0,0,206.3,262.14Zm32.22,1.06-1.41,1.06c4.6,1.07,6.2-1.41,6.2-1.41C240.12,260.55,238.52,263.2,238.52,263.2Z"/><path class="cls-6" d="M104.77,234c5.22-8.27-.62-13.63-4.7-20.57-2-3.39-2.91-7.1-4.1-10.82-2.17-6.76-6.34-18.44-14.34-9.69,0,0-.1.9-.22,2.41.86-.43,5.76-2.58,8,2.9,2.48,6,5.67,15.94-1.06,23.38,0,0,5-2.48,6.73-7.44,0,0,4.25,3.54,4.25,8.5,0,0-2.48,11.69,2.48,15.58a9.25,9.25,0,0,0,7.08,1.62c-1.52-1.8-2.69-3.6-4.13-5.4Z"/><path class="cls-6" d="M91.77,184.89a9.06,9.06,0,0,1,5.8,2.08c2.24,1.87,2.82,4.37,3,7.16a21.78,21.78,0,0,0,1,6.43,29.68,29.68,0,0,0,2.29,4.45c2,3.4,4.38,6.61,6.68,9.84a.46.46,0,0,0,.84-.23c.6-4.84,1.07-9.71,1.46-14.57.28-3.63.51-7.27.53-10.9,0-2.45-.14-4.86.08-7.31A79.23,79.23,0,0,1,118.21,162c2.8-7.62,6.73-15,12.33-21,.71-.75,2.44-1.68,2.42-2.79,0-.91,0-1.82,0-2.73q0-5.72.35-11.4a125.78,125.78,0,0,1,1.64-14.75c.72-4,1.65-8.36,3.93-11.83.08-.12-.11-.23-.2-.11-3.22,4.54-4.07,10.81-4.83,16.18a168.46,168.46,0,0,0-1.45,18.51c0,1.84-.09,3.67-.1,5.51,0,.31,0,.61,0,.92,0,0-1.44,1.18-1.6,1.34-.78.75-1.52,1.55-2.24,2.36-5.09,5.75-8.65,12.78-11.32,19.93a83.39,83.39,0,0,0-4.08,15.14,63.19,63.19,0,0,0-.68,11.41,199.63,199.63,0,0,1-1.78,24.66c-2.35-3.27-4.72-6.54-6.75-10a16.76,16.76,0,0,1-2.37-6.89c-.26-2.46-.09-5.29-1.41-7.5-4.28-7.12-13.83-4.47-18.93.09a0,0,0,1,0,0,0A16.31,16.31,0,0,1,91.77,184.89Zm53.14-87.72A.13.13,0,0,0,145,97a4.23,4.23,0,0,0-.29-1c-.36-.93,1.35-.27,1.53-.25a34.44,34.44,0,0,0,4.31,0,.16.16,0,0,0,.11-.28c-.57-.49-1.73-1.1-.27-.94a34.31,34.31,0,0,0,4.41-.18.18.18,0,0,0,.13-.31,15,15,0,0,1-1.13-1.26,6.88,6.88,0,0,1,1.33.11c1.28.15,2.64-.35,3.92-.4a.22.22,0,0,0,.14-.36c-.13-.14-1.55-1.71-.51-1.28a4.88,4.88,0,0,0,1.31.29c1.26.09,2.51,0,3.78-.07a.2.2,0,0,0,.14-.35c-.37-.44-.68-.92-1-1.38a6.76,6.76,0,0,0,2.7.16,10.69,10.69,0,0,0,2.62-.39.2.2,0,0,0,.09-.23c-.19-.5-1.37-1.1-.29-.87a19.06,19.06,0,0,0,3.77.23A.21.21,0,0,0,172,88a1.38,1.38,0,0,0-.38-.66c-.6-.73.53-.14,1-.11a40.23,40.23,0,0,0,4.38-.38.22.22,0,0,0,.19-.33l-.78-1a7.13,7.13,0,0,0,4.9.44.23.23,0,0,0,.1-.39,8.33,8.33,0,0,1-1.08-1.21,9,9,0,0,0,7.12.67.26.26,0,0,0,0-.49,2,2,0,0,1-1-1c1.93,1.15,3.81,1.08,6.12,1a.26.26,0,0,0,.19-.44c-.36-.4-.67-.82-1-1.25,2.51,1.33,5.27,1.93,8,.7.22-.1.12-.38-.06-.45a1.45,1.45,0,0,1-.65-1,7.68,7.68,0,0,0,6.32,1.52.27.27,0,0,0,.16-.4,6.65,6.65,0,0,1-.28-.69,12.14,12.14,0,0,0,6.19,1.58.28.28,0,0,0,.24-.42c-.19-.41-.36-.78-.56-1.14a10.42,10.42,0,0,0,6.93,1.55.27.27,0,0,0,.23-.41l-.08-.11A8.35,8.35,0,0,0,224.31,85c.23,0,.25-.32.13-.46l-.2-.25A8.87,8.87,0,0,0,229,86a.24.24,0,0,0,.23-.3,5.61,5.61,0,0,0-.71-1.35,16.46,16.46,0,0,0,7.09,2.08.2.2,0,0,0,.19-.25,2.33,2.33,0,0,0-.34-.71,8.91,8.91,0,0,0,5.88,1,.23.23,0,0,0,.15-.32,9.12,9.12,0,0,0,6.87,2.26.28.28,0,0,0,.27-.35,2.75,2.75,0,0,0-.2-.5,15.49,15.49,0,0,0,5,2.31.34.34,0,0,0,.41-.41,6,6,0,0,0-.25-1,9.12,9.12,0,0,0,7,2.32.35.35,0,0,0,.32-.28c2,1.51,4.32,2.33,6.8,1.21A14.38,14.38,0,0,0,274.2,95c.2,0,.46-.09.44-.33a2.58,2.58,0,0,0-1.15-2.12c-.31-.17-.58.3-.28.47a1.59,1.59,0,0,1,.7,1.21A13.85,13.85,0,0,1,270.59,93a16.85,16.85,0,0,1-1.52-1c-.39-.27-.75-.56-1.11-.85A1.28,1.28,0,0,0,266.88,90a.28.28,0,0,0-.3.13l-.08.13a.26.26,0,0,0,.05.32c.21.22.43.42.65.62a8.62,8.62,0,0,1-3.11.2,9.45,9.45,0,0,1-4.24-2.62.28.28,0,0,0-.47.27,3,3,0,0,0,.35,1,9,9,0,0,1-6.48-2.75c-.16-.17-.53-.06-.5.21a11.41,11.41,0,0,0,.33,1.43,15.15,15.15,0,0,1-3.46-1.38,14.06,14.06,0,0,1-1.71-.93c-.27-.37-.57-.74-.8-1.13a.24.24,0,0,0-.44.12,1.27,1.27,0,0,0,.64,1.11l.52.77c.37.57-2.15.12-2.08.13a10.5,10.5,0,0,1-5.28-3.13c-.2-.19-.54.06-.39.3l.48.71c.66,1,.15.46-.78.53a7,7,0,0,1-5.49-2,.19.19,0,0,0-.27.27,13.31,13.31,0,0,1,1.12,1.25c.26.34-2.15,0-2.4,0a13.26,13.26,0,0,1-4.61-2,.22.22,0,0,0-.32.25c.2,1,1.54,1.76-.35,1.46A8.07,8.07,0,0,1,223,82.69c-.24-.25-.58.11-.37.37.37.48.7,1,1.06,1.47a8.54,8.54,0,0,1-6.82-2.79.27.27,0,0,0-.39.38,13.26,13.26,0,0,1,1.12,1.47,10.49,10.49,0,0,1-7.39-2.38c-.27-.2-.55.22-.35.45A6.74,6.74,0,0,1,211,83.52a10.86,10.86,0,0,1-6-1.82c-.22-.15-.43.1-.4.3a4.44,4.44,0,0,0,.31,1.06c.28.71-.69.17-1.21.19a6.67,6.67,0,0,1-4.8-2c-.15-.13-.46,0-.43.18a3.17,3.17,0,0,0,.69,1.82c-2.9,1.1-5.82,0-8.34-1.57-.25-.16-.5.19-.31.4.56.61,1,1.29,1.54,1.93-2.19,0-4,0-5.95-1.38-.2-.15-.41.09-.37.28a3.19,3.19,0,0,0,1,1.75,8.93,8.93,0,0,1-6.8-1.07.24.24,0,0,0-.35.26,4.25,4.25,0,0,0,1.22,1.72c-.07-.06-1.81.15-2.15.14a5.67,5.67,0,0,1-3-1.17c-.18-.12-.45.13-.31.31l.61.81.55.73s0,0,0,0h0c-2,.08-3.61.6-5.65,0-.15,0-.32.11-.26.26a8.55,8.55,0,0,0,.66,1.15,15,15,0,0,1-4.18-.46.2.2,0,0,0-.25.25,1.13,1.13,0,0,0,.26.51c.23.25.91.65.37.67-1.85.08-3.24.62-5.11,0-.2-.07-.32.2-.19.34.4.48.74,1,1.1,1.51.06.09-1,.09-.8.08a9.31,9.31,0,0,1-4.35-.52c-.17-.06-.28.12-.26.26a4,4,0,0,0,.43,1.2c.29.58.48.42-.28.5-1.66.19-3,.51-4.62,0a.2.2,0,0,0-.24.23,4.23,4.23,0,0,0,1.21,1.7c-.24-.25-1.79.09-2.12.12a11.19,11.19,0,0,1-3.11-.14c-.11,0-.25.07-.2.2a1.13,1.13,0,0,0,.4.64c.32.35,1.14.56.14.61a12.57,12.57,0,0,1-5.06-.49c-.09,0-.2,0-.19.14.05.52.7,1.77,0,1.76-1.08,0-2.12-.34-3.2-.35,0,0,0,0,0,0C142.41,96.68,143.63,97.07,144.91,97.17ZM291.52,212.66a115.16,115.16,0,0,1,1.2-16.8c.46-3.87.9-7.6.27-11.46-1.45-8.85-4.32-17.35-5.35-26.3-.54-4.77-.31-9.51-.46-14.28-.14-4.22-.57-8.42-1.11-12.6-.93-7.17-2.26-14.3-3.8-21.37-.37-1.67-.75-3.34-1.16-5a31.34,31.34,0,0,0-3.93-9.22c-.6-1-1.22-1.93-1.82-2.9-.1-.15-.34,0-.24.14,2.39,3.82,4.56,7.41,5.66,11.83.33,1.35.64,2.71,1,4.07,1.55,6.94,2.85,13.94,3.83,21,.6,4.35,1.05,8.72,1.26,13.1.21,4.68-.07,9.34.36,14,.8,8.88,3.41,17.37,5.17,26.07a36,36,0,0,1,.15,11.59,148.19,148.19,0,0,0-1.38,16.83c0,10.51,2.25,20.9,1.72,31.43-.57,11.24-4.87,22.12-9.7,32.14-4.56,9.45-10.25,18.26-15.36,27.41-4.95,8.86-9.7,17.88-16,25.89s-14.23,14.23-23.93,17.5c-18.48,6.24-38.24-1.61-53.8-11.61-13.87-8.91-25.39-20.47-36.44-32.57a154.93,154.93,0,0,1-15.19-18.8c-4.28-6.47-8-13.91-8.07-21.83a.17.17,0,1,0-.33,0c.07,8.19,4,15.79,8.39,22.48,4.81,7.28,10.69,13.81,16.58,20.23,12.37,13.49,25.66,26.05,41.79,35,15.54,8.6,34,13.24,51,6,18.47-7.81,27.62-26.62,36.87-43.15,10.09-18.05,22.68-36.2,24.43-57.43C294,233.56,291.79,223.12,291.52,212.66ZM113.27,260c-7.19.56-14.43-.31-19.78-5.55C89,250.13,86.09,243.85,84,238a113.8,113.8,0,0,1-5-19.49c-1.16-6.75-1.92-13.87-.91-20.69.46-3.12,1.42-6.32,3.7-8.6a.19.19,0,0,0-.27-.27c-3.64,3.14-4.13,9-4.3,13.47A86.63,86.63,0,0,0,79.27,223a102,102,0,0,0,5.24,18.22c2.29,5.62,5.33,11.5,10,15.47,5.28,4.48,12.13,4.92,18.73,4.17C113.75,260.76,113.77,260,113.27,260Z"/><path class="cls-6" d="M110.56,241.41a42.1,42.1,0,0,1-3.79-4.72l-1.36-1.92c-.59-.82.22-1.47.64-2.28a11.25,11.25,0,0,0,.77-8.29c-.8-2.84-2.62-5.35-4.22-7.77-2-3-4.08-6.13-5.18-9.55-1.54-4.81-2.68-10.42-5.88-14.49a6.31,6.31,0,0,0-4.29-2.74c-2.28-.21-4.25,1.69-5.64,3.22,0,0,0,.09,0,.06,1.75-1.8,4.07-3.65,6.73-2.78,2.18.71,3.56,3.15,4.55,5a44,44,0,0,1,2.67,6.74c.48,1.46.92,2.93,1.39,4.39.26.81.54,1.62.83,2.43s.37,1.65.59,2.47c.74,2.68,3,5.24,4.46,7.54a21.15,21.15,0,0,1,3.25,6.93c-2.23-2.87-6.06-6.19-7.59-1.29a20.71,20.71,0,0,0-.39,8A28.14,28.14,0,0,0,100,240.6s0,0,0,0a29.76,29.76,0,0,1-1.64-14.3c.2-1.49.71-4.13,2.63-4.2,2.07-.07,3.92,2.52,5.21,4.34,0,.24.08.48.1.73a10.48,10.48,0,0,1-1,4.93c-.33.78-1.16,1.55-.91,2.45.09.37.61.78.84,1.06.61.74,1.17,1.52,1.75,2.28a42,42,0,0,0,3.26,3.79A.18.18,0,0,0,110.56,241.41Zm-13.9-35.29a23,23,0,0,1-1.59,8.72,13,13,0,0,1-6.84,6.83s0,.09,0,.07c5.83-2.32,9.63-9.44,8.58-15.64C96.81,206,96.66,206,96.66,206.12Z"/><path class="cls-8" d="M208.19,267.87c-4.54-.14-9.07-1.79-9.95-6.73-.81-4.56,1.59-9,3.43-12.93.06-.11-.09-.25-.18-.14-2.9,3.6-5,9-4.13,13.65,1,5.12,6.31,6.41,10.83,6.37C208.32,268.09,208.32,267.88,208.19,267.87Zm9.51-3.78c-4.35-2.32-10.62-3.84-14.73-.38a0,0,0,0,0,0,0c4.31-3.38,10-.65,14.58.58C217.74,264.37,217.83,264.16,217.7,264.09Zm26.48-.94a4.38,4.38,0,0,0-4.13-1.45,14.63,14.63,0,0,0,1.76-3.14c0-.11-.13-.16-.19-.07-2.55,4-5.8,6.88-10.48,8.05-4.43,1.12-9.33.19-13.47-1.54-.17-.07-.28.2-.12.28a20.61,20.61,0,0,0,13.83,2.13,14.52,14.52,0,0,0,8-4.83.35.35,0,0,0,.14,0,3.73,3.73,0,0,1,4.47.82C244.11,263.51,244.33,263.29,244.18,263.15Zm.91-17c-.08-.08-.23,0-.17.13,2,3.16,4.25,6.23,4.38,10.13.15,4.18-2.92,7.05-6.25,9.05-.18.1,0,.34.16.26,3.66-1.62,6.73-4.3,7-8.54C250.39,253.26,247.72,248.91,245.09,246.18Zm-2,3.39c0,.05.09.05.09,0,.33-3.82-1.78-5.69-4.17-8.3-3.76-4.13-5-10-5.76-15.32,0,0-.06,0-.06,0,.35,4.89,1.36,9.67,4.06,13.83C239.46,243.2,243.27,245,243.08,249.57Z"/><path class="cls-9" d="M180.44,292.42s13.81,12.75,17.35,17,16.3,9.91,30.46,8.14,18.77-8.14,20.54-11.68,7.44-12.75,10.27-15.23l-12.39-.36H221.52Z"/><path class="cls-9" d="M197.09,304.81a38.54,38.54,0,0,0,28.68,8.5c17.71-1.77,23.73-9.2,22-11.33s-12,.71-22.67,0S200.63,300.21,197.09,304.81Z"/><path class="cls-10" d="M246.67,290.29H221.52l-41.08,2.13s5.23,4.83,10.08,9.54l.19,0s12.75-2.12,23-1.77,18.42.71,23.38-1.06c4.43-1.59,11.7-.62,15.21.62,2.29-3.68,5-7.63,6.74-9.12Zm-47.46,20.19-.18.17c4.72,4,16.39,8.52,29.22,6.91,10.94-1.36,16.18-5.48,18.81-8.91-2.82,1.71-11.11,6.28-20.58,7.14C214.79,316.86,199.21,310.48,199.21,310.48Z"/><path class="cls-10" d="M265.79,285a16.37,16.37,0,0,1-9.68,2.83c-6.14,0-8.5-7.08-14.87-8s-9.92,2.59-12,3.3a10.07,10.07,0,0,1-4,.47c-11.8-4.72-20.77,0-30.22,4.25s-22.19.95-22.19.95c14.64,8.5,29.75,8,46.27,8l.47,0v0a13,13,0,0,0,14-.44l1.14,0C241.71,293.48,253,297.73,265.79,285Z"/><path class="cls-10" d="M219,296.55c-3.82-.49-7.83-.18-11.69-.25s-7.53-.26-11.28-.64a58.46,58.46,0,0,1-23.29-6.93s-.06,0,0,0a61.29,61.29,0,0,0,22.05,7.52,98,98,0,0,0,11.35.84A82.78,82.78,0,0,0,219,297,.24.24,0,0,0,219,296.55Zm17-2.21a21.46,21.46,0,0,1-7.47,3.52c-.82.19-2.6-.08-3.3.35-1.33.83-4.59-.86-5.71-1.43a0,0,0,0,0,0,0A13.84,13.84,0,0,0,227.6,299a13.45,13.45,0,0,0,8.51-4.52C236.18,294.42,236.09,294.28,236,294.34Zm29.74-9.42a42.22,42.22,0,0,1-9.7,6.71,32,32,0,0,1-8.69,2.4c-4.29.64-8.77.39-12.82,2.12-.2.08-.06.42.15.35,4.31-1.48,9.26-1,13.73-1.74A30.81,30.81,0,0,0,265.85,285C265.91,285,265.81,284.86,265.74,284.92Z"/><path d="M133.57,180.62s9-10.86,23.62-9.44S190.24,183,198.74,183c0,0-4.72-10.86-9.44-13.69C189.3,169.29,145.38,155.12,133.57,180.62Z"/><path d="M288.46,180.62s-6.5-10.86-17.11-9.44-24,11.8-30.11,11.8c0,0,3.42-10.86,6.84-13.69C248.08,169.29,279.9,155.12,288.46,180.62Z"/><path class="cls-11" d="M139.81,205c1.87-9.52,9-15.54,18.13-17.56a29.85,29.85,0,0,1,12.52-.07c6.07,1.27,10.73,5,14.74,9.66.07.09.19,0,.12-.13-3.65-4.63-8.95-8.7-14.72-10a32.35,32.35,0,0,0-12.89-.29,24.16,24.16,0,0,0-11.82,5.72,20.18,20.18,0,0,0-6.12,12.68s0,0,0,0Z"/><path d="M183.39,202.11c-1.86-1.89-7.89-10.78-19-11.73a15.45,15.45,0,0,1,.38-5.38,10.94,10.94,0,0,0-1.43,5.32,23.69,23.69,0,0,0-3.34.1,18.57,18.57,0,0,0-6,1.61,15.5,15.5,0,0,1-1.05-5.77,11.08,11.08,0,0,0,0,6.27,20.24,20.24,0,0,0-6,5,11.16,11.16,0,0,1-5.89-6.15,11.74,11.74,0,0,0,4.71,7.7,28,28,0,0,0-3.12,5.92,12.14,12.14,0,0,1-6.52-5,11.69,11.69,0,0,0,6.05,6.89c12.28,19.26,36.63,9.41,36.63,9.41L192.49,212C187.59,210.25,185.49,204.23,183.39,202.11Z"/><path class="cls-12" d="M145.62,208c7,13.7,28,10.39,39.17,6.14l7.93-2.36c-8.86-4.25-13.52-15.58-24.25-17.95-11.66-2.36-19.59,2.84-23.79,12.75Z"/><path class="cls-13" d="M177.12,204.83a13.1,13.1,0,0,0-3.66-9.08,18.79,18.79,0,0,0-5-1.91,21.75,21.75,0,0,0-12.84.87,13.12,13.12,0,0,0,5.25,22.86,37.34,37.34,0,0,0,4.76.28A13.13,13.13,0,0,0,177.12,204.83Z"/><path class="cls-13" d="M152.38,204.83a11.62,11.62,0,1,0,14.32-11.29,26.18,26.18,0,0,0-4-.25A11.61,11.61,0,0,0,152.38,204.83Z"/><path d="M170.85,204.83A6.86,6.86,0,1,1,164,198,6.86,6.86,0,0,1,170.85,204.83Z"/><path d="M168.84,204.83A4.85,4.85,0,1,1,164,200,4.84,4.84,0,0,1,168.84,204.83Z"/><path class="cls-12" d="M166.8,199.14a2.81,2.81,0,1,1-2.8-2.81A2.8,2.8,0,0,1,166.8,199.14Z"/><path d="M192.75,211.75c-9-5.05-14-16.43-24.67-18.5a21.35,21.35,0,0,0-14.54,1.95c-4.41,2.45-7,6.83-8.91,11.36,0,.08.08.14.11.07A22.66,22.66,0,0,1,154,196c4.57-2.64,10.26-2.71,15.26-1.46,9.93,2.48,14.37,13.34,23.42,17.26C192.75,211.86,192.8,211.78,192.75,211.75Zm-28.63,6.06a.31.31,0,0,0-.32-.23.3.3,0,0,0-.3.21c-7.37-.39-14.17-3-17.86-9.79,0,0-.06,0,0,0,3.57,7,10.44,9.71,17.91,10a.31.31,0,0,0,.3.22.33.33,0,0,0,.31-.2,56.55,56.55,0,0,0,20.69-3.91s0,0,0,0A56.55,56.55,0,0,1,164.12,217.81Z"/><path class="cls-11" d="M282.22,205c-1.57-9.52-7.57-15.54-15.23-17.56a21.14,21.14,0,0,0-10.51-.07c-5.09,1.27-9,5-12.37,9.66-.07.09-.17,0-.11-.13,3.07-4.63,7.52-8.7,12.37-10a22.89,22.89,0,0,1,10.82-.29,19.13,19.13,0,0,1,9.92,5.72c3,3.21,4.66,7.93,5.14,12.68a0,0,0,1,1,0,0Z"/><path d="M245.62,202.11c1.57-1.89,6.63-10.78,16-11.73a18.09,18.09,0,0,0-.32-5.38,12.6,12.6,0,0,1,1.2,5.32,16.8,16.8,0,0,1,2.81.1,13.68,13.68,0,0,1,5,1.61,18,18,0,0,0,.88-5.77,13.22,13.22,0,0,1,0,6.27,18,18,0,0,1,5,5,10.75,10.75,0,0,0,4.94-6.14,12.17,12.17,0,0,1-3.95,7.69A30.07,30.07,0,0,1,279.8,205c3.6-1.22,5.47-5,5.47-5a11.21,11.21,0,0,1-5.08,6.89c-10.31,19.26-30.75,9.41-30.75,9.41L238,212C242.1,210.25,243.86,204.23,245.62,202.11Z"/><path class="cls-12" d="M277.34,208c-5.87,13.7-23.49,10.39-32.89,6.14l-6.66-2.36c7.44-4.25,11.36-15.58,20.36-17.95,9.79-2.36,16.45,2.84,20,12.75Z"/><path class="cls-13" d="M270.52,204.83A13.24,13.24,0,0,0,264,193.34a18.48,18.48,0,0,0-5.89.5c-5.47,1.44-9.06,6.18-12.7,10.64,0,.12,0,.23,0,.35a13.13,13.13,0,0,0,8,12.23,36.62,36.62,0,0,0,6.2.77A12.94,12.94,0,0,0,270.52,204.83Z"/><path class="cls-13" d="M258,216.45a11.37,11.37,0,0,0,11.1-11.62,11.49,11.49,0,0,0-8.85-11.37,20.67,20.67,0,0,0-2.07.38c-4.64,1.22-7.93,4.82-11,8.6a12.5,12.5,0,0,0-.24,2.39A11.37,11.37,0,0,0,258,216.45Z"/><path d="M264.52,204.83A6.56,6.56,0,1,1,258,198,6.71,6.71,0,0,1,264.52,204.83Z"/><path d="M262.6,204.83A4.63,4.63,0,1,1,258,200,4.73,4.73,0,0,1,262.6,204.83Z"/><path class="cls-12" d="M260.65,199.14a2.68,2.68,0,1,1-2.68-2.81A2.75,2.75,0,0,1,260.65,199.14Z"/><path d="M237.77,211.75c7.57-5.05,11.72-16.43,20.71-18.5a15.4,15.4,0,0,1,12.21,1.95c3.7,2.45,5.86,6.83,7.48,11.36,0,.08-.06.14-.09.07a21.94,21.94,0,0,0-7.79-10.6c-3.85-2.64-8.62-2.71-12.82-1.46-8.34,2.48-12.06,13.34-19.66,17.26C237.76,211.86,237.72,211.78,237.77,211.75Zm24,6.06a.27.27,0,0,1,.53,0c6.18-.39,11.89-3,15-9.79,0,0,0,0,0,0-3,7-8.76,9.71-15,10a.28.28,0,0,1-.26.22.27.27,0,0,1-.25-.2c-6.07.2-12.55-1.71-17.38-3.91,0,0,0,0,0,0C249.32,216.27,255.76,218.08,261.8,217.81Z"/><path class="cls-6" d="M103.24,256.88l.94.24s1.54-2.83,1.54-3.89l-1.3-.12A7.71,7.71,0,0,0,103.24,256.88Z"/><path class="cls-3" d="M108.15,254.59a22.31,22.31,0,0,0-3.51-.5,2.81,2.81,0,0,1,0,.41,5.25,5.25,0,0,1-.41,1.45c-.11.24-.19.39-.19.39,16.65,0,24.65,19.21,24.82,32.18-.2,15.35-9.12,31.85-25.28,32.18h-.44c-16.65,0-24.65-19.21-24.82-32.19-.16-12.74,6.54-26.45,18-30.79l-.37-.28a15.86,15.86,0,0,1-1.2-1.1c-.14-.13-.24-.25-.31-.32-8.24,3.81-14.2,12.48-16.71,20.68-4.75,15.52.46,33.12,12.4,41.84a21.48,21.48,0,0,0,12.87,4.3c8.22,0,16.56-4.78,21.79-12.47,5-7.4,6.18-16,6.26-21.86C130.9,274.64,123.65,258.11,108.15,254.59Z"/></g></g></svg>