<svg xmlns="http://www.w3.org/2000/svg" xmlns:xlink="http://www.w3.org/1999/xlink" viewBox="0 0 380.54 380.54"><defs><style>.cls-1{fill:#f52e61;}.cls-2{fill:#f4a183;}.cls-3{fill:#f6ae94;}.cls-4{fill:#cb6d50;}.cls-5{fill:#e88665;}.cls-6{fill:#742e2c;}.cls-7{fill:#f9566e;}.cls-8{fill:url(#linear-gradient);}.cls-9{fill:#ea1445;}.cls-10{fill:#fff;}.cls-11{fill:#0bbbd1;}.cls-12{fill:#ffd140;}</style><linearGradient id="linear-gradient" x1="168.58" y1="274.57" x2="168.58" y2="280.36" gradientUnits="userSpaceOnUse"><stop offset="0" stop-color="#fb7b86"/><stop offset="1" stop-color="#ffbbc6"/></linearGradient></defs><g id="Capa_2" data-name="Capa 2"><g id="Avatar_14"><circle class="cls-1" cx="190.27" cy="190.27" r="190.27" transform="translate(-78.81 190.27) rotate(-45)"/><path class="cls-2" d="M250,339.14l-.63-1-.35-.56-.55-.91-.38-.62-.6-1-.33-.56c-.32-.54-.64-1.08-1-1.65-6.19-10.74-7.76-34.47-8.1-50h0c0-1.58-.05-3.07-.07-4.46v-1.41s0-.05,0-.07v-2.61c0-.31,0-.61,0-.9v-.91c0-.13,0-.27,0-.4v-.44c0-.21,0-.41,0-.6v-.36c0-.12,0-.24,0-.35a2.53,2.53,0,0,1,0-.28v-.39c0-.13,0-.25,0-.35V269a1.48,1.48,0,0,0,0-.21v-.16c0-.1,0-.19,0-.27v-.1s0-.07,0-.1v-.1l-59.66,31.35c.11,1.16.22,2.3.31,3.42,0,.38,0,.74.08,1.12l.15,2.2.06,1.27c0,.65.06,1.29.08,1.93,0,.43,0,.86,0,1.29l0,1.82v1.26c0,.59,0,1.17,0,1.75,0,.4,0,.8,0,1.19,0,.61,0,1.2-.07,1.79,0,.35,0,.7,0,1,0,.76-.09,1.49-.15,2.22,0,.17,0,.34,0,.5-.07.88-.16,1.73-.26,2.57,0,.32-.07.62-.11.93l-.21,1.59c-.06.34-.11.68-.17,1s-.15.95-.23,1.41-.13.68-.19,1l-.27,1.31c-.08.33-.15.66-.22,1s-.21.85-.31,1.28l-.24.91c-.11.44-.24.88-.37,1.31-.08.26-.15.53-.23.78-.17.55-.35,1.09-.53,1.63l-.12.38c-4.36,12.49-12,19.75-20.2,24.29-4.34,2.4-10,6-15.94,10a190.88,190.88,0,0,0,136.21-13.19C262.69,354.71,257.16,350.37,250,339.14Z"/><path class="cls-3" d="M284.4,173.58c-1-.72-4.79-1.78-5.83-2.05,2.53-19.72,8.82-56.42-18.45-85.51-30.68-32.73-72.61-32.73-95.63-27.1s-50.11,28.63-55.74,53.69-2.09,32.62-4.62,40.71-7.08,19.22-1,31.35a119.52,119.52,0,0,1,3,25.79c0,13.65,8.09,32.86,23.26,52.08s24.34,39.29,42,40.95c26.8,2.53,64.89-21.61,77.87-49.5a147.38,147.38,0,0,0,8.6-25.39c4.25.78,7.67-2,10.63-6.49,3.8-5.68,8.73-9.48,12.52-14.79C286.68,199.36,292.74,179.64,284.4,173.58Z"/><path class="cls-3" d="M115.92,111.36a43.22,43.22,0,0,1,13-19.24c11.67-9.75,28.49-14.27,43.52-13.29,7.93.52,17.49,2.5,24.58,6.27,13,6.9,20.28,14.29,22.57,29.17,1,6.27.94,12.67,2.1,18.91.21,1.13,5.25,15.72,7.4,13.85,0,0-8.73,7.59-9.86,7.59s-113,4.17-113,4.17l-2.65-1.52s7.59-10.62,8-19C111.9,129.2,112.93,119.85,115.92,111.36Z"/><path class="cls-3" d="M146.35,236s.25,2.78,4.29,3.29a7.38,7.38,0,0,0,8.35-4.8c1.51-3.54,4.55-22.25,3.54-42.73l-15.17.25s2.78,21.24,2.27,28.07S146.35,236,146.35,236Z"/><path class="cls-3" d="M147.27,232a8,8,0,0,1,4-1.51c2,0,9.44,2.86,9.44,2.86l1-2s-7.75-3-10.45-3a5.25,5.25,0,0,0-2.87,1Z"/><path class="cls-3" d="M194.53,207.89a8.91,8.91,0,1,1-8.91-8.91A8.91,8.91,0,0,1,194.53,207.89Z"/><path class="cls-3" d="M148.24,207.34c.38,4.59-2.31,8.56-6,8.87s-7-3.17-7.4-7.76,2.31-8.56,6-8.87S147.86,202.74,148.24,207.34Z"/><path class="cls-3" d="M252.76,239.18c-9.2,16-26.13,23.64-37.79,16.94S201.3,231,210.51,215,236.64,191.32,248.3,198,262,223.14,252.76,239.18Z"/><path class="cls-3" d="M135,223.43c-5.27-15.73-18.44-26.7-29.49-24.61a110,110,0,0,1,.66,11.64c0,12.12,6.38,28.62,18.42,45.61C135.6,253.79,140.26,239.2,135,223.43Z"/><path class="cls-3" d="M107.31,185.71s-3.79-26.92,5.69-31.09,21.24.75,21.24.75l6.44,8,.76,2.65s3.79,16.69,2.66,43.61l-11-8.72s-9.1-9.1-11-9.48-9.48-.38-9.48-.38Z"/><path class="cls-3" d="M182.39,207.7s-7.58-39.43,1.52-51.57,23.89-11,23.89-11l15.93,1.51s14.79,4.17,17.82,7.59c0,0,0,22-9.86,42.09Z"/><path class="cls-3" d="M145.42,238.6c-.2.88,2.79,2.68,3.36,2.93,4,1.72,8.53-.42,12.31-1.75,3.38-1.18,8.77,1.86,9.27,3.71,0,0,.17,2.19-1.18,2.53s-21.4.17-21.4.17l-2.19-1.35-.84-3.2S145.42,238.61,145.42,238.6Z"/><path class="cls-3" d="M145.08,241.05s1.27,3.54,6.58,3.29,8.59-2.79,10.36-3.29,8.09,1.26,7.84,3.29l-.51,2s-3,13.4-9.1,13.65-5.05-8.6-9.35-10.62C150.9,249.39,145.08,245.85,145.08,241.05Z"/><path class="cls-3" d="M164.55,287.31s8.09.51,10.36,0c0,0-1.26,4.3-3.79,4.05S164.55,287.31,164.55,287.31Z"/><path class="cls-3" d="M141.54,263.8,140,267.34S136.74,263.8,141.54,263.8Z"/><path class="cls-3" d="M212.08,262.28l2.78,4.3S218.15,262.79,212.08,262.28Z"/><path class="cls-4" d="M202.87,165.61s11-4.93,25.79,2.66C228.66,168.27,214.63,155.37,202.87,165.61Z"/><path class="cls-4" d="M133.59,169.31s-8.42-4-18.84,3.77C114.75,173.08,124.27,160.4,133.59,169.31Z"/><path class="cls-5" d="M280.72,176.33l-2.11,2c-2.25,1.36-7.12,8.48-7.12,8.48l-2.82,4.38-.09-.08c-1.51,1.39-4.55,8.47-4.55,8.47l.16.49-.16.14a5.69,5.69,0,0,1,.4.6l.57,1.79a7.85,7.85,0,0,1-1.47,4.94s4.29-1.52,5.18-4.55a5.3,5.3,0,0,0-1.5-5,26.19,26.19,0,0,1,1.25-2.67,2.59,2.59,0,0,1,3-1.39l-1.07-1,.44.14c-.63-1.26,2.4-4.29,2.4-4.29l-.07-.08c1.15.9,2.47,1.72,2.47,1.72s-1.26-3.41,0-5.44c.93-1.48,3.42-3,4.68-3.65a27.36,27.36,0,0,1,4,5.42S282.49,178.22,280.72,176.33Zm-9.1,25.91.75-4.3S270.61,199,271.62,202.24Zm2.9,2.78c2.66-5.05,1.39-8.47,1.39-8.47A48.34,48.34,0,0,0,274.52,205Zm7.34-15.29c1.26,3.41-1.27,13.14-1.27,13.14,4-7,3.41-12.38,3.41-12.38Z"/><path class="cls-3" d="M149.8,246.69s4.89,3,7.08,2.87a5,5,0,0,0,4.05-3.37S154.18,247.88,149.8,246.69Z"/><path class="cls-4" d="M288.38,180.23a11.63,11.63,0,0,0-3.2-6.42,9.56,9.56,0,0,0-10-1.81,12.47,12.47,0,0,0-4.49,2.94,8.51,8.51,0,0,0-1.3,2.14c-.49.86-.91,1.75-1.36,2.63-1.94,3.88-3.69,7.9-6.43,11.3,0,0,0,0,0,0a44.54,44.54,0,0,0,5-8.07c.71-1.38,1.42-2.77,2.22-4.11a11.75,11.75,0,0,1,2.93-3.73c2.85-2,5.72-3.29,9.28-2.62a8.4,8.4,0,0,1,6,4.7c2.16,4.55,1.31,10.29.2,15a51,51,0,0,1-5.73,14.06c-3.26,5.53-8.56,9.56-12.37,14.68-1.85,2.48-3.5,5.07-6.27,6.62s-6,.88-8.7-.68a.2.2,0,0,0-.2.34,9.06,9.06,0,0,0,7.35,1.44c2.55-.69,4.56-2.79,6.12-4.8,1-1.24,1.78-2.6,2.73-3.86,1.2-1.6,2.55-3.09,3.91-4.57,2.3-2.5,4.75-4.94,6.8-7.66A41.39,41.39,0,0,0,287,194.81C288.37,190.17,289.22,185.06,288.38,180.23ZM261.26,213s0,0,0,0c.3-2.74,2-4.74,3.31-7a6,6,0,0,0,.15-6.11c-.29-.58-1.18-.06-.87.52a6.15,6.15,0,0,1-.35,6.8A12.32,12.32,0,0,0,261.26,213ZM281,177c.45-.36-.15-1.14-.6-.8a33,33,0,0,0-4.36,4.32,59.67,59.67,0,0,0-4.35,5.55,73.75,73.75,0,0,0-7.47,12.87c-.08.17.16.32.25.15,1.23-2.34,2.46-4.65,3.78-6.92a.28.28,0,0,0,.26.29c3.27.21,4.44,3.75,3.77,6.55,0,0,0,0,.05,0,1-2.76-.38-7-3.82-7.11a.21.21,0,0,0-.12,0c1-1.64,2-3.25,3-4.82a4.49,4.49,0,0,0,2.28,2.59,11.7,11.7,0,0,1,1.9,1.2c.7.64.64,1.87.59,2.73-.2,3.86-1.9,7.52-1.63,11.44h0c-.24-4,1.6-7.79,1.88-11.76.09-1.37.13-2.68-1-3.59s-3.07-1.49-3.73-2.94v0a54.44,54.44,0,0,1,4.49-5.55A41.85,41.85,0,0,1,281,177Z"/><path class="cls-4" d="M149,217.57a22.75,22.75,0,0,1-1,12.17c-1.07,3.21-2.9,6.19-3.62,9.5a8.1,8.1,0,0,0,2,7.51,13.07,13.07,0,0,0,5.13,3.22,22.63,22.63,0,0,0,3.81.88,10.85,10.85,0,0,0,3.67.3.22.22,0,0,0,0-.43c-1.16-.21-2.34-.23-3.5-.47a16.59,16.59,0,0,1-3.88-1.59,14.36,14.36,0,0,1-4.75-3.47c-1.85-2.23-1.43-5.14-.83-7.74.73-3.17,2-6.19,2.8-9.34a21.3,21.3,0,0,0,.25-10.55Z"/><path class="cls-4" d="M163.17,247.87c-.63-1.55.54-1.89,1.84-2a9.66,9.66,0,0,1,3.71.2c.12,0,.17-.15.05-.19-1.57-.51-3.23-1.14-4.88-.66-1.37.39-1.52,1.59-.93,2.71.06.11.26,0,.21-.09Z"/><path class="cls-4" d="M168.39,247.56c2-1.36,2.6-4.2,2.37-6.49a.12.12,0,0,0-.24,0c-.29,2.52-.37,4.47-2.19,6.41,0,.05,0,.12.06.08Z"/><path class="cls-6" d="M163.16,246.8s-.19-1.26,3.54-.88C166.7,245.92,164.8,247.37,163.16,246.8Z"/><path class="cls-3" d="M144.41,265.74s5.11-4.39,8.82-5.07c2.36-.43,4.23,1.64,6.48,1.88,2.64.29,4.9-1.27,7.52-1.38,3.87-.17,5.89.38,13.65,1.9s26.39,1.66,28.08,1.49c0,0-10.79,6.07-13.82,6.07s-23.6,2-24.44,2.19-10.62-.51-12.47-.51Z"/><path class="cls-7" d="M144.05,265.65a55.3,55.3,0,0,0,4.3,6.2c2.26,2.72,2.11,7.24,4.08,9.17,2.26,2.23,15.39,4.71,23.08,1.24s30.86-19.75,30.86-19.75-2.69.77-5.58,1.4c-2.06.45-4.18,1.24-6.72,1.24-6.11,0-31.69.5-32.36.74s-12.23-.24-12.91-.24Z"/><path class="cls-8" d="M150.77,273.09s-.31,5.78,5.13,7.27,12.22.66,12.22.66l6.64-.82,2.41-.67s7.55-3.63,9.06-6.77-7.1-2.81-7.1-2.81-5.24-.37-5.58,0-20.52.49-20.52.49Z"/><path class="cls-7" d="M150.77,273.09s-.31,5.78,5.13,7.27,12.22.66,12.22.66l6.64-.82,2.41-.67s7.55-3.63,9.06-6.77-7.1-2.81-7.1-2.81-5.24-.37-5.58,0-20.52.49-20.52.49Z"/><path class="cls-7" d="M200.79,263.91c-2.06.45-4.18,1.24-6.72,1.24-6.11,0-31.69.5-32.36.74s-12.23-.24-12.91-.24h-4.75a55.3,55.3,0,0,0,4.3,6.2,9,9,0,0,1,1.44,2.61l.15.11s.22-2,8.37-2,28.52-.5,29,2.48c0,.09,0,.18.05.27,9-5.8,19-12.83,19-12.83S203.68,263.28,200.79,263.91Zm-48.36,14.38a10.5,10.5,0,0,0,8.14,4c5.66.25,14.26-1.24,17-2.73C177.55,279.53,158.54,281.52,152.43,278.29Z"/><path class="cls-7" d="M145.52,266.64l3.06,3.72a29.32,29.32,0,0,1,4.41.12c2.38.25,1.59,1.74,7,1.74s5.77-.75,8.6-1.12,22.07-2.35,23.08-1.73l1,.62s7.36-3.72,9.4-5.71c0,0-8.72,2.48-10.3,3.1s-22,2.73-25.58,2.48l-3.39.62s-6.45,1.86-8.38-2C154.46,268.5,152.43,269.37,145.52,266.64Z"/><path class="cls-9" d="M206.42,262.44h0l-5.06.72a84.72,84.72,0,0,1-18.34.74c-6.79-.5-14.71-2.73-18.56-2a13.87,13.87,0,0,0-6.11,2.73s-4.07-3.48-5.88-3.48-4.76,1.49-6.8,2.73c-1.88,1.15-4.63-.45-5-.69l-.05,0s0,0,0,0a19.24,19.24,0,0,0,1.67,1.37l.11.08c.24.18.49.35.74.51a22.07,22.07,0,0,0,7,3c1.08.32,2.17.61,3.29.89.07,0,.81,0,.87.14a3.17,3.17,0,0,0,.78,1,5.44,5.44,0,0,0,2.52,1.1,8.07,8.07,0,0,0,2.94,0,7.76,7.76,0,0,0,2.87-.61.11.11,0,0,0,0-.13l2.93-.71a0,0,0,0,0,0,0,110,110,0,0,0,19.76-1.42,87.31,87.31,0,0,0,10.44-2.21c1.64-.46,3.27-1,4.87-1.57s3.32-1.5,5-2.26C206.44,262.45,206.44,262.43,206.42,262.44Z"/><path d="M179.07,163.58a111.64,111.64,0,0,0,13.48-7.94A36.16,36.16,0,0,1,206.86,149c7.27-1.47,18.43-2.19,34.39,4.86,1,0,2.1,0,3.16,0a107.58,107.58,0,0,0-22.34-9.3c-13.17-3.78-25.17-1.87-34.31,3.05C178.37,152.65,175,160.71,179.07,163.58Z"/><path d="M184.33,160.44c-2.15,1.25-3.89,2.17-4.7,2.59a3.92,3.92,0,0,1-1.13-3.51c.35-3.35,4-8,9.85-11.19a39.85,39.85,0,0,1,7-2.93,44.82,44.82,0,0,1,26.58.26,100,100,0,0,1,19.79,8.56h-.53c-12-6-22.86-7-31-6.05a34.79,34.79,0,0,0-16.91,6.49c-.37.25-.72.51-1.08.76a90.48,90.48,0,0,1-7.89,5Z"/><path d="M141.77,166.55a24.9,24.9,0,0,1-8.22-5.42c-2.1-2-4.18-4.15-8.3-5.4-4-1.11-10.24-1.37-18.58,4.36q-1-.32-2-.57a66,66,0,0,1,12-8.23,18.28,18.28,0,0,1,18.55,1C140.89,155.82,143.71,162.43,141.77,166.55Z"/><path d="M138.42,164.38a22.37,22.37,0,0,0,2.88,1.5,7.71,7.71,0,0,0,.21-3.95c-.56-3.17-3.1-6.83-6.64-9a20.65,20.65,0,0,0-4-1.95,16.73,16.73,0,0,0-14.08,1.26,58.22,58.22,0,0,0-10.39,7.62l.35.09c6.28-4.77,12.23-5.77,16.64-5.08A17.22,17.22,0,0,1,133,160l.65.63a26.22,26.22,0,0,0,4.79,3.72Z"/><path d="M207,207.7l7.21,3.8s10.24-5.31,17.06-8.35l.76-9.1-24.65,12.14Z"/><path d="M230.79,181.86s9.38-5.58,12.23-13.26c0,0-.72,9.92-12.1,17.67Z"/><path d="M233.57,184.17a17.73,17.73,0,0,0,5.05-6.83s-10.11-8.6-28.06-6.83-24,22.25-27.3,35.14l17.44-6.06Z"/><path d="M185.08,203.68c1.69-6.32,3.92-13.25,7.45-19.12,4.73-7.87,10.67-12.05,18.15-12.79,1.58-.15,3.16-.23,4.7-.23,11.81,0,19.4,4.61,21.69,6.22a17.21,17.21,0,0,1-4.18,5.33l-32.67,15.33-15.14,5.26Z"/><path class="cls-10" d="M208.94,176.61c-14.41,1.9-22.75,19-26.55,31.47a43.31,43.31,0,0,1,7.84-1.13,82.89,82.89,0,0,0,17.27,2.23l.3,0c5.31.76,4.55,0,4.55,0,5.69-1.52,11.38-3.41,15.55-7.58a25.25,25.25,0,0,0,5.31-15.55v-2.65A33.5,33.5,0,0,0,208.94,176.61Z"/><path class="cls-11" d="M229,190.44A20.4,20.4,0,0,0,225.54,179a32.46,32.46,0,0,0-16.6-2.39c-6.51.86-11.79,4.81-16,10a20.44,20.44,0,0,0-.35,3.78c0,8.75,5.35,16.15,12.73,18.64.76,0,1.47.08,2.14.1l.3,0c5.31.76,4.55,0,4.55,0a50.09,50.09,0,0,0,9.76-3.48A20,20,0,0,0,229,190.44Z"/><path class="cls-11" d="M210.81,207.42c8.73,0,15.8-7.6,15.8-17a17.45,17.45,0,0,0-5.64-13,31.76,31.76,0,0,0-12-.83,22.28,22.28,0,0,0-12.09,5.9,17.89,17.89,0,0,0-1.83,7.93C195,199.82,202.09,207.42,210.81,207.42Z"/><path d="M222,190.44c0,6.63-5,12-11.17,12s-11.17-5.38-11.17-12,5-12,11.17-12S222,183.81,222,190.44Z"/><path d="M220.52,190.44c0,5.76-4.35,10.43-9.71,10.43s-9.7-4.67-9.7-10.43,4.34-10.43,9.7-10.43S220.52,184.68,220.52,190.44Z"/><path d="M220.52,190.44c0,5.76-4.35,10.43-9.71,10.43s-9.7-4.67-9.7-10.43,4.34-10.43,9.7-10.43S220.52,184.68,220.52,190.44Z"/><path class="cls-10" d="M206.6,180.93a4.23,4.23,0,1,0,8.43,0,4.43,4.43,0,0,0-3.86-4.52l-1.27.1A4.46,4.46,0,0,0,206.6,180.93Z"/><path d="M233.28,183.36c-9-8.21-24.09-10.68-34.26-3.33a36.27,36.27,0,0,0-10.24,12.33,75.16,75.16,0,0,0-6.17,14.86l-.24.86s0,0,0,0c3.27-9.82,8-20.07,16.41-26.51a23.17,23.17,0,0,1,15.77-4.48c6.69.36,12.92,3,18.55,6.43C233.26,183.59,233.37,183.44,233.28,183.36Zm-5.41,18.25a30,30,0,0,1-7.26,4.66c-2.67,1.22-5.5,2-8.26,2.93,0,0,0,.05,0,0,5.52-1.06,11.72-3.29,15.57-7.58C228,201.63,227.91,201.58,227.87,201.61Z"/><path d="M119.07,202v3.79s5.69,3,11.38,6.82l5.68-4.17Z"/><path d="M117,194s-9.45-4.27-13.5-12.11c0,0,9.46,8.82,14.76,9.83Z"/><path d="M116.51,193s-2.52-.5-5.56-3.79c0,0,.14-11.15,9.86-14.91,7.84-3,14.14,3.11,17.43,9.69a40.93,40.93,0,0,1,3.32,11.85c.3,1.78.33,10.22,1.75,11.32,0,0-9.1-7.08-10.11-7.33S116.51,193,116.51,193Z"/><path d="M141,203.77c-6.43-4.9-7.18-5.09-7.45-5.16-.84-.24-10.57-4.27-16.51-6.76l-.1,0-.12,0a10.55,10.55,0,0,1-4.54-3c.16-2.12,1.25-10.25,9-13.25a9.9,9.9,0,0,1,3.63-.72c6.78,0,11.06,7.5,12.21,9.8,1.79,3.57,2.54,7.47,3.21,11.49.07.42.13,1.42.2,2.49.13,2.12.27,3.84.44,5.22Z"/><path class="cls-10" d="M116,193.29l.38,1.52a28.81,28.81,0,0,0,4.55,9.1c2.51,3.25,4.43,4.42,8,6.07,4.66,2.17,10.95-3.25,14.79-.38-1.14-8-1.52-16.31-6.45-23.89C130.94,176,117.55,175.85,116,193.29Z"/><path class="cls-11" d="M125.69,179.17c-2.38,3.34-3.75,8.32-3.45,13.8.53,9.63,6,17.16,12.24,16.81,3.51-.19,6.5-2.83,8.36-6.82-.81-5.86-2-11.75-5.57-17.25C134.31,181.16,129.8,178.71,125.69,179.17Z"/><path class="cls-11" d="M123.72,192.89c.46,8.36,5.22,14.91,10.64,14.61,3.55-.2,6.5-3.29,8-7.76a36.31,36.31,0,0,0-5.07-14,13.88,13.88,0,0,0-9.1-6.48C125.22,182,123.4,187.1,123.72,192.89Z"/><path d="M132.93,181.63c-3.83.21-6.67,5.18-6.34,11.1s3.69,10.54,7.52,10.33,6.57-5,6.36-10.8a30.71,30.71,0,0,0-3.2-6.55,16.38,16.38,0,0,0-3.71-4.06A4.42,4.42,0,0,0,132.93,181.63Z"/><path d="M139.55,192c.28,5.14-2.19,9.45-5.52,9.64s-6.25-3.84-6.53-9,2.18-9.46,5.51-9.64S139.26,186.88,139.55,192Z"/><path d="M139.55,192c.28,5.14-2.19,9.45-5.52,9.64s-6.25-3.84-6.53-9,2.18-9.46,5.51-9.64S139.26,186.88,139.55,192Z"/><path class="cls-10" d="M130.44,184c.12,2.23,1.39,4,2.84,3.9s2.52-2,2.39-4.19a.45.45,0,0,0,0-.11,14.52,14.52,0,0,0-4.07-3.21A4.68,4.68,0,0,0,130.44,184Z"/><path d="M142.47,199.56a44.26,44.26,0,0,0-2.83-10c-1.75-4.08-4.54-8.44-8.85-10.18a9.59,9.59,0,0,0-9.58,1.06c-3.69,2.91-4.88,8-5.17,12.44,0,.13,0,.26,0,.39s0,0,0,0c.55-4.42,1.94-9.33,5.75-12.06a9,9,0,0,1,9.17-.54c4.21,1.93,6.82,5.79,8.63,9.93a41.27,41.27,0,0,1,2.64,9.44c.55,3.16.66,6.44,1.38,9.56,0,.11.2.09.19,0A84.92,84.92,0,0,0,142.47,199.56ZM129,209.9c-1.38-.83-2.84-1.54-4.18-2.44a20.1,20.1,0,0,1-3.79-3.58s-.1,0-.07.05a16.17,16.17,0,0,0,8,6.14A.09.09,0,0,0,129,209.9Z"/><path class="cls-12" d="M305.14,177.91c0-.14.1-.3.15-.45l.14-.44c.06-.17.11-.34.16-.51l.15-.48c.05-.19.11-.38.16-.57l.15-.52c.06-.2.11-.42.17-.63l.15-.55c.05-.22.11-.46.17-.7s.09-.37.14-.56l.18-.78c.05-.19.09-.37.13-.56l.06-.25h0c5.73-25.78,9.91-93.24-42.92-121-60.68-31.86-132.47,2.53-132.47,2.53-73.7,36.4-79.18,72-79.42,80.17-.16.41-.32.82-.47,1.23l.46-.44a8.8,8.8,0,0,0,0,.95A13.19,13.19,0,0,1,53,132.5l.32-.65c.09-.17.19-.33.29-.5s.25-.45.39-.68l.33-.51.46-.7c.12-.17.25-.34.37-.52l.52-.71c.13-.18.27-.35.4-.52l.59-.75.42-.5.64-.77.43-.48c.24-.27.47-.54.72-.81l.38-.42c.28-.29.54-.58.82-.88l.18-.18c1.05-1.1,2.16-2.2,3.31-3.28l.38-.37.86-.8.51-.48.82-.74.58-.52.79-.7.62-.54.78-.67.63-.55.76-.64.64-.54.74-.62.64-.53.73-.59.62-.51.7-.57.62-.49.66-.52.62-.49.62-.49.6-.46.58-.45.57-.44.55-.41.54-.42.49-.36.5-.38.45-.34.47-.34.38-.29.41-.29.35-.26c.11-.09.22-.16.33-.24l.29-.22.31-.21.2-.15.23-.16.14-.11.12-.08.19-.14-.47.47h0c-24.4,24-31.39,41.08-30.38,52.63.68,7.85,1.82,16.85,2.5,21.87h0c.25,1.92.44,3.24.5,3.71,0,0,0,.08,0,.11v.09c.06-.72.13-1.43.22-2.14,0-.24.06-.47.09-.71.05-.47.11-.93.18-1.39l.12-.85c.07-.41.13-.82.2-1.23s.1-.59.16-.88L58,173l.18-.88.24-1.12c.06-.3.13-.59.2-.88s.17-.73.26-1.1l.21-.86c.1-.36.19-.72.29-1.07s.15-.56.22-.84.2-.71.31-1.06l.23-.8.33-1.05.24-.76c.12-.36.23-.71.35-1.06l.24-.71.39-1.09c.07-.21.14-.42.22-.62.15-.41.3-.82.46-1.22,0-.15.1-.3.16-.44q.63-1.65,1.29-3.18c0-.11.09-.22.14-.33l.51-1.16c.06-.15.13-.29.2-.44.14-.34.29-.67.44-1,.08-.16.15-.32.22-.47s.28-.61.43-.9.15-.31.22-.47.27-.56.41-.83l.22-.45c.14-.26.27-.53.4-.79l.21-.4.4-.77.2-.36.39-.74.17-.31.41-.72.14-.25.42-.74a.64.64,0,0,0,.08-.14l.47-.8h0c1.26-2.12,2.08-3.29,2.08-3.29q-.78,2.38-1.45,4.7v0c-.36,1.21-.69,2.41-1,3.59l-.27,1c-.31,1.18-.61,2.36-.88,3.52l-.15.65c-.14.59-.28,1.19-.41,1.77l.1-.38c-7.05,31.74-.49,51.8,2.1,58h0c.06.12.1.23.16.35a1.6,1.6,0,0,0,.1.23c.16.38.3.68.41.91a.54.54,0,0,1,0,.11,2.39,2.39,0,0,0,.13.24l0,.09,0,.07,0,0c-2-17.19,11.12-60.67,11.12-60.67-.22.93-.42,1.85-.6,2.75,0,.07,0,.13,0,.2-.18.89-.34,1.77-.47,2.64v0q-.21,1.33-.36,2.64s0,.05,0,.08c-2.37,20.44,5.54,35.63,5.54,78.13,0,48-33.88,49-33.88,49a36.09,36.09,0,0,0,10.4.84h.05c16.8-1,33.26-12.1,40.63-17.77h0l.9-.7,0,0c.85-.67,1.55-1.24,2.06-1.67h0l.44-.37,0,0,.3-.26,0,0,.17-.15,0,0,0,0c1,10.62-8.59,21.24-8.59,21.24.75,0,1.5,0,2.23-.06h0l.41,0a51.31,51.31,0,0,0,5.37-.57l.09,0c.46-.07.91-.16,1.36-.24l.54-.1,1.2-.26.66-.15,1.1-.28.7-.18,1-.31c.23-.07.47-.13.7-.21l1-.32.7-.23,1-.35.7-.25.91-.36.68-.28c.3-.12.59-.24.87-.37l.67-.29.83-.38.64-.3.8-.39.62-.31.76-.4.6-.31.72-.4.57-.33.69-.39.54-.33.65-.39.52-.32.61-.39.49-.32.56-.38.47-.32.53-.36.43-.31.48-.35.41-.3.44-.33.37-.28.4-.32.34-.26.37-.29a3.07,3.07,0,0,1,.29-.24l.33-.27.26-.23.28-.23.24-.21.22-.2a1.8,1.8,0,0,0,.2-.18,1.45,1.45,0,0,0,.18-.16l.18-.16.12-.12a.87.87,0,0,0,.14-.12l.08-.08.12-.11h0l.05-.05-.33-.25.57-.32c-2.53-3.55-5.18-7.21-8-10.83-15.17-19.22-23.26-38.43-23.26-52.08a119.52,119.52,0,0,0-3-25.79,28.82,28.82,0,0,1-2.15-5.76c.11-.93.24-1.87.38-2.8l.06-.42c.13-.89.27-1.79.43-2.69l.09-.51c.15-.9.32-1.8.5-2.71,0-.14,0-.28.08-.42q.27-1.38.57-2.76a.36.36,0,0,1,0-.11c.2-.94.41-1.87.63-2.81l.12-.49c.21-.9.43-1.8.66-2.69,0-.19.09-.38.14-.57.23-.9.47-1.79.71-2.69l.12-.46c.25-.87.49-1.75.74-2.63a2.17,2.17,0,0,0,.07-.24c.26-.91.53-1.81.8-2.71.06-.19.12-.38.17-.57.27-.86.53-1.72.8-2.57l.21-.64c.27-.85.54-1.7.82-2.55l.18-.53c.27-.79.53-1.57.8-2.34,0-.15.09-.29.14-.43l.87-2.48.24-.67.84-2.33c.1-.25.19-.5.28-.75.28-.76.56-1.51.85-2.26.08-.22.16-.43.25-.65.24-.64.49-1.28.73-1.91l.27-.69.81-2.05.33-.81c.26-.66.52-1.31.79-2l.36-.87c.23-.57.47-1.14.7-1.69l.42-1,.55-1.29L119,119c.19-.44.37-.87.56-1.29s.28-.66.43-1c.21-.49.43-1,.64-1.46s.31-.69.46-1,.23-.51.34-.77c.26-.56.5-1.11.75-1.64.08-.17.15-.35.23-.52l.91-2,.07-.14c3.64-7.84,6.23-12.69,6.23-12.69s-.14,2.27,1.74,6.93h0a1,1,0,0,0,0,.1c.07.18.15.35.22.54a.77.77,0,0,1,.07.16l.29.65,0,.06c.22.5.47,1,.74,1.58l.08.14c.11.23.22.46.35.69l.09.18.4.76a.31.31,0,0,1,.05.1c.33.6.68,1.22,1.06,1.87l.09.14.49.83a1.37,1.37,0,0,1,.13.2l.53.86.1.15c.44.7.91,1.41,1.42,2.15a1.63,1.63,0,0,0,.11.17l.64.93.19.26q.32.47.66.93c.05.08.11.15.17.23.57.79,1.17,1.59,1.81,2.42l.15.2.81,1,.26.33.79,1,.26.33,1,1.16.12.15,1.16,1.37.19.22c.33.39.67.77,1,1.16l.35.39c.3.35.61.69.93,1l.37.42,1.07,1.17c.09.09.17.19.26.29l1.41,1.5.21.22,1.24,1.29.45.46q.52.56,1.08,1.11l.5.51L155.9,136l.42.41,1.67,1.64.17.16,1.55,1.49.56.52,1.25,1.18.65.6,1.3,1.19.6.55c.64.58,1.29,1.17,2,1.76,37.41,33.37,79.13,28.06,81.4,66.49.06.91.09,1.8.12,2.66,0,.15,0,.29,0,.43,0,.82,0,1.61,0,2.38V218c0,.76,0,1.5-.05,2.23,0,.14,0,.27,0,.41,0,.65-.07,1.29-.11,1.91l0,.39c0,.65-.11,1.28-.17,1.9,0,.19-.05.38-.07.57-.07.59-.14,1.15-.22,1.7,0,.21-.07.41-.1.61-.08.49-.16,1-.25,1.44-.05.21-.09.43-.14.64-.08.4-.16.78-.25,1.16-.05.19-.09.39-.14.58-.11.45-.23.87-.35,1.3l-.18.6c-4,13.09-12.68,15.65-16.24,16.14a11.82,11.82,0,0,1-1.53.11h0c16.69,4.81,29.08-21.49,29.08-21.49,0,.32,0,.65,0,1h0c0,.11,0,.23,0,.35s0,.48-.05.73,0,.27,0,.4c0,.28-.06.55-.1.84,0,.1,0,.2,0,.3-.06.38-.13.77-.2,1.17,0,.12-.05.24-.07.37-.06.29-.13.59-.19.89s-.07.29-.1.43c-.09.37-.18.74-.28,1.12l-.05.19c-.11.45-.24.91-.37,1.37,0,.06,0,.12-.05.18-.11.39-.23.78-.35,1.18,0,.11-.07.22-.11.34s-.11.35-.17.53-.09.3-.14.45c-.1.31-.2.62-.31.93,0,.13-.08.25-.13.38s-.13.39-.2.58l-.12.34-.39,1.11-.09.25-.24.62c0,.09-.06.18-.1.27-.25.68-.5,1.33-.75,2l-.09.23c-.09.21-.17.42-.25.62h0l-.52,1.29a1.11,1.11,0,0,0-.07.16l-.24.59-.06.13-.49,1.18h0c-.08.18-.15.36-.23.53s-.05.12-.07.17c-.22.52-.43,1-.63,1.45a1.54,1.54,0,0,0-.08.19l-.17.38-.08.16c-.09.22-.19.43-.28.62s0,.12-.07.17l-.13.28-.08.18-.19.42-.06.13-.09.19c0,.05,0,.09-.07.14s0,.08-.05.11a1.59,1.59,0,0,0-.09.2l0,.08a.43.43,0,0,1,0,.07v0l0,0a24.6,24.6,0,0,0,.5,6.07c-1.51-8.09,38.18-41,56.13-82.92.09-.21.18-.44.28-.69s.09-.25.14-.38S305.08,178.06,305.14,177.91Z"/><path class="cls-9" d="M293.89,104.09a50.2,50.2,0,0,0-3.79-11.23c-2.36-4.62-6.21-8.32-8.74-12.85a.36.36,0,0,0-.61.07C276,90.46,263.4,94.64,261.54,106.64c-1.08.88-2.13,1.78-3.2,2.66a.34.34,0,0,0,.32.6h0l.1.24-1-.17s0,0,0-.06a43.12,43.12,0,0,0-17-6c-6.05-.77-12.13-.22-18.17.32a.56.56,0,0,0-.45.75c3.09,7.91,3.37,16.55,7.25,24.26,4.17,8.27,13.9,10.89,19.13,18.3a0,0,0,0,0,.06,0l.1,1,0,0a.05.05,0,1,0,.06.08c10.05-6.74,12.7-17.33,14.51-28.62a.66.66,0,0,0-.46-.75l0-.12a7.35,7.35,0,0,0,3.46-.12l.14,0a4.29,4.29,0,0,0,1.83-1.16l0,0c7.35,6.57,17.41,7.11,26.68,8.73,0,0,0,0,0,0l1.87.06v0c0,.12.19.09.19,0A94,94,0,0,0,293.89,104.09Z"/></g></g></svg>