<svg xmlns="http://www.w3.org/2000/svg" xmlns:xlink="http://www.w3.org/1999/xlink" viewBox="0 0 380.54 380.54"><defs><style>.cls-1{fill:#288eb1;}.cls-2{fill:#f2ab8b;}.cls-3{fill:#ffba9b;}.cls-4{fill:url(#linear-gradient);}.cls-5{fill:#f37968;}.cls-6{fill:#ff857a;}.cls-7{fill:#e1685d;}.cls-8{fill:#0a151a;}.cls-9{fill:#fff;}.cls-10{fill:#3f0d00;}.cls-11{fill:#eb9e9e;}.cls-12{fill:url(#linear-gradient-2);}.cls-13{fill:url(#linear-gradient-3);}.cls-14{fill:url(#linear-gradient-4);}.cls-15{fill:url(#linear-gradient-5);}.cls-16{fill:url(#linear-gradient-6);}.cls-17{fill:url(#linear-gradient-7);}.cls-18{fill:url(#linear-gradient-8);}</style><linearGradient id="linear-gradient" x1="214.24" y1="221.78" x2="214.24" y2="188.64" gradientUnits="userSpaceOnUse"><stop offset="0" stop-color="#a95037"/><stop offset="1" stop-color="#e99e81"/></linearGradient><linearGradient id="linear-gradient-2" x1="189.83" y1="121.94" x2="189.83" y2="18.6" gradientUnits="userSpaceOnUse"><stop offset="0"/><stop offset="1" stop-color="#35596f"/></linearGradient><linearGradient id="linear-gradient-3" x1="192.7" y1="119.22" x2="192.7" y2="45.05" xlink:href="#linear-gradient-2"/><linearGradient id="linear-gradient-4" x1="120.4" y1="129.39" x2="105.96" y2="39.18" xlink:href="#linear-gradient-2"/><linearGradient id="linear-gradient-5" x1="290.01" y1="135.35" x2="275.29" y2="43.33" xlink:href="#linear-gradient-2"/><linearGradient id="linear-gradient-6" x1="139.8" y1="130.15" x2="84.04" y2="58.47" xlink:href="#linear-gradient-2"/><linearGradient id="linear-gradient-7" x1="268.78" y1="140.86" x2="300.67" y2="62.5" xlink:href="#linear-gradient-2"/><linearGradient id="linear-gradient-8" x1="191.77" y1="112.54" x2="191.77" y2="32.54" gradientUnits="userSpaceOnUse"><stop offset="0"/><stop offset="1" stop-color="#17272f"/></linearGradient></defs><g id="Capa_2" data-name="Capa 2"><g id="Avatar_23"><circle class="cls-1" cx="190.27" cy="190.27" r="190.27" transform="translate(-78.81 190.27) rotate(-45)"/><path class="cls-2" d="M261.54,332c-7.48-19.28.67-71.2.67-71.2l-122.95-8.9s1.36,68.24-3.39,81.58c-3.12,8.76-21.72,19.11-34.16,25.19a190.48,190.48,0,0,0,183.61-3.57C275.59,349.41,265.18,341.43,261.54,332Z"/><path class="cls-3" d="M292.61,181.52l2.47-30.41s-3.46-26.2-4.2-27.69-10.13-19.28-10.13-19.28-9.4-15.08-10.38-15.33-20.77-8.65-20.77-8.65l-64.28,8.41s-21.26,4-24.47,4.69-29.42,15.33-30.66,16.32S109.67,131.58,107,135,98.55,165,98.55,165L89.9,175.83c-1.73,1.24-3.47,19.29-3.71,25.71s2.47,9.4,6.18,14.59,9.64,20,9.64,20c2,9.15,7.17,16.57,17.8,13.35,0,0,5.93,20.52,13.84,30.66s32.88,28.18,42,34.61,21,15.08,38.56,14.34,28.44-10.63,35.36-18.05,19-19.78,23.24-28.68c3.78-8,8-28.39,9.48-39.79,4.69.26,4.09-4.89,4.83-8.41,1.22-5.79,2.58-11.56,4-17.31l.25-.74a63.84,63.84,0,0,0,5.93-27.94A21.71,21.71,0,0,0,292.61,181.52Z"/><path class="cls-3" d="M157.26,197.09s15.21-2.59,20-7.41l3.7.74S175.8,197.09,157.26,197.09Z"/><path class="cls-3" d="M252.56,196s-10.92-2.6-14.39-7.42l-2.66.75S239.24,196,252.56,196Z"/><path class="cls-3" d="M189.28,299s7.91-6.43,10.38-7.42,8.9,2,18.79,2S230.81,291,232.79,291,240.7,299,240.7,299,209.55,298,189.28,299Z"/><path class="cls-3" d="M147.42,268.41c15.15-3.79,22.7-25.74,16.88-49s-22.84-39.08-38-35.28-22.7,25.73-16.87,49a63.26,63.26,0,0,0,7,17.06,17,17,0,0,0,3.41-.69S121,253.58,123,259C130.26,266.68,139.12,270.49,147.42,268.41Z"/><path class="cls-3" d="M287.15,234.18c1.22-5.79,2.58-11.56,4-17.31l.25-.74a61.66,61.66,0,0,0,5.65-21.3,18.89,18.89,0,0,0-5.09-2.86c-14.63-5.45-33.28,8.37-41.65,30.86S247,268,261.64,273.41a20.93,20.93,0,0,0,14.4-.19,250.87,250.87,0,0,0,6.28-30.63C287,242.85,286.41,237.7,287.15,234.18Z"/><path class="cls-3" d="M133.41,152.1s4.72-29.46,32.63-33.62c33.13-5,82.08-10.38,90.48-6.43s20.27,12.86,19.78,40.55l-45,20.27-31.64.49-37.08-15.82Z"/><path class="cls-3" d="M187.79,229.73a82.27,82.27,0,0,1,9.89-11.38c5.93-5.31,10.63-27.56,8.16-30.53s-21.51,4.82-24,13.23-7.42,23.24,3.95,37.57Z"/><path class="cls-3" d="M237.73,225.28s-9.27-4.08-11.12-23c-1-9.85-2.1-14.09.37-14.09s15.7,12.36,18.66,21.76,1.48,21.26-3,25.71Z"/><path class="cls-3" d="M151.2,292.52c-4.45-5.44-10.87-37.58-17.3-46s-14.34-21.76-14.34-21.76l-5.93-.49s3.46,9.88,3.46,17.79c0,6.84-6.27,6.66-8,6.49,2.72,1.75,6.22,2.29,10.7.93,0,0,5.93,20.52,13.84,30.66,6,7.74,22,20.09,33.32,28.36C161.94,303.71,154.12,296.09,151.2,292.52Zm136.47-76.64,1-5.93c-1,5.93-3,7.91-6.93,16.31s-8.4,39.56-11.86,51.43c-2.83,9.71-9,20.09-11.12,23.53,5.65-6.25,11.44-13.23,14.09-18.84,3.78-8,8-28.39,9.48-39.79a3.73,3.73,0,0,0,2.52-.64c-2.94-1.19-1.13-5.3-1.13-5.3Z"/><path class="cls-3" d="M220.3,247.52s-6.68.75-12.24-7,0-17.06-.37-27.07.74-28.18.74-28.18l16.32-1.49a26.77,26.77,0,0,0-1.11,11.5c.74,6.67,3.34,19.28,4.08,23.36S240.33,244.56,220.3,247.52Z"/><path class="cls-3" d="M204.73,224.53s14.46-5.93,24.84-.74v-3A38,38,0,0,0,204,221.94Z"/><path class="cls-3" d="M185.07,240.6c-.45-4.24,2.93-19.61,10-14.16,4.3,3.33.11,8.26-2.76,10.71-1.26,1.07-6.52,8.16-7.43,5.68Z"/><path class="cls-3" d="M238.47,225.52c-4.92-2.29-2.17,6.53-1.17,8.11,2,3.14,4.92,6.16,5.61,9.87,1-3.05-.7-6.42-1.17-9.33s-.93-5.53-2.53-8.15Z"/><path class="cls-3" d="M113.63,176.33s13.84-13.85,17.3-32.14,23.74-30.16,37.58-31.65,48-1,59.83-6.42c0,0,31.15-.5,36.59,3s7.91,13.85,10.87,16.81,5.94,16.32,4.45,28.19l6.43,14.83s.49,11.87,1.48,14.34,6.92-10.88,6.92-10.88-2-31.15-2.47-33.12-3-24.23-7.41-30.66-5.94-18.29-18.3-21.76S217,79.42,207.08,80.9s-57.36,19.29-60.33,20.77S126,116,122.53,119.47s-12.86,18.79-14.34,24.72a96.22,96.22,0,0,0-2,14.34Z"/><path class="cls-3" d="M138.72,183.74s-15.57-4.82-16.32-14.46c0,0,7.79-8.9,17.06-9.27s33,3,33,3l13.35,3.71,14.83,6.67S195.46,185.6,181.74,186l-13-1.11Z"/><path class="cls-3" d="M237,184.86s-6.68-4.45-6.68-11.87l9.65-8.53L257,157h18.92L282.6,163l4.45,5.93a20.3,20.3,0,0,1-15.95,14.83C257.76,186.34,237,184.86,237,184.86Z"/><path class="cls-3" d="M186.8,246.29a22,22,0,0,1,12.12-4,15.33,15.33,0,0,1,10.88,4.45A15,15,0,0,0,221.17,250c6.67-1,12.61-8.16,12.61-8.16s7.66.49,8.65,5.93a6.94,6.94,0,0,1-5.69,4.7s-7.66,8.9-18.54,8.9c-13.35,0-24.47-7.91-28.18-11.87A6.65,6.65,0,0,1,186.8,246.29Z"/><path class="cls-3" d="M89.15,190.17c1.24-3.46,4.21-5.19,7.17-3.21,4.45,2.72,5.19,11.86,6.93,16.31,2,4.7,6.17,10.88,5.43,16.32-.74,4.2-3,4.7-1,8.41a14.49,14.49,0,0,0,3.22,3.46s-1.73,4.94-4,4.2S99.29,225,97.56,220.83s-6.92-8.16-8.41-14.34S89.15,190.17,89.15,190.17Z"/><path class="cls-3" d="M289.15,207c2-5.44,2.72-11.12,6.43-15.32,0,0-.74,13.84-3.21,18.53s-6.43,21.51-6.43,21.51l-3.21,7.42s2.71-15.33,4.44-20.52A48.61,48.61,0,0,0,289.15,207Z"/><path class="cls-3" d="M108.68,219.59c.74-5.44-3.46-11.62-5.43-16.32-1.74-4.45-2.48-13.59-6.93-16.31-3-2-5.93-.25-7.17,3.21,0,0-.15,1-.3,2.62.87-.47,4.59-2.33,5.25-.15a50.06,50.06,0,0,1,1.23,6.43s2-2.47,3.22,1.48c0,0-2.23,3.71-2,6.18,0,0,2.47-3,4.45-1S107,214.4,107,216.87s-2.75,5.47,0,8.79C106.76,223.79,108.13,222.71,108.68,219.59Z"/><path class="cls-3" d="M289.15,207a54.22,54.22,0,0,1-.8,6.91c2-4.48,5.75-13.31,7.18-21.48,0-.48.05-.75.05-.75C291.87,195.86,291.13,201.54,289.15,207Z"/><path class="cls-3" d="M297.51,188.14a14.28,14.28,0,0,0-2.29-3.91,11.63,11.63,0,0,0-2.6-2.73s0,0,0,0c1.62,1.8,4.37,4.74,4.33,7.33-.05,3.08-.2,6.14-.54,9.2a57.92,57.92,0,0,1-5.05,18,0,0,0,0,0,.08,0,67.67,67.67,0,0,0,5.63-18.65C297.47,194.64,298.23,191,297.51,188.14Zm-6.43,28.72c-1.43,5.74-2.93,11.47-4.2,17.24-.34,1.54-.41,3.12-.71,4.66-.43,2.2-1.55,3.32-3.65,3.41.25-2.13.49-4.27.87-6.38,2.16-12.14,6.84-23.66,5.63-36.22,0-.15-.24-.15-.23,0,1,10.93-2.31,21.43-4.84,31.92-.85,3.52-1.4,7.1-1.91,10.69H282c-.5,0-.49.68-.05.78-.49,3.57-.95,7.14-1.62,10.67a184.83,184.83,0,0,1-5.77,23.76c-2.59,7.84-7.68,14.2-13,20.36a227.14,227.14,0,0,1-16.62,17.65,49.48,49.48,0,0,1-22.3,12.27,48,48,0,0,1-30.11-3.15c-6.78-3-12.81-7.36-18.82-11.63-12.54-8.89-25.39-18.05-36.24-29-5.5-5.56-9-12.45-12-19.61a140.17,140.17,0,0,1-5.29-14.81,0,0,0,0,1,0,0,.29.29,0,0,0-.35-.19c-4.28,1.23-8.6,1-12-2.1-3-2.68-4.44-6.78-5.34-10.57a33,33,0,0,0-2-5c-1.43-3.34-2.93-6.66-4.56-9.91a75.29,75.29,0,0,0-5.87-9.29,18,18,0,0,1-3.48-11.94,144.33,144.33,0,0,1,2.3-20.73c.21-1,.39-3,1.27-3.73.15-.13-.07-.34-.22-.22-1.22,1-1.36,3.82-1.62,5.24-.62,3.4-1,6.85-1.38,10.29-.33,3.24-.62,6.49-.78,9.75a17.3,17.3,0,0,0,3,10.72c2,3.15,4.29,6,6,9.36s3.19,6.63,4.64,10a33.08,33.08,0,0,1,2.24,5.62,23.3,23.3,0,0,0,4.33,9.61,11.38,11.38,0,0,0,8,4.2c.51,0,5.52-.12,5.29-.93L120,251a144.53,144.53,0,0,0,7.1,18.56,55.46,55.46,0,0,0,12.25,17.13,226,226,0,0,0,18.53,15.45q8.35,6.42,17,12.48c6.28,4.44,12.61,8.78,19.81,11.61A46.94,46.94,0,0,0,244,317c5.89-5.18,11.15-11.28,16.35-17.14s10.7-12.1,13.6-19.46,4.44-15,6-22.63q1.2-5.93,2.12-11.89c.14-.94.27-1.89.38-2.84,3.64.1,4.32-3.45,4.68-6.51.76-6.58,2.56-13.17,4.08-19.6C291.2,216.82,291.09,216.79,291.08,216.86Z"/><path class="cls-3" d="M107.82,223.4a13.84,13.84,0,0,0,.88-7.06c-.77-5.63-4.68-10.25-6.15-15.66-1.16-4.27-1.67-9.22-4.48-12.8-3-3.84-7.53-1.63-8.94,2.29,0,0,0,0,0,0a6.24,6.24,0,0,1,3.17-3.59,3.31,3.31,0,0,1,2.58.14s0,.05,0,.07a12.08,12.08,0,0,1,1,10.16c-.87,3-2.14,5.76-2.82,8.78,0,0,0,0,0,0,1.56-5.86,6.46-12.9,2.43-18.72.3.16.58.35.85.53,1.88,1.27,3,3.57,3.77,5.62,1.53,3.95,2,8.19,3.84,12,2.5,5.23,6.25,10.9,3.64,16.76-.63,1.42-1.42,2.66-1.19,4.26.34,2.33,2.59,4.08,4.37,5.35.15.1.31-.12.19-.24C108.8,229.25,106.64,226.54,107.82,223.4Zm-8.76-3.57c-.42-1.31-.86-2.62-1.25-4,.37,1.3.78,2.62,1.21,4C99,219.87,99.07,219.86,99.06,219.83Zm-2.29-8.59a31.07,31.07,0,0,0,1,4.64A36.82,36.82,0,0,1,96.77,211.24Zm3.4-12.49c-1.13-.31-2.27,2.34-2.52,3a18.26,18.26,0,0,0-.88,9.49,18.38,18.38,0,0,1-.13-3.86,15.43,15.43,0,0,1,2.11-6.16,4.82,4.82,0,0,1,1.51-1.75c1.14-.71,1.94,1.42,2.21,2.08,0,0,.08,0,.06,0C102.07,200.09,101.64,199.16,100.17,198.75Zm195.4-7.1c-3.69,4.13-5.16,10.06-6.53,15.3,0,.12.16.21.21.09,2.33-5.12,2.69-10.84,6.33-15.38C295.59,191.65,295.58,191.64,295.57,191.65Z"/><path d="M196.94,245.86s5.38-.56,9.09,1.85C206,247.71,203.43,250.49,196.94,245.86Z"/><path d="M232.54,246.6a10.57,10.57,0,0,1,5.75,1.11s-1.67,1.11-6.86.93Z"/><path class="cls-4" d="M185.52,240.32a31.17,31.17,0,0,1,1.28-8.74c.72-2.46,1.83-5.27,4.24-6.49.08,0,0-.16,0-.13-2.19.72-3.47,3.31-4.25,5.29a32.42,32.42,0,0,0-2.09,10.07c-.16,2.82.26,5.82,2.55,7.73,2.75,2.29,6.47,2.56,9.74,3.69,0,0,0,0,0,0-2.77-1-5.77-1.85-8.22-3.55C186.11,246.35,185.52,243.29,185.52,240.32Zm58.32.63a32.78,32.78,0,0,0-2.11-9.72c-.85-2.27-1.86-4.84-3.66-6.55-.1-.1-.3,0-.21.17,3,4.12,4.38,9.58,4.88,14.6s.18,12.09-6,13c0,0,0,0,0,0C242.64,252.07,244.08,245.87,243.84,241ZM193,246.77s0,0,0,0c4.49-1.48,9.31-.53,13.51,1.37.16.07.36-.14.2-.27C202.84,244.61,197.4,245,193,246.77Zm46.77,1.95c-1.67-1.78-4.31-2.39-6.69-2.47l.07-.18c0-.12-.12-.17-.18-.08s-.13.17-.19.25a.29.29,0,0,0-.26.35,16.15,16.15,0,0,1-11.55,6.6,18,18,0,0,1-13.35-3.71,0,0,0,1,0-.06.05c6.39,6.49,21.19,6.51,25.28-2.69a10.54,10.54,0,0,1,6.85,2C239.72,248.84,239.8,248.78,239.75,248.72Zm-12-37.42c.73,5,2.45,9.58,3.9,14.4a40.06,40.06,0,0,1,1.85,15.89s0,0,0,0a33.52,33.52,0,0,0-.47-13.49c-1.13-5-3.48-9.51-4.63-14.45-1.08-4.61-1.31-9.48-2.15-14.15a59.31,59.31,0,0,1-.84-7A22.84,22.84,0,0,1,226.7,184c0-.12-.14-.17-.19-.05a19.38,19.38,0,0,0-1.38,6.55,40.44,40.44,0,0,0,.49,6.77C226.31,202,227.08,206.62,227.77,211.3Z"/><path class="cls-5" d="M177.91,273.48s7.91,6.43,14.33,9.4,12.61,8.4,21.76,8.4,15.82-.49,21.26-6.67,14.09-10.14,14.09-10.14L238,274l-19.53-2.72s-14.59-.25-17.06.24S177.91,273.48,177.91,273.48Z"/><path class="cls-6" d="M221.17,288.81a16.07,16.07,0,0,0,10.44-4.14c2.68-2.48,6.72-6.84.68-7.48-7.5-.79-14.7,1.73-22.3,1-3.75-.37-7.29-1-11.07-1-1.44,0-4.1.28-4.57,2-.87,3.24,8.09,6.41,10.16,7.2A41.42,41.42,0,0,0,221.17,288.81Z"/><path class="cls-7" d="M248.86,273.24c-2.48.49-5-1.49-11.38-5.44s-8.65-3.22-11.61-3-6.93,3.71-6.93,3.71l-3-2.47a7.63,7.63,0,0,0-6.43-2c-8.65.24-21.51,6.92-28.43,7.91S170,269.78,170,269.78c11.13,9.14,29.92,2.71,43,4.94h.35l.64.48c3.16,1.78,6.16,1.19,9.13-.25,8.49-.42,25.53,3.16,31.66-3.95A30.53,30.53,0,0,1,248.86,273.24Z"/><path class="cls-7" d="M213.05,274.59c-3-.88-6.43-.74-9.53-.67-3.8.08-7.6.46-11.39.66-7.62.4-15.87.08-22.13-4.81h0c5.62,4.6,12.95,5.26,19.95,5.27,4,0,8-.24,12-.41,3.73-.16,7.37.08,11.09.21A.13.13,0,0,0,213.05,274.59ZM254.73,271c-4.21,3.86-10,4.32-15.54,4.29-5.07,0-10.18-.76-15.24-.4a17.58,17.58,0,0,0,1.49-1,.14.14,0,0,0-.14-.24c-3.67,1.64-7.32,3.44-11.26,1.54-.09,0-.17.08-.08.13a8.83,8.83,0,0,0,5.52,1.26,11.92,11.92,0,0,0,4.18-1.52c5.67.07,11.31.82,17,.69,4.69-.11,11.13-.51,14.21-4.66C254.91,271,254.8,270.9,254.73,271Z"/><path class="cls-8" d="M229.94,173.36s8.53-2.59,14.47-6.3,26-4.82,31.52-4.82c0,0,9.27,3.33,11.12,7.78a18.86,18.86,0,0,0-2.59-7.78,36.49,36.49,0,0,1-3.71-8.9s-11.87-4.08-15.58-3.34-17.43,7-20.76,8.9-7,4.45-8.16,4.82S231.06,173.36,229.94,173.36Z"/><path class="cls-8" d="M201,173.36s-11.8-2.59-20-6.3-35.91-4.82-43.6-4.82c0,0-12.82,3.33-15.39,7.78a15.42,15.42,0,0,1,3.59-7.78c3.08-3.34,5.13-8.9,5.13-8.9s16.42-4.08,21.54-3.34,24.11,7,28.73,8.9,9.74,4.45,11.28,4.82S199.48,173.36,201,173.36Z"/><path class="cls-3" d="M139.34,183l-8.65,2.23,1,1.73,7.42-2a27.37,27.37,0,0,0,16.56,5.44c10.14,0,13.85-3.22,13.85-3.22Z"/><path class="cls-3" d="M252.32,189.43s13.59,1.48,20-4.45l5.44,1.23.5-1.72-7.42-2-4.95.74Z"/><path d="M139.09,183.5s4-5.69,8.41-7.91a60.44,60.44,0,0,1,25-.25s4.94,3.21,6.42,7.41l-18.54,1Z"/><path class="cls-9" d="M142.06,185.6c9.27,5.19,24.47,5.19,35.6,0l1.23-.37,2.23.74-2.35-3.34c-1.11-1.85-5.93-5.93-5.93-5.93a70.35,70.35,0,0,0-23.37,0,57.82,57.82,0,0,0-10.38,6.55Z"/><path class="cls-10" d="M169,180a9.4,9.4,0,0,0-.89-4,73.73,73.73,0,0,0-17.4.46,9.46,9.46,0,0,0,8.33,13l1.5,0A9.49,9.49,0,0,0,169,180Z"/><path class="cls-10" d="M159.53,188.42a8.4,8.4,0,0,0,7.33-12.5,74.69,74.69,0,0,0-14.85.39,8.27,8.27,0,0,0-.87,3.71A8.39,8.39,0,0,0,159.53,188.42Z"/><path d="M164.49,180a5,5,0,1,1-5-5A5,5,0,0,1,164.49,180Z"/><path d="M163,180a3.5,3.5,0,1,1-3.5-3.5A3.49,3.49,0,0,1,163,180Z"/><path class="cls-9" d="M159.53,177.94a2,2,0,0,0,2-2,1.36,1.36,0,0,0,0-.2c-1.43,0-2.78,0-4,.11,0,0,0,.06,0,.09A2,2,0,0,0,159.53,177.94Z"/><path d="M138.37,183.76a67.42,67.42,0,0,1,6.22-4.37c1.43-.87,3.39-2.3,5-2.59a64.48,64.48,0,0,1,8.44-.82c2.32-.1,4.64-.07,6.95.05,1.16.06,2.32.17,3.48.3.94.1,1.87.24,2.8.38a7.45,7.45,0,0,1,1.41.26c2,1.72,4.35,3.57,5.76,5.83.23.38.83,0,.58-.34a30.74,30.74,0,0,0-5.94-5.9c-.42-.35-1.15-.3-1.66-.38-1.44-.23-2.9-.37-4.36-.49a67.9,67.9,0,0,0-8.44-.12,64.45,64.45,0,0,0-9.09,1c-1.7.32-3.61,1.8-5.06,2.69a60.46,60.46,0,0,0-6.18,4.49s0,.05,0,0Z"/><path class="cls-11" d="M142,185.63a35.11,35.11,0,0,0,16.83,4c6.31.08,13.19-1,18.83-4,.07,0,0-.18-.06-.15-11.12,4.4-24.62,5.86-35.56,0,0,0-.08,0,0,.06Z"/><path d="M271.45,183.5s-3.34-5.69-7.1-7.91a43.28,43.28,0,0,0-21.07-.25s-4.18,3.21-5.43,7.41l15.65,1Z"/><path class="cls-9" d="M268.94,185.6c-7.82,5.19-20.66,5.19-30,0l-1.05-.37L236,186l2-3.34c.94-1.85,5-5.93,5-5.93a50.25,50.25,0,0,1,19.72,0,48.24,48.24,0,0,1,8.77,6.55Z"/><path class="cls-10" d="M253.38,189.16c4.88,0,8.83-4.25,8.83-9.5a10,10,0,0,0-.52-3.16,51.6,51.6,0,0,0-16.54-.22,9.92,9.92,0,0,0-.59,3.38C244.56,184.91,248.51,189.16,253.38,189.16Z"/><path class="cls-10" d="M253.38,188.06c4.31,0,7.81-3.76,7.81-8.4a8.85,8.85,0,0,0-.65-3.35,51.86,51.86,0,0,0-14.22-.2,8.72,8.72,0,0,0-.75,3.55C245.57,184.3,249.07,188.06,253.38,188.06Z"/><path d="M258,179.66a4.62,4.62,0,1,1-4.61-4.95A4.79,4.79,0,0,1,258,179.66Z"/><path d="M256.64,179.66a3.26,3.26,0,1,1-3.26-3.5A3.39,3.39,0,0,1,256.64,179.66Z"/><path class="cls-9" d="M253.38,177.58a1.94,1.94,0,0,0,1.87-1.8c-1.16-.06-2.42-.08-3.74-.06A1.94,1.94,0,0,0,253.38,177.58Z"/><path d="M272.06,183.76a58.57,58.57,0,0,0-5.26-4.37c-1.2-.87-2.85-2.3-4.25-2.59a46.49,46.49,0,0,0-7.13-.82,52.06,52.06,0,0,0-5.86.05c-1,.06-2,.17-2.95.3-.79.1-1.58.24-2.36.38a5.64,5.64,0,0,0-1.19.26,26.72,26.72,0,0,0-4.86,5.83c-.19.38-.7,0-.49-.34a28.87,28.87,0,0,1,5-5.9c.36-.35,1-.3,1.41-.38,1.21-.23,2.44-.37,3.67-.49a48.5,48.5,0,0,1,7.13-.12,46.26,46.26,0,0,1,7.67,1c1.43.32,3,1.8,4.27,2.69a52.48,52.48,0,0,1,5.22,4.49,0,0,0,0,1,0,0Z"/><path class="cls-11" d="M269,185.63a26,26,0,0,1-14.21,4,29.74,29.74,0,0,1-15.89-4c-.06,0,0-.18,0-.15,9.39,4.4,20.78,5.86,30,0,0,0,.06,0,0,.06Z"/><path class="cls-12" d="M136.82,68.67A39.11,39.11,0,0,0,153.61,71a22.29,22.29,0,0,1-8.43,2.26c4.62,1.81,10,.31,14.63-.69a62.83,62.83,0,0,1-15.15,7.71c16.21,8.8,36.46,5.12,53.21,1.39-1.57,2.67-5.17,3.77-7.64,5.38A30.9,30.9,0,0,0,200,84a31.81,31.81,0,0,1-11.87,8.13c10.81,2.72,31.94-4.74,37.07-13.58.23,2.57-1,4.88-2.75,6.83,3.18-1.83,9.27-6,10-10.34,2,2,1.53,5,.65,7.38,5.95-4.76,13.34-8.81,13.72-16.63,1.92.29,3.43.65,4.79,2.1,1-3.58-2.39-6.61-4.8-9.07C243.61,69.52,237,71.51,226.4,75.49c-5.15,1.93-9.56,8.27-15.5,8.16-5.14-.09-5.93-4.1-10.26-5.53-6.3-2.07-14.21,2.48-20.5,2.69-9.45.31-8.2-4.24-14-8.31-2.74-1.91-26.89-3.85-15.79-9.17-7.33,1.17-14.86,3-22.38,2.18Z"/><path class="cls-13" d="M194,79.86c-6.22.56-12.77,3.17-19,2.54-4.65-.47-7-3.66-9.59-7.14-2.13-2.85-3.82-3.44-7.29-4.06-1.73-.31-15.45-3.08-12.38-5.64-2.72.39-5.77,1.24-8.57,1l-1.48.5c3.29.49,6.82,1.31,10.2,2,2.09.45,6.62,1,7.87,2.9-.24.28-.4.7-.68,1,1.49-.5,7.1-1.78,8.15,0,1.82,3-8.54,7-10.4,7.49,4.6.2,9.13-.64,13.74.29,1.11.23,7.15,2.45,3.83,3.66,6.28.14,12.91-1.05,19-2.29,1.28-.25,14.65-3,11.09,1.5,1.61-.46,3.64-.12,3.7,1.76.09,2.53-4.86,5.82-6.86,6.44,8.49-.69,19.7-3.69,25.3-10.54-2.83,1.49-6.28,3.68-9.56,3.87C204.28,85.5,200.67,79.26,194,79.86Zm53.38-19.41c-.83,4-5.06,9.86-8.63,11.81-3.79,2.08-8.3,2.26-12.12,4.19l.49.5a7.52,7.52,0,0,1,.48,2.38c2.67-2.5,6-6.48,6.86-.71.83-2.12,2.26-4.56,4.53-5.15s2.37.47,3.94-1.45c2.68-3.28,1.49-8.86,6.85-7.47C248.87,63.24,248.15,61.85,247.36,60.45ZM223.15,79.67l1.48-1.49C223.54,78.16,222.74,78.59,223.15,79.67Z"/><path class="cls-14" d="M126.32,99.36c-5.81-7.28-8.52-7.87-17.67-8.34-9.59-.49-5.57-3.4-6-12.48C97.06,78.11,91.8,82.06,87,85.4c-5.64,8.25-5.8,14.17-5.8,14.17,3-9.27,14.46-17.06,14.46-17.06a40.29,40.29,0,0,0-11.49,29.66c2.6-13,9.64-17.42,9.64-17.42-15.33,28.18-2.47,54.38-3.95,81.58,0,0,3.95-.74,6.92-1.12s5.19,3.34,5.19,3.34c1.85,3.34,4.45,9.64,4.45,9.64,4.82,12.24,6.67,36.34,6.67,36.34,4.08,4.45,7.79,3.71,7.79,3.71-8.16-24.84-7.79-58.59-7.79-58.59,4.82-25.58,20-46,20-46A98.75,98.75,0,0,1,155,107.87C144,109.92,133,107.78,126.32,99.36Z"/><path class="cls-15" d="M273.33,109.21a30.14,30.14,0,0,0,4.82,16.31c-1.11-5.19-.37-12.23-.37-12.23,0,6.3,3.71,15.57,3.71,15.57s3,5.19,5.56,15.58,2.23,29.29,2.23,29.29-2.23,3.34-2.6,9.64,2.6,16.69,2.6,16.69c0-11.12,5.93-22.62,5.93-22.62,10.38-46.35,5.93-71.94,5.93-71.94l-3.71-6.67a13.77,13.77,0,0,0-3.33-9.28,11.78,11.78,0,0,0-.75-5.09c-.66,2.42-4.75,2.5-6.15,4.89-1.88,3.24.12,10.19-2.15,12.66-3.75,4.08-7.58-1.51-11.18.68-2.27,1.38-3.19,5.75-3.47,9.53a19.06,19.06,0,0,0,2.93,6.63A34.23,34.23,0,0,1,273.33,109.21Z"/><path class="cls-16" d="M126.32,99.36c-5.81-7.28-8.52-7.87-17.67-8.34-9.59-.49-5.57-3.4-6-12.48C97.06,78.11,91.8,82.06,87,85.4a34.85,34.85,0,0,0-5.42,11.73,11.39,11.39,0,0,1,1-.76c4.14-7.8,13.08-13.86,13.08-13.86a38.51,38.51,0,0,0-7.84,11.32c9.48-3.2,23.57-2.45,29.72,2,4,2.9,6.23,7.79,9,11.73a50.82,50.82,0,0,0,11.33,11.79,103.58,103.58,0,0,1,17-11.5C144,109.92,133,107.78,126.32,99.36Z"/><path class="cls-17" d="M293.35,84.46c-.66,2.42-4.75,2.5-6.15,4.89-1.88,3.24.12,10.19-2.15,12.66-3.75,4.08-7.58-1.51-11.18.68-2.27,1.38-3.19,5.75-3.47,9.53a19.06,19.06,0,0,0,2.93,6.63,34.23,34.23,0,0,1,0-9.64,30.14,30.14,0,0,0,4.82,16.31c0-.13,0-.28-.08-.42a38.08,38.08,0,0,1-2.28-10.19c-.43-5.65.62-7,5.95-7.8,6.72-1,4.17-1.14,6.31-7,1.94-5.25,5.73-4.32,9.37-1.65a13.72,13.72,0,0,0-3.32-9A11.78,11.78,0,0,0,293.35,84.46Z"/><path class="cls-18" d="M90,176.33c.69-13.37-2-26.54-3.1-39.8C85.63,122.05,87,107.82,94,94.84c.09-.16-.09-.36-.25-.26C88.12,98.19,85.29,106,84,112.12l.41,0c-.91-10.7,4.07-22,11.45-29.5.18-.18-.06-.52-.28-.37C89.51,86.43,83.38,92.42,81,99.5l.5.07c.09-3.09,1.47-6.29,2.8-9,4.1-8.36,11.15-15,18.6-20.42a.29.29,0,0,0-.23-.53c-5,1.09-9.58,4.7-12.74,8.59l.5.3C91,75.79,93,73.22,94.76,71.2c6.1-7,15.06-11.06,23.66-14a.34.34,0,0,0,.07-.61C112.42,53.78,105,56.2,100,60l.42.54a33.82,33.82,0,0,1,27.2-10.26c.25,0,.39-.25.35-.46-1.34-6.38-10.56-5.17-14.92-4,.1.22.2.45.29.68a30.34,30.34,0,0,1,13.29-2.72c3.76.15,7.58,1.43,11.37.93.39-.05.58-.69.1-.76A21.26,21.26,0,0,1,126,38.1c-.16.21-.32.41-.47.62,5.13,3,11.79,1.42,16.9-.6a115.1,115.1,0,0,1,15.05-4.35,264.28,264.28,0,0,1,50.41-7.58c3.79-.17,7.58-.19,11.37,0,2.15.09,4.42,0,6.39.85,5.47,2.47,10.92,5,16.27,7.72,6.15,3.12,11.94,6.76,18.32,9.45l2.19.9c-.43-.17-.08,0,.13.35q.48.7.93,1.41c1.67,2.59,3.78,5.6,4.23,8.71.06.41.72.39.8,0A16.44,16.44,0,0,0,265.9,43l-.65.51c3.95,3.29,7.63,8.72,6.2,14a.42.42,0,0,0,.61.47c3.24-1.56,6.86-4.66,6.12-8.63l-.76.32c2.18,3.36,1,7.32-1.79,9.88-.34.31,0,.76.41.7,2.08-.31,5.25-1,6.18-3.16l-.78-.21c0,2.49.47,5.44-1.05,7.58a.4.4,0,0,0,.15.57c2,.89,4,1.78,5.94,2.79,2.34,1.22,4.34,3,6.67,4.25.1-.25.21-.5.31-.76-3-1.22-6.61-2.44-9.86-1.85-.45.08-.33.67,0,.8,3.72,1.51,7.58,4.38,9,8.24l.76-.32a10,10,0,0,0-7.4-4.29.43.43,0,0,0-.3.72A28.33,28.33,0,0,1,290.46,80a19.29,19.29,0,0,1,2.76,5.4,11.62,11.62,0,0,1,.5,3.21c0,.44-.2,1,.13,1.32a11.13,11.13,0,0,1,1.73,2.62,14.2,14.2,0,0,1,1.06,3,15,15,0,0,1,.33,2.1c0,.42-.1,1.07.11,1.45l3.34,6c.65,1.16.67,3.17.8,4.73.41,4.69.5,9.41.44,14.11a244.75,244.75,0,0,1-4,39q-1.08,6.15-2.41,12.25a28.3,28.3,0,0,1-1.87,5.2,52.3,52.3,0,0,0-4.55,19.67l.8-.11c-1.93-6.77-3.52-14.16-1.92-21.14a18,18,0,0,1,1.52-4.26,2.2,2.2,0,0,0,.41-1c0-2.09,0-4.19,0-6.28-.13-7.64-.41-15.52-2.22-23a80.19,80.19,0,0,0-4.08-12.45c-.54-1.25-1.3-2.63-1.7-3.68-1.79-4.71-3.41-9.84-3.48-14.91a.4.4,0,0,0-.8,0,41.85,41.85,0,0,0,.39,12.34l.72-.31c-3.26-4.56-4.7-10.6-4.77-16.11,0-.43-.69-.56-.77-.11a33.19,33.19,0,0,0,0,9.75l.67-.28c-3.27-4.14-3.91-10.57-3.6-15.66,0-.42-.53-.51-.73-.2A9.28,9.28,0,0,1,263,107l.27.67c2-1.75,3.07-4.76,3.81-7.22a.39.39,0,0,0-.57-.44,37.27,37.27,0,0,1-13.75,5.93,48.33,48.33,0,0,1-9.92.48,14.66,14.66,0,0,1-2.73-.14c0,.25-.07.51-.1.76,6.77-.64,14.16-3.58,18.44-9,.24-.31-.08-.87-.47-.6-6.21,4.33-14.06,7.64-21.68,7.74,0,.25.06.5.1.75,6.78-2.08,13.76-6.51,17.28-12.79.22-.4-.27-.7-.59-.45a109.78,109.78,0,0,1-9.1,6.25c-5,3.11-10.92,6.67-17,7,.06.23.12.46.19.69,7.94-3.51,16.42-9.52,20.15-17.56.13-.29-.18-.75-.5-.5a94.35,94.35,0,0,1-32,15.69,103.21,103.21,0,0,1-22.13,3A47,47,0,0,0,178.3,110c.12.19.24.4.35.59a16.83,16.83,0,0,1,7.26-5.1.35.35,0,0,0-.19-.68c-5.92,1.23-13,3-17.58,7.14l.55.42a14.06,14.06,0,0,1,2.37-2.74,48.15,48.15,0,0,1,10.11-7.15.35.35,0,0,0-.27-.63c-5.91,1.4-12.79,3.23-17.57,7.14l.53.41c2.65-4.64,7.84-8,12.48-10.27a.33.33,0,0,0-.25-.6,109.3,109.3,0,0,0-31.55,15.4c-4.75,3.29-9.86,6.87-13.12,11.71a127.79,127.79,0,0,0-9.51,16.83,124.83,124.83,0,0,0-5.17,12.63c-.81,2.32-1.53,4.68-2.18,7-.33,1.22-.64,2.45-.92,3.68a18.22,18.22,0,0,0-.8,3.84c0,3.61.09,7.23.26,10.83.37,8.16,1.12,16.31,2.3,24.39q1,7.13,2.66,14.14.8,3.35,1.77,6.63c.13.45.55,2.41.94,2.36a6.08,6.08,0,0,1-1.65-.09,10.57,10.57,0,0,1-5.31-3c-.49-.47-.42-.49-.48-1.15-.18-2.05-.39-4.08-.62-6.12a179.65,179.65,0,0,0-3.37-20.51A76.83,76.83,0,0,0,103,180c-1-2-2.28-3.9-4.47-4.8-1.37-.57-3.15,0-4.53.2s-2.79.47-4.17.72c-.23,0-.13.39.09.35,3.39-.63,7.62-2.18,10.44.39,2.28,2.07,3.34,5.53,4.54,8.27a82.86,82.86,0,0,1,5.4,19.25c1.07,6.1,1.84,12.26,2.4,18.42.18,1.94.34,2.35,2.2,3.69,1.67,1.21,3.92,2.37,6.07,2a.27.27,0,0,0,.19-.33c-5.34-16.46-7.08-34.12-7.64-51.34q-.09-3-.11-6.08c0-2.66.88-5.31,1.55-7.86a120.54,120.54,0,0,1,10.57-26.28,115.56,115.56,0,0,1,7.31-12,26.27,26.27,0,0,1,4.57-4.43A95.94,95.94,0,0,1,148.65,112a107.39,107.39,0,0,1,27.61-12.81l-.25-.6c-4.74,2.32-10,5.77-12.74,10.5a.34.34,0,0,0,.54.41c3.07-2.51,7.07-3.88,10.78-5.1,2.14-.71,4.31-1.34,6.5-1.86l-.27-.62a52.07,52.07,0,0,0-10,7,15.28,15.28,0,0,0-2.73,3.11.35.35,0,0,0,.55.42c4.51-4,11.48-5.75,17.28-7-.06-.23-.13-.45-.19-.68a17.4,17.4,0,0,0-7.57,5.28c-.21.25,0,.73.34.59a48.65,48.65,0,0,1,14.81-2.73,105,105,0,0,0,21.68-3,93.19,93.19,0,0,0,32.21-15.76l-.51-.5c-3.68,7.94-12,13.83-19.89,17.29-.34.15-.17.71.19.69,5.92-.31,11.64-3.65,16.59-6.63a103,103,0,0,0,10-6.82L253,92.7c-3.42,6.11-10.23,10.41-16.83,12.44a.38.38,0,0,0,.1.74c7.75-.1,15.75-3.44,22.07-7.84l-.46-.6c-4.15,5.27-11.32,8.17-17.9,8.79-.41,0-.56.67-.11.75a15.38,15.38,0,0,0,2.62.17,60.37,60.37,0,0,0,9.88-.4,35.74,35.74,0,0,0,14.5-6.11l-.57-.44c-.7,2.34-1.68,5.22-3.61,6.88-.24.21-.06.71.28.66a10.11,10.11,0,0,0,7-4.64l-.73-.19c-.33,5.33.37,11.84,3.82,16.22a.39.39,0,0,0,.67-.28,32.8,32.8,0,0,1,0-9.54l-.78-.1c.07,5.64,1.54,11.84,4.88,16.51a.39.39,0,0,0,.72-.3,41.1,41.1,0,0,1-.35-12.13h-.8a41.29,41.29,0,0,0,2.34,11.77,26.77,26.77,0,0,0,1.64,4.4,65.25,65.25,0,0,1,6.48,21.72,161.64,161.64,0,0,1,1.05,21.1c0,.48,0,1,0,1.44,0-.36-.1.07-.21.26a13.62,13.62,0,0,0-.68,1.45,25.63,25.63,0,0,0-1.61,11.7,67.53,67.53,0,0,0,2.52,13,.4.4,0,0,0,.79-.11,51.85,51.85,0,0,1,5.88-22.4,13.35,13.35,0,0,0,.67-3c.3-1.39.59-2.78.87-4.18q.87-4.31,1.62-8.64,1.25-7.23,2.13-14.53c1.5-12.4,2.26-25.07,1.21-37.55-.12-1.42-.27-2.85-.49-4.27a7.73,7.73,0,0,0-1.14-2.16c-.79-1.43-2.56-3.52-2.59-5.16a14.62,14.62,0,0,0-2.57-7.85c-.35-.5-.76-.8-.72-1.28a11.86,11.86,0,0,0-.68-4.38c-1.29-4.08-4.38-7.9-7.64-10.64-.09.24-.19.48-.29.72a9.15,9.15,0,0,1,6.68,3.87c.27.35.94.16.77-.32-1.52-4.17-5.55-7.19-9.56-8.82v.8c3.06-.55,6.59.71,9.42,1.86.44.18.73-.55.32-.77-2.19-1.16-4.14-2.77-6.27-4a62.32,62.32,0,0,0-6.34-3l.15.57c1.64-2.3,1.17-5.34,1.17-8,0-.38-.61-.61-.78-.21-.83,1.93-3.8,2.49-5.68,2.78.13.23.26.46.4.69,3.06-2.8,4.31-7.21,1.92-10.89a.42.42,0,0,0-.76.33c.65,3.54-2.89,6.31-5.74,7.68l.61.47c1.51-5.62-2.22-11.37-6.41-14.86-.34-.29-.95.09-.66.5a15.65,15.65,0,0,1,2.56,11.92h.8c-.44-3.08-2.49-6-4.11-8.61-.48-.75-1-1.5-1.48-2.23-.28-.4-1.14-.56-1.55-.73-7-2.91-13.41-6.92-20.19-10.33-5.25-2.63-10.59-5.11-16-7.51a6.54,6.54,0,0,0-2.29-.36c-2-.18-4.05-.27-6.07-.31-4.21-.11-8.42,0-12.62.3a274,274,0,0,0-46.59,7.35A133.79,133.79,0,0,0,143,37.08c-5.25,1.91-11.73,4-17.05,1a.4.4,0,0,0-.48.62,22,22,0,0,0,12.41,6c0-.26.07-.51.11-.76-4.17.55-8.39-.91-12.54-1A30.75,30.75,0,0,0,113,45.85c-.4.17-.12.79.28.68,3.94-1.09,12.77-2.47,14,3.44l.35-.46c-10-1-20.79,3.19-27.69,10.5-.26.28.09.79.42.55,4.81-3.6,12-6.09,17.83-3.35,0-.2,0-.41.08-.61-8.68,2.93-17.47,7.06-23.72,13.94-1.93,2.13-4.08,4.91-4.67,7.81,0,.27.3.55.51.29,3.09-3.83,7.53-7.38,12.47-8.46l-.23-.53c-7.55,5.5-14.53,12.21-18.76,20.65-1.39,2.79-2.76,6.1-2.85,9.27,0,.3.41.33.5.06,2.33-6.94,8.38-12.85,14.33-16.92-.09-.12-.19-.24-.28-.37-7.45,7.58-12.47,19-11.54,29.83,0,.22.36.3.41.06,1.28-6.2,3.89-12.76,8.93-16.88,1.09-.88,0-.06-.34.6a61.23,61.23,0,0,0-6.47,21.82c-2.21,19.61,4.24,38.94,3.28,58.56C89.81,176.44,90,176.43,90,176.33Z"/><path class="cls-8" d="M89.9,176.33c1.48-27.2-11.38-53.4,3.95-81.58,0,0-7,4.45-9.64,17.42A40.29,40.29,0,0,1,95.7,82.51S84.21,90.3,81.24,99.57c0,0,.37-14.47,21.51-29.67a24,24,0,0,0-12.61,8.53s2.6-13,28.19-21.51c0,0-8.53-4.08-18.18,3.34,0,0,11.5-12.24,27.45-10.38,0,0-1.49-7.42-14.47-3.71,0,0,8.16-3.71,15.21-2.6s9.64.74,9.64.74-7.79-1.11-12.24-5.93c0,0,6.31,3.71,16-.37s55.25-14.83,83.06-11.87c0,0,17.43,7.79,23.36,11.5a105.51,105.51,0,0,0,14.47,7s5.19,7.41,5.56,10.75c0,0,1.48-6.68-2.6-12.24,0,0,8.53,7,6.31,14.46,0,0,7-3.33,5.93-8.15a7.85,7.85,0,0,1-1.85,10.38s5.19-.74,5.93-3v4.45a6.19,6.19,0,0,1-1.11,3.34s3.33,1.48,5.56,2.59,5.56,3.71,7,4.45c0,0-6.3-2.59-9.64-1.85,0,0,7.42,3,9.27,8.53,0,0-3-4.08-7-4.08,0,0,8.9,7.42,8.16,15.2a13.77,13.77,0,0,1,3.33,9.28l3.71,6.67s4.45,25.59-5.93,71.94c0,0-5.93,11.5-5.93,22.62,0,0-3-10.38-2.6-16.69s2.6-9.64,2.6-9.64.37-18.91-2.23-29.29-5.56-15.58-5.56-15.58-3.71-9.27-3.71-15.57c0,0-.74,7,.37,12.23a30.14,30.14,0,0,1-4.82-16.31,34.23,34.23,0,0,0,0,9.64s-4.45-5.56-3.71-15.94c0,0-2.59,4.07-6.67,4.44,0,0,2.22-1.85,3.71-7,0,0-8.53,5.93-16.69,6.3s-10,0-10,0,12.23-1.11,18.17-8.9c0,0-11.13,7.79-21.88,7.79,0,0,12.23-3.71,17.05-12.61,0,0-16.68,13-26.32,13.35,0,0,15.2-6.67,20-17.43,0,0-17.06,13-36.34,16.69s-20,.37-32.26,4.82a17.93,17.93,0,0,1,7.42-5.19s-12.61,2.6-17.43,7c0,0,2.59-4.44,12.6-10,0,0-12.6,3-17.42,7,0,0,3.33-5.93,12.6-10.38,0,0-24.84,7-43,24.84,0,0-15.21,20.4-20,46,0,0-.37,33.75,7.79,58.59,0,0-3.71.74-7.79-3.71,0,0-1.85-24.1-6.67-36.34,0,0-2.6-6.3-4.45-9.64,0,0-2.23-3.71-5.19-3.34S89.9,176.33,89.9,176.33Z"/></g></g></svg>