<svg xmlns="http://www.w3.org/2000/svg" xmlns:xlink="http://www.w3.org/1999/xlink" viewBox="0 0 380.54 380.54"><defs><style>.cls-1{fill:#a17eb1;}.cls-2{fill:#eb7b4f;}.cls-3{fill:#f68a63;}.cls-4{fill:#cb4e28;}.cls-5{fill:#741716;}.cls-6{fill:#e61e3f;}.cls-7{fill:url(#linear-gradient);}.cls-8{fill:#ab0000;}.cls-9{fill:#fff;}.cls-10{fill:#56295b;}</style><linearGradient id="linear-gradient" x1="166.45" y1="274.7" x2="166.45" y2="280.6" gradientUnits="userSpaceOnUse"><stop offset="0" stop-color="#ea5856"/><stop offset="1" stop-color="#f29498"/></linearGradient></defs><g id="Capa_2" data-name="Capa 2"><g id="Avatar_18"><circle class="cls-1" cx="190.27" cy="190.27" r="190.27" transform="translate(-78.81 190.27) rotate(-45)"/><path class="cls-2" d="M244.71,331.33c-9.6-16.69-8.09-64.72-8.09-64.72L177,298c4,39.43-8.6,56.12-23.26,64.21-4.61,2.55-10.77,6.49-17,10.7A190.88,190.88,0,0,0,276.35,360l-.79-.36C259.38,352.56,254.32,348,244.71,331.33Z"/><path class="cls-3" d="M282.91,172.08c-1-.71-4.79-1.77-5.84-2.05,2.53-19.72,8.83-56.41-18.44-85.5C228,51.8,186,51.8,163,57.42s-50.12,28.64-55.74,53.7-2.1,32.62-4.63,40.71-7.08,19.21-1,31.35a119.37,119.37,0,0,1,3,25.78c0,13.66,8.08,32.87,23.25,52.08s24.35,39.3,42,41c26.8,2.53,64.88-21.61,77.87-49.51a147.92,147.92,0,0,0,8.59-25.39c4.25.79,7.68-2,10.64-6.48,3.79-5.69,8.72-9.48,12.51-14.79C285.18,197.87,291.25,178.15,282.91,172.08Z"/><path class="cls-3" d="M114.43,109.87a43,43,0,0,1,12.95-19.24c11.66-9.75,28.48-14.27,43.51-13.29,7.94.52,17.49,2.5,24.58,6.27,13,6.9,20.28,14.28,22.57,29.17,1,6.26.94,12.66,2.11,18.9.21,1.14,5.25,15.72,7.39,13.86,0,0-8.72,7.58-9.86,7.58s-113,4.17-113,4.17L102,155.78s7.58-10.62,8-19C110.4,127.7,111.43,118.35,114.43,109.87Z"/><path class="cls-3" d="M144.85,234.5s.25,2.78,4.3,3.29a7.37,7.37,0,0,0,8.34-4.81c1.52-3.54,4.55-22.25,3.54-42.72l-15.17.25s2.78,21.24,2.28,28.06S144.85,234.5,144.85,234.5Z"/><path class="cls-3" d="M145.78,230.54a8,8,0,0,1,4-1.52c2,0,9.44,2.87,9.44,2.87l1-2s-7.75-3-10.45-3a5.26,5.26,0,0,0-2.86,1Z"/><path class="cls-3" d="M193,206.4a8.92,8.92,0,1,1-8.92-8.91A8.91,8.91,0,0,1,193,206.4Z"/><path class="cls-3" d="M146.75,205.84c.38,4.59-2.31,8.57-6,8.87s-7-3.16-7.4-7.75,2.32-8.56,6-8.87S146.37,201.25,146.75,205.84Z"/><path class="cls-3" d="M251.27,237.69c-9.21,16.05-26.13,23.63-37.8,16.94S199.81,229.5,209,213.45s26.13-23.63,37.8-16.93S260.47,221.64,251.27,237.69Z"/><path class="cls-3" d="M133.48,221.93c-5.26-15.73-18.44-26.7-29.49-24.6a107.25,107.25,0,0,1,.67,11.63c0,12.12,6.37,28.62,18.42,45.62C134.1,252.3,138.76,237.7,133.48,221.93Z"/><path class="cls-3" d="M105.82,184.22s-3.79-26.93,5.69-31.1,21.23.76,21.23.76l6.45,8,.76,2.66s3.79,16.68,2.65,43.61l-11-8.73s-9.1-9.1-11-9.48-9.48-.37-9.48-.37Z"/><path class="cls-3" d="M180.9,206.21s-7.58-39.43,1.52-51.57,23.89-11,23.89-11l15.92,1.52s14.79,4.17,17.83,7.58c0,0,0,22-9.86,42.09Z"/><path class="cls-3" d="M143.93,237.11c-.2.88,2.78,2.68,3.35,2.92,4,1.72,8.54-.41,12.32-1.74,3.37-1.18,8.76,1.86,9.27,3.71,0,0,.17,2.19-1.18,2.53s-21.41.17-21.41.17l-2.19-1.35-.84-3.2S143.92,237.12,143.93,237.11Z"/><path class="cls-3" d="M143.59,239.56s1.26,3.53,6.57,3.28,8.6-2.78,10.37-3.28,8.09,1.26,7.83,3.28l-.5,2s-3,13.39-9.1,13.65-5.06-8.6-9.36-10.62C149.4,247.9,143.59,244.36,143.59,239.56Z"/><path class="cls-3" d="M163.05,285.82s8.1.51,10.37,0c0,0-1.26,4.3-3.79,4.05S163.05,285.82,163.05,285.82Z"/><path class="cls-3" d="M140.05,262.31l-1.52,3.54S135.24,262.31,140.05,262.31Z"/><path class="cls-3" d="M210.58,260.79l2.79,4.3S216.65,261.3,210.58,260.79Z"/><path class="cls-4" d="M201.38,164.12s11-4.93,25.78,2.66C227.16,166.78,213.13,153.88,201.38,164.12Z"/><path class="cls-4" d="M132.1,167.82s-8.42-4-18.84,3.77C113.26,171.59,122.78,158.91,132.1,167.82Z"/><path class="cls-3" d="M279.22,174.84l-2.1,2c-2.26,1.37-7.12,8.49-7.12,8.49l-2.82,4.38-.09-.09c-1.52,1.39-4.55,8.47-4.55,8.47l.15.5-.15.14a3.85,3.85,0,0,1,.39.6l.58,1.78a7.91,7.91,0,0,1-1.48,4.95s4.3-1.52,5.18-4.55a5.3,5.3,0,0,0-1.5-5c.46-1.06.9-2,1.25-2.66a2.59,2.59,0,0,1,3-1.39l-1.08-1,.44.14c-.63-1.26,2.4-4.3,2.4-4.3l-.07-.07c1.16.89,2.48,1.72,2.48,1.72s-1.27-3.42,0-5.44c.92-1.48,3.42-3,4.68-3.65a27.75,27.75,0,0,1,4,5.42S281,176.73,279.22,174.84Zm-9.1,25.91.76-4.3S269.11,197.46,270.12,200.75Zm2.91,2.78c2.65-5.06,1.39-8.47,1.39-8.47A48.34,48.34,0,0,0,273,203.53Zm7.33-15.3c1.26,3.42-1.26,13.15-1.26,13.15,4-6.95,3.41-12.39,3.41-12.39Z"/><path class="cls-3" d="M148.31,245.2s4.89,3,7.08,2.87a5,5,0,0,0,4-3.37S152.69,246.38,148.31,245.2Z"/><path class="cls-3" d="M286.89,178.74a11.61,11.61,0,0,0-3.21-6.42,9.54,9.54,0,0,0-9.95-1.81,12.48,12.48,0,0,0-4.5,2.93,9,9,0,0,0-1.3,2.14c-.49.86-.91,1.76-1.35,2.64-1.95,3.87-3.69,7.9-6.43,11.3,0,0,0,0,0,0a43.91,43.91,0,0,0,5-8.07c.71-1.38,1.41-2.77,2.21-4.1a11.54,11.54,0,0,1,2.94-3.73c2.85-1.95,5.72-3.29,9.27-2.63a8.42,8.42,0,0,1,6,4.71c2.17,4.55,1.31,10.29.2,15A50.62,50.62,0,0,1,280,204.75c-3.25,5.54-8.56,9.56-12.37,14.69-1.84,2.48-3.49,5.06-6.26,6.62s-6,.88-8.7-.68a.2.2,0,0,0-.2.34,9.06,9.06,0,0,0,7.35,1.44c2.55-.69,4.55-2.79,6.12-4.8,1-1.24,1.77-2.6,2.72-3.86,1.21-1.6,2.56-3.1,3.92-4.57,2.3-2.51,4.75-5,6.79-7.67a40.75,40.75,0,0,0,6.11-12.95C286.87,188.67,287.72,183.56,286.89,178.74Zm-27.13,32.78s0,0,0,0c.29-2.75,2-4.74,3.3-7a6,6,0,0,0,.16-6.11c-.3-.58-1.18-.07-.88.51a6.13,6.13,0,0,1-.34,6.8A12.27,12.27,0,0,0,259.76,211.52Zm19.71-36.05c.45-.35-.15-1.13-.61-.79a32.88,32.88,0,0,0-4.35,4.32,55.63,55.63,0,0,0-4.35,5.55,73.43,73.43,0,0,0-7.48,12.87c-.07.16.16.31.25.14,1.23-2.33,2.47-4.65,3.79-6.91a.28.28,0,0,0,.26.29c3.26.21,4.44,3.74,3.77,6.54,0,0,0,.05.05,0,1-2.77-.38-7-3.82-7.11a.28.28,0,0,0-.13,0c1-1.64,2-3.25,3.06-4.82a4.44,4.44,0,0,0,2.28,2.58,11.92,11.92,0,0,1,1.89,1.21c.71.64.65,1.86.6,2.72-.21,3.87-1.91,7.52-1.64,11.45h0c-.24-4,1.6-7.8,1.87-11.76.09-1.37.14-2.68-1-3.59s-3.06-1.5-3.72-2.94c0,0,0,0,0,0a54.54,54.54,0,0,1,4.5-5.55A41.11,41.11,0,0,1,279.47,175.47Z"/><path class="cls-4" d="M147.53,216.07a22.79,22.79,0,0,1-1.05,12.18c-1.06,3.2-2.89,6.19-3.61,9.5a8.11,8.11,0,0,0,2,7.51,13.07,13.07,0,0,0,5.13,3.22,23.77,23.77,0,0,0,3.82.88,11.37,11.37,0,0,0,3.67.3.23.23,0,0,0,0-.44c-1.16-.2-2.34-.22-3.51-.46a17,17,0,0,1-3.88-1.6,14.26,14.26,0,0,1-4.74-3.46c-1.85-2.23-1.44-5.14-.84-7.74.74-3.18,2-6.19,2.81-9.35a21.38,21.38,0,0,0,.25-10.54Z"/><path class="cls-4" d="M161.67,246.37c-.62-1.54.55-1.88,1.84-2a9.84,9.84,0,0,1,3.71.21c.13,0,.18-.16.06-.2-1.57-.51-3.24-1.13-4.88-.66-1.38.4-1.52,1.59-.94,2.71a.11.11,0,0,0,.21-.09Z"/><path class="cls-4" d="M166.89,246.07c2-1.36,2.6-4.2,2.37-6.49a.12.12,0,0,0-.23,0c-.29,2.51-.37,4.47-2.19,6.41,0,0,0,.11,0,.08Z"/><path class="cls-5" d="M161.66,245.31s-.19-1.27,3.54-.89C165.2,244.42,163.31,245.88,161.66,245.31Z"/><path class="cls-3" d="M142.91,264.25s5.12-4.4,8.83-5.08c2.35-.43,4.23,1.65,6.47,1.89,2.65.28,4.91-1.27,7.52-1.38,3.88-.17,5.9.38,13.65,1.89s26.4,1.67,28.08,1.5c0,0-10.78,6.06-13.82,6.06s-23.59,2-24.43,2.2-10.62-.51-12.48-.51Z"/><path class="cls-6" d="M141.91,265.6a56.41,56.41,0,0,0,4.31,6.32c2.26,2.78,2.11,7.38,4.07,9.35,2.27,2.28,15.39,4.8,23.09,1.27s30.86-20.15,30.86-20.15-2.69.79-5.58,1.44c-2.06.46-4.18,1.26-6.72,1.26-6.11,0-31.69.51-32.37.76s-12.22-.25-12.9-.25Z"/><path class="cls-7" d="M148.63,273.18s-.3,5.9,5.13,7.42,12.22.67,12.22.67l6.65-.84,2.41-.68s7.54-3.7,9.05-6.91S177,270,177,270s-5.25-.38-5.58,0-20.53.5-20.53.5Z"/><path class="cls-6" d="M148.63,273.18s-.3,5.9,5.13,7.42,12.22.67,12.22.67l6.65-.84,2.41-.68s7.54-3.7,9.05-6.91S177,270,177,270s-5.25-.38-5.58,0-20.53.5-20.53.5Z"/><path class="cls-6" d="M198.66,263.83c-2.06.46-4.18,1.26-6.72,1.26-6.11,0-31.69.51-32.37.76s-12.22-.25-12.9-.25h-4.76a56.41,56.41,0,0,0,4.31,6.32,9.47,9.47,0,0,1,1.43,2.66l.15.12s.23-2,8.38-2,28.52-.5,29,2.53a2.33,2.33,0,0,0,0,.28c9-5.92,19-13.09,19-13.09S201.55,263.18,198.66,263.83Zm-48.37,14.66a10.48,10.48,0,0,0,8.15,4.05c5.66.25,14.26-1.27,17-2.79C175.42,279.75,156.4,281.78,150.29,278.49Z"/><path class="cls-6" d="M143.39,266.61l3.05,3.79a28.74,28.74,0,0,1,4.42.13c2.37.25,1.58,1.76,7,1.76s5.78-.75,8.6-1.13,22.07-2.4,23.09-1.77l1,.63s7.36-3.79,9.39-5.82c0,0-8.71,2.53-10.29,3.17s-22,2.78-25.58,2.52l-3.4.64s-6.45,1.89-8.37-2C152.33,268.5,150.29,269.39,143.39,266.61Z"/><path class="cls-8" d="M204.29,262.32l0,0-5.07.73a83.21,83.21,0,0,1-18.33.76c-6.79-.51-14.71-2.79-18.56-2a13.85,13.85,0,0,0-6.11,2.78S152.1,261,150.29,261s-4.75,1.52-6.79,2.79c-1.88,1.16-4.61-.45-5-.7l0-.05s0,0,0,0a19,19,0,0,0,1.66,1.38l.14.11.72.51a22,22,0,0,0,7,3.1c1.09.32,2.18.62,3.3.91.08,0,.81,0,.87.14a3.24,3.24,0,0,0,.78,1,5.38,5.38,0,0,0,2.52,1.13,8.13,8.13,0,0,0,3,0,7.62,7.62,0,0,0,2.87-.62.11.11,0,0,0,.05-.13l2.93-.73s0,0,0,0A108.13,108.13,0,0,0,184,268.51a86.66,86.66,0,0,0,10.44-2.26c1.65-.46,3.27-1,4.88-1.6s3.32-1.53,5-2.31C204.31,262.34,204.3,262.32,204.29,262.32Z"/><path d="M177.58,162.09a111.1,111.1,0,0,0,13.47-7.94,35.94,35.94,0,0,1,14.32-6.64c7.26-1.47,18.43-2.19,34.38,4.86,1.05,0,2.1,0,3.17,0a107.83,107.83,0,0,0-22.35-9.3c-13.17-3.78-25.16-1.88-34.31,3C176.87,151.16,173.46,159.22,177.58,162.09Z"/><path d="M182.84,159c-2.16,1.24-3.89,2.17-4.7,2.59A4,4,0,0,1,177,158c.36-3.35,4-8,9.85-11.18a40,40,0,0,1,7-2.93,44.71,44.71,0,0,1,26.57.26,98.65,98.65,0,0,1,19.8,8.56h-.53c-12-6-22.86-7-31-6.05a34.83,34.83,0,0,0-16.92,6.49l-1.07.77c-2.39,1.72-5,3.37-7.89,5Z"/><path d="M140.28,165.06a24.73,24.73,0,0,1-8.22-5.43c-2.11-2-4.19-4.14-8.3-5.4-4-1.1-10.24-1.36-18.58,4.37-.67-.21-1.35-.4-2-.58a67.28,67.28,0,0,1,12-8.23,18.32,18.32,0,0,1,18.56,1C139.39,154.33,142.22,160.94,140.28,165.06Z"/><path d="M136.92,162.89a25.29,25.29,0,0,0,2.89,1.5,7.72,7.72,0,0,0,.21-3.95c-.56-3.17-3.1-6.83-6.65-9a20.57,20.57,0,0,0-4-2,16.79,16.79,0,0,0-14.09,1.25,57.61,57.61,0,0,0-10.38,7.63l.34.09c6.29-4.77,12.24-5.77,16.64-5.08a17.18,17.18,0,0,1,9.61,5.19l.66.64a25.81,25.81,0,0,0,4.78,3.72Z"/><path d="M205.55,206.21l7.2,3.79s10.24-5.31,17.07-8.34l.76-9.1-24.65,12.13Z"/><path d="M229.29,180.36s9.39-5.57,12.23-13.25c0,0-.72,9.91-12.09,17.67Z"/><path d="M232.07,182.67a17.83,17.83,0,0,0,5.06-6.82S227,167.25,209.07,169s-24,22.25-27.31,35.14l17.45-6.07Z"/><path d="M183.58,202.19c1.69-6.32,3.92-13.26,7.45-19.12,4.73-7.87,10.67-12,18.16-12.79a46.83,46.83,0,0,1,4.7-.24c11.81,0,19.4,4.61,21.69,6.22a17,17,0,0,1-4.19,5.33l-32.66,15.33-15.15,5.27Z"/><path class="cls-9" d="M207.45,175.12c-14.41,1.89-22.76,19-26.55,31.47a42.34,42.34,0,0,1,7.84-1.13A82.72,82.72,0,0,0,206,207.68l.31,0c5.31.76,4.55,0,4.55,0,5.68-1.52,11.37-3.41,15.55-7.59a25.23,25.23,0,0,0,5.3-15.54v-2.66A33.47,33.47,0,0,0,207.45,175.12Z"/><path class="cls-10" d="M227.5,189a20.43,20.43,0,0,0-3.45-11.45,32.36,32.36,0,0,0-16.6-2.38c-6.52.85-11.79,4.81-16,10a21.46,21.46,0,0,0-.34,3.79c0,8.75,5.35,16.15,12.72,18.64l2.14.09.31,0c5.31.76,4.55,0,4.55,0a50,50,0,0,0,9.75-3.48A20,20,0,0,0,227.5,189Z"/><path class="cls-10" d="M209.32,205.93c8.72,0,15.8-7.6,15.8-17a17.46,17.46,0,0,0-5.65-13,31.72,31.72,0,0,0-12-.83,22.34,22.34,0,0,0-12.1,5.9,17.86,17.86,0,0,0-1.83,7.93C193.52,198.33,200.59,205.93,209.32,205.93Z"/><path d="M220.49,189c0,6.63-5,12-11.17,12s-11.17-5.37-11.17-12,5-12,11.17-12S220.49,182.32,220.49,189Z"/><path d="M219,189c0,5.76-4.35,10.43-9.71,10.43s-9.71-4.67-9.71-10.43,4.35-10.43,9.71-10.43S219,183.19,219,189Z"/><path d="M219,189c0,5.76-4.35,10.43-9.71,10.43s-9.71-4.67-9.71-10.43,4.35-10.43,9.71-10.43S219,183.19,219,189Z"/><path class="cls-9" d="M205.1,179.43a4.23,4.23,0,1,0,4.58-4.51c-.43,0-.85.05-1.28.09A4.47,4.47,0,0,0,205.1,179.43Z"/><path d="M231.79,181.87c-9-8.21-24.1-10.68-34.26-3.34a36.49,36.49,0,0,0-10.25,12.33,74.77,74.77,0,0,0-6.16,14.86c-.09.29-.17.57-.25.86,0,0,0,0,.06,0,3.27-9.82,7.94-20.07,16.4-26.52,4.63-3.53,10-4.77,15.77-4.47,6.7.35,12.93,2.95,18.56,6.42C231.76,182.1,231.88,182,231.79,181.87Zm-5.41,18.25a30.22,30.22,0,0,1-7.27,4.66c-2.67,1.21-5.5,2-8.26,2.93,0,0,0,0,0,0,5.53-1.06,11.72-3.29,15.57-7.58A0,0,0,0,0,226.38,200.12Z"/><path d="M117.57,200.52v3.8s5.69,3,11.38,6.82l5.69-4.17Z"/><path d="M115.53,192.53s-9.46-4.27-13.5-12.11c0,0,9.45,8.83,14.76,9.84Z"/><path d="M115,191.52s-2.53-.5-5.56-3.79c0,0,.14-11.15,9.86-14.92,7.84-3,14.13,3.12,17.43,9.7,1.86,3.71,2.64,7.79,3.32,11.85.29,1.78.33,10.21,1.75,11.32,0,0-9.1-7.08-10.11-7.33S115,191.52,115,191.52Z"/><path d="M139.47,202.27c-6.43-4.89-7.19-5.08-7.46-5.15-.84-.24-10.57-4.28-16.5-6.77l-.1,0-.13,0a10.4,10.4,0,0,1-4.53-3c.15-2.12,1.25-10.25,9-13.26a10.14,10.14,0,0,1,3.64-.71c6.77,0,11.06,7.5,12.21,9.79,1.79,3.57,2.53,7.48,3.2,11.5.07.41.14,1.42.2,2.48.14,2.13.27,3.85.45,5.22Z"/><path class="cls-9" d="M114.54,191.8l.38,1.52a28.81,28.81,0,0,0,4.55,9.1c2.51,3.24,4.43,4.41,8,6.07,4.66,2.17,10.95-3.26,14.79-.38-1.13-8-1.51-16.31-6.45-23.89C129.45,174.49,116.06,174.36,114.54,191.8Z"/><path class="cls-10" d="M124.19,177.68c-2.38,3.34-3.75,8.32-3.44,13.8.52,9.62,6,17.15,12.24,16.81,3.5-.19,6.5-2.83,8.36-6.82-.82-5.86-2-11.76-5.58-17.25C132.82,179.66,128.31,177.21,124.19,177.68Z"/><path class="cls-10" d="M122.22,191.39c.46,8.37,5.23,14.91,10.64,14.61,3.56-.19,6.51-3.28,8-7.75a36.27,36.27,0,0,0-5.08-14,13.86,13.86,0,0,0-9.09-6.48C123.73,180.46,121.9,185.6,122.22,191.39Z"/><path d="M131.44,180.14c-3.83.21-6.67,5.18-6.34,11.1s3.69,10.54,7.52,10.33,6.57-5,6.35-10.8a30,30,0,0,0-3.2-6.55,16.22,16.22,0,0,0-3.71-4.07A4.26,4.26,0,0,0,131.44,180.14Z"/><path d="M138.05,190.52c.29,5.14-2.18,9.46-5.51,9.64s-6.25-3.83-6.54-9,2.19-9.46,5.52-9.64S137.77,185.38,138.05,190.52Z"/><path d="M138.05,190.52c.29,5.14-2.18,9.46-5.51,9.64s-6.25-3.83-6.54-9,2.19-9.46,5.52-9.64S137.77,185.38,138.05,190.52Z"/><path class="cls-9" d="M128.94,182.51c.13,2.23,1.4,4,2.84,3.9s2.52-2,2.4-4.19c0,0,0-.07,0-.11a14.7,14.7,0,0,0-4.07-3.22A4.74,4.74,0,0,0,128.94,182.51Z"/><path d="M141,198.07a44,44,0,0,0-2.82-10c-1.76-4.07-4.54-8.43-8.85-10.17a9.6,9.6,0,0,0-9.59,1.05c-3.68,2.92-4.87,8-5.17,12.44,0,.14,0,.27,0,.4a0,0,0,1,0,0,0c.55-4.42,1.94-9.34,5.75-12.06a9,9,0,0,1,9.16-.54c4.22,1.93,6.83,5.78,8.63,9.92a40.22,40.22,0,0,1,2.64,9.45c.55,3.16.66,6.44,1.39,9.56a.1.1,0,0,0,.19,0A87.08,87.08,0,0,0,141,198.07Zm-13.49,10.34c-1.39-.83-2.84-1.54-4.18-2.44a20.15,20.15,0,0,1-3.8-3.58s-.1,0-.07.05a16.22,16.22,0,0,0,8,6.13C127.51,208.61,127.57,208.46,127.48,208.41Z"/><path d="M293.55,270.76c3-41.72,11.37-88,8.34-135S253.34,31.07,191.15,35.62s-113,54.61-113,161.56c0,59,20,130,59.16,175.22h.06c2.15-1.43,4.27-2.83,6.32-4.15l.43-.27L146,366.8l.42-.27,1.55-1,.35-.22,1.76-1.06.83-.49.89-.53.31-.18,1.63-.92c8.24-4.54,15.84-11.8,20.2-24.28l.14-.42c.06-.19.13-.38.19-.57l.15-.48c.06-.17.12-.35.17-.53l.15-.5c.06-.18.11-.36.16-.54l.15-.51.15-.56c0-.17.09-.33.14-.51s.09-.39.14-.58.09-.34.13-.51l.15-.65c0-.15.07-.3.1-.46.09-.36.16-.73.24-1.1,0-.13.05-.27.08-.41l.15-.75.09-.51.12-.67.09-.55c0-.22.07-.44.11-.67s.05-.37.08-.55.07-.46.1-.69.05-.38.07-.56.07-.49.09-.73.05-.36.07-.54l.09-.83c0-.15,0-.31.05-.46l.12-1.3,0-.33c0-.34,0-.67.07-1,0-.17,0-.35,0-.52s0-.57.05-.85l0-.58c0-.28,0-.55,0-.83l0-.6,0-.84c0-.2,0-.4,0-.6s0-.59,0-.88,0-.39,0-.59v-1.49c0-.5,0-1,0-1.51,0-.06,0-.13,0-.19,0-.45,0-.9,0-1.35,0-.18,0-.37,0-.55l0-1,0-.63c0-.32,0-.65-.05-1s0-.44,0-.66,0-.66-.06-1,0-.45,0-.68-.05-.67-.08-1a43.9,43.9,0,0,1-7.44-.05c-.54-.05-1.08-.12-1.61-.21l-.56-.11-1-.19-.67-.18c-.29-.07-.57-.14-.85-.23l-.69-.23c-.26-.09-.53-.17-.79-.27l-.69-.28c-.25-.1-.5-.2-.75-.32l-.68-.32c-.25-.12-.49-.23-.73-.36s-.44-.24-.66-.37-.48-.25-.71-.39l-.66-.41-.68-.44-.65-.45c-.22-.16-.45-.31-.67-.48s-.42-.32-.63-.48l-.66-.52-.61-.52c-.22-.18-.44-.36-.65-.55l-.61-.55c-.21-.2-.43-.39-.64-.6s-.4-.38-.59-.57l-.64-.63-.58-.6-.64-.67c-.19-.2-.38-.41-.56-.62l-.64-.71-.56-.64-.64-.74-.54-.65-.65-.79-.52-.65c-.22-.28-.45-.56-.67-.85l-.5-.64-.69-.9-.47-.62-.73-1-.43-.59-.78-1.06-.38-.52L141,278.9l-.25-.35c-.36-.5-.72-1-1.07-1.5l0,0c-1.72-2.4-3.47-4.9-5.29-7.42l-.2-.28-1-1.44-.3-.41-1-1.34c-.12-.16-.25-.32-.37-.49l-.95-1.26-.42-.56c-.31-.4-.61-.81-.93-1.21l-.09-.13L127.91,261q-3.18-4-6-8.05a134.23,134.23,0,0,1-7.65-12.48l-.06-.11c-.25-.47-.5-.94-.74-1.41l-.09-.17c-.24-.46-.47-.92-.7-1.38l-.07-.15c-.24-.47-.47-.95-.7-1.42q-1.4-2.94-2.54-5.78l-.07-.18c-.15-.37-.3-.75-.44-1.13-.06-.13-.11-.27-.16-.41l-.38-1-.18-.5-.33-1-.18-.55-.3-.91-.18-.58-.27-.87c-.06-.2-.11-.4-.17-.6l-.24-.84c-.05-.22-.11-.43-.16-.64-.12-.45-.23-.89-.33-1.33-.07-.27-.13-.53-.19-.8s-.09-.43-.14-.64l-.15-.76-.12-.63c0-.25-.09-.5-.13-.75s-.07-.41-.1-.61-.08-.5-.11-.75-.06-.39-.08-.59-.06-.5-.09-.75l-.06-.56c0-.26,0-.51-.07-.77s0-.34,0-.51,0-.56,0-.84,0-.28,0-.42c0-.41,0-.82,0-1.23s0-1,0-1.47v-.13l0-1.4s0-.05,0-.08c0-.48,0-1,0-1.44a.22.22,0,0,0,0-.08c0-.46,0-.92-.07-1.38v-.09q-.09-1.42-.21-2.79V200q-.12-1.38-.27-2.7a116,116,0,0,0-2.37-14.15c-.2-.4-.38-.79-.56-1.19l-.15-.36c-.12-.27-.24-.54-.34-.81s-.11-.29-.16-.44-.19-.49-.27-.73-.11-.31-.15-.46-.16-.47-.23-.71-.09-.31-.13-.46-.13-.47-.18-.7-.08-.31-.11-.46-.11-.46-.15-.68-.07-.32-.1-.47S99,175.26,99,175s0-.32-.07-.47-.06-.44-.09-.66,0-.29,0-.44c-.09-.89-.14-1.76-.16-2.63v-.33c0-.35,0-.7,0-1v-.27c0-.43,0-.86.07-1.28,0,0,0-.11,0-.16,0-.37.07-.75.11-1.12l0-.3.15-1.11s0-.09,0-.13c.07-.42.14-.84.22-1.25l0-.2c.07-.35.14-.71.22-1.06.85-4,2.14-7.59,3.13-10.75a19.18,19.18,0,0,0,.65-2.77s56.26-22.09,81.5-44.33c4.56,4.55,8.76,9.91,13.24,13.77,11.93,10.28,25.24,23.43,40.2,29.15,0,0-4.52,61,5.24,112.56-.41.65-.84,1.28-1.28,1.92l-.74,1.05-.82,1.13c-.24.31-.47.63-.71.95s-.68.88-1,1.31c-.2.25-.39.5-.6.75-.56.69-1.13,1.37-1.71,2.05,0,2.59-.06,6.81.05,11.92.33,15.55,1.91,39.29,8.09,50,.17.28.33.56.49.84l.14.24c.12.2.24.4.35.6l.15.25c.11.2.23.4.35.59l.12.2.39.66a.75.75,0,0,1,.07.12c7.92,13.11,14.72,18.66,28.79,24.81l.79.36a191.14,191.14,0,0,0,18.7-10.9C288.25,324.93,291.31,301.57,293.55,270.76Zm-7.11-81.17c0,.16-.07.32-.11.49-.09.4-.19.8-.29,1.2,0,.15-.07.3-.11.46-.14.52-.29,1-.45,1.57a40.75,40.75,0,0,1-6.11,12.95c-2,2.72-4.49,5.16-6.79,7.67-1.36,1.47-2.71,3-3.92,4.57-1,1.26-1.76,2.62-2.72,3.86-.22.29-.46.57-.7.85a1.46,1.46,0,0,1-.16.19c-.2.23-.4.46-.62.68l-.16.17c-.23.24-.47.47-.71.69l-.12.11c-.29.25-.59.5-.9.73h0a8.67,8.67,0,0,1-2.75,1.38q-.35.09-.69.15c-.84-6.72-2.52-27.12,5.38-43.76a51.35,51.35,0,0,0,4.55-8.59s4-4.29,8.14-5.94c0,.29-.07.57-.11.85a8.88,8.88,0,0,1,6.59,2.45,11.61,11.61,0,0,1,3.21,6.42A29,29,0,0,1,286.44,189.59Z"/></g></g></svg>