<svg xmlns="http://www.w3.org/2000/svg" xmlns:xlink="http://www.w3.org/1999/xlink" viewBox="0 0 380.54 380.54"><defs><style>.cls-1{fill:#ffdb59;}.cls-2{fill:#bb6441;}.cls-3{fill:#c66d4d;}.cls-4{fill:#863319;}.cls-5{fill:#440f0f;}.cls-6{fill:#bc1f1a;}.cls-7{fill:url(#linear-gradient);}.cls-8{fill:#ad0705;}.cls-9{fill:#fff;}.cls-10{fill:#8166ba;}.cls-11{fill:#4f2d61;}</style><linearGradient id="linear-gradient" x1="176.17" y1="271.19" x2="176.17" y2="276.72" gradientUnits="userSpaceOnUse"><stop offset="0" stop-color="#c03b34"/><stop offset="1" stop-color="#c86a66"/></linearGradient></defs><g id="Capa_2" data-name="Capa 2"><g id="Avatar_16"><circle class="cls-1" cx="190.27" cy="190.27" r="190.27"/><path class="cls-2" d="M257,334.25l-.64-1-.29-.48-.64-1-.3-.49-.68-1.16-.27-.45c-.32-.54-.64-1.09-1-1.67-6.2-10.76-7.77-34.58-8.1-50.12,0-.47,0-.93,0-1.38v-.17c0-1,0-1.95,0-2.86v-.08c0-3.28,0-5.95,0-7.72q0-1.12,0-1.74v-.05c0-.24,0-.4,0-.5v-.1l-59.66,31.35c.12,1.17.22,2.31.31,3.43,0,.37.05.72.08,1.08,0,.76.11,1.5.15,2.24l.06,1.24c0,.66.06,1.32.08,2,0,.42,0,.84,0,1.26l0,1.85c0,.41,0,.82,0,1.22,0,.61,0,1.22,0,1.81,0,.38,0,.76,0,1.14,0,.63,0,1.25-.07,1.87,0,.32,0,.64,0,1,0,.82-.11,1.64-.17,2.43,0,.1,0,.19,0,.29-.08.88-.17,1.75-.27,2.6,0,.28-.07.55-.1.83-.07.57-.14,1.14-.22,1.69,0,.32-.11.64-.16,1l-.24,1.46c-.06.33-.12.65-.19,1s-.18.92-.28,1.37-.13.63-.2.94-.22.89-.33,1.32-.14.59-.22.88c-.12.46-.25.9-.38,1.35-.08.25-.15.5-.22.75-.17.55-.35,1.09-.53,1.63,0,.13-.09.26-.13.38-4.36,12.49-12,19.75-20.2,24.3-6.09,3.36-14.87,9.15-23.07,14.78a190.73,190.73,0,0,0,144.5-17.5C270,350.09,264.37,345.83,257,334.25Z"/><path class="cls-3" d="M291.41,168.71c-1-.71-4.78-1.77-5.83-2.05,2.53-19.72,8.83-56.42-18.44-85.51-30.69-32.73-72.62-32.73-95.63-27.1s-50.12,28.64-55.74,53.7-2.1,32.62-4.63,40.71-7.08,19.21-1,31.34a119.89,119.89,0,0,1,3,25.79c0,13.65,8.09,32.87,23.26,52.08s24.35,39.29,42,41c26.8,2.53,64.88-21.62,77.86-49.51a147.1,147.1,0,0,0,8.6-25.39c4.25.78,7.67-2,10.64-6.48,3.79-5.69,8.72-9.48,12.51-14.79C293.69,194.5,299.76,174.78,291.41,168.71Z"/><path class="cls-3" d="M122.93,106.5a43.17,43.17,0,0,1,12.95-19.24C147.55,77.5,164.37,73,179.4,74c7.94.51,17.49,2.5,24.58,6.26,13,6.9,20.28,14.29,22.57,29.17,1,6.27.94,12.67,2.1,18.91.22,1.14,5.26,15.72,7.4,13.85,0,0-8.72,7.59-9.86,7.59s-113,4.17-113,4.17l-2.66-1.52s7.59-10.61,8-19C118.91,124.33,119.94,115,122.93,106.5Z"/><path class="cls-3" d="M153.36,231.13s.25,2.78,4.3,3.28a7.37,7.37,0,0,0,8.34-4.8c1.52-3.54,4.55-22.25,3.54-42.73l-15.17.26s2.78,21.23,2.27,28.06S153.36,231.13,153.36,231.13Z"/><path class="cls-3" d="M154.29,227.17a8,8,0,0,1,4-1.52c2,0,9.44,2.86,9.44,2.86l1-2s-7.75-3-10.45-3a5.26,5.26,0,0,0-2.86,1Z"/><path class="cls-3" d="M201.54,203a8.91,8.91,0,1,1-8.91-8.91A8.91,8.91,0,0,1,201.54,203Z"/><path class="cls-3" d="M155.26,202.47c.38,4.59-2.32,8.56-6,8.87s-7-3.16-7.4-7.76,2.31-8.56,6-8.87S154.88,197.88,155.26,202.47Z"/><path class="cls-3" d="M259.77,234.32c-9.2,16.05-26.12,23.63-37.79,16.93s-13.66-25.12-4.46-41.17,26.13-23.63,37.8-16.94S269,218.27,259.77,234.32Z"/><path class="cls-3" d="M142,218.56c-5.27-15.73-18.44-26.7-29.49-24.61a107.55,107.55,0,0,1,.66,11.64c0,12.12,6.38,28.62,18.43,45.62C142.61,248.92,147.27,234.33,142,218.56Z"/><path class="cls-3" d="M114.33,180.84s-3.8-26.92,5.68-31.09,21.24.76,21.24.76l6.45,8,.75,2.65s3.8,16.69,2.66,43.61l-11-8.72s-9.1-9.1-11-9.48-9.48-.38-9.48-.38Z"/><path class="cls-3" d="M189.41,202.84s-7.59-39.44,1.51-51.57,23.9-11,23.9-11l15.92,1.52s14.79,4.17,17.82,7.58c0,0,0,22-9.86,42.09Z"/><path class="cls-3" d="M152.43,233.74c-.19.87,2.79,2.67,3.36,2.92,4,1.72,8.54-.42,12.32-1.74,3.37-1.18,8.76,1.85,9.27,3.71,0,0,.17,2.19-1.18,2.53s-21.41.16-21.41.16L152.6,240l-.84-3.21Z"/><path class="cls-3" d="M152.09,236.18s1.27,3.54,6.58,3.29,8.59-2.78,10.36-3.29,8.09,1.27,7.84,3.29l-.5,2s-3,13.4-9.11,13.65-5-8.59-9.35-10.61C157.91,244.53,152.09,241,152.09,236.18Z"/><path class="cls-3" d="M171.56,282.45s8.09.5,10.37,0c0,0-1.27,4.3-3.8,4S171.56,282.45,171.56,282.45Z"/><path class="cls-3" d="M148.56,258.94,147,262.48S143.75,258.94,148.56,258.94Z"/><path class="cls-3" d="M219.09,257.42l2.78,4.3S225.16,257.92,219.09,257.42Z"/><path class="cls-4" d="M209.88,160.75s11-4.93,25.79,2.65C235.67,163.4,221.64,150.51,209.88,160.75Z"/><path class="cls-4" d="M140.61,164.45s-8.43-4-18.85,3.77C121.76,168.22,131.29,155.54,140.61,164.45Z"/><path class="cls-3" d="M287.73,171.46l-2.1,2c-2.26,1.36-7.13,8.48-7.13,8.48l-2.82,4.39-.08-.09c-1.52,1.39-4.56,8.47-4.56,8.47l.16.5-.16.13a4.17,4.17,0,0,1,.4.6l.58,1.79a7.9,7.9,0,0,1-1.48,4.94s4.3-1.51,5.18-4.54a5.3,5.3,0,0,0-1.5-5c.45-1.06.9-2,1.25-2.67a2.59,2.59,0,0,1,3-1.39l-1.07-1,.44.14c-.63-1.27,2.4-4.3,2.4-4.3l-.07-.07c1.16.89,2.47,1.71,2.47,1.71s-1.26-3.41,0-5.43c.93-1.49,3.42-3,4.69-3.66a28.25,28.25,0,0,1,4,5.43S289.5,173.36,287.73,171.46Zm-9.1,25.92.76-4.3S277.62,194.09,278.63,197.38Zm2.91,2.78c2.65-5.06,1.39-8.47,1.39-8.47A48.2,48.2,0,0,0,281.54,200.16Zm7.33-15.3c1.26,3.41-1.27,13.15-1.27,13.15,4-6.95,3.42-12.39,3.42-12.39Z"/><path class="cls-3" d="M156.82,241.83s4.88,3,7.07,2.86a5,5,0,0,0,4.05-3.37S161.2,243,156.82,241.83Z"/><path class="cls-3" d="M295.4,175.37a11.71,11.71,0,0,0-3.21-6.43,9.53,9.53,0,0,0-10-1.8,12.53,12.53,0,0,0-4.49,2.93,9,9,0,0,0-1.3,2.14c-.49.86-.91,1.75-1.35,2.64-1.95,3.87-3.7,7.89-6.44,11.29,0,0,0,0,0,0a44,44,0,0,0,5-8.07c.71-1.38,1.42-2.77,2.22-4.1a11.79,11.79,0,0,1,2.93-3.74c2.86-1.95,5.73-3.29,9.28-2.62a8.42,8.42,0,0,1,6,4.71c2.16,4.54,1.31,10.29.2,15a51.05,51.05,0,0,1-5.73,14c-3.26,5.53-8.56,9.56-12.37,14.68-1.84,2.49-3.49,5.07-6.26,6.62s-6,.89-8.7-.67a.2.2,0,0,0-.2.34,9.08,9.08,0,0,0,7.35,1.43c2.54-.69,4.55-2.78,6.11-4.79,1-1.24,1.78-2.6,2.73-3.86,1.21-1.61,2.56-3.1,3.91-4.58,2.31-2.5,4.75-4.94,6.8-7.66A41.28,41.28,0,0,0,294,189.94C295.38,185.3,296.23,180.19,295.4,175.37Zm-27.13,32.78h0c.3-2.75,2-4.75,3.31-7.05a6,6,0,0,0,.15-6.1c-.29-.59-1.17-.07-.87.51a6.13,6.13,0,0,1-.34,6.8A12.23,12.23,0,0,0,268.27,208.15ZM288,172.1c.44-.36-.16-1.13-.61-.79a32.21,32.21,0,0,0-4.35,4.31,59.77,59.77,0,0,0-4.36,5.55A74.76,74.76,0,0,0,271.19,194c-.07.17.16.32.25.15,1.23-2.34,2.46-4.65,3.78-6.91a.28.28,0,0,0,.27.28c3.26.22,4.43,3.75,3.76,6.55,0,0,0,0,.05,0,1-2.76-.37-7-3.81-7.1l-.13,0c1-1.63,2-3.24,3.06-4.82a4.44,4.44,0,0,0,2.27,2.59,11.34,11.34,0,0,1,1.9,1.21c.7.63.65,1.86.6,2.72-.21,3.87-1.91,7.52-1.64,11.44h0c-.25-4,1.59-7.79,1.87-11.76.09-1.37.14-2.68-1-3.58s-3.06-1.5-3.73-3v0a55.53,55.53,0,0,1,4.5-5.54A40.32,40.32,0,0,1,288,172.1Z"/><path class="cls-4" d="M156,212.7a22.65,22.65,0,0,1-1,12.17c-1.06,3.21-2.9,6.19-3.62,9.51a8.14,8.14,0,0,0,2,7.51,12.93,12.93,0,0,0,5.13,3.21,23.8,23.8,0,0,0,3.82.89,11.07,11.07,0,0,0,3.67.29c.22,0,.21-.39,0-.43-1.16-.2-2.34-.23-3.51-.47a16.77,16.77,0,0,1-3.88-1.59,14.43,14.43,0,0,1-4.74-3.47c-1.85-2.22-1.44-5.14-.84-7.74.74-3.17,2-6.18,2.8-9.34A21.27,21.27,0,0,0,156,212.7Z"/><path class="cls-4" d="M170.18,243c-.62-1.54.55-1.89,1.84-2a9.84,9.84,0,0,1,3.71.2.1.1,0,1,0,.05-.19c-1.56-.51-3.23-1.14-4.88-.66-1.37.4-1.51,1.59-.93,2.71a.11.11,0,0,0,.21-.09Z"/><path class="cls-4" d="M175.4,242.7c2-1.37,2.6-4.2,2.37-6.49a.12.12,0,1,0-.23,0c-.3,2.51-.37,4.47-2.2,6.41a.05.05,0,0,0,.06.08Z"/><path class="cls-5" d="M170.17,241.93s-.19-1.26,3.54-.88C173.71,241.05,171.81,242.5,170.17,241.93Z"/><path class="cls-3" d="M151.42,260.87s5.12-4.39,8.82-5.07c2.36-.43,4.24,1.65,6.48,1.89,2.65.28,4.9-1.27,7.52-1.39,3.88-.16,5.9.38,13.65,1.9s26.4,1.66,28.08,1.5c0,0-10.78,6.06-13.82,6.06s-23.59,2-24.44,2.19-10.61-.5-12.47-.5Z"/><path class="cls-6" d="M152.62,262.67a52.22,52.22,0,0,0,4.13,5.92c2.17,2.6,2,6.91,3.91,8.76,2.17,2.13,14.78,4.5,22.17,1.18s29.62-18.86,29.62-18.86-2.58.74-5.36,1.35a28.83,28.83,0,0,1-6.45,1.18c-5.86,0-30.42.47-31.07.71s-11.73-.24-12.38-.24Z"/><path class="cls-7" d="M159.07,269.77s-.29,5.53,4.92,7,11.74.63,11.74.63l6.37-.79,2.32-.63s7.24-3.47,8.69-6.47-6.81-2.68-6.81-2.68-5-.36-5.36,0-19.7.47-19.7.47Z"/><path class="cls-6" d="M159.07,269.77s-.29,5.53,4.92,7,11.74.63,11.74.63l6.37-.79,2.32-.63s7.24-3.47,8.69-6.47-6.81-2.68-6.81-2.68-5-.36-5.36,0-19.7.47-19.7.47Z"/><path class="cls-6" d="M207.09,261a28.83,28.83,0,0,1-6.45,1.18c-5.86,0-30.42.47-31.07.71s-11.73-.24-12.38-.24h-4.57a52.22,52.22,0,0,0,4.13,5.92,8.47,8.47,0,0,1,1.38,2.5l.14.1s.22-1.89,8-1.89,27.38-.47,27.81,2.37c0,.09,0,.17,0,.26,8.68-5.55,18.28-12.26,18.28-12.26S209.87,260.41,207.09,261Zm-46.43,13.73a10.08,10.08,0,0,0,7.82,3.78c5.44.24,13.69-1.18,16.3-2.6C184.78,275.93,166.53,277.82,160.66,274.75Z"/><path class="cls-8" d="M207.6,260.3A81.23,81.23,0,0,1,190,261c-6.52-.48-14.13-2.61-17.82-1.9a13.43,13.43,0,0,0-5.87,2.6s-3.91-3.31-5.65-3.31-4.56,1.42-6.52,2.61-4.86-.69-4.86-.69a20.77,20.77,0,0,0,13.36,5.32c1.3,2.49,5.54,2.13,8.47,1.78l2.94-.71c11.73,0,26.39-1.78,38.45-7.1Z"/><path class="cls-6" d="M154,263.62l2.94,3.55a28.65,28.65,0,0,1,4.24.12c2.28.24,1.52,1.66,6.73,1.66s5.54-.71,8.26-1.07,21.18-2.25,22.16-1.66l1,.59s7.06-3.55,9-5.44c0,0-8.37,2.37-9.89,3s-21.08,2.6-24.55,2.37l-3.26.59s-6.2,1.77-8-1.9C162.62,265.39,160.66,266.22,154,263.62Z"/><path class="cls-8" d="M157.3,264.78a26.31,26.31,0,0,1-3.54-1.4A18.11,18.11,0,0,0,157.3,264.78Zm-8-4.45a18,18,0,0,0,4.49,3.05,22.6,22.6,0,0,1-4.48-3.06S149.26,260.33,149.27,260.33Zm21.87,7a4.73,4.73,0,0,0-1.68-.07,22.94,22.94,0,0,1-2.34-.13c-1.43-.09-3.25-.28-4.14-1.69a.39.39,0,0,0-.34-.21,13.8,13.8,0,0,1-5.34-.44c1.39.45,2.82.82,4.27,1.18.08,0,.79,0,.84.13a3.06,3.06,0,0,0,.75.92,5.36,5.36,0,0,0,2.42,1.05,12.63,12.63,0,0,0,5.59-.53A.12.12,0,0,0,171.14,267.32Zm41.36-7.71a81,81,0,0,1-9.24,3c-3.29.94-6.62,1.7-10,2.32a130.82,130.82,0,0,1-19.24,1.76,0,0,0,0,0,0,.06,106.77,106.77,0,0,0,19-1.35,86.2,86.2,0,0,0,10-2.11c1.57-.44,3.14-.93,4.68-1.5s3.18-1.44,4.79-2.16C212.52,259.62,212.52,259.6,212.5,259.61Z"/><path d="M186.09,158.71a108.91,108.91,0,0,0,13.47-7.94,36.08,36.08,0,0,1,14.32-6.63c7.26-1.48,18.42-2.19,34.38,4.86,1.05,0,2.1-.05,3.16,0a108.55,108.55,0,0,0-22.34-9.29c-13.17-3.78-25.17-1.88-34.31,3C185.38,147.79,182,155.85,186.09,158.71Z"/><path d="M191.34,155.58c-2.15,1.24-3.88,2.17-4.7,2.58a4,4,0,0,1-1.13-3.51c.35-3.35,4-8,9.85-11.18a39.67,39.67,0,0,1,7-2.94,44.72,44.72,0,0,1,26.57.27,99.35,99.35,0,0,1,19.8,8.55h-.54c-12-6-22.86-7-31-6a34.83,34.83,0,0,0-16.91,6.49l-1.07.76a92.25,92.25,0,0,1-7.9,5Z"/><path d="M148.78,161.69a25.15,25.15,0,0,1-8.22-5.43c-2.1-2-4.18-4.15-8.3-5.4-4-1.1-10.23-1.36-18.57,4.36-.67-.2-1.35-.4-2-.57a65.77,65.77,0,0,1,11.95-8.23,18.3,18.3,0,0,1,18.55,1C147.9,151,150.72,157.56,148.78,161.69Z"/><path d="M145.43,159.51a22.37,22.37,0,0,0,2.88,1.5,7.57,7.57,0,0,0,.22-3.94c-.57-3.17-3.11-6.84-6.65-9a20.7,20.7,0,0,0-4-2,16.77,16.77,0,0,0-14.08,1.26A58.17,58.17,0,0,0,113.4,155l.34.09c6.28-4.77,12.24-5.76,16.64-5.07a17.21,17.21,0,0,1,9.61,5.19l.66.64a26.19,26.19,0,0,0,4.78,3.71Z"/><path d="M214.06,202.84l7.2,3.79s10.24-5.31,17.07-8.34l.75-9.1-24.64,12.13Z"/><path d="M237.8,177s9.38-5.58,12.23-13.26c0,0-.72,9.92-12.09,17.67Z"/><path d="M240.58,179.3a17.81,17.81,0,0,0,5.06-6.83s-10.12-8.59-28.07-6.82-24,22.24-27.3,35.14l17.44-6.07Z"/><path d="M192.09,198.82c1.69-6.32,3.92-13.26,7.45-19.12,4.73-7.87,10.67-12.06,18.16-12.79a46.53,46.53,0,0,1,4.7-.24c11.8,0,19.4,4.61,21.69,6.22a17,17,0,0,1-4.19,5.33l-32.67,15.33-15.14,5.27Z"/><path class="cls-9" d="M216,171.74c-14.41,1.9-22.75,19-26.54,31.48a42.34,42.34,0,0,1,7.84-1.13,83.32,83.32,0,0,0,17.26,2.22l.31,0c5.3.76,4.54,0,4.54,0,5.69-1.51,11.38-3.41,15.55-7.58a25.25,25.25,0,0,0,5.31-15.55v-2.65A33.55,33.55,0,0,0,216,171.74Z"/><path class="cls-10" d="M236,185.58a20.42,20.42,0,0,0-3.46-11.45,32.46,32.46,0,0,0-16.6-2.39c-6.51.86-11.79,4.82-16,10a21.46,21.46,0,0,0-.34,3.79c0,8.74,5.35,16.15,12.72,18.64l2.14.09.31,0c5.3.76,4.54,0,4.54,0a49.19,49.19,0,0,0,9.76-3.47A20.07,20.07,0,0,0,236,185.58Z"/><path class="cls-10" d="M217.83,202.55c8.72,0,15.79-7.6,15.79-17a17.49,17.49,0,0,0-5.64-13,31.76,31.76,0,0,0-12-.83,22.26,22.26,0,0,0-12.09,5.91,17.82,17.82,0,0,0-1.83,7.93C202,195,209.1,202.55,217.83,202.55Z"/><path d="M229,185.58c0,6.63-5,12-11.17,12s-11.17-5.37-11.17-12,5-12,11.17-12S229,179,229,185.58Z"/><path d="M227.53,185.58c0,5.76-4.34,10.43-9.7,10.43s-9.71-4.67-9.71-10.43,4.35-10.43,9.71-10.43S227.53,179.82,227.53,185.58Z"/><path d="M227.53,185.58c0,5.76-4.34,10.43-9.7,10.43s-9.71-4.67-9.71-10.43,4.35-10.43,9.71-10.43S227.53,179.82,227.53,185.58Z"/><path class="cls-9" d="M213.61,176.06a4.23,4.23,0,1,0,4.58-4.51c-.43,0-.85,0-1.28.09A4.47,4.47,0,0,0,213.61,176.06Z"/><path d="M240.3,178.49c-9-8.2-24.1-10.68-34.27-3.33a36.58,36.58,0,0,0-10.24,12.33,74.77,74.77,0,0,0-6.16,14.86c-.09.29-.17.57-.25.86a0,0,0,1,0,.05,0c3.28-9.81,7.95-20.07,16.41-26.51,4.63-3.53,10-4.77,15.77-4.47,6.69.35,12.93,2.95,18.56,6.42A.11.11,0,0,0,240.3,178.49Zm-5.41,18.26a30.53,30.53,0,0,1-7.27,4.66c-2.67,1.21-5.5,2-8.26,2.92,0,0,0,0,0,0,5.52-1.06,11.72-3.29,15.57-7.58C235,196.76,234.92,196.72,234.89,196.75Z"/><path d="M126.08,197.15v3.79s5.69,3,11.38,6.83l5.69-4.17Z"/><path d="M124,189.16s-9.45-4.27-13.5-12.11c0,0,9.46,8.82,14.77,9.83Z"/><path d="M123.53,188.15s-2.53-.51-5.56-3.79c0,0,.14-11.16,9.86-14.92,7.83-3,14.13,3.11,17.43,9.69A41.64,41.64,0,0,1,148.58,191c.29,1.78.33,10.21,1.74,11.32,0,0-9.1-7.08-10.11-7.34S123.53,188.15,123.53,188.15Z"/><path d="M148,198.9c-6.43-4.9-7.19-5.08-7.46-5.15-.84-.24-10.57-4.28-16.5-6.77l-.11,0-.12,0a10.58,10.58,0,0,1-4.54-3c.16-2.12,1.26-10.25,9-13.26a10.1,10.1,0,0,1,3.64-.71c6.77,0,11.05,7.5,12.21,9.79,1.78,3.57,2.53,7.47,3.2,11.49.07.42.13,1.43.2,2.49.13,2.13.27,3.85.45,5.22Z"/><path class="cls-9" d="M123.05,188.43l.38,1.52A28.58,28.58,0,0,0,128,199c2.51,3.25,4.42,4.42,8,6.07,4.66,2.18,10.95-3.25,14.79-.38-1.14-8-1.52-16.3-6.45-23.89C138,171.11,124.56,171,123.05,188.43Z"/><path class="cls-10" d="M132.7,174.31c-2.38,3.33-3.75,8.31-3.45,13.79.53,9.63,6,17.16,12.25,16.82,3.5-.2,6.5-2.84,8.35-6.82-.81-5.86-2-11.76-5.57-17.26C141.32,176.29,136.82,173.84,132.7,174.31Z"/><path class="cls-10" d="M130.73,188c.46,8.37,5.22,14.91,10.64,14.61,3.55-.19,6.51-3.29,8-7.76a36.49,36.49,0,0,0-5.08-14,13.9,13.9,0,0,0-9.1-6.47C132.24,177.09,130.41,182.23,130.73,188Z"/><path d="M140,176.77c-3.83.21-6.67,5.18-6.35,11.09s3.7,10.55,7.53,10.33,6.57-5,6.35-10.79a30.31,30.31,0,0,0-3.2-6.56,16.17,16.17,0,0,0-3.71-4.06A4.28,4.28,0,0,0,140,176.77Z"/><path d="M146.56,187.15c.28,5.14-2.18,9.46-5.51,9.64s-6.26-3.84-6.54-9,2.19-9.45,5.51-9.64S146.28,182,146.56,187.15Z"/><path d="M146.56,187.15c.28,5.14-2.18,9.46-5.51,9.64s-6.26-3.84-6.54-9,2.19-9.45,5.51-9.64S146.28,182,146.56,187.15Z"/><path class="cls-9" d="M137.45,179.13c.12,2.24,1.4,4,2.84,3.9s2.52-1.95,2.4-4.18a.45.45,0,0,1,0-.11,14.52,14.52,0,0,0-4.07-3.22A4.73,4.73,0,0,0,137.45,179.13Z"/><path d="M149.48,194.69a44.24,44.24,0,0,0-2.82-10c-1.76-4.08-4.55-8.43-8.85-10.17a9.6,9.6,0,0,0-9.59,1.05c-3.68,2.92-4.87,8-5.17,12.44,0,.13,0,.26,0,.4s0,0,0,0c.55-4.42,1.93-9.34,5.74-12.07a9,9,0,0,1,9.17-.54c4.21,1.94,6.82,5.79,8.63,9.93a40.77,40.77,0,0,1,2.64,9.44c.55,3.17.66,6.44,1.39,9.57,0,.11.19.08.19,0A87.37,87.37,0,0,0,149.48,194.69ZM136,205c-1.39-.82-2.85-1.53-4.19-2.44A19.78,19.78,0,0,1,128,199s-.1,0-.07.06a16.19,16.19,0,0,0,8,6.13C136,205.24,136.07,205.09,136,205Z"/><path class="cls-11" d="M173.53,5.06h0l-.12.15-.67.8-.25.3c-.25.29-.49.59-.74.89l-.22.27-.79,1-.16.21c-.28.35-.57.71-.85,1.08a.76.76,0,0,0-.11.14c-.3.38-.6.78-.9,1.17l0,.06-.91,1.22-.07.11-.88,1.23-.1.15c-.29.41-.57.83-.85,1.24a.91.91,0,0,1-.11.16L165,16.48l-.11.17c-.26.42-.52.84-.77,1.26l-.1.17c-.25.42-.5.85-.74,1.28a1.09,1.09,0,0,1-.08.15c-.24.43-.47.87-.69,1.31a.93.93,0,0,0-.05.1c-.24.46-.45.91-.66,1.36l0,0c-.43.94-.81,1.87-1.13,2.8v0c-.15.44-.29.89-.41,1.33,0,0,0,0,0,.06h0c-1.6,5.77-.49,10.94,6.2,13.79-22.72,13.17-40.79,30.42-47.64,43.91C101.53,118.12,99,142.39,88.39,166.15c-1.53,3.41-3,6.35-4.36,9-.17.32-.34.64-.5,1l-.25.45c-.67,1.24-1.32,2.42-2,3.53a1.09,1.09,0,0,0-.08.15l-.66,1.14a.75.75,0,0,1-.07.12c-1.43,2.5-2.77,4.74-4,7l-.08.16-.56,1-.18.33-.46.86c-.07.13-.14.26-.2.39-.14.28-.29.55-.42.82l-.21.41-.42.87-.18.37c-.18.38-.36.77-.53,1.16a.93.93,0,0,0-.05.1c-.19.42-.37.86-.56,1.3a3.65,3.65,0,0,0-.14.35c-.13.32-.27.65-.39,1-.07.16-.13.33-.19.5s-.22.58-.33.88-.14.37-.2.56-.21.6-.31.9-.13.39-.19.59-.2.64-.3,1l-.18.57-.33,1.17c0,.15-.09.29-.13.44-.15.56-.29,1.12-.43,1.7,0,.13-.07.26-.1.39-.11.46-.22.93-.32,1.4l-.15.67c-.08.41-.17.81-.26,1.23l-.15.77c-.08.41-.15.83-.23,1.25l-.15.83c-.07.44-.15.88-.22,1.34,0,.27-.09.55-.14.83-.08.51-.15,1-.23,1.55,0,.25-.07.49-.11.75-.11.78-.22,1.58-.32,2.41-3.54,28.32,8.09,36.41,15.17,46.52S96,284,99.51,296.1c0,0,5.06,38.93,31.85,44,0,0-24.27-12.14-25.78-41s8.59-48.54,11.12-63.2l1.77-8.85c-3.54-7.58-4.8-18.71-4.8-25.79,0-.69,0-1.39,0-2.1,0-.12,0-.23,0-.35,0-.68-.07-1.37-.13-2.06l0-.4c0-.71-.12-1.42-.2-2.13a1.49,1.49,0,0,0,0-.21q-.12-1.08-.27-2.16a.77.77,0,0,0,0-.15q-.15-1.12-.33-2.22a2.34,2.34,0,0,0,0-.26c-.12-.74-.24-1.47-.37-2.2a.29.29,0,0,1,0-.09c-.47-2.57-1-5-1.55-7.16-1.51-6.06-2.52-8.09-3-13.39s3-15.42,3-15.42c35.9-18.71,87.43-56.7,87.43-56.7s22,30.34,33.38,42.48,15.93,23.51,15.93,23.51-8,47.83-12.11,80.7v0c-.14,1.11-.28,2.2-.4,3.27a.06.06,0,0,0,0,0c-.13,1.08-.26,2.14-.38,3.18-3.79,32.62-21.24,91.78-59.92,119.85,0,0,38.68-22.76,59.92-83.44,0,0,17-40.91,23.81-74.28,0,0,5.07-17.8,9.24-20.07,0,0,7.59-13.28,10.24-19a11.81,11.81,0,0,1,12.52-3s41.34-85.81-9-129.57A42.79,42.79,0,0,0,291,28.86,189.41,189.41,0,0,0,190.27,0C186,0,181.8.16,177.62.43c-.68.74-1.37,1.49-2,2.25S174.26,4.2,173.53,5.06ZM107.58,182.3c0,.2,0,.41,0,.63s0,.43,0,.65,0,.47,0,.71,0,.48,0,.72,0,.51,0,.77v2.48c0,.29,0,.58,0,.87s0,.61,0,.93,0,.61,0,.93,0,.64,0,1,0,.65,0,1l0,1,0,1c0,.35,0,.71,0,1.07l0,1.06c0,.37,0,.75,0,1.14s0,.7,0,1.05l-.06,1.21c0,.36,0,.72,0,1.08l-.06,1.24-.06,1.12c0,.42,0,.84-.07,1.27s0,.74-.07,1.11,0,.88-.08,1.33,0,.76-.07,1.14l-.09,1.32c0,.4-.06.79-.08,1.19s-.07.89-.1,1.34l-.09,1.17c0,.46-.07.92-.11,1.38l-.09,1.18-.12,1.37c0,.41-.07.81-.1,1.22l-.12,1.36-.12,1.21c0,.46-.09.91-.13,1.37l-.12,1.21c0,.45-.09.91-.14,1.37s-.09.81-.13,1.22l-.15,1.34c-.05.41-.09.82-.14,1.23l-.15,1.32-.15,1.22c-.06.43-.11.87-.17,1.3l-.15,1.2-.18,1.29c0,.4-.11.8-.17,1.2s-.11.83-.17,1.24l-.18,1.19-.18,1.2c-.07.39-.13.78-.19,1.16s-.13.79-.19,1.18l-.21,1.17c-.06.36-.13.73-.19,1.09s-.15.8-.23,1.2-.12.67-.19,1L102,248.6c-.05.25-.1.51-.16.75-.14.69-.29,1.37-.45,2-4.93,21.24-2.65,36.41-2.65,36.41-5.31-13.65-18.2-26.54-23.13-37.54s-4.17-22.75,1.89-45.13c.18-.64.37-1.3.57-2l.21-.66c.15-.44.29-.89.45-1.34.08-.25.17-.5.26-.75.15-.42.31-.85.47-1.27.09-.26.19-.52.29-.77.17-.45.35-.89.53-1.34.09-.23.18-.46.28-.69.26-.61.51-1.22.79-1.83l.15-.36c.27-.61.55-1.21.83-1.82l.36-.76.61-1.26.42-.85.6-1.17c.14-.29.29-.58.44-.87l.62-1.17.44-.83.77-1.4.62-1.11.74-1.3.53-.91c.19-.33.38-.66.58-1l.57-1c.19-.3.37-.61.55-.91l.59-1a235.83,235.83,0,0,1,15.55-22.2c-.76,6.44.38,15.17,1.14,26.16,0,.27,0,.57,0,.87Z"/></g></g></svg>