<svg xmlns="http://www.w3.org/2000/svg" xmlns:xlink="http://www.w3.org/1999/xlink" viewBox="0 0 380.54 380.54"><defs><style>.cls-1{fill:#9df08f;}.cls-2{fill:#a45c35;}.cls-3{fill:#b86c45;}.cls-4{fill:#b3614a;}.cls-5{fill:url(#linear-gradient);}.cls-6{fill:#582b06;}.cls-7{fill:#a23e28;}.cls-8{fill:#8d3022;}.cls-9{fill:url(#linear-gradient-2);}.cls-10{fill:url(#linear-gradient-3);}.cls-11{fill:url(#linear-gradient-4);}.cls-12{fill:url(#linear-gradient-5);}.cls-13{fill:url(#linear-gradient-6);}.cls-14{fill:url(#linear-gradient-7);}.cls-15{fill:url(#linear-gradient-8);}.cls-16{fill:#fff;}.cls-17{fill:#3f0d00;}.cls-18{fill:#ca7460;}</style><linearGradient id="linear-gradient" x1="196.98" y1="337.82" x2="221.32" y2="297.59" gradientUnits="userSpaceOnUse"><stop offset="0" stop-color="#b3614a"/><stop offset="1" stop-color="#813322"/></linearGradient><linearGradient id="linear-gradient-2" x1="184.95" y1="272.47" x2="184.95" y2="258.91" gradientUnits="userSpaceOnUse"><stop offset="0"/><stop offset="1" stop-color="#294653"/></linearGradient><linearGradient id="linear-gradient-3" x1="-852.54" y1="272.47" x2="-852.54" y2="258.91" gradientTransform="matrix(-1, 0, 0, 1, -614.96, 0)" xlink:href="#linear-gradient-2"/><linearGradient id="linear-gradient-4" x1="208.32" y1="121.96" x2="208.32" y2="-22.55" gradientUnits="userSpaceOnUse"><stop offset="0" stop-color="#111820"/><stop offset="1" stop-color="#3e6b7c"/></linearGradient><linearGradient id="linear-gradient-5" x1="209.98" y1="109.51" x2="209.98" y2="43.26" xlink:href="#linear-gradient-4"/><linearGradient id="linear-gradient-6" x1="194.5" y1="124.63" x2="194.5" y2="231.34" xlink:href="#linear-gradient-2"/><linearGradient id="linear-gradient-7" x1="194.5" y1="149.3" x2="194.5" y2="23.25" xlink:href="#linear-gradient-4"/><linearGradient id="linear-gradient-8" x1="194.51" y1="149.29" x2="194.51" y2="23" xlink:href="#linear-gradient-2"/></defs><g id="Capa_2" data-name="Capa 2"><g id="Avatar_25"><circle class="cls-1" cx="190.27" cy="190.27" r="190.27"/><path class="cls-2" d="M268.51,332.77c-8.38-19.37.76-71.49.76-71.49l-138-8.94s1.52,68.51-3.81,81.91c-2.9,7.28-17.71,15.66-30.64,21.79a190.41,190.41,0,0,0,192.55-3.33C280.39,347.34,271.88,340.53,268.51,332.77Z"/><path class="cls-3" d="M204.66,332.16a46,46,0,0,1-5.9-.37c-.59-.07-1.2-.18-1.82-.31-7.32-1.58-14.44-6.6-14.74-6.81-3.88-2.2-9.5-5.2-15.45-8.37-16.66-8.89-37.4-19.95-42.51-25.4-6.46-6.89-10.38-28-11-31.86a19.45,19.45,0,0,1-8.08-2.88,14.52,14.52,0,0,1-2.77-2.28l-.06-.07,0-.07A85.52,85.52,0,0,1,97.82,244c-1.21-3.08-3.57-6.16-5.85-9.14s-4.46-5.81-5.12-8.29c-1.22-4.56-2-26,.63-34.78l0-.1.06-.09c.6-.92,3.64-5.56,5.32-6.27l.09,0h.1c.09,0,8.07-.87,14.93-1.41L103.56,178l-.22-.28.07-.34c0-.21,4-20.36,8.34-40.31,8.87-40.86,10.48-41.08,11.44-41.2,1.66-.23,17.13-2.49,32.1-4.67s30.44-4.45,32.11-4.67l2.36-.33c6.24-.86,22.81-3.16,37.22-4.94C239.39,79.73,247.2,79,250.18,79l.73,0c7.11.48,23.12,16.46,23.88,17.68s13.61,30.16,15.06,33.44l0,.12,0,.12c1.13,12.22,3.72,40.77,3.3,42.11-.1.32-.57,2.87-2.64,16.26a30.74,30.74,0,0,1,5.47,7.86c1.95,2.32,3.4,13.1,3.56,14.34V211c-.31,9.84-6.49,22.31-11.47,32.35-3.34,11.9-10.39,35-15.16,46.62-3.25,7.88-11,15.62-16.85,20.71-4.1,3.55-7.52,6-8.28,6.52-.6,1.2-4,7.91-7.59,11.06-3,2.71-12.09,2.74-18.68,2.75-1.89,0-3.53,0-4.54.09s-2.2.22-3.42.37a72.28,72.28,0,0,1-9,.66Z"/><path class="cls-4" d="M175,317.41c-5.31-4.74-10.24-10-15.24-15.05-3.51-3.59-7.35-6.87-10.15-11.15-3.78-5.79-5.9-12.62-9.5-18.5-4.14-6.77-8.76-13.93-14.73-19S114.73,230,114.73,230l-1.57,7.33s-1.25,7.67-1.87,13.34c-.46,4.17-2.44,5.63-3.45,6.11a19.25,19.25,0,0,0,6,1.57s4.07,24.67,10.94,32,43.16,25.34,57.86,33.68a51.5,51.5,0,0,0,9.48,5.12c-1.83-1.79-6.9-3.71-8.52-4.85A97,97,0,0,1,175,317.41ZM275.46,255c-3.44,9-7.5,26.68-10.32,36-2,6.74-7.76,13.51-12.77,18-2.25,2-4.46,3.19-6.1,5.93-1.5,2.51-2.29,5.4-3.81,7.88-1.26,2.06-3,3.8-4.31,5.84a5.82,5.82,0,0,0,1.66-1c3.76-3.34,7.51-11,7.51-11s19.39-13.33,25-27c4.87-11.83,12.08-35.66,15.15-46.61l.75-1.51L289.85,229C286.72,244.35,277,251,275.46,255Z"/><path class="cls-4" d="M201.45,332.09l-2,0A18.31,18.31,0,0,0,201.45,332.09Z"/><path class="cls-4" d="M220.11,325.31c-4.27-.49-5.11,2-8.44,4.08a18.58,18.58,0,0,1-5.1,2c4.17-.16,7.61-.78,10.42-1s9.31.09,14.87-.43a18.12,18.12,0,0,1-4.24-.91C224.67,328,223.32,325.68,220.11,325.31Z"/><path class="cls-3" d="M175,317.41c-5.31-4.74-10.24-10-15.24-15.05-3.51-3.59-7.35-6.87-10.15-11.15-3.78-5.79-5.9-12.62-9.5-18.5-4.14-6.77-8.76-13.93-14.73-19S114.73,230,114.73,230l-1.57,7.33s-1.25,7.67-1.87,13.34c-.46,4.17-2.44,5.63-3.45,6.11a19.25,19.25,0,0,0,6,1.57s4.07,24.67,10.94,32,43.16,25.34,57.86,33.68a51.5,51.5,0,0,0,9.48,5.12c-1.83-1.79-6.9-3.71-8.52-4.85A97,97,0,0,1,175,317.41ZM275.46,255c-3.44,9-7.5,26.68-10.32,36-2,6.74-7.76,13.51-12.77,18-2.25,2-4.46,3.19-6.1,5.93-1.5,2.51-2.29,5.4-3.81,7.88-1.26,2.06-3,3.8-4.31,5.84a5.82,5.82,0,0,0,1.66-1c3.76-3.34,7.51-11,7.51-11s19.39-13.33,25-27c4.87-11.83,12.08-35.66,15.15-46.61l.75-1.51L289.85,229C286.72,244.35,277,251,275.46,255Z"/><path class="cls-5" d="M201.45,332.09l-2,0A18.31,18.31,0,0,0,201.45,332.09Z"/><path class="cls-3" d="M220.11,325.31c-4.27-.49-5.11,2-8.44,4.08a18.58,18.58,0,0,1-5.1,2c4.17-.16,7.61-.78,10.42-1s9.31.09,14.87-.43a18.12,18.12,0,0,1-4.24-.91C224.67,328,223.32,325.68,220.11,325.31Z"/><path class="cls-3" d="M139.12,162s-.42-28.9,20.43-43.13c0,0,22.1,12.89,48.78,6.22s35.86-20.45,35.86-20.45,10,30.68,27.94,34.24c0,0,6.67,14.22,4.58,29.79l-45,9.78-55-.44Z"/><path class="cls-3" d="M119.11,199.77s-4.17-23.12,2.5-31.12,12.92-12.45,15.43-24,19.17-28.91,24.59-28.91,25.44,13.34,51.29,5.34S245.86,97.5,245.86,97.5s8.76,33.35,28.35,39.13c0,0,6.67,13.79,4.59,34.69,0,0,2.92,15.11,5.84,16.45s7.08-12,6.67-14.68S293,134.41,293,134.41s-4.58-21.79-9.59-24.46-14.59-20-22.93-26.23a49.12,49.12,0,0,0-29.6-10.23c-11.26,0-37.53,7.12-54.62,11.56s-40.45,15.12-44.62,17.79-14.59,12-17.51,19.56-12.92,28-13.76,36,.42,12.89,2.5,17.79,3.34,14.23,3.34,14.23Z"/><path class="cls-3" d="M136.62,192.66S116.81,188,124.11,172a22,22,0,0,1,19-8.89c12.72.67,34,5.33,34,5.33l9,6s6,13.34-5,20l-19.8-1.34Z"/><path class="cls-3" d="M236.06,194.66s-10.63-9.56-5.42-20.45l8.13-6.67,11.47-4.45,7.71-.45,7.51.45,4.79,1.33,4.59,2.89L279,172.2s2.92,16.68-6.05,20.46Z"/><path class="cls-3" d="M200.18,229.34a19.4,19.4,0,0,0-.61,6.45c1.09,9.83,11.16,15.34,19.69,14.61,4.61-.39,9.06-2.39,10.9-7.11,2.13-5.51,1-12.22-1.81-17.28,0,0-3.34-11.34-3.13-31.8l1-7.55-27.31.22s3.55,16.23,3.13,24.45c-.21,4.17-.06,8.63-.73,12.74C201.07,225.84,200.59,227.58,200.18,229.34Z"/><path class="cls-3" d="M200,227.79a37.73,37.73,0,0,1,29.19-2l-.21-2.44s-15.63-4.67-29.6,2.67Z"/><path class="cls-3" d="M186.67,234.24c-.6-2.5-4.8-1.81-6.48-.85-3.08,1.75-5.51,11.14-.14,10.41C183.5,243.33,187.55,238,186.67,234.24Z"/><path class="cls-3" d="M244,236.45c.37,1.49.31,6.27-1.19,7-2,.91-4.51-4.28-5.22-5.59-1.63-3-.26-6.15,3.21-5A5.18,5.18,0,0,1,244,236.45Z"/><path class="cls-3" d="M181.23,232.23c2.92-1.84,6.57-.45,9.8-1.33,3.79-1,5.57-6,6.26-9.56a99.1,99.1,0,0,0,1.71-14c.16-3.48.75-9.28-1.35-12.23-2.58-3.63-9.38,2-11.78,4-4.86,4-9.87,9.18-12.56,15.1-3.86,8.5-2.93,17.55,3.29,24.23a6.2,6.2,0,0,1,4-5.76Z"/><path class="cls-3" d="M239,231.79c-2,0-4.77-.52-6.42.64-1-3.09-2.37-6-3-9.1a74.68,74.68,0,0,1-1.2-10.49,60.09,60.09,0,0,1,.38-11.07c.18-1.35.29-4.06,2.07-4,1.13,0,3.37,3,4.17,3.79,5.58,5.69,13.15,9.64,15.22,18.18,1.53,6.29-.1,15.89-5.8,19.37-.61-2.17-1.2-7.77-4.42-7.76Z"/><path class="cls-3" d="M181.23,197.1l-4.79.67a51.9,51.9,0,0,1-22.1,5.56S171.64,206.44,181.23,197.1Z"/><path class="cls-3" d="M234.39,197.1l3.91.67a36.49,36.49,0,0,0,18,5.56S242.2,206.44,234.39,197.1Z"/><path class="cls-3" d="M180.4,249.35s5.42-4.22,14.59-2.89,11.26,8.89,22.52,7.56a18.79,18.79,0,0,0,15-10.45l.21,3.33s6.87-2.66,10.63.45c0,0-.21,4-3.55,4.67,0,0-11.05,13.12-26.47,12.67s-30-11.34-30-11.34S180.82,251.57,180.4,249.35Z"/><path d="M201.25,252.68c-3.55-2.22-10.85-2.22-10.85-2.22A8.21,8.21,0,0,0,201.25,252.68Zm29-1.33L229,252.91c6.26.89,9.17-3.11,9.17-3.11A11.25,11.25,0,0,0,230.22,251.35Z"/><path class="cls-3" d="M289.22,220.34c1.88-5.67,4.38-11,6.26-16.34.62,0,.93.66,1.56,1,0,0,.94,11.67-1.56,15.67a93.17,93.17,0,0,0-5.42,11.12Z"/><path class="cls-3" d="M108.47,231a59,59,0,0,1-4.06-5c.31-7.34-1.57-15-3.13-22-1.88-10-11.88-15-12.2-1.34,0,0,.42,12.23,2.09,17.12s5.42,8,7.51,12,5,10.67,7.5,11.56a4.46,4.46,0,0,0,4.17-.45l-1.25-9.34Z"/><path class="cls-3" d="M108.47,231a59,59,0,0,1-4.06-5c.31-7.34-1.57-15-3.13-22-1.68-9-9.9-13.92-11.8-5,5.75-4.4,7.41,12.46,7.61,15.38,1.75-1.49,3.72-.64,3.59,1.75-1.4.61-1.51,1.29-1.94,2.66,7.28,2.11,1.2,15.35,9.11,17a6.13,6.13,0,0,0,1.57.13l-.32-2.38Z"/><path class="cls-6" d="M183.43,252.52a14.41,14.41,0,0,1-2.4-2.47,19.34,19.34,0,0,1-3.5-6.68,11.86,11.86,0,0,1,0-6.93c.94-2.81,3.29-4,5.84-4.59.06,0,0-.13,0-.12a7.46,7.46,0,0,0-5.93,3.77c-1.15,2.24-1,5-.48,7.39a20.35,20.35,0,0,0,3.51,7.81,14.4,14.4,0,0,0,2.8,2.77c1.46,1.08,3.18.77,4.89.59.06,0,.06-.08,0-.09A8.22,8.22,0,0,1,183.43,252.52Zm19.17.43a24.91,24.91,0,0,0-9.07-2.9c-3.07-.43-6.12-.21-8.61,1.9-.08.07,0,.21.11.15,2.52-1.91,6.36-1.58,9.24-1.11a44.06,44.06,0,0,1,8.17,2.35C202.66,253.41,202.79,253.06,202.6,253Zm37.66-2.83c-3.07-1.38-6.56-.75-9.46.86a11.87,11.87,0,0,0,1.42-2.71c.06-.15-.15-.21-.23-.1a23.23,23.23,0,0,1-5.48,6,20.64,20.64,0,0,1-7.42,3.2,18.46,18.46,0,0,1-15.32-3.19s-.09,0-.05.06a18.41,18.41,0,0,0,15.54,3.81,19.17,19.17,0,0,0,11.05-6.45,12.89,12.89,0,0,1,9.89-1.27C240.35,250.41,240.4,250.18,240.26,250.12Zm4.7-9.71c-.16-3.81-1.81-9.7-6.42-8.71-.09,0-.07.18,0,.17,4.6-.4,5.65,5,5.76,8.86a20.23,20.23,0,0,1-.86,6.34,9.39,9.39,0,0,1-1.06,2.4,7.14,7.14,0,0,1-3,2.75s0,.05,0,0c2.27-.84,3.67-1.8,4.58-4.19A19.45,19.45,0,0,0,245,240.41Zm-15.5-15.64c0,.22.81,1.34.7,1.08a19.54,19.54,0,0,1,1,2.36c1.74,4.85,1.69,10.26,1.37,15.36,0,0,0,0,0,0a37.73,37.73,0,0,0-.65-14.44,22.81,22.81,0,0,0-1.14-3.12,19.09,19.09,0,0,1-1.2-4.43c-.48-2.87-.55-5.81-1-8.69h0c.42,2.9.4,5.83.56,8.76A23.27,23.27,0,0,0,229.46,224.77Z"/><path class="cls-3" d="M228.58,203.77a0,0,0,0,0-.05,0c-.06,2.45-.18,4.9-.19,7.34h0C228.37,208.67,228.61,206.22,228.58,203.77ZM86.46,215.57c0,1.56.1,3.12.22,4.66-.05-.84-.1-1.67-.14-2.51S86.48,216.29,86.46,215.57Zm0-7.84a101.55,101.55,0,0,1,.65-10.32,39.78,39.78,0,0,1,.74-4.32,6.74,6.74,0,0,1,1.24-2.5c1-1.53,2.37-3.74,4-4.59,0,0,0,0,0,0-1.9,1-3.32,3.5-4.52,5.26s-1.28,4.14-1.54,6.17a111.31,111.31,0,0,0-.62,18.17C86.4,212.92,86.45,210.28,86.49,207.73Zm211.78-2.53c-.47-2.59-.84-6.38-2.59-8.42-.25-.29-.65.14-.41.43a9.33,9.33,0,0,1,1.46,3.61c.44,1.6.76,3.25,1.06,4.88a25.76,25.76,0,0,1,.71,7.2c-.5,5.38-2.43,10.56-4.4,15.49-1.85,4.62-4,9.11-6.13,13.58l.45-1.65a49.8,49.8,0,0,0,1.61-12.7,42,42,0,0,0-.54-7.29c.91-2.7,1.94-5.34,3-8a50,50,0,0,0,.33,5.87,33.14,33.14,0,0,1-.18,7.11s0,0,.05,0a44.5,44.5,0,0,0,.1-13.68l0,0,.35-.87c.53-1.31,1.05-2.62,1.56-4,.28-.73.55-1.47.79-2.22s1.29.27,1.55.44a0,0,0,0,0,0-.08,6.35,6.35,0,0,0-1.54-1.13.17.17,0,0,0-.18.08c-2.15,5.06-4.25,10.23-6,15.45a18.44,18.44,0,0,0-1.85-5.09c-.08-.14-.28,0-.2.13a17.76,17.76,0,0,1,1.86,5.51l-.13.36a.24.24,0,0,0,.24.32,45.77,45.77,0,0,1,.45,4.61,49.57,49.57,0,0,1-.86,12.16c-.38,1.94-.87,3.87-1.41,5.79l-.4.84s0,.09.07,0l.18-.36c-.8,2.82-1.7,5.62-2.53,8.4q-3.15,10.62-6.61,21.13c-2.09,6.33-4,13.08-7.12,19-3.39,6.48-8.7,11.83-14,16.58a101.81,101.81,0,0,1-9.73,7.79c-.22.15-.32.53-.44.76-.66,1.28-1.37,2.53-2.11,3.76-1.69,2.8-3.75,6.32-6.81,7.55-2.73,1.09-5.84,1.22-8.72,1.38s-6,.14-9,.15a70.77,70.77,0,0,0-7.83.6,57.38,57.38,0,0,1-12.9.23,33.65,33.65,0,0,1-12.16-4.22c-1.76-.94-3.38-2.12-5.11-3.1-11.1-6.26-22.45-12-33.59-18.15-5.45-3-10.88-6.08-16.14-9.46-3.62-2.32-7.33-4.68-9.68-8.53-3.22-5.29-4.94-11.71-6.47-17.75-1-3.76-1.77-7.56-2.42-11.39a.43.43,0,0,0,0-.05.11.11,0,0,0-.09-.08,20,20,0,0,1-6.46-1.79c-1.44-.68-3.69-1.84-4.5-3.32A84.64,84.64,0,0,1,99,244.82a44.81,44.81,0,0,0-6.28-10.29c-2-2.63-4.59-5.45-5.3-8.87a43.8,43.8,0,0,1-.75-5.43c.11,1.63.26,3.26.52,4.87.42,2.63,1.88,4.76,3.38,6.83,2.5,3.45,5.32,6.66,7.26,10.53,1.64,3.28,2.81,6.82,4.49,10.11,1.15,2.26,3.69,3.54,5.84,4.48a19.35,19.35,0,0,0,5.17,1.36c.54.07.4.23.51.84.85,4.8,1.93,9.56,3.24,14.24,1.52,5.47,3.32,11.39,6.69,15.92,2.43,3.27,6.34,5.45,9.64,7.55,11.26,7.13,23.12,13.21,34.83,19.46l8.15,4.37a63.77,63.77,0,0,1,6.16,3.41c5,3.53,10.91,6.35,16.9,7.07,7,.85,13.77-.78,20.73-.82,5.68,0,11.78.39,17.29-1.35,2.44-.77,4.06-2.78,5.55-4.89a56.8,56.8,0,0,0,4.35-7.29c.24-.48,1.62-1.23,2.18-1.64,1.93-1.45,3.81-3,5.66-4.54a76.6,76.6,0,0,0,14.09-15.15c3.54-5.26,5.48-11.66,7.55-17.68,4-11.6,7.66-23.37,10.91-35.23,4.88-9.38,10.33-19.46,11.35-30.26A26.72,26.72,0,0,0,298.27,205.2Z"/><path class="cls-3" d="M105.27,226.8c-1-1.34-.5-4.05-.6-5.72a64.3,64.3,0,0,0-1.52-10c-1-4.57-1.61-9.85-4.47-13.63-1.46-1.93-3.77-3.95-6.26-3.16-3,1-3.38,5.63-3.4,8.35a.07.07,0,1,0,.13,0c.17-2.95.79-8.2,4.51-8.2,2,0,3.77,1.65,5,3.49a.05.05,0,0,0,0,0c.22,2.37.79,4.7,1,7.07a15.6,15.6,0,0,1-1.16,7.8c-1.57,3.74-3.85,6.92-4.12,11.14,0,0,0,0,0,0,.4-4.65,3.22-8.19,4.84-12.38,1.53-3.94.79-9-.21-13.08a17.23,17.23,0,0,1,.88,1.69,30.53,30.53,0,0,1,1.64,6.19q.87,4,1.54,8.07c-5.91,1.22-5.41,9.12-6.53,13.85,0,0,0,0,0,0,.67-2.51.89-5.12,1.48-7.65a8.32,8.32,0,0,1,1.59-3.4,11.75,11.75,0,0,1,3.51-2.43l.12.74a58.35,58.35,0,0,1,.81,9.79c0,1,.57,1.34,1.19,2.12a44.07,44.07,0,0,0,3.17,3.5s0,0,0,0C107.34,229.67,106.3,228.23,105.27,226.8Zm.35,2.06c-4,1.63-4.38,7.45-2.17,10.83a0,0,0,0,0,0,0c-1.9-3.29-1.65-9,2.21-10.51C105.87,229.09,105.8,228.79,105.62,228.86Z"/><path class="cls-7" d="M166.64,275.36s16.26,8.67,30,13c0,0,20,2,31.9-1.34,0,0,8.13-5,11.25-7s12.2-6,12.2-6-17.51.33-20.64.67-22.51,1-22.51,1l-21.9.66L172.89,276Z"/><path class="cls-8" d="M231.37,274.7c-3.13.33-22.51,1-22.51,1l-21.9.66L172.89,276l-6.25-.67s3.22,1.72,8,4h32c6.25,0,11.57.67,16.26-.66,4-1.14,16.3-1.31,21.46-1.13C248,275.8,252,274,252,274S234.5,274.36,231.37,274.7Z"/><path class="cls-8" d="M191.66,286.37l-.22.2c1.76.65,3.51,1.26,5.22,1.8,0,0,20,2,31.9-1.34l3.79-2.34h0C216.05,288.37,191.66,286.37,191.66,286.37Z"/><path class="cls-7" d="M205.82,281.36c-3.7-.16-7.4-.45-11.08-.83-2-.21-6.89-1.7-8.11.94-1.55,3.39,9.19,3.8,11.23,3.94,4.74.33,9.49-.05,14.23,0a125.3,125.3,0,0,0,14.8-.68c1.36-.15,9.5-2.81,8.4-4.95-.95-1.85-10.45,0-11.94.29A81.45,81.45,0,0,1,205.82,281.36Z"/><path class="cls-8" d="M251.38,272.69c-2.19.34-10,.34-15.63.67s-11.26-1-13.76-.67-6.36,2.69-6.83,3h-.09a20.2,20.2,0,0,0-6.53-2.31c-6.88,0-23.45,3-32.52,2a58.8,58.8,0,0,1-17.2-5,29.16,29.16,0,0,0,5.63,4c11.85,4.33,32.1,3,44.93,3l1.35.67c1.25.67,2.81.67,4.38,1.33a33,33,0,0,0,4.61-2.12c11.07-2.5,21.83-1.57,32.6-2.88A15.06,15.06,0,0,0,257,270S253.57,272.36,251.38,272.69Z"/><path class="cls-8" d="M209.48,277.3c-3.89-.2-7.82.06-11.71,0-4.54-.06-9.07-.07-13.6-.27a99.64,99.64,0,0,1-12.9-1.33,47,47,0,0,1-5.62-1.37,12.33,12.33,0,0,1-3.05-1.14,31.21,31.21,0,0,1-3.75-2.86s-.1,0-.06.06c.91.8,1.84,1.56,2.82,2.27.45.34.93.64,1.4.95s.79.83,1.24,1.11c1.52.95,3.83,1.21,5.53,1.57a80.34,80.34,0,0,0,12.93,1.44c4.69.21,9.42.28,14.11,0,4.22-.21,8.45-.12,12.66-.36A.06.06,0,0,0,209.48,277.3Zm47.41-7.4a26.75,26.75,0,0,1-3.43,3.22,8.07,8.07,0,0,1-4.66,1.39c-3.32.3-6.66.45-10,.59A105.94,105.94,0,0,0,220.7,277a12.62,12.62,0,0,0,1.73-1.46c.14-.15-.05-.43-.22-.3a28.61,28.61,0,0,1-6.19,3.43c-1.6.67-3.69.05-5.28-.63,0,0-.06,0,0,.06a13.48,13.48,0,0,0,2.82.92c1,.27,1.62.7,2.66.31a19.52,19.52,0,0,0,4.21-2.11,122.93,122.93,0,0,1,20.18-1.85c3.53-.11,7-.27,10.57-.62a3.33,3.33,0,0,0,1.38,0,10,10,0,0,0,1.85-1.28,16,16,0,0,0,2.78-3.34C257.27,270,257,269.75,256.89,269.9Z"/><path d="M157.3,269.8c3.63,2,8.33,2.23,12.17,1.78l-2.14,1.33s6.84,2.23,11.11.67l3.42-1.33-2.14,1.56s10.46,1.11,16.44-1.34l3.63-1.33-1.92,1.77s8.54.9,11.53-1.11l3.63-1.11s1.07-2.22,1.28-2.89-3.84-4.89-3.84-4.89-9-.89-12-.67-19,2.9-24.34,2.23-9.4-1.34-9.4-1.34a53.17,53.17,0,0,0-3,4.9s-.64,1.33-6.19.22Z"/><path class="cls-9" d="M157.28,269.84a18.85,18.85,0,0,0,8.13,2c1,0,3.37.13,3.87-.19l-2,1.23a.07.07,0,0,0,0,.12,21.22,21.22,0,0,0,10,1,21.72,21.72,0,0,0,4-1.41c.61-.24.73-.49.11,0l-1.66,1.2a.08.08,0,0,0,0,.14,48.67,48.67,0,0,0,12.12-.2,32.48,32.48,0,0,0,6.3-1.85l1.26-.46c.29-.11.39-.34.22-.17l-1.81,1.66c-.05.05,0,.13.06.14a41.83,41.83,0,0,0,6.33.14c2.45-.14,4.44-1,6.74-1.72.5-.15,1.77-.27,2.15-.67a9.28,9.28,0,0,0,1.23-2.73c.5-1.23-2.43-3.71-3.12-4.46-1-1.07-1.92-.86-3.37-1-2.86-.24-5.74-.5-8.61-.46a51,51,0,0,0-6,.7c-3.19.43-6.38.85-9.58,1.18a49.53,49.53,0,0,1-9,.42c-3.28-.25-6.57-.84-9.81-1.38-.05,0-.08,0-.1,0-1.09,1.59-2,3.28-3,4.91-.89,1.43-5,.36-6.08.17-.1,0-.14.14,0,.16,1.58.3,4.69,1.18,6.13-.08a7.39,7.39,0,0,0,1.09-1.87,30.51,30.51,0,0,1,2-3.15c2.92.47,5.85.88,8.79,1.25a37.92,37.92,0,0,0,8.11-.1c5.55-.49,11-1.47,16.58-2a45.39,45.39,0,0,1,7.9.27c1.48.11,3.75-.2,4.77.89.84.89,1.66,1.82,2.43,2.78.31.39,1,1.1.81,1.68s-.6,1.39-.91,2.07c-.64,1.36-3.09,1.27-4.37,1.95-2.55,1.36-6.1,1.1-8.88,1-.71,0-1.41-.07-2.12-.14.47,0,1.5-1.21,2-1.64.05-.06,0-.17-.08-.14-1.33.49-2.67,1-4,1.48a26.65,26.65,0,0,1-8.67,1.41,56.37,56.37,0,0,1-6.5-.14l-.71-.06c-.25,0-.15.12,0,0l2-1.46c.06,0,0-.16,0-.13l-3.17,1.24a12.78,12.78,0,0,1-5.73.56,27.88,27.88,0,0,1-5.18-1c-.56-.16-.32-.06.16-.36l1.58-1s0-.11,0-.11c-4.11.45-8.4.21-12.15-1.75,0,0-.09.05,0,.07Z"/><path d="M258.87,269.8c-2.8,2-6.41,2.23-9.37,1.78l1.64,1.33s-5.26,2.23-8.55.67L240,272.25l1.65,1.56s-8.06,1.11-12.66-1.34l-2.79-1.33,1.47,1.77s-6.57.9-8.87-1.11l-2.8-1.11s-.82-2.22-1-2.89,3-4.89,3-4.89,6.9-.89,9.2-.67,14.63,2.9,18.74,2.23,7.23-1.34,7.23-1.34,1.65,3.12,2.31,4.9c0,0,.49,1.33,4.76.22Z"/><path class="cls-10" d="M258.88,269.84a11.91,11.91,0,0,1-6.26,2c-.78,0-2.59.13-3-.19l1.52,1.23a.08.08,0,0,1,0,.12,12.81,12.81,0,0,1-7.66,1,14.38,14.38,0,0,1-3-1.41c-.47-.24-.57-.49-.09,0l1.27,1.2c.05.05,0,.13,0,.14a28.93,28.93,0,0,1-9.33-.2,20.78,20.78,0,0,1-4.85-1.85l-1-.46c-.23-.11-.3-.34-.17-.17l1.39,1.66a.09.09,0,0,1-.05.14,24.77,24.77,0,0,1-4.87.14c-1.88-.14-3.42-1-5.18-1.72-.39-.15-1.37-.27-1.66-.67A10.72,10.72,0,0,1,215,268c-.38-1.23,1.87-3.71,2.4-4.46.76-1.07,1.48-.86,2.6-1a52.63,52.63,0,0,1,6.63-.46,30.52,30.52,0,0,1,4.62.7c2.46.43,4.91.85,7.38,1.18a29.42,29.42,0,0,0,6.94.42A68.2,68.2,0,0,0,253.1,263a.06.06,0,0,1,.07,0c.84,1.59,1.53,3.28,2.31,4.91.69,1.43,3.88.36,4.69.17.07,0,.11.14,0,.16-1.21.3-3.62,1.18-4.72-.08a7.77,7.77,0,0,1-.84-1.87,32.63,32.63,0,0,0-1.52-3.15c-2.25.47-4.51.88-6.77,1.25a22.57,22.57,0,0,1-6.25-.1c-4.27-.49-8.49-1.47-12.75-2a27,27,0,0,0-6.09.27c-1.13.11-2.89-.2-3.67.89-.65.89-1.28,1.82-1.87,2.78-.24.39-.78,1.1-.63,1.68s.47,1.39.71,2.07c.49,1.36,2.37,1.27,3.36,1.95,2,1.36,4.69,1.1,6.84,1,.54,0,1.08-.07,1.62-.14-.36,0-1.15-1.21-1.51-1.64,0-.06,0-.17.06-.14,1,.49,2.05,1,3.07,1.48a16.22,16.22,0,0,0,6.67,1.41,33.55,33.55,0,0,0,5-.14l.54-.06c.19,0,.12.12,0,0l-1.54-1.46c-.05,0,0-.16,0-.13l2.43,1.24a7.74,7.74,0,0,0,4.42.56,17.08,17.08,0,0,0,4-1c.44-.16.25-.06-.12-.36l-1.21-1s0-.11,0-.11a12.92,12.92,0,0,0,9.35-1.75s.07.05,0,.07Z"/><path class="cls-11" d="M216.58,75.39c-5.85,1.34-13.18,2.61-18.69-.56-4.76-2.75-8.66-4.79-14.18-5.89-8.06-1.62-35,3.1-37.52-8.79-1.64-7.57,8.21-14.48,12.11-18.67l-20.85,8.89c-1.07,3.11-7,5.7-9.13,8.83a14.13,14.13,0,0,1,5.31-.31c-.41,4-5.31,7.4-2.87,11.84,2.72,4.93,11.42,3.86,15.75,3.68,7.62-.34,10.75-1.12,16,4.86s11.4,7.91,19.16,7.15c6.19-.61,11.72-2.87,17.55-4.94,2.2-.79,6.44-2.83,8.73-2.67,1.66.11,2.67,1.55,4.2,1.8,2.42.38,3.76-.77,6.23-1.68,5.72-2.11,9.15-3,14.19-.67,4.49,2.1,5.75.35,10.41-1.31a16.87,16.87,0,0,0,2.5-1.72c.57,1,1.53,1.52,1.67,3a40.78,40.78,0,0,1,2.46-7.36c-1.72.79-3.54,1.93-5.31,2.08C240.71,65.83,221.81,74.19,216.58,75.39Zm68-11.61a24,24,0,0,1-5.29-2,8.69,8.69,0,0,1,1.55,6.75c-6.62-.88-7.16,4.51-12,7.74-4.29,2.86-8.72-.38-12.1-3.68l-1.67.45c.25,1.74-.75,3.87-1.17,5.64.42-.82,1.06-1.08,1.59-1.68,3.69,3.25,5.9,10,11.7,6.29,2.71-1.74,2.88-4.2,6.54-4.91,3.11-.61,5.9.77,8.8.82.24-5.2-.69-10.19,5.83-8A21.84,21.84,0,0,1,284.56,63.78Z"/><path class="cls-12" d="M199.37,77.15c2.42.06,4.83.11,7.25.11A16.91,16.91,0,0,0,199.37,77.15ZM170,71.38c-7.38-2.3-14.94-2.58-22.08-4.57-10.19-2.84-8.37-12.44-2.11-19.55l-12.51,6.67c10.9.83-1.13,12.3,5,16,2.29,1.39,9,.41,11.77.41,4,0,7.82,0,11.57,1.34,9,3.08,12,10.94,22.84,9.43,5.19-.72,10-3.11,14.9-4-2.29-.05-4.58-.1-6.88-.1C184,77.05,178,73.88,170,71.38Zm59.2,2.12c-5.31.52-10.18,3.2-15.43,3.55-2.39.16-4.76.21-7.13.21.4.1.8.21,1.2.35,7.71,2.6,10.3-2.06,17.61-2.78,7.07-.7,12,5.83,17.86-1.27C239.18,75.58,233.91,73,229.18,73.5Zm53-8.85c.09,3.67-.18,5.76-3,7.06-3.37,1.56-5,.75-8.25,3.66-4.68,4.18-9.51,6.44-14.26-.1l1.67,3.56c4.66,2.78,5.57,4.73,10.12.56,3.06-2.81,7.65-5.26,11.47-2,1.17-3.32,2.9-8.52,6.73-8.94A18.75,18.75,0,0,0,282.22,64.65Z"/><path class="cls-13" d="M206.67,118c16.26-5.78,23.76-20.46,23.76-20.46-23.76,22.24-53,16-53,16,23.35-3.56,42.11-31.12,42.11-31.12-38.77,38.68-60.87,17.34-60.87,17.34-4.12-1.22-7.45-4.66-11.67-5.35C140.47,93.31,134.37,97,128,97.53c-8.24.72-11-1.65-15.94-7.61-4.46-5.34-8.5,0-14.12.41.2-3.45,2.83-6.55,4.11-9.72l-.18-4.28a124.86,124.86,0,0,0-14,17.28s-2.19,33.68-.31,55,3.75,36,3.75,36L91,188.32s1.25-1,5-1.33,6.88,1.67,8.45,6.67,4.69,14.67,5.31,23,.63,25.68,3.76,35.35l.31.33c1.25.67,2.19,1,3.44,1.67l1.88,1s-5.63-18-5.63-47a83.77,83.77,0,0,0,5.31-7.34S112.54,172,115.67,165s11.25-12.34,14.38-20l-2,1.07a.85.85,0,0,1-.5.26l.5-.26c.8-.72,2.23-3.35,2-13.08,0,0-2.19-7,1.88-11s30.33-16.67,30.33-16.67,15,8.33,31-.67c0,0-11.26,11-34.71,5,0,0,29.39,16.34,62.23-1,0,0-16.89,12.67-39.72,10.34,0,0,23.46,5.67,40.66-5a89,89,0,0,0,24.57-22.46l-2.06,1.57C232.1,109.06,206.67,118,206.67,118ZM302,124.29c-.42-4.87-2.29-14.81-4.84-25.58-1.12,1.93-2.88,4.82-4.64,7.24-2.92,4-1.67,18.68-6.26,19.12s-4.17,8-4.17,8c-20.43-4.89-33.35-36.9-33.35-36.9L248.11,94c2.22,9.66,10,33.76,33.29,42,0,0,4.38,18.34,2.82,31.34s-.63,15.34-.63,15.34.94,13,.32,17.68,3.44,15,3.44,15-.63-5.66.62-9.33,3.75-9,6.26-9.34l1.56.67s0-15,2.19-24.68S303,135,302,124.29Z"/><path class="cls-14" d="M302,124.29c-.93-10.67-8.75-45.68-15.63-60.36,0,0-12.2-10.34-27.52-15,0,0-7.19-9.34-10.32-11.68s-48.47-11.67-98.51,6.34c0,0-38.15,14-62.23,50,0,0-2.19,33.68-.31,55,.63,7.18,1.26,13.6,1.82,19l.58-.3s-3.75-57.36.42-71.58c0,0,22.93-38.69,68-52s89.23-4.89,89.23-4.89l9.17,10.67s-2.92,18.23-7.51,32c0,0,7.51-19.12,9.59-30.68,0,0,14.6,4.89,25.44,14.22,0,0,13.34,31.58,15.43,58.7s-2.92,56-2.92,56h.08a70.07,70.07,0,0,1,1.17-7.12C300.17,163,303,135,302,124.29Z"/><path class="cls-15" d="M113.7,252.51c1.77.91,3.56,1.73,5.32,2.67a.18.18,0,0,0,.25-.21c-2.75-8.84-3.92-18.43-4.77-27.64-.43-4.74-.68-9.5-.79-14.26q0-1.89-.06-3.78c0-.7-.15-1,.26-1.54.93-1.16,1.83-2.37,2.7-3.58q1-1.42,2-2.88c.08-.12.42-.44.37-.7s-.15-.67-.22-1q-.55-2.68-1-5.39c-1.48-8-3-16.32-2.69-24.48a14.89,14.89,0,0,1,.7-4.36c.93-2.62,2.89-4.91,4.61-7,3.56-4.22,7.67-8.07,9.89-13.34.07-.17-.07-.34-.24-.25l-2.5,1.33a.19.19,0,0,0,.09.35c1.73,0,2.18-4.13,2.34-5.24a40.13,40.13,0,0,0,.34-4.78,15.16,15.16,0,0,0-.14-4,12.09,12.09,0,0,1,.9-9c1-1.77,3-2.86,4.65-3.89,2.13-1.34,4.33-2.56,6.53-3.77,4.81-2.63,9.68-5.11,14.57-7.54q2.64-1.32,5.29-2.61c.45-.22,0-.21.51,0a26.42,26.42,0,0,0,2.8,1.19,33.52,33.52,0,0,0,28-2l-.22-.3a23,23,0,0,1-8.34,4.66c-8.43,3-17.65,2.44-26.2.3a.18.18,0,0,0-.13.34c5.89,3.27,12.73,5,19.23,6.09a68.85,68.85,0,0,0,43.18-7.08l-.18-.34a50.92,50.92,0,0,1-11.26,6A59.64,59.64,0,0,1,181,118.76c-.2,0-.24.34-.05.38a62.32,62.32,0,0,0,29.74-.33c8-2.08,14.89-6.78,21.31-12.08a86.18,86.18,0,0,0,13.27-13.65c.76-1,1.52-2,2.19-3l-.34,0a65.4,65.4,0,0,0,5,16.91c4.76,11.07,12.39,20.67,22.61,26.31a44.52,44.52,0,0,0,4.18,2c.76.32,2.19.37,2.39,1.25.47,2.08.88,4.19,1.25,6.3,1.35,7.73,2.28,15.76,1.55,23.62-.36,3.92-.89,7.81-1,11.75a20.33,20.33,0,0,0,.19,4.2,76.31,76.31,0,0,1,.58,11.19c.08,4.05-.55,8,.26,12a59.54,59.54,0,0,0,3,9.82c.08.19.4.19.38-.06a22.78,22.78,0,0,1,.91-10.12,24.44,24.44,0,0,1,3.45-6.65c.38-.49,1.63-2,2.33-1.68l1.51.64c.12,0,.24-.07.24-.19a159.12,159.12,0,0,1,.83-15.9c.65-6.38,2.2-12.61,3.06-19,.95-7.12,1.64-14.28,2.12-21.45a104,104,0,0,0,.16-17.56,156.41,156.41,0,0,0-2.78-15.95q-2.3-10.92-5.26-21.66a174.34,174.34,0,0,0-6.25-19.08c-.59-1.45-1-2.72-2.14-3.65-1.76-1.4-3.58-2.7-5.44-3.95a94.88,94.88,0,0,0-9.52-5.6c-1.7-.87-3.44-1.67-5.19-2.42-1-.43-2-.82-3-1.19-.51-.2-1-.38-1.54-.55s-1.77-.33-2-.64a83.67,83.67,0,0,0-9.57-11.05c-1.66-1.5-4-1.86-6.06-2.33a110.43,110.43,0,0,0-13.39-2A188.15,188.15,0,0,0,157.07,41a100,100,0,0,0-9.62,3.42,139.57,139.57,0,0,0-57,45.15c-1,1.4-2.7,2.91-2.81,4.74q-.15,2.45-.27,4.89-.5,9.66-.68,19.34c-.15,8-.14,16,.26,23.91.44,8.95,1.47,17.88,2.41,26.78q.7,6.63,1.49,13.24a26.54,26.54,0,0,1,0,5.84.2.2,0,0,0,.3.19c1.66-1.27,4.49-1.44,6.42-1.31,3.63.24,5.78,3.46,6.83,6.84,2.15,6.86,4.23,13.81,5.06,21,1.41,12.28.14,25.11,3.91,37a.2.2,0,1,0,.39-.12c-2.36-7.47-2.71-15.66-3.13-23.47-.18-3.5-.31-7-.52-10.51a72.84,72.84,0,0,0-1.94-12.28c-.92-3.86-2.08-7.66-3.27-11.44-.9-2.87-2.33-5.85-5.17-7a10.79,10.79,0,0,0-8.21.51,4.48,4.48,0,0,0-.56.32c.34-.24.27.45.32-.11l.06-.74a13.63,13.63,0,0,0,.22-2.69c-1.61-12.64-3-25.38-3.92-38.1-1.1-14.79-.64-29.77,0-44.58q.15-3.15.33-6.32L88,94c0-.83.74-1.41,1.19-2.07a126.26,126.26,0,0,1,16.53-19.22,147.16,147.16,0,0,1,31.83-23,111.15,111.15,0,0,1,19.61-8.28A186.78,186.78,0,0,1,210.75,33c11.07-.15,22.45.42,33.3,3a30.67,30.67,0,0,1,3.48,1,10,10,0,0,1,3.41,2.79c2.08,2.18,4,4.53,5.89,6.89.57.7,1.13,1.4,1.68,2.11s2,.9,2.94,1.22A84.5,84.5,0,0,1,282.07,60.9c1.39,1,2.76,2,4.08,3.08.54.44.84,1.72,1.12,2.37.64,1.53,1.22,3.07,1.79,4.63,4.86,13.42,8.23,27.61,11,41.68a89.64,89.64,0,0,1,2,14.77,180.94,180.94,0,0,1-.92,20.29c-.59,6.94-1.35,13.88-2.5,20.74-.48,2.89-1.18,5.72-1.61,8.61-.57,3.75-.88,7.54-1.1,11.33-.15,2.73-.25,5.47-.28,8.21v.63c0,.23,0-.21.19-.13l-.86-.37a1.85,1.85,0,0,0-2.22.43c-2.61,2.24-4.26,6.26-5.17,9.62a23.79,23.79,0,0,0-.38,8.54l.37-.05c-.72-1.82-1.33-3.69-1.9-5.57-.89-2.93-1.88-6.26-1.54-9.38.62-5.54.11-11.3-.25-16.84a58.53,58.53,0,0,1-.26-7c.19-4.16.88-8.27,1.09-12.43a78.22,78.22,0,0,0-.46-12.24,129.9,129.9,0,0,0-2.58-15.71c-.14-.58-.93-.59-1.4-.77a42,42,0,0,1-5.28-2.44,44.51,44.51,0,0,1-8.3-5.86c-8.17-7.22-13.74-17.39-17-28a55.31,55.31,0,0,1-2.13-9.09c0-.18-.26-.17-.34,0a59,59,0,0,1-6.22,7.82,91.36,91.36,0,0,1-18.86,15.81c-11.52,7.31-26.14,8-39.11,5.68-.63-.12-1.27-.24-1.9-.39,0,.13,0,.25,0,.38a60.45,60.45,0,0,0,28.47-4.3,50.55,50.55,0,0,0,11.34-6.06c.19-.15,0-.45-.18-.34A68.83,68.83,0,0,1,177,115.37c-6.21-1.05-12.75-2.8-18.37-5.92,0,.12-.09.24-.14.35,8.56,2.15,17.63,2.67,26.11-.2a23.4,23.4,0,0,0,8.77-4.85.19.19,0,0,0-.21-.3,33.06,33.06,0,0,1-24.79,2.94,30.15,30.15,0,0,1-5.62-2.08c-.54-.26-.65-.14-1.2.13-8.57,4.17-17.2,8.37-25.39,13.34-1.79,1.09-4,2.25-5.2,4.08-1.85,2.77-1.94,6.3-1.22,9.5a21.49,21.49,0,0,1,.12,5.61,25.64,25.64,0,0,1-.77,5.67c-.17.64-.73,2.46-1.51,2.48l.09.34,2.5-1.33-.24-.25c-3.14,7.43-10,11.9-13.81,18.83-2.22,4-1.55,9.43-1.16,13.87.51,5.71,1.43,11.38,2.48,17q.48,2.63,1,5.24l.18.87c.07.3-1.44,2.07-1.67,2.4-.72,1-1.47,2-2.23,3q-.66.87-1.35,1.71c-.16.2-.06.65-.06.8q0,1.59,0,3.18c.06,4.11.26,8.21.56,12.31.46,6.25,1.21,12.49,2.29,18.66.61,3.51,1.33,7,2.24,10.43.15.6.32,1.2.5,1.79,0,.12.34-.12.1-.25l-1.15-.61c-1.32-.7-2.68-1.28-4-2-.2-.1-.38.22-.18.32Z"/><path d="M113.79,252.35c1.25.67,2.19,1,3.44,1.67l1.88,1s-5.63-18-5.63-47a83.77,83.77,0,0,0,5.31-7.34S112.54,172,115.67,165s11.25-12.34,14.38-20l-2.5,1.33s2.81,0,2.5-13.34c0,0-2.19-7,1.88-11s30.33-16.67,30.33-16.67,15,8.33,31-.67c0,0-11.26,11-34.71,5,0,0,29.39,16.34,62.23-1,0,0-16.89,12.67-39.72,10.34,0,0,23.46,5.67,40.66-5s25.64-24,25.64-24,4.69,35.68,34.08,46c0,0,4.38,18.34,2.82,31.34s-.63,15.34-.63,15.34.94,13,.32,17.68,3.44,15,3.44,15-.63-5.66.62-9.33,3.75-9,6.26-9.34l1.56.67s0-15,2.19-24.68S303,135,302,124.29s-8.75-45.68-15.63-60.36c0,0-12.2-10.34-27.52-15,0,0-7.19-9.34-10.32-11.68s-48.47-11.67-98.51,6.34c0,0-38.15,14-62.23,50,0,0-2.19,33.68-.31,55s3.75,36,3.75,36L91,188.32s1.25-1,5-1.33,6.88,1.67,8.45,6.67,4.69,14.67,5.31,23,.63,25.68,3.76,35.35Z"/><path d="M136.41,192.66s4.17-4,7.5-5.56,14.6-3.33,30.44-1.56c0,0,5.42,3.34,6.67,8.45Z"/><path class="cls-16" d="M173.83,187c-9.38-.67-21-1.33-30,1.67a41.21,41.21,0,0,0-7.51,4l4.38,1c10,3.67,22.83,3.67,39.4,1.33l.94-.67c-1.25-3.33-3.44-5.33-6.25-7.33Z"/><path class="cls-17" d="M167.07,189a10.78,10.78,0,0,0-.29-2.43,79.54,79.54,0,0,0-18.42.93,10.59,10.59,0,0,0-.12,1.5,10.36,10.36,0,0,0,2.74,7.08,79.68,79.68,0,0,0,12.88.46A10.28,10.28,0,0,0,167.07,189Z"/><path class="cls-17" d="M166,189a9.5,9.5,0,0,0-.33-2.47,79,79,0,0,0-16.17.76,8.7,8.7,0,0,0-.16,1.71,9.05,9.05,0,0,0,3.57,7.29,80.41,80.41,0,0,0,9.07.3A9,9,0,0,0,166,189Z"/><path d="M153.41,186.37a5.34,5.34,0,0,0-.67,2.62,4.93,4.93,0,1,0,9.83,0,5.4,5.4,0,0,0-.93-3.06A75.91,75.91,0,0,1,153.41,186.37Z"/><path d="M161.13,189a3.48,3.48,0,1,1-3.47-3.7A3.59,3.59,0,0,1,161.13,189Z"/><path class="cls-16" d="M157.66,188.79a2.08,2.08,0,0,0,2-2.15,1.49,1.49,0,0,0,0-.21c-1.34,0-2.67.07-4,.15,0,0,0,0,0,.06A2.09,2.09,0,0,0,157.66,188.79Z"/><path d="M136.32,192.69c1.49-.92,3-1.77,4.55-2.56.81-.41,1.64-.78,2.47-1.13a2.7,2.7,0,0,1,.94,0,4.7,4.7,0,0,0,1.08-.3,48.11,48.11,0,0,1,9.59-1.57,145.06,145.06,0,0,1,18.88.18c.4,0,.39-.63,0-.66a115.53,115.53,0,0,0-19.94-.46,46.4,46.4,0,0,0-9.26,1.67,24.33,24.33,0,0,0-3.38,1.78,37.82,37.82,0,0,0-5,3s0,.1,0,.07Z"/><path d="M174.66,187.18a17.26,17.26,0,0,1,6.23,7.23c.07.16.34,0,.28-.13-1.16-3.31-3.62-5.56-6.3-7.48-.22-.16-.43.22-.21.38Z"/><path class="cls-18" d="M140.65,193.77a56.22,56.22,0,0,0,17.27,2.95,100.34,100.34,0,0,0,10.69-.26,73.82,73.82,0,0,0,11.5-1.36.11.11,0,0,0,0-.22c-3.82.17-7.65.89-11.47,1.19-3.39.27-6.8.4-10.21.37a53.64,53.64,0,0,1-17.69-2.89c-.13-.05-.18.17-.06.22Z"/><path d="M273.15,192.66s-3.48-4-6.27-5.56-12.19-3.33-25.43-1.56c0,0-4.53,3.34-5.57,8.45Z"/><path class="cls-16" d="M241.89,187c7.84-.67,17.5-1.33,25.08,1.67a32.71,32.71,0,0,1,6.27,4l-3.66,1c-8.36,3.67-19.07,3.67-32.92,1.33l-.78-.67A15,15,0,0,1,241.1,187Z"/><path class="cls-17" d="M259.21,189a11.71,11.71,0,0,0-.22-2.23,85.7,85.7,0,0,0-16.76.2,12.27,12.27,0,0,0-.17,2,10.91,10.91,0,0,0,2.51,7.1,74.4,74.4,0,0,0,11.72.43A10.81,10.81,0,0,0,259.21,189Z"/><path class="cls-17" d="M258.22,189a10,10,0,0,0-.28-2.34,86.11,86.11,0,0,0-14.67.22A10.51,10.51,0,0,0,243,189a9.39,9.39,0,0,0,3.24,7.27,71.93,71.93,0,0,0,8.27.32A9.24,9.24,0,0,0,258.22,189Z"/><path d="M247,185.9a5.85,5.85,0,0,0-.87,3.09c0,2.9,2,5.24,4.48,5.24s4.48-2.34,4.48-5.24a5.79,5.79,0,0,0-.79-3A37.84,37.84,0,0,1,247,185.9Z"/><path d="M253.79,189a3.2,3.2,0,1,1-3.16-3.7A3.45,3.45,0,0,1,253.79,189Z"/><path class="cls-16" d="M250.63,188.79a2,2,0,0,0,1.83-2.15c0-.07,0-.14,0-.22-1.22,0-2.44,0-3.64.09a.62.62,0,0,0,0,.13A2,2,0,0,0,250.63,188.79Z"/><path d="M273.23,192.69q-1.86-1.38-3.8-2.56c-.68-.41-1.37-.78-2.07-1.13a1.86,1.86,0,0,0-.78,0,3.47,3.47,0,0,1-.91-.3,34.12,34.12,0,0,0-8-1.57,101.25,101.25,0,0,0-15.77.18c-.34,0-.33-.63,0-.66a80.74,80.74,0,0,1,16.66-.46,33.15,33.15,0,0,1,7.74,1.67,20.05,20.05,0,0,1,2.82,1.78,30.91,30.91,0,0,1,4.15,3s0,.1,0,.07Z"/><path d="M241.19,187.18a16.72,16.72,0,0,0-5.2,7.23c-.06.16-.28,0-.23-.13A15.42,15.42,0,0,1,241,186.8c.18-.16.36.22.17.38Z"/><path class="cls-18" d="M269.61,193.77a40,40,0,0,1-14.43,2.95,70.06,70.06,0,0,1-8.93-.26,52.11,52.11,0,0,1-9.61-1.36c-.1,0-.07-.22,0-.22,3.19.17,6.39.89,9.59,1.19a80.9,80.9,0,0,0,8.53.37,38.15,38.15,0,0,0,14.78-2.89c.11-.05.15.17.05.22Z"/><path d="M123.9,172.2s6.67-6.89,15-7.55,21.68,1.55,23.14,2.22,13.55,8.22,24.18,7.56c0,0,.21-6.67-4.17-11.12,0,0-14.38-3.78-34.6-2.67S123.9,172.2,123.9,172.2Z"/><path d="M279.21,172.2s-5.22-6.89-11.74-7.55-17,1.55-18.11,2.22-10.61,8.22-18.93,7.56c0,0-.16-6.67,3.27-11.12,0,0,11.25-3.78,27.08-2.67S279.21,172.2,279.21,172.2Z"/></g></g></svg>