<svg xmlns="http://www.w3.org/2000/svg" xmlns:xlink="http://www.w3.org/1999/xlink" viewBox="0 0 380.54 380.54"><defs><style>.cls-1{fill:#48e8d3;}.cls-2{fill:#c5754a;}.cls-3{fill:url(#linear-gradient);}.cls-4{fill:#d9865c;}.cls-5{fill:#793f0d;}.cls-6{fill:#c34c3d;}.cls-7{fill:#ae3c36;}.cls-8{fill:#fff;}.cls-9{fill:#3e4237;}</style><linearGradient id="linear-gradient" x1="139.82" y1="145.97" x2="148.08" y2="156.99" gradientUnits="userSpaceOnUse"><stop offset="0"/><stop offset="1" stop-color="#142229"/></linearGradient></defs><g id="Capa_2" data-name="Capa 2"><g id="Avatar_22"><circle class="cls-1" cx="190.27" cy="190.27" r="190.27"/><path d="M69.62,260.19s-.91,28.9-11.12,67.32c.58.57,1.17,1.12,1.77,1.68,6.49-17.81,13.75-41,14.86-58Z"/><path d="M109.57,314.6c-.73,8.38-6.27,26.76-11.33,42.23q5.57,3.09,11.37,5.8C111.68,339.26,109.57,314.6,109.57,314.6Z"/><path d="M103.37,283.61c0-4.14-15.84-44.78-15.84-44.78-3.45,33.46-14.16,67.6-24,93.36q2,1.79,4,3.52C72.54,323,77.17,310.08,80,300.14c0,0-3.14,19-7.45,39.57q4.71,3.72,9.66,7.14C87.25,332.57,103.37,287.09,103.37,283.61Z"/><path d="M106.81,288.43c-4.44,20-18.75,48.52-24.11,58.79q4.36,3,8.89,5.77c8.59-17.45,12.74-35.3,14.53-41.14C108.88,302.89,106.81,288.43,106.81,288.43Z"/><path d="M306.57,214.26c6.89-34,2.76-74.85,2.76-74.85s-4.59-28-28.93-62.91-73.48-49.6-73.48-49.6-51.43-4.13-94.6,37.2l-1.81,1.76-.56.56q-.63.61-1.23,1.23l-.6.61c-.42.42-.82.84-1.23,1.26l-.49.52-1.64,1.74-.24.27c-.46.49-.91,1-1.36,1.48-.17.2-.35.39-.52.58l-1.06,1.2-.52.6L100,77.19l-.39.46-1.43,1.72-.3.37-1.1,1.36-.45.57-.93,1.19-.43.56c-.36.46-.7.91-1,1.37l-.26.33-1.24,1.69c-.1.14-.2.27-.29.41l-.92,1.29-.38.54L90,90.24l-.34.51-1,1.5-.09.14c-.37.56-.73,1.11-1.08,1.66-.09.14-.18.28-.26.42-.27.41-.52.82-.78,1.23-.1.17-.2.34-.31.5-.24.41-.49.81-.73,1.21l-.25.42c-.65,1.08-1.26,2.15-1.86,3.21l-.22.4-.65,1.18c-.08.16-.17.31-.25.46l-.64,1.21-.18.35-.8,1.55,0,0c-.25.49-.49,1-.73,1.47l-.19.4c-.18.37-.36.74-.53,1.11-.07.14-.14.29-.2.43-.19.39-.37.79-.55,1.18,0,.1-.09.19-.13.28-.22.49-.44,1-.65,1.47a1.42,1.42,0,0,1-.08.18L76.91,114c-.06.14-.11.27-.17.4l-.43,1c0,.13-.1.26-.16.39-.15.4-.31.79-.46,1.18a1.07,1.07,0,0,0-.07.19c-.18.45-.35.91-.52,1.35,0,.1-.07.18-.1.28l-.39,1c0,.13-.09.26-.13.39-.12.32-.23.63-.34.94l-.12.37c-.13.38-.26.76-.38,1.13a.56.56,0,0,0,0,.12c-.14.41-.27.82-.4,1.22l-.1.34-.27.85-.12.42-.24.79c0,.12-.07.25-.11.37-.09.34-.19.68-.28,1L72,128c-.09.31-.17.63-.26.94,0,.14-.07.28-.1.42s-.11.43-.17.64-.07.3-.11.44l-.15.61c0,.14-.06.28-.1.41l-.18.81c0,.17-.08.34-.11.51l-.12.53c0,.16-.07.32-.1.48l-.09.43c0,.16-.07.32-.1.47s-.05.25-.07.38c-.12.62-.23,1.21-.33,1.78l0,.19-.09.55a.88.88,0,0,0,0,.16c0,.19-.06.38-.09.56v0q-.26,1.71-.39,3c-.21,2-.24,3.21-.24,3.48v0c-10.57,25.72-7.35,51.44-7.35,51.44-14.7,54.64-6.43,82.2-6.43,82.2l.92-6.43c-4.13-36.28,15.15-85.42,15.15-85.42s-3.67,28,1.38,55.57S93.5,294.17,93.5,294.17c-.36-1.05-.7-2.1-1-3.14-18.06-56.69-.35-97.43-.35-97.43l27.55,9.64,20.21,40L158.23,307c1.12,3.91,14.13,10.55,17.28,12.89l32.1,23.84c17.66,13.11,36,18.85,55.52,22.39a189.73,189.73,0,0,0,38.94-21.85,127.4,127.4,0,0,1-6.52-30.31C289.12,290,299.68,248.25,306.57,214.26Z"/><path d="M154.34,355.25,164,292.56s-11.71-59.93-12.4-64.75S111,163.75,111,163.75s-23.42-9.64-42,24.11-13.09,88.86-13.09,88.86a110.11,110.11,0,0,1-9.43,38.09q1.4,1.6,2.83,3.18a177.33,177.33,0,0,0,9.35-23.36,227.29,227.29,0,0,1-7.94,24.88A190.5,190.5,0,0,0,122,367.92l13.71-.28C141.25,366.27,154.34,355.25,154.34,355.25Z"/><path class="cls-2" d="M220.7,334.58c-7.35-16.07-4.59-79.44-4.59-79.44H127.48c1.38,16.53,2.75,52.35-6.89,74.85-4.17,9.72-14.86,18.33-25.65,25a190.6,190.6,0,0,0,168.44,11C242.19,358.9,226.76,347.83,220.7,334.58Z"/><path class="cls-3" d="M104.4,167.2s10.33-21.36,12.06-24.8l11.71-31.34S155.38,88,163.64,86.6,149.86,135.51,148.83,139s-36.51,55.45-36.51,55.45L105.78,193Z"/><path d="M234.36,91.57c-5.09-3.66-11-6.15-16.9-8.31a140.77,140.77,0,0,0-15.57-4.68c-1.3-.32-2.61-.61-3.92-.89-2-.41-4.45.34-6.43.64a131.63,131.63,0,0,0-24.11,6.54s0,0,0,0l-3.09,1.71,3.79,7.24,16,2.37c.11,1.32.19,2.64.38,4,.08.62.93.37,1-.13a16.91,16.91,0,0,0,0-3.63l9.44,1.4c-.07,1.31-.14,2.62-.18,4a.2.2,0,0,0,.4,0,37.92,37.92,0,0,0,.52-3.89l5.09.76c-.37,1.13-1.06,2.18-1.32,3.33a.35.35,0,0,0,.58.34,8.19,8.19,0,0,0,1.77-3.52l12.79,1.89,3.1-1.41-.15.11c-.33.23,0,.77.31.54.95-.66,1.9-1.33,2.83-2h0L234,91.89l.15.08C234.39,92.13,234.6,91.74,234.36,91.57Z"/><path class="cls-4" d="M259.73,165.13C257,90.74,232.64,91.65,232.64,91.65c-15.16,1.84-62.45-4.59-62.45-4.59l-4.14-.92c-11,3.22-35.82,25.26-35.82,25.26-6,12.86-12.86,32.15-12.86,32.15l-5.51,22c-1.37,5.51-2.75,24.34-2.75,24.34,0-5.05-5-22.51-5-22.51-5,8.27-12.4,25.72-12.4,25.72,2.75,8.27,5,25.26,15.15,28.47l.92,1.84c1.38,18.83,14.9,34.2,19.29,38.12,12.86,11.48,24.65,23.63,38.68,32,8.11,4.85,16.76,6.25,26.07,6.55,14.23.46,21.58-11.94,37.65-23.42s28.47-31.23,28.47-31.23C261.57,207.84,259.73,165.13,259.73,165.13Z"/><path class="cls-4" d="M136.43,145.84c-1.53-.67,7.62-21,8.42-22.36,9.18-15.8,25.36-24.2,43.06-26.58,16.93-2.28,39.54-3.15,51.88,11.22,4.75,5.54,18.71,55.64,12.37,57l-25.49,5.51-33.07,2.07-20.66-11Z"/><path class="cls-4" d="M110.26,186.48l-.76-1.5c-.24,2.92-.39,5-.39,5a48.46,48.46,0,0,0-1.43-8.6l-.18-.36s4.13,18.6,1.38,30.31-4.82,9-4.82,9v0a10.9,10.9,0,0,0,2.75,1.32l.92,1.84c1.38,18.83,14.9,34.2,19.29,38.12,9,8.07,17.56,16.47,26.69,23.66-23.64-24.51-20.84-42.74-31.05-57.42C111.63,212,110.26,186.48,110.26,186.48Z"/><path class="cls-4" d="M257.89,245.49c2.06-21.05,2.39-43.69,2.28-59.55l-5.26,4.68s2.76,53.72-19.29,79.9c-1,1.18-1.89,2.36-2.69,3.52C247.27,262.41,257.89,245.49,257.89,245.49Z"/><path class="cls-4" d="M232.64,91.65c-15.16,1.84-62.45-4.59-62.45-4.59l-4.14-.92c-11,3.22-35.82,25.26-35.82,25.26-6,12.86-12.86,32.15-12.86,32.15s-1,3.87-2.12,8.49l4.65-1.38s15.15-15.15,20.67-28.24,22-30.31,51.66-28.93,41.33.69,46.84,6.2,15.15,24.8,17.22,64.75c0,0,1.51.43,3.45.95,0-.17,0-.26,0-.26C257,90.74,232.64,91.65,232.64,91.65Z"/><path class="cls-4" d="M106.3,206.8s-2.76-6.88-.86-10.67l.86-2.24-5-11.71,4.14-10.33-1.38-4.48s-9.65,17.91-12.23,25.14c0,0,4.31,21.35,10.16,26,0,0-1.72-6.71-1-8.09s6,.69,6-.86A6.21,6.21,0,0,0,106.3,206.8Z"/><path class="cls-4" d="M97.86,202s.51-8.09,1.55-8.61,2.93,2.58,2.93,2.58-1,6.89,3.27,7.93l-.86-4.83,1.55-5.16s-5.51-12.92-7.58-15.16l-.86.52-6,13.26.69,3.27s2.93-8.78,4-9.47,2.41,2.24,2.41,2.24-4.3,9.64.35,17.56Z"/><polygon class="cls-4" points="99.75 179.59 104.75 170.12 104.06 167.37 98.72 178.73 99.75 179.59"/><path class="cls-4" d="M179.1,220.73c2.06-.91,3.92-3.51,5-5.55,3.33-6.07,3.71-12.74,2.75-19.45-.28-2-1.07-9-3.47-9.74-2-.59-3.22,2.47-4,3.82-1.22,2.16-2.51,4.69-4.43,6.31-2.9,2.46-3.84,7.06-3.84,10.66,0,4.06.91,9.19,3.43,12.48C176.06,221.17,177.63,221.39,179.1,220.73Z"/><path class="cls-4" d="M210.83,193.6s-2.53,12.4-2.53,17.22S209.91,223,212,223s5.29-8.49,6-12.86-1.6-16.53-3.9-19.74Z"/><path class="cls-4" d="M195.15,236.77s-6.54-2.24-7.06-8.27,2.07-33.75,2.07-33.75l17.91,1.2s-2.07,20.32-2.24,28.42S204.11,238.49,195.15,236.77Z"/><path class="cls-4" d="M187.58,222.13s12.22-4.65,18.77,1.55l.86-1.38-.52-1.72s-7.06-5.34-19.63-.69Z"/><path class="cls-4" d="M174.09,229.42c0,1.71,2,2.41,3.45,1.67s2.13-2.71,2.58-4c1.59-4.42-.36-6.6-4.85-6.39a27.19,27.19,0,0,1-1.41,8.46Z"/><path class="cls-4" d="M213.35,235.62c-2.56-1.66-4.57-2.57-4.36-6,.06-1,.26-3.16.92-3.9.9-1,2-.51,3.46-.84-.07,3,0,5.92,0,8.87Z"/><path class="cls-4" d="M173.8,232.81a11.45,11.45,0,0,0,3.45,1c1.72.17,8.43-.17,12.74,3.1s10.85,4.65,15.15-.69c0,0,4.82-1.72,7.75,1.21a7.09,7.09,0,0,1-4.48,4.65s-6,8.78-14.12,7.74-14.81-4.3-18.42-11.88C175.87,238,173.8,235.39,173.8,232.81Z"/><path d="M180.86,236.25c1.72,3.62,6.55,2.76,6.55,2.76-2.07-2.07-5.86-2.76-5.86-2.76ZM205.32,239l-1,1.37c3.45.18,3.62-1.89,3.62-1.89Z"/><path class="cls-4" d="M132.3,175.46s-12.4-2.41-13.43-11.71,1.72-16.87,13.43-17.91,16.53,5.51,20,7.23,23.76,9.3,23.76,9.3l3.44,7.24s1.73,11.71-4.47,16.87c0,0-13.78-2.75-15.16-2.41s-22.38-7.57-22.38-7.57Z"/><path class="cls-4" d="M220.12,192.34s-2.06-9.65,2.76-15.84l6.2-4.83,6.54-1.37,11.71-2.07,11.37-2.76,1.38,1s-.35,16.87.34,19.63l-6.2,1s-12.05,5.51-13.09,5.51S220.12,192.34,220.12,192.34Z"/><path class="cls-4" d="M106.87,221.39c-5.58-1.89-8.44-7.61-10.37-12.78-1.85-5-2.87-10.2-4.48-15.25-.2-.62.74-2.09,1-2.75q1.51-3.45,3.09-6.89a155.74,155.74,0,0,1,8.2-16.14l-.57-.07c.86,3,1.66,6,2.43,9,1.1,4.31,2.55,8.95,2.6,13.44a.32.32,0,0,0,.64,0q.5-6.75,1.2-13.47a116.4,116.4,0,0,1,2.92-16.28q2-8.07,4-16.14c.92-3.67,2.62-7.28,4-10.81q2.2-5.79,4.56-11.54,1.26-3.06,2.58-6.1c.4-.91.81-1.81,1.22-2.72a4,4,0,0,1,.63-1.32c2.79-2.46,5.64-4.85,8.51-7.2,5.17-4.23,10.46-8.33,16-12a67.29,67.29,0,0,1,7.59-4.46,22.69,22.69,0,0,1,3.24-1.32c.78-.25,2.4.45,3.21.63,2.11.47,4.29.66,6.43.92q7.94,1,15.9,1.85c12.37,1.32,25,2.77,37.44,2.33,3-.11,4.82-.53,7.57.77,4.65,2.19,8,6.58,10.5,10.92,5.71,9.87,8.2,21.54,9.92,32.69a283.82,283.82,0,0,1,2.77,36.74c.4,16.5.27,33-.5,49.54-.24,5.09-.55,10.19-.95,15.27-.09,1.22-.2,2.44-.3,3.66,0,.61-.11,1.22-.17,1.83a5.62,5.62,0,0,1-.13,1.65c-.18.29-.38.59-.57.88A142.46,142.46,0,0,1,246.66,260a122.91,122.91,0,0,1-8.8,9.32,127.15,127.15,0,0,1-11.23,9.1c-7.17,5.43-13.35,12.18-20.86,17.15A25.08,25.08,0,0,1,195,299.69c-4.67.57-9.77-.15-14.36-1-10.41-1.85-19-7.63-27.17-14.08-6.19-4.89-12-10.26-17.78-15.6-4.11-3.79-8.49-7.35-12.18-11.56-8.27-9.41-14.51-21.43-15.52-34,0-.35-.57-.35-.54,0,1.12,14.08,8.59,28.11,18.77,37.82,7.14,6.82,14.53,13.51,22,19.92,7.31,6.24,15.27,12.65,24.35,16.05a53.51,53.51,0,0,0,13.76,2.91c4.08.38,8.17.59,12.16-.49,7.4-2,13.29-7.83,18.88-12.75,3.93-3.47,7.92-6.85,12.17-9.91a85.82,85.82,0,0,0,9.89-8.37,134.86,134.86,0,0,0,14.69-17.15c1.21-1.66,2.39-3.34,3.52-5l.49-.76a5.7,5.7,0,0,0,.22-2c.13-1.42.25-2.84.37-4.26.83-10,1.28-20.1,1.54-30.16q.53-20.79-.15-41.6c-.45-13.54-1.5-27.12-4.31-40.39-2-9.37-4.87-19.12-10.47-27-2.47-3.48-5.69-6.76-9.76-8.29-3.21-1.21-6.67-.31-10-.31-12.76,0-25.56-1.41-38.23-2.82a199.33,199.33,0,0,1-21.23-3c-.66-.15-1.85.58-2.46.84a39.58,39.58,0,0,0-3.63,1.81,92.07,92.07,0,0,0-7.91,5c-5.22,3.64-10.23,7.61-15.13,11.66q-2.59,2.16-5.15,4.35c-.49.43-1.62,1.08-1.91,1.7-3.43,7.41-6.43,15-9.34,22.64a94.2,94.2,0,0,0-3.72,10.24q-2.07,8.31-4.15,16.62c-2.39,9.58-3.23,19.35-3.95,29.19h.64c-.06-4.3-1.41-8.72-2.45-12.86q-1.23-4.87-2.62-9.73a.32.32,0,0,0-.57-.07,161.43,161.43,0,0,0-8.52,16.93c-1,2.27-2,4.55-3,6.83-.42,1-1,1.74-.68,2.77,1.77,5.49,2.87,11.15,5,16.51,1.95,4.82,4.94,9.79,10.13,11.53.29.09.41-.36.12-.45Z"/><path class="cls-5" d="M133.09,171c-.16-.71-.41-2.61.38-3.13.62-.41,1.22-.84,1.85-1.23a21.65,21.65,0,0,1,4.47-2,29.6,29.6,0,0,1,9.8-1.41,34.77,34.77,0,0,1,19.54,6.13s.1,0,.06-.07a33.16,33.16,0,0,0-18.13-6.65c-6.05-.43-13.67.79-18.23,5.15a.23.23,0,0,0-.05.21c.26,1-.13,2.06.11,3.07a.1.1,0,0,0,.2,0Z"/><path class="cls-5" d="M230.81,176.5a21.36,21.36,0,0,1,15.34-1.66,25.42,25.42,0,0,1,6.55,2.67c.91.53,2.66,1.35,2.71,2.5a25.15,25.15,0,0,1,.34,3.37.16.16,0,0,0,.3.08,9,9,0,0,0,.39-3.87.53.53,0,0,0-.67-.5c-.55.17-2.07-1.28-2.51-1.55a25.81,25.81,0,0,0-9.61-3.43,19.52,19.52,0,0,0-12.85,2.38Z"/><path class="cls-5" d="M181.89,239.77c-4.15.08-6.89-2.48-7.72-6.49-.74-3.54,1.5-7.05.94-10.66,0-.12-.21-.09-.21,0,.09,4.33-3,8.27-1.16,12.59a7.43,7.43,0,0,0,8.15,4.72A.1.1,0,1,0,181.89,239.77ZM178.8,236a.07.07,0,1,0,0,.14c4.43-.17,7.93,2.09,10.5,5.54.13.16.44.07.36-.15C188.09,237.05,183.11,235.61,178.8,236Zm30.75,2.65a4.73,4.73,0,0,0-3.8-.13,5.89,5.89,0,0,0,.39-1.38c0-.15-.18-.26-.25-.11-1.56,3-3.24,5.07-6.57,6.08a13.41,13.41,0,0,1-9.46-.91.08.08,0,0,0-.09.14,12.57,12.57,0,0,0,9.7,1.31,9.9,9.9,0,0,0,5.85-4.24h.06c.54-.14,1-.45,1.57-.6a3.72,3.72,0,0,1,2.44.2C209.61,239.12,209.75,238.76,209.55,238.66Zm4.29-7.45c-.13-1.85-.15-3.62-.13-5.46a.13.13,0,0,0-.25,0c-1.72,5.43,2,13.53-5.07,16.11-.14.05-.09.27.05.22,3.06-1,4.91-2.82,5.37-6A21.92,21.92,0,0,0,213.84,231.21Z"/><path class="cls-4" d="M105.7,196.92c.34-1.24,1.15-2.35.74-3.61a72,72,0,0,0-3.38-8.07c-.55-1.16-1.14-2.35-1.8-3.5,0,0,0-.05,0-.08a.29.29,0,0,0-.2-.27,21.49,21.49,0,0,0-2.36-3.31c-.16-.18-.41,0-.32.24.7,1.48,1.49,2.92,2.26,4.38-.31,3.8-2.69,7.18-3.37,10.94-.79,4.36.6,8.73,1.94,12.83,0,0,.08,0,.07,0-1.4-4.84-2.67-9.41-1.38-14.44.76-2.94,2.72-5.4,3.25-8.34.35.69.7,1.39,1,2.1.66,1.47,1.26,3,1.86,4.48.41,1,1.77,3.14,1.38,4.29a12.9,12.9,0,0,0-.83,6.11c.32,2.19,1.3,4.37,1.85,6.51,0,.07.11,0,.1,0-.46-2.29-1.3-4.54-1.38-6.89A11.06,11.06,0,0,1,105.7,196.92Z"/><path class="cls-6" d="M155.72,255.59c.63.19,1.67,2.25,2,2.72a71.88,71.88,0,0,0,6,6.8c5.88,5.93,12.2,12.19,20.57,14.26,6.9,1.71,16.06,1.88,22.11-2.42,0,0,10.34-7.35,17-17.91,0,0-9.87,3-13.54,2.75s-33.53-2.52-33.53-2.52l-14.23-1.84Z"/><path class="cls-7" d="M209.91,261.79c-3.68-.22-33.53-2.52-33.53-2.52l-14.23-1.84-6.43-1.84c.63.19,1.67,2.25,2,2.72s.71.9,1.08,1.34c2.71.71,14.23,3.66,21.68,4.67,8.49,1.15,14.23,4.36,21.35,1.61,0,0,12.2-.21,18.8-2.91,1-1.27,1.91-2.59,2.78-4C223.45,259,213.58,262,209.91,261.79Zm-17.91,17c-11.71-.69-23.42-9.42-23.42-9.42l-.24.22c4.64,4.34,9.75,8.23,16,9.78,6.9,1.71,16.06,1.88,22.11-2.42a66,66,0,0,0,5.38-4.42,2.38,2.38,0,0,0-.33-.17A28.55,28.55,0,0,1,192,278.79Z"/><path class="cls-6" d="M173.35,268.07c1-2.11,6.69-2.14,8.31-1.91,6.43.92,12.86,2.75,20.21,2.06,2.24-.21,13.21-2.39,9.24,2.82-3.72,4.88-12.36,6.46-18,6.37a31.15,31.15,0,0,1-15.07-3.81c-1.39-.81-3.34-1.91-4.27-3.28A2.24,2.24,0,0,1,173.35,268.07Z"/><path class="cls-7" d="M221.5,258.69c-7.12,2.1-12.16-6.44-19.24-5-2,.4-3.47,2.11-5.25,3-2.23,1.17-3-.79-4.57-2a9.15,9.15,0,0,0-4.45-1.63,22.27,22.27,0,0,0-9.08,1.19,51.38,51.38,0,0,1-11.82,2.47c-10.34.69-19-6.2-19-6.2,11.71,11,27.21,9,41.33,12.75h.2l.49.34c1.38,1,3.44,1.38,4.82,1.72a9.67,9.67,0,0,0,4.06-1.74l.76,0c7.24.35,24.8-1,31-11C230.8,252.61,225.41,257.55,221.5,258.69Z"/><path class="cls-7" d="M179.71,261.05c-3.65-.52-7.32-1-11-1.54-7.62-1.21-14.74-3.82-20.58-9,0,0-.09,0,0,0,5.39,5.21,12.24,7.73,19.46,9.25,3.6.76,7.26,1.22,10.9,1.73s7.33,1.55,11,1.94a.2.2,0,0,0,.1-.38C186.56,261.81,182.93,261.52,179.71,261.05Zm20,1.78a16.1,16.1,0,0,1-4.32,2.13c-1.59.44-3.92-.58-5.19-1.44-.14-.09-.27.13-.13.22a9.11,9.11,0,0,0,2.2,1.06,11.59,11.59,0,0,0,2.68.82,6.86,6.86,0,0,0,4.93-2.61C200,262.9,199.84,262.77,199.74,262.83Zm31-10.25c-3.73,5.09-9.37,7.64-15.34,9.18a59.09,59.09,0,0,1-15.61,1.86s0,0,0,0A51.23,51.23,0,0,0,216,262.23c5.62-1.42,11.93-4.28,14.87-9.59A.06.06,0,0,0,230.75,252.58Z"/><path d="M118.87,151.35s11.71-6.89,21-3.1,15.84,9.3,24.45,12.4a50.56,50.56,0,0,1,15.5,9.65s.34-7.24-2.07-12.06c0,0-6.2-1.38-11.71-2.41s-16.19-6.89-21.7-10S124.38,144.81,118.87,151.35Z"/><path d="M268.61,174.59s-5.12-9.29-12.46-8-13.51,4.85-20.16,5.65-13.41,5.25-13.41,5.25,2.33-6.85,5.59-10.78c0,0,4.49.22,8.41.6s12.88-2.5,17.53-4.06S267.36,167.13,268.61,174.59Z"/><path d="M156.87,188.78s-15.39,3.21-25-13.32a19.68,19.68,0,0,1-9.64-4.82s7.34,2.29,13.08,1.38,22.74-9,36.51,9.64Z"/><path class="cls-8" d="M174,185.11c-7.92-13.09-26.17-17.23-39.26-10l-.92.69,1.26,2.41c7.93,11,20.33,11.71,32.72,9.64,0,0,2.64-.69,3.68-.92a13,13,0,0,1,3.44-.11Z"/><path class="cls-9" d="M161.51,178.46a9.72,9.72,0,0,0-1.2-4.68,31.31,31.31,0,0,0-15.68-1.91,9.72,9.72,0,0,0,4.15,15.84c.48.12,1,.24,1.44.34a10.05,10.05,0,0,0,1.56.13A9.73,9.73,0,0,0,161.51,178.46Z"/><path class="cls-9" d="M143.17,178.46a8.61,8.61,0,1,0,15.38-5.31,31.41,31.41,0,0,0-12.06-1.48A8.6,8.6,0,0,0,143.17,178.46Z"/><path d="M156.86,178.46a5.08,5.08,0,1,1-5.08-5.08A5.09,5.09,0,0,1,156.86,178.46Z"/><path d="M155.37,178.46a3.59,3.59,0,1,1-3.59-3.59A3.58,3.58,0,0,1,155.37,178.46Z"/><path class="cls-8" d="M153.86,174.24a2.08,2.08,0,1,1-2.08-2.09A2.08,2.08,0,0,1,153.86,174.24Z"/><path d="M134.72,175.14a32.1,32.1,0,0,1,21.49-2.39A29,29,0,0,1,173.8,185.2c.14.21.47,0,.34-.19-7.52-13.18-26.62-17.58-39.44-9.92,0,0,0,.07,0,0Z"/><path d="M135,178.24c7.59,10.68,20.78,11.91,32.78,9.67.07,0,0-.11,0-.1-5.91.83-11.87,1.33-17.76.08a25.1,25.1,0,0,1-14.9-9.7c0-.05-.13,0-.09.05Z"/><path d="M234.91,197.28s12.31,5.6,23.48-9.11a15.86,15.86,0,0,0,9-3.2s-6.6,1.09-11.24-.73-17.41-12.41-32.43,3.67Z"/><path class="cls-8" d="M221.24,191c9.08-11.6,25.17-12.76,34.8-3.57l.64.82-1.5,2.17c-8.7,9.57-19.24,8.27-29.26,4.27,0,0-2.08-1.1-2.91-1.49a9.47,9.47,0,0,0-2.87-.66Z"/><path class="cls-9" d="M247.27,187.86a9.7,9.7,0,0,0-2.19-6.15,23.79,23.79,0,0,0-16.71,2.95,9.71,9.71,0,0,0,7.07,12.7c.72.1,1.43.18,2.14.23A9.73,9.73,0,0,0,247.27,187.86Z"/><path class="cls-9" d="M237.55,196.47a8.6,8.6,0,0,0,5.7-15.05A23.83,23.83,0,0,0,230,183.79a8.61,8.61,0,0,0,7.59,12.68Z"/><circle cx="237.55" cy="187.86" r="5.08"/><path d="M241.13,187.86a3.59,3.59,0,1,1-3.58-3.59A3.58,3.58,0,0,1,241.13,187.86Z"/><path class="cls-8" d="M239.63,183.64a2.09,2.09,0,1,1-2.08-2.08A2.08,2.08,0,0,1,239.63,183.64Z"/><path d="M256,187.4a23.81,23.81,0,0,0-17.59-5.77c-6.51.54-12.41,4-17.08,9.44-.16.18-.39,0-.25-.25,8.77-11.75,25.61-13,34.95-3.46,0,0,0,.06,0,0Z"/><path d="M255.21,190.4c-8.36,9.28-19.66,8.4-29.31,4.29-.06,0,0-.12,0-.1,4.8,1.76,9.71,3.2,14.89,2.91,5.34-.31,10.26-2.91,14.3-7.16.05-.05.11,0,.07.06Z"/></g></g></svg>