<svg xmlns="http://www.w3.org/2000/svg" xmlns:xlink="http://www.w3.org/1999/xlink" viewBox="0 0 380.54 380.54"><defs><style>.cls-1{fill:#72ffe9;}.cls-2{fill:#8ff0ea;}.cls-3{fill:#eda385;}.cls-4{fill:#f6ae94;}.cls-5{fill:#cb6d50;}.cls-6{fill:#e88665;}.cls-7{fill:#742e2c;}.cls-8{fill:#ea5b79;}.cls-9{fill:url(#linear-gradient);}.cls-10{fill:#d71c57;}.cls-11{fill:#fff;}.cls-12{fill:#9e9c8f;}.cls-13{fill:#646f79;}</style><linearGradient id="linear-gradient" x1="180.32" y1="293.43" x2="180.32" y2="298.74" gradientUnits="userSpaceOnUse"><stop offset="0" stop-color="#ea5b79"/><stop offset="1" stop-color="#f299b2"/></linearGradient></defs><g id="Capa_2" data-name="Capa 2"><g id="Avatar_12"><circle class="cls-1" cx="190.27" cy="190.27" r="190.27"/><path class="cls-2" d="M187.64,358c0-.11.07-.22.11-.34.19-.54.37-1.1.55-1.67l.21-.73c.13-.45.26-.9.39-1.37.07-.28.15-.57.22-.86s.22-.89.32-1.34l.21-.92c.1-.46.19-.92.28-1.39.06-.31.13-.63.18-1,.09-.49.17-1,.25-1.48l.15-.95c.08-.56.16-1.13.23-1.7,0-.27.07-.54.1-.82.1-.85.19-1.72.26-2.61a2.28,2.28,0,0,0,0-.26c.07-.81.13-1.62.17-2.46,0-.31,0-.63.05-.95,0-.62,0-1.24.07-1.88,0-.37,0-.75,0-1.13,0-.6,0-1.2,0-1.81v-1.22c0-.61,0-1.23,0-1.85,0-.42,0-.84,0-1.27,0-.64,0-1.3-.08-2,0-.42,0-.83-.07-1.25,0-.73-.09-1.48-.15-2.23,0-.36-.05-.72-.07-1.08-.09-1.13-.2-2.27-.32-3.43l59.67-31.35v.05a.11.11,0,0,1,0,.05c0,.09,0,.26,0,.5v.05c0,1.36-.1,4.8-.06,9.46v.08c0,.91,0,1.86,0,2.86v.17q0,.68,0,1.38c.33,15.54,1.9,39.36,8.1,50.12.33.57.65,1.13,1,1.67l.27.45c.22.39.45.77.68,1.15l.31.52.61,1,.33.52c.2.32.39.64.59.95a72,72,0,0,0,4.77,6.74A190.3,190.3,0,0,0,380.54,190.27C380.54,85.19,295.35,0,190.27,0S0,85.19,0,190.27c0,98.81,75.31,180,171.67,189.36C178.22,375,184,368.29,187.64,358Z"/><path class="cls-3" d="M267,364.43a72,72,0,0,1-4.77-6.74c-.2-.31-.39-.63-.59-.95l-.33-.52-.61-1-.31-.52c-.23-.38-.46-.76-.68-1.15l-.27-.45c-.32-.54-.64-1.1-1-1.67-6.2-10.76-7.77-34.58-8.1-50.12q0-.71,0-1.38v-.17c0-1,0-1.95,0-2.86v-.08c0-4.66,0-8.1.06-9.46v-.05c0-.24,0-.41,0-.5a.11.11,0,0,0,0-.05v-.05l-59.67,31.35c.12,1.16.23,2.3.32,3.43,0,.36.05.72.07,1.08.06.75.11,1.5.15,2.23,0,.42.05.83.07,1.25,0,.66.06,1.32.08,2,0,.43,0,.85,0,1.27,0,.62,0,1.24,0,1.85v1.22c0,.61,0,1.21,0,1.81,0,.38,0,.76,0,1.13,0,.64,0,1.26-.07,1.88,0,.32,0,.64-.05.95,0,.84-.1,1.65-.17,2.46a2.28,2.28,0,0,1,0,.26c-.07.89-.16,1.76-.26,2.61,0,.28-.07.55-.1.82-.07.57-.15,1.14-.23,1.7l-.15.95c-.08.5-.16,1-.25,1.48-.05.32-.12.64-.18,1-.09.47-.18.93-.28,1.39l-.21.92c-.1.45-.21.9-.32,1.34s-.15.58-.22.86c-.13.47-.26.92-.39,1.37l-.21.73c-.18.57-.36,1.13-.55,1.67,0,.12-.07.23-.11.34-3.6,10.32-9.42,17.07-16,21.66q9.18.9,18.6.91A189.65,189.65,0,0,0,267,364.43Z"/><path class="cls-4" d="M296.64,192.19c-1-.72-4.79-1.78-5.83-2.05,2.53-19.72,8.83-56.42-18.45-85.51-30.68-32.73-72.61-32.73-95.63-27.1S126.62,106.16,121,131.22s-2.1,32.62-4.62,40.71-7.08,19.22-1,31.35a119.89,119.89,0,0,1,3,25.79c0,13.65,8.09,32.87,23.26,52.08s24.35,39.29,42,41c26.79,2.52,64.88-21.62,77.86-49.51a147.38,147.38,0,0,0,8.6-25.39c4.25.78,7.67-2,10.63-6.48,3.8-5.69,8.73-9.48,12.52-14.79C298.92,218,305,198.25,296.64,192.19Z"/><path class="cls-4" d="M128.16,130a43.25,43.25,0,0,1,13-19.25c11.67-9.75,28.49-14.26,43.52-13.28,7.94.51,17.49,2.5,24.57,6.26,13,6.9,20.29,14.29,22.58,29.17,1,6.27.94,12.67,2.1,18.91.21,1.13,5.25,15.72,7.4,13.85,0,0-8.73,7.59-9.86,7.59s-113,4.17-113,4.17l-2.65-1.52s7.59-10.62,8-19C124.14,147.81,125.17,138.46,128.16,130Z"/><path class="cls-4" d="M158.59,254.61s.25,2.78,4.29,3.28a7.37,7.37,0,0,0,8.35-4.8c1.52-3.54,4.55-22.25,3.54-42.73l-15.17.25s2.78,21.24,2.27,28.07S158.59,254.61,158.59,254.61Z"/><path class="cls-4" d="M159.51,250.64a8,8,0,0,1,4.05-1.51c2,0,9.44,2.86,9.44,2.86l1-2s-7.75-3-10.45-3a5.28,5.28,0,0,0-2.87,1Z"/><path class="cls-4" d="M206.77,226.5a8.91,8.91,0,1,1-8.91-8.91A8.91,8.91,0,0,1,206.77,226.5Z"/><path class="cls-4" d="M160.48,226c.39,4.59-2.31,8.56-6,8.87s-7-3.16-7.4-7.76,2.31-8.56,6-8.87S160.1,221.36,160.48,226Z"/><path class="cls-4" d="M265,257.8c-9.2,16-26.13,23.63-37.79,16.93s-13.67-25.12-4.46-41.17,26.12-23.63,37.79-16.94S274.21,241.75,265,257.8Z"/><path class="cls-4" d="M147.22,242c-5.27-15.73-18.44-26.7-29.49-24.61a110.16,110.16,0,0,1,.66,11.64c0,12.12,6.38,28.62,18.42,45.61C147.84,272.4,152.5,257.81,147.22,242Z"/><path class="cls-4" d="M119.55,204.32s-3.79-26.92,5.69-31.09,21.24.76,21.24.76l6.44,8,.76,2.65s3.79,16.69,2.66,43.61l-11-8.72s-9.1-9.1-11-9.48-9.48-.38-9.48-.38Z"/><path class="cls-4" d="M194.64,226.32s-7.59-39.44,1.51-51.58,23.89-11,23.89-11L236,165.26s14.79,4.18,17.82,7.59c0,0,0,22-9.86,42.09Z"/><path class="cls-4" d="M157.66,257.22c-.19.87,2.79,2.67,3.36,2.92,4,1.72,8.53-.42,12.31-1.74,3.38-1.18,8.77,1.85,9.27,3.7,0,0,.17,2.19-1.17,2.53s-21.41.17-21.41.17l-2.19-1.35-.84-3.2Z"/><path class="cls-4" d="M157.32,259.66s1.27,3.54,6.58,3.29,8.59-2.78,10.36-3.29,8.09,1.27,7.84,3.29l-.51,2s-3,13.4-9.1,13.65S167.44,270,163.14,268C163.14,268,157.32,264.46,157.32,259.66Z"/><path class="cls-4" d="M176.79,305.92s8.09.51,10.36,0c0,0-1.26,4.3-3.79,4.05S176.79,305.92,176.79,305.92Z"/><path class="cls-4" d="M153.78,282.41,152.27,286S149,282.41,153.78,282.41Z"/><path class="cls-4" d="M224.32,280.9l2.78,4.29S230.39,281.4,224.32,280.9Z"/><path class="cls-5" d="M215.11,184.22s11-4.92,25.79,2.66C240.9,186.88,226.87,174,215.11,184.22Z"/><path class="cls-5" d="M145.83,187.92s-8.42-4-18.84,3.78C127,191.7,136.51,179,145.83,187.92Z"/><path class="cls-6" d="M293,194.94l-2.11,2c-2.25,1.36-7.12,8.48-7.12,8.48l-2.82,4.39-.09-.09c-1.52,1.39-4.55,8.47-4.55,8.47l.16.49-.16.14a7,7,0,0,1,.4.6l.57,1.79a7.85,7.85,0,0,1-1.47,4.94s4.29-1.51,5.18-4.55a5.31,5.31,0,0,0-1.5-5c.45-1.06.9-2,1.25-2.67a2.59,2.59,0,0,1,3-1.39l-1.07-1,.44.13c-.63-1.26,2.4-4.29,2.4-4.29l-.07-.08c1.15.9,2.47,1.72,2.47,1.72s-1.26-3.41,0-5.43c.93-1.49,3.42-3,4.68-3.66a27.45,27.45,0,0,1,4,5.43S294.73,196.84,293,194.94Zm-9.1,25.91.75-4.29S282.84,217.57,283.86,220.85Zm2.9,2.78c2.66-5,1.39-8.47,1.39-8.47A48.34,48.34,0,0,0,286.76,223.63Zm7.34-15.29c1.26,3.41-1.27,13.15-1.27,13.15,4.05-7,3.41-12.39,3.41-12.39Z"/><path class="cls-4" d="M162,265.31s4.89,3,7.08,2.86a5,5,0,0,0,4-3.37S166.42,266.49,162,265.31Z"/><path class="cls-5" d="M300.63,198.85a11.71,11.71,0,0,0-3.21-6.43,9.56,9.56,0,0,0-10-1.81,12.47,12.47,0,0,0-4.49,2.94,8.69,8.69,0,0,0-1.3,2.14c-.49.86-.91,1.75-1.36,2.64-1.94,3.87-3.69,7.89-6.43,11.29,0,0,0,0,0,0a44.54,44.54,0,0,0,5-8.07c.71-1.38,1.42-2.77,2.22-4.11a11.86,11.86,0,0,1,2.93-3.73c2.86-1.95,5.72-3.29,9.28-2.62a8.39,8.39,0,0,1,6,4.71c2.16,4.54,1.31,10.29.19,15a50.38,50.38,0,0,1-5.73,14.06c-3.25,5.53-8.55,9.56-12.36,14.68-1.85,2.48-3.5,5.07-6.27,6.62s-6,.89-8.7-.67a.19.19,0,0,0-.19.33,9,9,0,0,0,7.35,1.44c2.54-.69,4.55-2.79,6.11-4.79,1-1.25,1.78-2.6,2.72-3.86,1.21-1.61,2.56-3.1,3.92-4.58,2.3-2.5,4.75-4.94,6.8-7.66a41.28,41.28,0,0,0,6.11-13C300.61,208.78,301.46,203.67,300.63,198.85ZM273.5,231.62s0,0,0,0c.3-2.74,2-4.74,3.31-7a6,6,0,0,0,.15-6.1c-.29-.59-1.18-.07-.87.51a6.11,6.11,0,0,1-.35,6.8A12.32,12.32,0,0,0,273.5,231.62Zm19.7-36c.45-.36-.15-1.14-.61-.79a32.8,32.8,0,0,0-4.35,4.31,59.67,59.67,0,0,0-4.35,5.55,74.39,74.39,0,0,0-7.47,12.87c-.08.17.16.32.25.15,1.23-2.34,2.46-4.65,3.78-6.92a.28.28,0,0,0,.26.29c3.27.22,4.44,3.75,3.77,6.55,0,0,0,0,0,0,1-2.76-.38-7-3.82-7.1l-.12,0c1-1.63,2-3.24,3.05-4.82a4.49,4.49,0,0,0,2.28,2.59,10.65,10.65,0,0,1,1.89,1.21c.71.63.65,1.86.61,2.72-.21,3.86-1.91,7.52-1.64,11.44h0c-.24-4,1.6-7.79,1.88-11.76.09-1.37.13-2.68-1-3.59s-3.07-1.49-3.73-2.94c0,0,0,0,0,0a55.44,55.44,0,0,1,4.49-5.54A41,41,0,0,1,293.2,195.58Z"/><path class="cls-5" d="M161.26,236.18a22.65,22.65,0,0,1-1,12.17c-1.07,3.21-2.9,6.19-3.62,9.5a8.15,8.15,0,0,0,2,7.52,13,13,0,0,0,5.13,3.21,22.63,22.63,0,0,0,3.81.88,10.89,10.89,0,0,0,3.68.3.23.23,0,0,0,0-.43c-1.17-.21-2.35-.23-3.51-.47a16.59,16.59,0,0,1-3.88-1.59,14.43,14.43,0,0,1-4.74-3.47c-1.86-2.22-1.44-5.14-.84-7.74.73-3.17,2-6.19,2.8-9.34a21.3,21.3,0,0,0,.25-10.55,0,0,0,0,0,0,0Z"/><path class="cls-5" d="M175.41,266.48c-.63-1.55.54-1.89,1.84-2a9.66,9.66,0,0,1,3.71.2c.12,0,.17-.15,0-.19-1.57-.51-3.23-1.14-4.88-.66-1.37.4-1.52,1.59-.93,2.71.06.11.26,0,.21-.09Z"/><path class="cls-5" d="M180.63,266.17c2-1.36,2.6-4.2,2.37-6.48a.12.12,0,0,0-.24,0c-.29,2.51-.37,4.47-2.19,6.41,0,0,0,.11.06.07Z"/><path class="cls-7" d="M175.4,265.41s-.19-1.26,3.54-.88C178.94,264.53,177,266,175.4,265.41Z"/><path class="cls-4" d="M156.65,284.35s5.11-4.39,8.82-5.07c2.36-.43,4.23,1.64,6.48,1.88,2.64.29,4.9-1.26,7.52-1.38,3.87-.16,5.9.38,13.65,1.9s26.4,1.66,28.08,1.49c0,0-10.79,6.07-13.82,6.07s-23.6,2-24.44,2.19-10.62-.5-12.47-.5Z"/><path class="cls-8" d="M155.67,285.24a49,49,0,0,0,4.32,5.69c2.27,2.5,2.12,6.64,4.09,8.41,2.28,2.05,15.47,4.33,23.2,1.14s31-18.12,31-18.12-2.7.71-5.61,1.29a32.29,32.29,0,0,1-6.75,1.14c-6.14,0-31.84.45-32.52.68s-12.28-.23-13-.23Z"/><path class="cls-9" d="M162.41,292.07a6.62,6.62,0,0,0,5.16,6.67,41.17,41.17,0,0,0,12.28.6l6.67-.75L189,298s7.58-3.33,9.1-6.22-7.13-2.57-7.13-2.57-5.27-.34-5.61,0-20.62.45-20.62.45Z"/><path class="cls-8" d="M162.41,292.07a6.62,6.62,0,0,0,5.16,6.67,41.17,41.17,0,0,0,12.28.6l6.67-.75L189,298s7.58-3.33,9.1-6.22-7.13-2.57-7.13-2.57-5.27-.34-5.61,0-20.62.45-20.62.45Z"/><path class="cls-8" d="M212.68,283.65a32.29,32.29,0,0,1-6.75,1.14c-6.14,0-31.84.45-32.52.68s-12.28-.23-13-.23h-4.77a49,49,0,0,0,4.32,5.69,8,8,0,0,1,1.44,2.4l.15.1s.23-1.82,8.42-1.82,28.65-.45,29.11,2.28a2.21,2.21,0,0,0,0,.25c9.08-5.33,19.13-11.78,19.13-11.78S215.59,283.07,212.68,283.65Zm-48.6,13.19s2.5,3.41,8.19,3.64,14.33-1.14,17.06-2.5C189.33,298,170.22,299.8,164.08,296.84Z"/><path class="cls-10" d="M218.35,282.31l-5.14.66a92.87,92.87,0,0,1-18.42.68c-6.83-.45-14.79-2.5-18.65-1.82a14.55,14.55,0,0,0-6.14,2.5s-4.1-3.18-5.92-3.18-4.77,1.36-6.82,2.5-5.1-.66-5.1-.66a21.21,21.21,0,0,0,6.07,3.54l-1.09-.38,3.08,3.42a32.11,32.11,0,0,1,4.43.11c2.39.23,1.59,1.59,7,1.59s5.8-.68,8.64-1,22.18-2.16,23.2-1.59l1,.56S212,285.81,214,284l-1.75.46C214.34,283.81,216.38,283.11,218.35,282.31Zm-49.58,7.48a13.45,13.45,0,0,0,3.63.24A10.32,10.32,0,0,1,168.77,289.79Zm9.77-.66h0Zm25.12-2.29a46.45,46.45,0,0,1-5.24.74c2.59-.4,5.18-.89,7.73-1.49C205,286.41,204.08,286.69,203.66,286.84Z"/><path class="cls-10" d="M160.57,287.27a29.23,29.23,0,0,1-3.71-1.34A20.28,20.28,0,0,0,160.57,287.27ZM152.16,283a19.08,19.08,0,0,0,4.7,2.93,23.92,23.92,0,0,1-4.69-2.94S152.15,283,152.16,283Zm22.89,6.71a5.19,5.19,0,0,0-1.76-.07c-.82,0-1.63-.08-2.45-.12-1.49-.09-3.4-.27-4.33-1.62a.39.39,0,0,0-.36-.21,15.47,15.47,0,0,1-5.58-.42c1.45.43,3,.79,4.47,1.13.08,0,.81,0,.87.13a3.13,3.13,0,0,0,.78.88,5.81,5.81,0,0,0,2.54,1,9.19,9.19,0,0,0,3,.05,8.78,8.78,0,0,0,2.89-.56A.11.11,0,0,0,175.05,289.71Zm43.29-7.41a89.54,89.54,0,0,1-9.67,2.88c-3.44.91-6.93,1.64-10.44,2.23a147.48,147.48,0,0,1-20.14,1.69,0,0,0,1,0,0,.06,120,120,0,0,0,19.86-1.3,96.12,96.12,0,0,0,10.49-2c1.65-.42,3.28-.88,4.89-1.43s3.34-1.39,5-2.08C218.36,282.31,218.36,282.29,218.34,282.3Z"/><path d="M191.31,182.19a110.1,110.1,0,0,0,13.48-7.94,36,36,0,0,1,14.31-6.63c7.27-1.48,18.43-2.19,34.39,4.85,1,0,2.1,0,3.16,0a108.22,108.22,0,0,0-22.34-9.3c-13.17-3.77-25.17-1.87-34.31,3.05C190.61,171.26,187.2,179.33,191.31,182.19Z"/><path d="M196.57,179.05c-2.15,1.25-3.89,2.17-4.7,2.59a3.92,3.92,0,0,1-1.13-3.51c.35-3.35,4-8,9.85-11.18a39.89,39.89,0,0,1,7-2.94,44.75,44.75,0,0,1,26.58.27A99.47,99.47,0,0,1,254,172.83h-.53c-12-6-22.86-7-31-6.05a34.79,34.79,0,0,0-16.91,6.49c-.37.25-.72.51-1.07.76a92.24,92.24,0,0,1-7.9,5Z"/><path d="M154,185.16a24.9,24.9,0,0,1-8.22-5.42c-2.1-2-4.18-4.15-8.3-5.4-4-1.11-10.24-1.36-18.58,4.36q-1-.31-2-.57a66,66,0,0,1,12-8.23,18.28,18.28,0,0,1,18.55,1C153.13,174.43,156,181,154,185.16Z"/><path d="M150.66,183a22.37,22.37,0,0,0,2.88,1.5,7.71,7.71,0,0,0,.21-4c-.56-3.17-3.1-6.83-6.64-9a20.15,20.15,0,0,0-4-2A16.77,16.77,0,0,0,129,170.81a58.22,58.22,0,0,0-10.39,7.62l.35.09c6.28-4.77,12.23-5.76,16.64-5.08a17.22,17.22,0,0,1,9.61,5.2c.22.21.44.42.65.64a26.6,26.6,0,0,0,4.79,3.71Z"/><path d="M219.28,226.32l7.21,3.79s10.24-5.31,17.06-8.34l.76-9.11L219.66,224.8Z"/><path d="M243,200.47s9.38-5.58,12.23-13.26c0,0-.72,9.92-12.1,17.67Z"/><path d="M245.81,202.78a17.73,17.73,0,0,0,5.05-6.83s-10.11-8.6-28.06-6.82-24,22.24-27.3,35.14l17.44-6.07Z"/><path d="M197.32,222.3c1.68-6.33,3.92-13.26,7.45-19.13,4.73-7.87,10.67-12,18.16-12.79,1.57-.15,3.15-.23,4.69-.23,11.81,0,19.4,4.61,21.69,6.22a17.21,17.21,0,0,1-4.18,5.33L212.46,217l-15.14,5.27Z"/><path class="cls-11" d="M221.18,195.22c-14.41,1.9-22.75,19-26.54,31.48a42.15,42.15,0,0,1,7.83-1.13,83.49,83.49,0,0,0,17.27,2.22l.3,0c5.31.76,4.55,0,4.55,0,5.69-1.51,11.38-3.41,15.55-7.58a25.25,25.25,0,0,0,5.31-15.55v-2.65A33.5,33.5,0,0,0,221.18,195.22Z"/><path class="cls-12" d="M241.23,209.05a20.4,20.4,0,0,0-3.45-11.44,32.46,32.46,0,0,0-16.6-2.39c-6.51.86-11.79,4.82-16,10.05a21.34,21.34,0,0,0-.35,3.78c0,8.75,5.35,16.15,12.73,18.65l2.14.09.3,0c5.31.76,4.55,0,4.55,0a49.42,49.42,0,0,0,9.76-3.47A20.08,20.08,0,0,0,241.23,209.05Z"/><path class="cls-12" d="M223.05,226c8.73,0,15.8-7.6,15.8-17a17.47,17.47,0,0,0-5.64-13,31.76,31.76,0,0,0-12-.83,22.28,22.28,0,0,0-12.09,5.9,17.89,17.89,0,0,0-1.83,7.93C207.26,218.43,214.33,226,223.05,226Z"/><path d="M234.22,209.05c0,6.63-5,12-11.17,12s-11.17-5.38-11.17-12,5-12,11.17-12S234.22,202.42,234.22,209.05Z"/><path d="M232.76,209.05c0,5.77-4.35,10.44-9.71,10.44s-9.7-4.68-9.7-10.44,4.34-10.43,9.7-10.43S232.76,203.29,232.76,209.05Z"/><path d="M232.76,209.05c0,5.77-4.35,10.44-9.71,10.44s-9.7-4.68-9.7-10.44,4.34-10.43,9.7-10.43S232.76,203.29,232.76,209.05Z"/><path class="cls-11" d="M218.83,199.54a4.23,4.23,0,1,0,4.58-4.51c-.42,0-.85.05-1.27.09A4.48,4.48,0,0,0,218.83,199.54Z"/><path d="M245.52,202c-9-8.21-24.09-10.68-34.26-3.33A36.27,36.27,0,0,0,201,211a74.56,74.56,0,0,0-6.17,14.86l-.24.86a0,0,0,1,0,0,0c3.27-9.82,8-20.07,16.41-26.51,4.63-3.53,10-4.77,15.77-4.47,6.69.35,12.92,2.94,18.55,6.42C245.5,202.2,245.61,202.05,245.52,202Zm-5.41,18.25a30,30,0,0,1-7.26,4.67c-2.67,1.21-5.5,2-8.26,2.92,0,0,0,.05,0,0,5.52-1.06,11.72-3.29,15.56-7.58C240.2,220.24,240.15,220.19,240.11,220.22Z"/><path d="M131.31,220.63v3.79s5.69,3,11.37,6.83l5.69-4.18Z"/><path d="M129.26,212.64s-9.45-4.27-13.5-12.11c0,0,9.46,8.82,14.76,9.83Z"/><path d="M128.75,211.62s-2.52-.5-5.56-3.79c0,0,.14-11.15,9.86-14.91,7.84-3,14.14,3.11,17.43,9.69a40.93,40.93,0,0,1,3.32,11.85c.3,1.78.33,10.22,1.75,11.32,0,0-9.1-7.08-10.11-7.33S128.75,211.62,128.75,211.62Z"/><path d="M153.2,222.38c-6.43-4.9-7.18-5.09-7.45-5.15-.84-.24-10.57-4.28-16.51-6.77l-.1,0-.12,0a10.64,10.64,0,0,1-4.54-3c.16-2.12,1.25-10.25,9-13.26a9.88,9.88,0,0,1,3.63-.71c6.78,0,11.06,7.49,12.21,9.79,1.79,3.57,2.54,7.47,3.21,11.49.07.42.13,1.42.2,2.49.13,2.12.27,3.84.44,5.22Z"/><path class="cls-11" d="M128.27,211.91l.38,1.51a28.81,28.81,0,0,0,4.55,9.1c2.51,3.25,4.43,4.42,8,6.07,4.66,2.18,11-3.25,14.79-.38-1.14-8-1.52-16.3-6.45-23.89C143.18,194.59,129.79,194.46,128.27,211.91Z"/><path class="cls-12" d="M137.93,197.79c-2.39,3.33-3.75,8.31-3.45,13.79.53,9.63,6,17.16,12.24,16.81,3.51-.19,6.5-2.83,8.36-6.82-.81-5.86-2-11.75-5.57-17.25C146.55,199.77,142,197.32,137.93,197.79Z"/><path class="cls-12" d="M136,211.5c.46,8.37,5.22,14.91,10.64,14.61,3.55-.2,6.5-3.29,8-7.76a36.31,36.31,0,0,0-5.07-14,13.88,13.88,0,0,0-9.1-6.48C137.46,200.57,135.64,205.71,136,211.5Z"/><path d="M145.17,200.25c-3.83.21-6.67,5.17-6.34,11.09s3.69,10.54,7.52,10.33,6.57-5,6.36-10.8a30.94,30.94,0,0,0-3.2-6.55,16.38,16.38,0,0,0-3.71-4.06A4.42,4.42,0,0,0,145.17,200.25Z"/><path d="M151.79,210.63c.28,5.14-2.19,9.45-5.51,9.64s-6.26-3.84-6.54-9,2.18-9.46,5.51-9.64S151.5,205.49,151.79,210.63Z"/><path d="M151.79,210.63c.28,5.14-2.19,9.45-5.51,9.64s-6.26-3.84-6.54-9,2.18-9.46,5.51-9.64S151.5,205.49,151.79,210.63Z"/><path class="cls-11" d="M142.68,202.61c.12,2.24,1.39,4,2.84,3.9s2.52-1.95,2.39-4.19a.34.34,0,0,0,0-.1,14.38,14.38,0,0,0-4.07-3.22A4.68,4.68,0,0,0,142.68,202.61Z"/><path d="M154.71,218.17a44.26,44.26,0,0,0-2.83-10c-1.75-4.08-4.54-8.44-8.85-10.18a9.61,9.61,0,0,0-9.58,1.06c-3.69,2.91-4.87,8-5.17,12.44l0,.4s0,0,0,0c.55-4.42,1.94-9.34,5.75-12.07a9,9,0,0,1,9.17-.54c4.21,1.93,6.82,5.79,8.63,9.93a41.27,41.27,0,0,1,2.64,9.44c.54,3.16.66,6.44,1.38,9.57a.1.1,0,0,0,.2,0A87.08,87.08,0,0,0,154.71,218.17Zm-13.5,10.34c-1.38-.83-2.84-1.54-4.18-2.44a19.78,19.78,0,0,1-3.79-3.58,0,0,0,0,0-.07.06,16.21,16.21,0,0,0,8,6.13A.09.09,0,0,0,141.21,228.51Z"/><path class="cls-13" d="M311.27,106.4s-10.21,3.2-14.9,10c0,0,4.89-12.37,11.24-17.65,0,0-11.77.53-18.59,5.25,0,0,7.49-8.08,9.9-13.19,0,0-11.44,9.4-15.87,9.59a131.13,131.13,0,0,0,5.57-18s-3.55,6.83-8.61,9.29c0,0,4.29-13-2.13-19.83,0,0,4.15,8.66-1.54,13.93,0,0-4-13.62-13-23.64,0,0,3.61,7.55,2.88,13.67,0,0-2.56-5.94-11.14-11s-13.25-11.34-22.81-16.24c0,0,6.78,8.38,6,16.11,0,0-8.83-11.54-20.46-16.29s-25.57-11.94-25.57-11.94,10.7,15.62,7.85,26.66c0,0-5.42-17-16.76-23.87,0,0,8.64,11.36,6.83,24.46A83.43,83.43,0,0,0,178,52.1c-7.13-5.46-17.37-5.86-23.38-14.05a80.23,80.23,0,0,0,8,13.43A36.44,36.44,0,0,1,169,66.63s-13.65-8.27-23.65-18.31S112,34.66,112,34.66s25.83,8.83,31.2,22.86c0,0-22.38-11.29-41.61-10a68.6,68.6,0,0,1,16.14,12.64c7.36,8,17.73,16.89,22.69,20.31a114.93,114.93,0,0,0-26.3-.66C99.93,81.12,84,78.37,75.37,69c0,0,5.68,26,44.49,31.92,0,0-40.29,8.57-58.78-4.38,0,0,5.66,19.64,41.08,18.66,0,0-22.14,5.53-29.29,15a34.37,34.37,0,0,1,15.26-3.64c8.17.2,11,5.74,20.21,9,0,0-11.15,5-21.21-.28,0,0,1.42,4.54,8.6,7.88s13.45,11.86,13.45,11.86-13-2.69-16.84-6.66c0,0,.94,5.06,9.57,9.92s12.15,10.43,11.14,16.58-.9,9.05-.61,17.79c0,0,1.73-16.33,4.76-24.41A240.46,240.46,0,0,1,122.41,138a20.22,20.22,0,0,0,5.43,5.24s-2.38-8.72-1.83-14.43c0,0,2.43,3.54,8.32,7,0,0-4.29-15.95,1.21-19.82l2.88-2c9.67-6.84,25.18-1.43,35.78-3,11.1-1.67,32.05-8.7,42.31-3.14a68.93,68.93,0,0,1,10.31,7.36c2.19,4,3.92,10.89-1.46,20.23,0,0,5.87-1.81,10.85-9.52,0,0,3.47,10.12-4.7,17.9,0,0,5.8,1.44,12.88-4.16l-4.46,7.13a19.77,19.77,0,0,0,9.11-2.07c.54,1.27,1.06,2.58,1.54,3.91,1.31,3.66,6.88,7.5,9.22,10.79,8.72,12.29,13.34,27.71,9.67,43,0,0-5.94,18.14-7.26,26.62,0,0,7-14.66,14.27-23.26,0,0,4.39-11.14,7.73-13.34s10-2.33,10-2.33,2.06-21,4.95-40.7S295.14,119.78,311.27,106.4Z"/><path class="cls-11" d="M276.89,201.59l-15.05-1.09h-.2c-6.13-11.41-23.8-17.5-42.91-13.89-17.66,3.32-31.15,13.92-34.33,25.66-6.2-6.23-17.27-7.85-22.81-1-1.6-11.53-11.18-21.68-24.46-24.55-16.55-3.58-32.56,5.5-35.77,20.27s7.6,29.63,24.14,33.21,32.56-5.51,35.77-20.27a24.6,24.6,0,0,0,.54-4.41,1.08,1.08,0,0,0,.24-.37c3.89-9.27,16.64-6.6,21.76.1A19.21,19.21,0,0,0,184,221c2.8,14.85,22.89,23.53,44.87,19.39S266.4,220.85,263.6,206a18.51,18.51,0,0,0-.82-3l14.11,1C278.47,204.17,278.46,201.71,276.89,201.59ZM158.5,219.37c-2.91,13.41-17.45,21.64-32.46,18.4-13.79-3-23.18-14.6-22.37-26.85L116,212c1.58.14,1.57-2.33,0-2.46l-12-1.05c.05-.28.1-.57.16-.86,2.91-13.4,17.45-21.64,32.47-18.39S161.42,206,158.5,219.37Zm69.9,18.53c-20,3.76-38.18-4.11-40.72-17.59s11.57-27.46,31.52-31.22,38.19,4.12,40.73,17.6S248.35,234.14,228.4,237.9Z"/></g></g></svg>