<svg xmlns="http://www.w3.org/2000/svg" xmlns:xlink="http://www.w3.org/1999/xlink" viewBox="0 0 380.54 380.54"><defs><style>.cls-1{fill:#e3c092;}.cls-2{fill:#c05c37;}.cls-3{fill:#d46d47;}.cls-4{fill:#903024;}.cls-5{fill:#7b231e;}.cls-6{fill:#742f04;}.cls-7{fill:#fff;}.cls-8{fill:#3f0d00;}.cls-9{fill:url(#linear-gradient);}.cls-10{fill:url(#linear-gradient-2);}.cls-11{fill:url(#linear-gradient-3);}.cls-12{fill:url(#linear-gradient-4);}.cls-13{fill:url(#linear-gradient-5);}.cls-14{fill:url(#linear-gradient-6);}.cls-15{fill:url(#linear-gradient-7);}.cls-16{fill:url(#linear-gradient-8);}.cls-17{fill:url(#linear-gradient-9);}</style><linearGradient id="linear-gradient" x1="218.05" y1="120.84" x2="218.05" y2="23.69" gradientUnits="userSpaceOnUse"><stop offset="0"/><stop offset="1" stop-color="#35596f"/></linearGradient><linearGradient id="linear-gradient-2" x1="173" y1="84.47" x2="168.55" y2="37.5" gradientUnits="userSpaceOnUse"><stop offset="0" stop-color="#080d10"/><stop offset="1" stop-color="#3c6d86"/></linearGradient><linearGradient id="linear-gradient-3" x1="122.79" y1="139.44" x2="104.99" y2="28.2" xlink:href="#linear-gradient"/><linearGradient id="linear-gradient-4" x1="278.37" y1="146.46" x2="261.38" y2="40.3" xlink:href="#linear-gradient"/><linearGradient id="linear-gradient-5" x1="165.72" y1="148.73" x2="93.04" y2="55.29" xlink:href="#linear-gradient"/><linearGradient id="linear-gradient-6" x1="265.1" y1="139.27" x2="291.06" y2="75.49" xlink:href="#linear-gradient"/><linearGradient id="linear-gradient-7" x1="102.96" y1="178.32" x2="102.96" y2="281.16" xlink:href="#linear-gradient"/><linearGradient id="linear-gradient-8" x1="280.46" y1="180.79" x2="280.46" y2="224.3" xlink:href="#linear-gradient"/><linearGradient id="linear-gradient-9" x1="218.06" y1="110.55" x2="218.06" y2="23.77" xlink:href="#linear-gradient-2"/></defs><g id="Capa_2" data-name="Capa 2"><g id="Avatar_15"><circle class="cls-1" cx="190.27" cy="190.27" r="190.27" transform="translate(-78.81 190.27) rotate(-45)"/><path class="cls-2" d="M251.83,351.87c-7.37-19.29.68-71.2.68-71.2l-121.35-8.9s1.34,68.23-3.35,81.58c-1.39,3.95-5.88,8.22-11.52,12.27a190.81,190.81,0,0,0,146.59.56C258,362,253.85,357.13,251.83,351.87Z"/><path class="cls-3" d="M288.2,202.43A16,16,0,0,0,280,198l-1.61,1c.89-23.6-.78-55.8-1.11-56.79-.5-1.49-11.37-22.75-21.76-29.67s-22.74-14.83-33.62-17.3-29.17,6.42-43,14.34-54.89,40.05-57.36,44c-1.89,3-8.4,32-11.36,45.54l-24.11-3c-3.71.74-9.27,10-9.27,10-.75,9.64,1.85,19.66,2.59,22.62s3.71,12.61,3.71,12.61c.74,9.64,17.06,23.36,27.07,19.66h1.11c5.94,3.7,9.27,11.86,11.5,18.54a42.51,42.51,0,0,0,15.94,23.73c13.35,10,30,23.73,36.71,28.55A59.26,59.26,0,0,0,214.4,343c19.29-1.11,27.81-12.24,31.15-18.91s13.35-17.8,17.43-23,6.3-14.09,8.53-28.55,5.93-20,8.16-24.84c1.78-3.86,3.79-8.44,3-18.48l.32-.07C285.6,220.6,287.08,211,288.2,202.43Z"/><path class="cls-3" d="M141.35,265.34c-7.42-8.4-25.22-27.69-25.22-27.69l-5.93-4s3.46,14.34,1,22.74c-1,3.33-2.66,4.72-4.32,5.18a10.55,10.55,0,0,0,3.33-.6h1.11c5.94,3.7,9.27,11.86,11.5,18.54a42.51,42.51,0,0,0,15.94,23.73c11.53,8.64,25.53,20,33.44,26.1a59.65,59.65,0,0,1-6.61-9.17C162.61,314.29,148.77,273.75,141.35,265.34Z"/><path class="cls-3" d="M271.51,272.51c2.22-14.46,5.93-20,8.16-24.84,1.68-3.66,3.58-8,3.1-16.94h0c-2,12.86-6.93,17.31-10.39,22.75s-9.88,30.16-13.84,39.06c-3.44,7.72-8.73,22.9-10.07,26.77,4.42-6.38,11.3-14.15,14.52-18.25C267.06,295.87,269.28,287,271.51,272.51Z"/><path class="cls-3" d="M233.31,246.06l-3.95-7.42a70.06,70.06,0,0,1-1-8.65c0-3-1.48-9.89-2-11.87s-1.48-10.38-1-14.09c0,0,2.48,7.17,4.21,9.89s12.6,12.86,14.83,17.55-.25,16.81-1.24,20.77L238,247.79Z"/><path class="cls-3" d="M199.69,244.58s4.21-4.7,5.19-8.41-.49-22.74-1-26.2-6.42-13.11-6.42-13.11-3,9.64-6.18,13.35-11.62,14.84-11.87,21,2.47,13.59,7.66,22.49l4-3.71Z"/><path class="cls-3" d="M137.89,207.49s6.92,16.32,22.74,15.33S180.9,210,180.9,210l-19.28-4Z"/><path class="cls-3" d="M234.8,210s6.42,11.86,17.8,11.86,16.81-14.34,16.81-14.34l-21.26,1Z"/><path class="cls-3" d="M142.09,211.51s17.24,10.57,34.86,1.67c0,0-9.08,11.95-17.8,11.12C149.32,223.38,142.09,211.51,142.09,211.51Z"/><path class="cls-3" d="M238.92,213.85s7.37,4.14,14.68,2.88a29.93,29.93,0,0,0,13-6.27s-3.62,10.69-12.15,11.8C246.65,223.28,238.92,213.85,238.92,213.85Z"/><path class="cls-3" d="M139.87,207.49s-23.24-7.41-10.88-25.21c0,0,12.85-8.41,27.69-5.44s38.56,14.83,38.56,14.83-1,16.32-14.83,17.8Z"/><path class="cls-3" d="M234.8,210s-9.89-10.39-6.43-17.8,16.81-14.34,16.81-14.34l14.34-1.49,10.88,4.95,4,7.91s2,12.85-5.93,17.3l-17.31,4.95Z"/><path class="cls-3" d="M234.33,246.5c2.12-3.53,7.3,2.2,7.94,4.26.89,2.88-.18,4.22-1.24,6.84Z"/><path class="cls-3" d="M208.84,238.89s7.42-5.19,19.53-1.48v-3.22s-9.64-3.71-18.54.74Z"/><path class="cls-3" d="M230.53,257.12A13,13,0,0,1,218.48,264c-5.93-.18-6.49-2.41-8.9-5s-7.42-3.34-7.42-3.34c-9.08-.74-13,3.34-13,3.34,1.12,2.59,7,5,7,5s9.23,9.38,18.35,10.48c.49,1,1.41,2.74,2.42,3.24s2.56-2.11,3.36-3.69c7.52-2.05,11.1-8.91,11.1-8.91,5.56-1.12,9.08-6.5,9.08-6.5A9.89,9.89,0,0,0,230.53,257.12Z"/><path class="cls-4" d="M175,288.58s9.4,4.7,12.61,6.43,7.91,7.17,15.57,8.65a63.83,63.83,0,0,0,9.45.94,64.84,64.84,0,0,0,15.13-1.37c4.6-1,7.69-3.73,10.59-7.36,2-2.47,2.14-2.2,5.38-5.06a43.42,43.42,0,0,0,5.68-5.94,13.28,13.28,0,0,1-7.91,3.71c-4.94.49-22.74-1.73-22.74-1.73L192,289.07l-11.62-.24Z"/><path class="cls-5" d="M241.47,288.58c-4.94.49-22.74-1.73-22.74-1.73L192,289.07l-11.62-.24-5.44-.25s9.4,4.7,12.61,6.43a12.82,12.82,0,0,1,1.45.93c-1-1.08-2.41-3-1.21-3.65,1.74-1,15.09-2,22.26-.74s6.18,3.95,16.56-.74c0,0,9.64-.75,10.88,1.23s-2.72,7.42-2.72,7.42H235a28.86,28.86,0,0,0,3.34-3.59c2-2.47,2.14-2.2,5.38-5.06a43.42,43.42,0,0,0,5.68-5.94A13.28,13.28,0,0,1,241.47,288.58Zm-29.66,14.59a57.19,57.19,0,0,1-17.06-3.46l-.2.29a23.92,23.92,0,0,0,8.6,3.66,63.83,63.83,0,0,0,9.45.94,64.84,64.84,0,0,0,15.13-1.37,15.34,15.34,0,0,0,6.19-2.9,1.69,1.69,0,0,0-.36.12C230.84,301.68,220.71,303.41,211.81,303.17Z"/><path class="cls-5" d="M213.54,290.31c-14.59-4.2-35.11,6.43-46.73-7.66,0,0,6.18,7.17,14.83,5.68,4.75-.81,9.15-2.93,13.67-4.51,4-1.39,8.07-2.87,12.31-3.1a13.31,13.31,0,0,1,5.42.71c.61.24,5.2,3.19,5.19,3.19,2.77-1.67,6-4.19,9.37-3.69,2.91.43,6.09,2.15,8.68,3.45,5.44,2.72,6.92,2.72,10.63,1.48s6.43-5.93,6.43-5.93a19.42,19.42,0,0,1-12.12,9.64c-4.2,1-11.12-.25-15.57-.25l-1,.25c-2.22,1.24-4.45,2.47-6.92,2.72a18.78,18.78,0,0,1-3.21-1.48Z"/><path class="cls-5" d="M213.56,290.23c-7.33-2.41-15.74-.69-23.25-.24-8.74.52-17.35-.46-23.49-7.35,0,0,0,0,0,0,5.21,6.49,13.11,7.9,21,7.71,8.64-.21,17.13-1.92,25.69,0A.08.08,0,1,0,213.56,290.23Zm11-.91c-3.45,1.38-6.37,3.6-10.06,1.48,0,0,0,0,0,0,1.44,1.06,2.75,2,4.55,1.69a15.09,15.09,0,0,0,5.72-2.71C225,289.63,224.88,289.21,224.59,289.32Zm28.68-9.43a34.26,34.26,0,0,1-4.88,5.8,20.09,20.09,0,0,1-7.2,3.75c-2.46.74-5.43.41-7.95.26s-5.05-.4-7.59-.39c0,0,0,0,0,0,5.23.12,11,1.72,16.13.22,4.84-1.41,9.54-4.89,11.62-9.58A.08.08,0,0,0,253.27,279.89Z"/><path class="cls-3" d="M113.17,215.9s11.37-21.26,12.36-26.21,13.84-15.32,15.32-15.82,5.44-8.9,6.93-19.28c0,0,10.38-9.89,17.8-18.3S192.77,118,213,116s38.57,13.85,43,17.8,12.36,14.84,13.35,22.75.49,20.76.49,20.76l5,14.34s-1.49,16.81,3,20.77c0,0,1.48-25.22,2.47-28.68s-3-41.53-3-41.53S266,119,263.47,117.51s-21.26-9.4-21.26-9.4-26.2-6.92-33.62-7.42-42,6.43-44.5,7.42S126,138.27,123.55,140.25s-18.3,31.64-18.79,33.62,0,23.73.5,25.22,3.95,19.77,3.95,19.77l2.47,12.86Z"/><path d="M198.83,258.6h-1.67c5.19,5.57,10.38,2.6,10.38,2.6C204,257.86,198.83,258.6,198.83,258.6Zm33,0-1.67,2.6-.93,1.3c4.64,0,6.49-2.78,6.49-2.78C234.61,258.6,231.83,258.6,231.83,258.6Z"/><path class="cls-6" d="M190.17,260.36c-2.23-1.85-3-5.39-2.55-8.14.9-5.45,7.5-6.93,12.07-7.34a.06.06,0,0,0,0-.12c-5.15-.29-11.8,1.43-13,7.2-1.54,7.17,5.31,10,10.54,12.42,0,0,.08,0,0-.06C194.85,263.09,192.25,262.1,190.17,260.36Zm47.62-15.09s-.1,0-.06.08c2.87,2.8,5.15,5.67,4.26,9.89-.82,3.9-4.18,6.67-7.45,8.6,0,0,0,.05,0,0,3.51-2,7.24-4.77,8.38-8.83S241,247.17,237.79,245.27Zm-9.91-17.74c.4,3.69-.18,7.45.78,11.08a11.78,11.78,0,0,0,.58,1.56c.31.7.78,1,1.16,1.6,1,1.57,2,3.07,3.1,4.57.05.08.18,0,.13-.07-.88-1.45-1.85-2.85-2.7-4.32a22.62,22.62,0,0,1-1.25-3.22c-1.31-3.58-.88-7.48-1.33-11.2-.48-4.09-1.72-8.06-2.18-12.13-.22-2-.27-4-.46-6a23.85,23.85,0,0,1,0-6.59c0-.06-.07-.08-.08,0-.72,3.78-1.13,7.76-.12,11.52A85.94,85.94,0,0,1,227.88,227.53Zm-33.17,31.81c-.1.05,0,.19.08.14,3.56-1.67,8.35-.88,11.77.76.1.05.23-.09.13-.17A10.8,10.8,0,0,0,194.71,259.34Zm41.85.78c-1.14-1-2.83-2-4.39-1.59l0,0c.05-.13-.11-.29-.22-.17l-.36.41-.11,0a.13.13,0,0,0-.07.15,42.64,42.64,0,0,1-4,4.51,12.88,12.88,0,0,1-5.57,2.73,23,23,0,0,1-6.73.32c-3.15-.21-5.1-3.37-7.54-5.13,0,0-.06,0,0,.05.95.83,1.86,1.7,2.77,2.57s2.36,1.86,2.74,3a.46.46,0,0,0,.33.32c3.5.53,7.42.57,10.73-.87a16.5,16.5,0,0,0,7.76-7.35,9.19,9.19,0,0,1,2,0,6.12,6.12,0,0,1,2.56,1.14C236.55,260.22,236.6,260.15,236.56,260.12Z"/><path class="cls-3" d="M105,246.37s-8.72.37-12.24-2.41-6.86-6.68-7-12.61-4.45-9.09-6.48-18.91c0,0-2-6.12,3.15-5.75s8.34,6.49,8.34,6.49l4.82,8.34,5.94,5.94,3.33,7.23.37,6.86Z"/><path class="cls-6" d="M281.89,220.6a44.76,44.76,0,0,1,4.45-16.69s-.12,13.72-3.58,23.11Z"/><path class="cls-3" d="M79.79,207.25c8.16-4.82,14.46,12.23,19.28,17.05,2.22,2.38,6.3,5.61,7.19,8.83s-2.06,6-1.16,9.25,5.68,5.5,5.47,9L104,245.81s-9.4-3.21-9.4-8.16c0,0,.25-4.45,1.24-5.93s-3.46-7.66-6.43-5.19c0,0,3.22-4.7.5-8.9S84,209,84,209Z"/><path class="cls-3" d="M89.74,252.68a23.11,23.11,0,0,1-5.92-9.36c-.25-.87-.28-1.76-.55-2.62-.41-1.33-.82-2.67-1.22-4-2.17-7.14-4.11-14.26-4.82-21.72a55.44,55.44,0,0,1-.18-8.15,5.28,5.28,0,0,1,1.28-2.52c1.83-2.74,4-5.83,6.83-7.59a3.43,3.43,0,0,1,1-.4.2.2,0,0,0-.11-.38c-2.64.6-4.65,3.31-6.2,5.34-1.17,1.52-3.2,3.55-3.34,5.55-.57,8.19,1.07,16.54,3.27,24.39.87,3.1,1.8,6.18,2.74,9.26.7,2.3,1,4.49,2.18,6.67a30.77,30.77,0,0,0,16.16,13.7,13.67,13.67,0,0,0,9.35.19s0,0,0,0C102.9,263.38,94.59,257.58,89.74,252.68Zm191.69-32.06c1.34,7.64,2.27,15.82-.33,23.3-1.67,4.78-4.4,9.11-6.15,13.88-3.38,9.26-3.95,19.21-6.18,28.76a49.41,49.41,0,0,1-3.7,10.93c-1.46,2.93-3.69,5.37-5.78,7.87-5,6-10.47,12.06-14.08,19.08A33.19,33.19,0,0,1,232.9,337.5c-8.39,5.11-18.64,6-28.23,5.19a58.62,58.62,0,0,1-24.32-7.8c-5.81-3.38-11-7.82-16.25-12-7.64-6-15.24-12.09-23-18a54.87,54.87,0,0,1-11.18-10.66,43.69,43.69,0,0,1-5.4-9.64,30.58,30.58,0,0,1-1.59-4.94,42.12,42.12,0,0,0-4-9.83,23,23,0,0,0-7.58-8.93c-.11-.07-.21.1-.1.17,6.29,4.1,9.85,12.36,11.66,19.39a41.75,41.75,0,0,0,8.13,15.57,57.93,57.93,0,0,0,10.42,9.42c4.18,3.18,8.32,6.42,12.45,9.68,6.56,5.17,13,10.44,19.71,15.47,12.66,9.55,28.62,14.31,44.48,12.11a37.26,37.26,0,0,0,20.51-9.22,33.25,33.25,0,0,0,5.28-6.31c1.58-2.43,2.78-5.06,4.41-7.46,4.52-6.67,10.08-12.52,15-18.88,4.49-5.82,5.84-14,7.13-21,1.67-9.08,2.79-18.06,6.65-26.53,1.93-4.22,4.26-8.2,5.24-12.78,1.4-6.54.48-13.47-.69-20C281.59,220.44,281.4,220.5,281.43,220.62Zm7.07-18.5a15.39,15.39,0,0,0-8.39-4.39.25.25,0,0,0-.14.49,20.33,20.33,0,0,1,7.12,3.76c1.36,1.15.58,3.33.36,4.86s-.45,3.06-.69,4.59a136.71,136.71,0,0,1-3.85,17.67c0,.12.15.17.19.05a125.62,125.62,0,0,0,3.12-13c.42-2.2.78-4.4,1.12-6.62.17-1.08.33-2.16.48-3.25s.12-2.67.75-3.63A.44.44,0,0,0,288.5,202.12Z"/><path class="cls-6" d="M286.3,203.88a40.49,40.49,0,0,0-4.56,16.72c0,.19.28.19.3,0a52.37,52.37,0,0,1,4.34-16.67c0-.05-.05-.1-.08-.05Z"/><path class="cls-3" d="M107.6,245.43c-1.24-1.36-2.28-2.71-2.33-4.62s1-3.67,1.27-5.5c.4-2.56-1.32-4.78-2.91-6.58-1.93-2.19-4.25-4-6-6.36-2.88-3.93-5-8.34-8.24-12.07-2.47-2.88-5.92-5.25-9.63-3.09a0,0,0,0,0,0,.07c4.56-2.43,8.34,1.76,10.85,5.13s4.54,7.27,7.17,10.65a60.57,60.57,0,0,0,4.86,5,18,18,0,0,1,2.94,3.79c1.07,1.94.54,3.92-.17,5.86-.9,2.46-1.28,4.53.26,6.79s4.45,3.94,4.57,6.85a.28.28,0,0,0,.56,0C111,248.87,109.17,247.15,107.6,245.43Zm-12.51-7a9.55,9.55,0,0,1,2-7.6,23.55,23.55,0,0,1,2.19-1.94c.42-.42.15-1.51.14-2a0,0,0,0,0,0,0c0,1.39-.4,1.15-1.43,1.86a8.93,8.93,0,0,0-2.17,2.33,9.56,9.56,0,0,0-1.65,6.58c.78,5.31,6.79,5.8,10.39,8.59a.11.11,0,0,0,.15-.16C101.82,242.84,96.18,243.46,95.09,238.45Zm-4.48-26a.07.07,0,0,0-.13.07c2.26,4.78.77,9.11-1,13.75-1.34,3.51-2.37,7.09-.82,10.7,0,0,.06,0,0,0C85.19,228.54,95.27,220.8,90.61,212.4Z"/><path d="M125,191.3s3.34-7.42,14.09-9.64,17.8-2.23,24.85.74,13.72,6.67,18.91,7.42a42.9,42.9,0,0,1,8.16,1.85l4.08,1.11s.37-8.9-3.34-13a27.18,27.18,0,0,1,.74,5.57s-3-5.94-7-8.9l1.48,3.7s-4.45-5.56-7.42-7-31.52-3.71-43,.37S125,191.3,125,191.3Z"/><path d="M274.54,191.3s-2.23-7.42-9.43-9.64-11.91-2.23-16.63.74-9.18,6.67-12.65,7.42a21.13,21.13,0,0,0-5.46,1.85l-2.73,1.11s-.25-8.9,2.23-13a40.27,40.27,0,0,0-.49,5.57s2-5.94,4.71-8.9l-1,3.7s3-5.56,5-7,21.09-3.71,28.78.37S274.54,191.3,274.54,191.3Z"/><path class="cls-6" d="M241.86,195.77c3.83-3,9.44-3.19,14-2.15a20.09,20.09,0,0,1,12.11,7.9s.1,0,.07,0c-2.42-4.26-7.35-7.36-11.95-8.7-5.19-1.51-10.23-.71-14.25,2.95,0,0,0,.06,0,0Z"/><path d="M268.45,207.34s-4.91-10-14.18-11.31-15.58,5.56-16.51,8.06,16.32,10.39,16.32,10.39S263.26,214,268.45,207.34Z"/><path class="cls-7" d="M266.11,207.58c-5.4-10.91-24.09-15.15-30-.34H236l-.49,1c-.5,1-.5,2.11.37,2.23a18.88,18.88,0,0,0,2.1.12,19.88,19.88,0,0,0,11.62,4.27,20.44,20.44,0,0,0,16.69-7Z"/><path class="cls-8" d="M260.11,204.74a10.46,10.46,0,0,0-1-4.43c-6.15-3.57-14.27-3.85-19.53,1.47a10.7,10.7,0,0,0-.43,3,10.47,10.47,0,0,0,5.8,9.36,16.94,16.94,0,0,0,4.68.75,23,23,0,0,0,2.88,0A10.48,10.48,0,0,0,260.11,204.74Z"/><path class="cls-8" d="M249.63,214a9.26,9.26,0,0,0,7.5-14.7c-5-2.22-10.95-2.32-15.5.76a9.26,9.26,0,0,0,8,13.94Z"/><path d="M255.1,204.74a5.47,5.47,0,1,1-5.47-5.47A5.47,5.47,0,0,1,255.1,204.74Z"/><path d="M253.49,204.74a3.86,3.86,0,1,1-3.86-3.86A3.86,3.86,0,0,1,253.49,204.74Z"/><path class="cls-7" d="M251.87,200.2a2.24,2.24,0,1,1-2.24-2.24A2.24,2.24,0,0,1,251.87,200.2Z"/><path class="cls-6" d="M171.63,195.77c-4.57-3-11.28-3.19-16.7-2.15-5.94,1.15-10.92,3.77-14.47,7.9,0,0-.11,0-.08,0,2.89-4.26,8.78-7.36,14.27-8.7,6.2-1.51,12.23-.71,17,2.95,0,0,0,.06,0,0Z"/><path d="M139.87,207.34s5.86-10,16.94-11.31,18.6,5.56,19.71,8.06S157,214.48,157,214.48,146.07,214,139.87,207.34Z"/><path class="cls-7" d="M142.66,207.58c6.45-10.91,28.78-15.15,35.86-.34h.07l.59,1c.59,1,.59,2.11-.44,2.23s-2.51.12-2.51.12a28.48,28.48,0,0,1-33.82-2.78Z"/><path class="cls-8" d="M170,204.74a10.34,10.34,0,0,0-2.13-6.31A24.87,24.87,0,0,0,149.75,201a10.44,10.44,0,0,0,5.61,13.38,29.93,29.93,0,0,0,6.87.49A10.47,10.47,0,0,0,170,204.74Z"/><path class="cls-8" d="M159.52,214a9.26,9.26,0,0,0,6.33-16,25.32,25.32,0,0,0-14.34,2.1,9.27,9.27,0,0,0,8,13.93Z"/><path d="M165,204.74a5.47,5.47,0,1,1-5.47-5.47A5.47,5.47,0,0,1,165,204.74Z"/><path d="M163.38,204.74a3.86,3.86,0,1,1-3.86-3.86A3.86,3.86,0,0,1,163.38,204.74Z"/><path class="cls-7" d="M159.52,198a2.24,2.24,0,1,0,2.24,2.24A2.24,2.24,0,0,0,159.52,198Z"/><path class="cls-9" d="M242.21,54.84c0-12.61-7.78-26.33-7.78-26.33,3,20-10.39,33-10.39,33,12.24-17.8,6.68-37.08,6.68-37.08-2.23,24.47-23.74,43.39-30,51.17S191,102.3,191,102.3s11.12-14.83,16.32-22.62a19.51,19.51,0,0,1,13.35-8.53C212.18,84.87,214,94.52,214,94.52c-.74-7.79,8.9-21.88,12.24-23.37s5.19,6.31,5.19,6.31c-4.82,22.25,2.6,27.07,2.6,27.07C227,85.61,239.25,66.7,239.25,66.7c3,13.72,9.27,16.69,9.27,16.69C244.07,78.94,242.21,67.44,242.21,54.84Zm17.06,24.1c-2.59-4.82-11.49-8.9-14.83-22.62v4.82s1.11,11.5,5.93,20.77.74,21.13-2.22,28.18c0,0,9.64-10.75,6.67-24.48,0,0,3.71,5.57,3.34,10.76C258.16,96.37,261.87,83.76,259.27,78.94ZM178.06,87.1c-3.71,7.42-1.48,15.57-1.48,15.57,0-7.41,6.3-16.68,6.3-16.68-1.85,12.6,3,19.65,3,19.65a173.54,173.54,0,0,1,1.85-18.91C189.18,77.83,197,70,197,70S181.77,79.68,178.06,87.1Z"/><path class="cls-10" d="M134.92,67.07c5-3,16.81-5.93,28.18-8.4s28.68-9.4,36.1-15.82a45.8,45.8,0,0,1-13.85,11.86s26.21-7.91,32.14-17.8a90.25,90.25,0,0,0,6.76-13.55c-1.53,2.32-3.7,5.72-5.77,9.23-3.71,6.3-17.8,13.35-17.8,13.35s5.56-8.16,5.94-14.09c0,0-8.53,15.57-43.76,23.36,0,0-21.88,2.22-31.52,9.27-4.92,3.59-10.79,7.37-16.15,11.79l.45.2S130,70,134.92,67.07Z"/><path class="cls-11" d="M164.7,123.44c.75-2.11,2.86-4,5.07-5.32-4,1.65-8.24,2.92-12,5.65a9.78,9.78,0,0,1,1.85-4.69c-4.08.62-10.88,4.07-14.19-.08-3.88-4.87.54-13.22-3.56-18.32-7.52-9.35-24.93-3.53-24.79-17.72-2.19.44-4.65,1.35-6.8,1.85.94-5,5.06-7.9,8.46-11.31-.81.61-1.62,1.23-2.41,1.86l-.06,0-1,.86-.22.17-.9.77a2.52,2.52,0,0,0-.25.21l-.92.8-.18.16c-.73.65-1.44,1.31-2.13,2-.08.07-.15.15-.22.22q-.41.39-.78.78c-.11.11-.2.22-.31.32l-.68.73-.31.33-.68.78-.25.29c-.61.72-1.19,1.45-1.75,2.2l-.24.33-.57.8-.28.41-.49.76-.27.43-.48.82-.22.38c-.23.41-.44.81-.65,1.23,0,0-4.45,7-8.16,9.64s-14.46,8.9-13,27.81c0,0,1.49-8.9,8.9-13,0,0-7.41,15.58-10,27.07a170.73,170.73,0,0,0,.37,23.36C81.65,176.84,85,190.93,82,198.72c-.75,2,3.7-2.6,5.93-2.6,0,0,5.56,9.64,8.16,12.24s6.3,6.3,7.78,10.75,4.45,13.72,7.42,17.8,9.27,21.14,9.64,24.85l3.34-.74s-5.19-18.92-7.79-24.85-4.08-15.94-2.59-24.47,4.82-26.33,5.56-36c0,0,14.09-11.5,21.14-19.66s15.2-18.54,15.2-18.54a66.88,66.88,0,0,1-5.93,9.64s9.64-6.67,14.83-12.24c.29-.31.61-.64.94-1l.69-.67.3-.29c.31-.3.64-.6,1-.9l.07-.07,1.13-1C165.67,129.27,163.16,127.74,164.7,123.44Z"/><path class="cls-12" d="M266,140.13s5.93,14.09,6.3,21.13,2.6,14.47,3.71,18.17,1.85,12.24.74,19.29,2.22,17.43,2.22,17.43l1.86,4.45a46.76,46.76,0,0,1-1.11-11.87c.37-5.56.37-16.69,2.59-22.62s8.9-25.59,10-28.93a33.75,33.75,0,0,0-1.48-9.64s2.79,3.73,3.26,6.07a47.6,47.6,0,0,0-2.15-9.78c-1.48-3.7.75-27.07-3.33-37.08,0,0-7.69-12.37-14.19-17.74,1.48,3,2.85,6.22,2.94,9.21.24,8.54-5,1.33-8.54,5.89-4.09,5.2,4.48,15.12,1.13,20.81-2.68,4.55-7.35,2.25-7.5,9.82a3.75,3.75,0,0,1-2.89-.42l-.2.32A29,29,0,0,0,266,140.13Z"/><path class="cls-13" d="M149.88,147.17s9.64-6.67,14.83-12.24c.29-.31.61-.64.94-1l.69-.67.3-.29c.31-.3.64-.6,1-.9l.07-.07,1.13-1c-3.14-1.76-5.65-3.29-4.11-7.59.75-2.11,2.86-4,5.07-5.32-4,1.65-8.24,2.92-12,5.65a9.78,9.78,0,0,1,1.85-4.69c-4.08.62-10.88,4.07-14.19-.08-3.88-4.87.54-13.22-3.56-18.32-7.52-9.35-24.93-3.53-24.79-17.72-2.19.44-4.65,1.35-6.8,1.85.94-5,5.06-7.9,8.46-11.31-.81.61-1.62,1.23-2.41,1.86l-.06,0-1,.86-.22.17-.9.77a2.52,2.52,0,0,0-.25.21l-.92.8-.18.16c-.73.65-1.44,1.31-2.13,2-.08.07-.15.15-.22.22q-.41.39-.78.78c-.11.11-.2.22-.31.32l-.68.73-.31.33-.68.78-.25.29c-.61.72-1.19,1.45-1.75,2.2l-.24.33-.57.8-.28.41-.49.76-.27.43-.48.82-.22.38c-.23.41-.44.81-.65,1.23a59.71,59.71,0,0,1-4.54,6.15c14.6-3.55,36.23-4.15,41.38,8.31,2.86,6.93,1.78,17.76,2.59,25.22.48,4.43,3,10.53,6.77,15.64,4.06-5,7.2-9,7.2-9A66.88,66.88,0,0,1,149.88,147.17Z"/><path class="cls-14" d="M274.38,89c1.48,3,2.85,6.22,2.94,9.21.24,8.54-5,1.33-8.54,5.89-4.09,5.2,4.48,15.12,1.13,20.81a6.27,6.27,0,0,1-.38.57c2.14-1.92,3.61-4.24,2.86-8-.92-4.61-3-6.64,2-9,4.19-2,10.29-1.82,14.66-.52-.14-.43-.29-.84-.44-1.23C288.57,106.75,280.88,94.38,274.38,89Z"/><path class="cls-15" d="M82,198.72c-.75,2,3.7-2.6,5.93-2.6,0,0,5.56,9.64,8.16,12.24s6.3,6.3,7.78,10.75,4.45,13.72,7.42,17.8,9.27,21.14,9.64,24.85l3.34-.74s-5.19-18.92-7.79-24.85-4.08-15.94-2.59-24.47,4.82-26.33,5.56-36l1.38-1.15c-17.22,0-31.17,0-39.22-.09C82.91,183.39,84.25,192.85,82,198.72Z"/><path class="cls-16" d="M276,179.43c1.11,3.71,1.85,12.24.74,19.29s2.22,17.43,2.22,17.43l1.86,4.45a46.76,46.76,0,0,1-1.11-11.87c.37-5.56.37-16.69,2.59-22.62.89-2.36,2.47-6.88,4.14-11.69l-11.87,0C275.06,176.43,275.58,178.16,276,179.43Z"/><path class="cls-17" d="M178.06,87.1a21.67,21.67,0,0,0-2.14,9.26l0,.13s0-9.39,12.36-18.79c0,0-4.2,13.6-2.22,23.24l0-.07c.26-3.73.74-9.11,1.58-14.14C189.18,77.83,197,70,197,70S181.77,79.68,178.06,87.1Zm56.37-58.59c3,20-10.39,33-10.39,33,12.24-17.8,6.68-37.08,6.68-37.08-2.23,24.47-23.74,43.39-30,51.17-2.82,3.49-5.05,9.21-6.65,14.46l0,.75s4.45-11.87,10.38-17.06S225.65,51.25,230.1,34c0,0,1.24,17.8-10.14,31.64,0,0,14.84-7.42,16.81-27.44,0,0,4.21,10.38,5.69,27.44l.33.68a106.56,106.56,0,0,1-.58-11.43C242.21,42.23,234.43,28.51,234.43,28.51Zm24.84,50.43c-2.59-4.82-11.49-8.9-14.83-22.62v4.82a69.24,69.24,0,0,0,4.33,17.31l.37.74s-2.23-9.15-2-11.87a59.49,59.49,0,0,0,7.17,7.91c2.95,2.53,5.35,7.58,5.54,13C260.33,84.79,260.43,81.09,259.27,78.94Z"/><path d="M82,198.72c-.75,2,3.7-2.6,5.93-2.6,0,0,5.56,9.64,8.16,12.24s6.3,6.3,7.78,10.75,4.45,13.72,7.42,17.8,9.27,21.14,9.64,24.85l3.34-.74s-5.19-18.92-7.79-24.85-4.08-15.94-2.59-24.47,4.82-26.33,5.56-36c0,0,14.09-11.5,21.14-19.66s15.2-18.54,15.2-18.54a66.88,66.88,0,0,1-5.93,9.64s9.64-6.67,14.83-12.24S181,120.84,189.93,119s14.46-7,16.31-10a33.38,33.38,0,0,1-7.41,8.15s11.49-2.22,15.2-8.89c0,0,5.93,6.67,13.35,8.52,0,0-1.48-1.11-2.59-4.45,0,0,8.9,7.42,15.57,8.9A11.53,11.53,0,0,1,237,116s8.9,8.16,15.21,10.39c0,0,8.52,11.12,13.72,13.72,0,0,5.93,14.09,6.3,21.13s2.6,14.47,3.71,18.17,1.85,12.24.74,19.29,2.22,17.43,2.22,17.43l1.86,4.45a46.76,46.76,0,0,1-1.11-11.87c.37-5.56.37-16.69,2.59-22.62s8.9-25.59,10-28.93a33.75,33.75,0,0,0-1.48-9.64s3.34,4.45,3.34,6.68c0,0-.74-6.68-2.23-10.39s.75-27.07-3.33-37.08c0,0-8.53-13.72-15.21-18.54S254.45,60,251.48,49.27c0,0,1.12,13.35,4.08,20.77,0,0-10-12.24-12.61-24.84a49.89,49.89,0,0,0-9.64-20.77s-.74-6.31-4.08-9.64c0,0,3,8.53-5.19,15.2,0,0,1.12-7,2.23-9.64,0,0-4.08,5.93-7.79,12.24s-17.8,13.35-17.8,13.35,5.56-8.16,5.94-14.09c0,0-8.53,15.57-43.76,23.36,0,0-21.88,2.22-31.52,9.27s-23,14.83-28.93,26.7c0,0-4.45,7-8.16,9.64s-14.46,8.9-13,27.81c0,0,1.49-8.9,8.9-13,0,0-7.41,15.58-10,27.07a170.73,170.73,0,0,0,.37,23.36C81.65,176.84,85,190.93,82,198.72Z"/></g></g></svg>