<svg xmlns="http://www.w3.org/2000/svg" xmlns:xlink="http://www.w3.org/1999/xlink" viewBox="0 0 380.54 380.54"><defs><style>.cls-1{fill:#9bd293;}.cls-2{fill:#f2ab8b;}.cls-3{fill:#270a03;}.cls-4{fill:#ffba9b;}.cls-5{fill:url(#linear-gradient);}.cls-6{fill:#f37968;}.cls-7{fill:#ff857a;}.cls-8{fill:#e1685d;}.cls-9{fill:url(#linear-gradient-2);}.cls-10{fill:url(#linear-gradient-3);}.cls-11{fill:#fff;}.cls-12{fill:#3f0d00;}.cls-13{fill:#eb9e9e;}</style><linearGradient id="linear-gradient" x1="206.07" y1="225.37" x2="206.07" y2="192.7" gradientUnits="userSpaceOnUse"><stop offset="0" stop-color="#a95037"/><stop offset="1" stop-color="#e99e81"/></linearGradient><linearGradient id="linear-gradient-2" x1="249.45" y1="161.48" x2="246.84" y2="181.55" gradientUnits="userSpaceOnUse"><stop offset="0" stop-color="#270a03"/><stop offset="1"/></linearGradient><linearGradient id="linear-gradient-3" x1="-864.68" y1="160.65" x2="-867.52" y2="182.54" gradientTransform="matrix(-1, 0, 0, 1, -709.61, 0)" xlink:href="#linear-gradient-2"/></defs><g id="Capa_2" data-name="Capa 2"><g id="Avatar_13"><circle class="cls-1" cx="190.27" cy="190.27" r="190.27" transform="translate(-78.81 190.27) rotate(-45)"/><path class="cls-2" d="M242.51,343.38c-6.8-19.28.61-71.2.61-71.2l-111.82-8.9s1.24,68.23-3.09,81.58c-1.68,5.2-8.34,11-15.84,16.07a190.79,190.79,0,0,0,148.27,3.18C252.92,358.64,245.39,351.54,242.51,343.38Z"/><path class="cls-3" d="M181.27,30.46s-39.78,11.81-51.21,17.33S89.49,79.69,82.8,87.57s-18.12,56.32-18.12,56.32l-4.22,9.59a.32.32,0,0,0-.38.11,78.08,78.08,0,0,0-11.5,26c-.59,2.33-1.09,4.68-1.46,7a5.94,5.94,0,0,0,.59,2.68,166.15,166.15,0,0,1,5.86,22c1.43,8,.71,16.4.13,24.46-.2,2.85-.43,5.7-.73,8.54a.29.29,0,0,0,.28.29c4.13.32,9,1.81,12.23,4.44,3.82,3.13,5.73,8.69,7.42,13.15,1.83,4.82,3.16,9.93,5.87,14.37.91,1.49,2.23,3.44,3.9,4.21.2.09.5-.12.34-.34-2.53-3.56-4.56-8.44-3.76-12.94.94,4.26,2.45,8.57,5.28,11.93a3.87,3.87,0,0,0,1.69,1.27c2.13.94,4.2,2,6.26,3.14,4.73,2.55,9.61,5.29,13.65,8.86,1.87,1.66,3.33,3.67,5.36,5.19a27.68,27.68,0,0,0,4.7,2.91.17.17,0,0,0,.21-.27,20.75,20.75,0,0,1-5-11.06c0-.09,0-.16,0-.22l.33.33c1,1,2.08,2,3.13,3,5,4.76,10.35,10.13,17.61,10.91.08,0,.11-.11.06-.16-4.68-4.42-6.2-10.62-5.14-16.86,0,0,0,0,0-.05l10.62-29.11L218.69,45S203.33,24.15,202.54,23,181.27,30.46,181.27,30.46ZM323.48,179.1l1.16-12.36-5.91-9.06-7.48-2.76-24.42,10.24-27.57,43.33-4.73,72.85s0,0,0,0a22.52,22.52,0,0,0,13.39,7.95.1.1,0,0,0,.09-.16c-1.91-2.07-3.57-4.94-3.41-7.82.16-2.69,3.1-4.62,4.95-6.22a80.15,80.15,0,0,0,6.18-5.61c4.91-5.19,6-13.08,7.17-19.85a6.44,6.44,0,0,1,.26-1.34c.77-.8,1.59-1.55,2.42-2.29a59.46,59.46,0,0,1,12.66-8.53,49,49,0,0,0,10.86-7.57,13.25,13.25,0,0,0,2.86-3.52c1.85-3.32,3.53-7.29,3-11.17-.46-3.53-2.22-6.55-2.08-10.22.21-5.43,3.59-10.67,6.5-15.08a29.28,29.28,0,0,0,4.32-10.54A.27.27,0,0,0,323.48,179.1Z"/><path class="cls-4" d="M287.62,199.83l-3.55-57.9c-.52-3.68-7.88-17.86-15.23-23.11s-23.63-12.08-32-13.66-16.28,3.68-16.28,3.68L201.09,124.6s-27.83,20-32.56,22.58S133.87,167.66,127,171.86c-3.65,2.25-6.55,7.81-8.46,12.49a27.7,27.7,0,0,0-9.39,2.22c-2.63,1.05-13.13,15.75-14.18,18.9s-5.12,21.14-5.12,21.14c2,11.82,3.54,29.15,19.69,25.6,1.18.79,2.76,1.58,3.55,2.76l.87-.2.31,1.38c3.54,11.42,4.73,20.88,12.6,30.33,7.09,9.06,18.52,18.91,28.76,24.42,0,0,15.75,13.39,28.75,17.33s43.33,5.52,52.78-7.09c8.15-10.86,17.73-36.23,17.73-36.23A62.18,62.18,0,0,0,264,270.73c4.34-9.06,11.82-38.21,11.82-38.21s5.52,0,7.88-4.73.79-15.36,2.76-20.48S287.62,199.83,287.62,199.83Z"/><path class="cls-4" d="M157.51,288.73c15.84-9.68,17.39-36,3.46-58.78s-38-33.39-53.89-23.71c-12,7.32-15.79,24.19-10.88,41.83,2.75,3.61,6.88,5.57,13.38,4.14,1.18.79,2.76,1.58,3.55,2.76l.87-.2.31,1.38c3.54,11.42,4.73,20.88,12.6,30.33.5.64,1,1.29,1.57,1.93C138.66,293.3,149.22,293.8,157.51,288.73Z"/><path class="cls-4" d="M264,270.73c4.34-9.06,11.82-38.21,11.82-38.21s5.52,0,7.88-4.73.79-15.36,2.76-20.48,1.18-7.48,1.18-7.48l-.07-1.14c-.34-.2-.68-.4-1-.58-13.68-6.92-34.54,6.79-46.59,30.61s-10.73,48.75,2.95,55.67a18.19,18.19,0,0,0,11.7,1.42l.35-.9A62.18,62.18,0,0,0,264,270.73Z"/><path class="cls-4" d="M211.07,249.59S199.78,249.33,199,243s1.84-9.71,2.1-16.8-.78-16.81-.26-23.9a81.6,81.6,0,0,0,.26-10.77L217.37,190v14.18c0,4.2.79,13.39.27,17.85a42.82,42.82,0,0,0,.78,12.35c.53,2.36,3.16,6,1.58,10.24A10.8,10.8,0,0,1,211.07,249.59Z"/><path class="cls-4" d="M198.21,235.14s8.14-5,20.21-.78l.53-2.1s-10.77-3.42-20,.52Z"/><path class="cls-4" d="M127.31,192a19.88,19.88,0,0,0,12.21,3.54c7.09-.39,19.69,1.19,19.69,1.19L179.69,201s15.36-7.48,14.18-19.7c0,0-9.85-6.3-11-6.3s-10.63-4.33-12.21-4.33-9.06-3.55-19.3-2-18.51,3.54-20.48,4.73S127.31,192,127.31,192Z"/><path class="cls-4" d="M228.93,199.83s-7.48-7.09-6.7-15.37c0,0,5.12-4.33,7.09-7.48s19.3-5.12,19.3-5.12,11.82-.79,13-.79h7.48l4.34,9.06-1.18,8.27s-5.13,8.28-12.61,8.28S228.93,199.83,228.93,199.83Z"/><path class="cls-4" d="M184,243.55c2.29-2.38,5.4-7.4,7.49-10.24,2.91-3.95,3.18-6.76,4.74-11.43,2.17-6.5,3-16.78.31-23.17-4.57-.26-8.94,5.21-11.84,8.11-4.09,4.07-7.3,8.87-8.29,14.65-1.41,8.3,0,21.16,7.59,26.41Z"/><path class="cls-4" d="M229.32,242.37c-2.71-3.5-9.16-7.05-9.45-11.82A83.84,83.84,0,0,1,218.69,214c.39-7.88.39-13,.39-13s3.42,4.33,5.38,7.09,11.3,9.06,12.08,17.33-1.83,15.23-7.61,22.84a5.82,5.82,0,0,0,0-3.94Z"/><path class="cls-4" d="M158.55,309.46c-4.72-5.78-14.18-21-23.63-43.59,0,0-10-13.13-14.18-17.33s-10.5-13.66-11-15.76l-.52-2.1s-7.36,0-7.36-7.35c0,0,.53-5.25-2.62-6.3-2.18-.73-6.11,3.05-8.5,6-.5,2.15-.82,3.6-.82,3.6,2,11.82,3.54,29.15,19.69,25.6,1.18.79,2.76,1.58,3.55,2.76l.87-.2.31,1.38c3.54,11.42,4.73,20.88,12.6,30.33,7.09,9.06,18.52,18.91,28.76,24.42,0,0,11.57,9.84,23.06,15.13l.31-.29S163.28,315.23,158.55,309.46ZM287.62,199.83l-.34-5.57c-2.44-1.15-4.61-1.92-5.83-2.44-3.68-1.58-7.36,2.62-7.36,2.62s.53,6.83,1.58,21.54-7.35,25.21-11,29.93-9.45,22.58-12.6,37.29c-3,14-13.64,35.67-14.63,37.65,8.11-11,17.52-35.94,17.52-35.94A62.18,62.18,0,0,0,264,270.73c4.34-9.06,11.82-38.21,11.82-38.21s5.52,0,7.88-4.73.79-15.36,2.76-20.48S287.62,199.83,287.62,199.83Z"/><path class="cls-4" d="M266.74,132.08c-1.18-.4-10.24,4.72-11,6.3l-19,26.43a29,29,0,0,0-4.27-4l-6.3,7.49-17.72,14.57a25.29,25.29,0,0,0,16.15-5.12c2.7-2,5-3.91,6.83-5.57l-8.8,12.26s10.63-.39,20.48-10.63S260.44,164.38,264,151,267.92,132.47,266.74,132.08Zm-59.08,15c9.85-14.17,16.54-20.87,17.72-22s5.12-15.36,2-16.94a13.37,13.37,0,0,0-4.57-.46,20.18,20.18,0,0,0-2.25,1.25L201.09,124.6s-27.83,20-32.56,22.58S133.87,167.66,127,171.86c-3.65,2.25-6.55,7.81-8.46,12.49a27.7,27.7,0,0,0-9.39,2.22c-2.63,1.05-13.13,15.75-14.18,18.9s-5.12,21.14-5.12,21.14A120.36,120.36,0,0,0,92.49,240l.16,0s13.78-26.39,45.29-44.51l8.67-7.87s18.12-5.91,25.21-13.4S197.81,161.23,207.66,147Zm74,36.24c-.79-2-1.58-7.09-3.55-9.45-1-1.25-3.74-2.5-6.11-3.22a2.75,2.75,0,0,0-.58-1.11c-1.58-1.58-5.52-1.18-6.7,1.18l.79,20.87a42.76,42.76,0,0,1,1.56-5.12c1,6.6,3.13,15.39,5.53,20.88,2.76,6.3,3.94,18.91,3.94,18.91l5.12-22.85S282.5,185.25,281.71,183.28Zm-50-40.17c10.63-26.39,1.18-17.33,0-16.55s-13,18.52-16.55,23.24-17.33,19.3-19.3,19.7-10.24,3.94-11.82,4.72l4.73,2.76S221.05,169.5,231.69,143.11Z"/><path class="cls-4" d="M112.25,254.1a5,5,0,0,0-1.25-.88C111.4,253.51,111.84,253.8,112.25,254.1Zm-2.26-2a.44.44,0,0,0-.52-.29c-3.32.45-6.61.55-9.61-1.16a13.81,13.81,0,0,1-5.23-6.29c-2.66-5.54-3.37-11.84-4.58-17.8,0-.18-.36-.14-.34.05.87,6.75,1.47,14,4.87,20a11.93,11.93,0,0,0,11.53,6.56,17.08,17.08,0,0,0,2.56-.33,3.58,3.58,0,0,1,2.33.33A3,3,0,0,1,110,252.1Zm2.26,2a7.41,7.41,0,0,1,.83.92s.15,0,.1-.08A4.25,4.25,0,0,0,112.25,254.1Zm-10.63-32.64c1,1.62,0,3.78.68,5.65a9,9,0,0,0,2.51,3.37,15.09,15.09,0,0,1,3.89,5.61c0,.12.23.07.19-.05-1.14-3.58-4.55-5.68-5.63-9.19a7.37,7.37,0,0,1-.08-3.27c.24-1.49.34-1.39-.53-2.72-1.59-2.46-2.78-5.21-4.69-7.45-.21-.24-.59.07-.44.34C98.92,216.3,100.11,219,101.62,221.46ZM98.9,235a.1.1,0,0,0,.1-.17c-2.48-1.55-2.06-6.43-2.15-8.89-.09-2.79.09-5.58,0-8.36a.23.23,0,0,0-.45,0,70.18,70.18,0,0,0,0,10.15C96.54,229.8,96.75,233.8,98.9,235ZM287.73,199.8c-.05-.14-.27-.08-.22.06.81,2.63-.71,5.74-1.49,8.17-1,3.23-.91,6.88-1,10.23-.16,3.73-.13,8.08-2.66,11.09a8.93,8.93,0,0,1-6.51,2.88.28.28,0,0,0-.28.21c-3,11.33-6,22.74-10,33.73A57.58,57.58,0,0,1,254.7,284.6a10.69,10.69,0,0,0-1.22,3q-1.8,4.53-3.74,9c-3.27,7.53-6.75,15.09-11.25,22a21.08,21.08,0,0,1-7.44,7.19,36.21,36.21,0,0,1-10.81,3.68,80,80,0,0,1-24.56.56,57.6,57.6,0,0,1-22.63-7.41,123.36,123.36,0,0,1-15.71-10.82,33.26,33.26,0,0,0-4.15-2.71,91.67,91.67,0,0,1-11.79-8.39c-6.94-5.7-13.79-12.42-18.39-20.2-4.4-7.45-6-16.16-8.64-24.32a.06.06,0,0,0-.12,0C117.14,265.94,119,276,125,284.48s14.33,16,22.93,22.07c2.75,1.94,5.89,3.37,8.48,5.49,2.3,1.89,4.68,3.68,7.1,5.42,6.9,4.94,14.47,9.61,22.76,11.75a83.2,83.2,0,0,0,21.9,2.3c7.52-.12,15.39-1.11,22.22-4.43,6.52-3.17,9.88-9.36,13.14-15.52,3.62-6.86,6.72-14,9.64-21.18.7-1.72,1.39-3.46,2.05-5.2a3.88,3.88,0,0,1,.52-.65c.9-1.06,1.73-2.18,2.54-3.32,4.54-6.37,7.48-13.32,9.87-20.71,2.27-7,4.25-14.09,6.17-21.19.54-2,1.08-4.05,1.6-6.08,0-.15.08-.29.11-.43a10.73,10.73,0,0,0,3.26-.74c6.31-2.39,6-9.89,6.17-15.47A36.37,36.37,0,0,1,287.07,206C287.66,204.18,288.31,201.69,287.73,199.8Z"/><path class="cls-4" d="M225.25,250.11c-1.83-3.67-4.72-3.15-4.72-3.15-8.67,9.72-18.65,4.2-18.65,4.2a13.46,13.46,0,0,0-8.66-2.89,18.26,18.26,0,0,0-9.19,2.37c.52,3.41,6,6.3,6,6.3s6.67,5.25,14.51,6.54c.83,1.26,3,4.49,3.88,4.49s.84-3,1.67-4.37c7.82-1.13,12.25-8,12.25-8,2.88-.79,5.77-7.09,5.77-7.09Z"/><path d="M190.52,251a6.53,6.53,0,0,0,9.06,1.58L198.4,252A14.3,14.3,0,0,0,190.52,251Zm30.33-1.77L218.69,252l-.59,1c3.74.2,5.32-1.18,5.32-1.18C223.42,249.65,220.85,249.26,220.85,249.26Z"/><path class="cls-4" d="M188,246.76a17,17,0,0,0,3.4-8.16c.38-4-1.45-3.21-3.22-.79-1.63,2.22-4.63,4.32-4.81,7.32S186,249,188,246.76Z"/><path class="cls-4" d="M225.8,246c-2-1.37-2.79-3.65-3.26-5.87-1-4.54,2.49-1.56,4,.19.85,1,2.31,2.58,2.44,4C229.16,246.66,227.7,247.33,225.8,246Z"/><path class="cls-5" d="M183.52,246.85c0-4.36,4.26-7.9,6.36-11.4.05-.08-.08-.19-.14-.11-3,3.81-7.35,7.31-7.17,12.6.16,4.87,5.38,8.75,9.86,9.29,0,0,0,0,0-.05C188.19,255.57,183.46,251.75,183.52,246.85ZM221.43,233a.14.14,0,0,0-.24.14c2,3.72,5.87,6.19,7.2,10.29,1.57,4.83-2.88,9.75-6.33,12.45-.05,0,0,.13.07.09,3.86-2.6,7.54-5.91,7.44-10.94C229.47,240.18,223.87,236.62,221.43,233Zm-34.05,18.88a.12.12,0,0,0,.09.22,15.16,15.16,0,0,1,13.3,1.55c.11.07.24-.09.14-.17C196.77,249.92,192.27,249.56,187.38,251.85Zm35.46-1.19a3.43,3.43,0,0,1,.43,2.56.15.15,0,0,0,.29.08,3.5,3.5,0,0,0-.26-2.9,3.06,3.06,0,0,0-1.65-1.3,7.65,7.65,0,0,0,.44-1c.08-.24-.27-.46-.44-.25-2.46,3.14-4.86,5.59-8.66,7.11a13.19,13.19,0,0,1-11.62-.65s-.06,0,0,.05c3.58,2.76,7.73,3,11.91,1.53a16.12,16.12,0,0,0,8.06-6.16l.42.12A2.29,2.29,0,0,1,222.84,250.66Zm-4-39.61a92.81,92.81,0,0,0,1.1,19.63s0,0,0,0a105.66,105.66,0,0,1-.86-19.63c.32-7.7-.75-15.26,1-22.88,0-.14-.19-.21-.22-.06C218.09,195.69,219.12,203.36,218.89,211.05Z"/><path class="cls-6" d="M173.09,281.48s9,6.83,11.8,9.54,10.27,8.44,15,9.1,17.88-.53,21.1-2.81,8.78-13.14,13.06-15.64l-8.09-1.81-21-1.66-19,2.08Z"/><path class="cls-7" d="M216,298c-8.59,1.9-16.06,2-23.47-3.23-1.67-1.17-6.86-4.8-4.34-7.29,3.63-3.6,15,1.14,19.67.62,3.42-.38,15-5.93,16.81-1.36C226.8,292.11,220.24,297,216,298Z"/><path class="cls-8" d="M168.17,279.26l-.78-.57A7,7,0,0,0,168.17,279.26Zm69.64-1.16c-2.66,1-4.84,3.8-10-.81-4-3.63-7.94-6.8-11.35-7.16s-6.89,2.16-6.89,2.16c-2.83-2.18-8.07-2.59-11.78-1.39s-13.37,8-20,9.67a12.13,12.13,0,0,1-9.67-1.31c11.08,7.93,22.79,3.27,35.6,3.9l.84,0,.72.59a18.59,18.59,0,0,0,3.66.89,11.71,11.71,0,0,0,3.82-1.7h.43c12.14-2,21.17,3.76,30.21-9.11C243.45,273.8,240.47,277.13,237.81,278.1Z"/><path class="cls-8" d="M203.78,283c-5.92-.95-12.3.37-18.26.54-6.61.18-12.66-1-18.1-4.91-.06-.05-.12.05-.06.1a27.51,27.51,0,0,0,16.93,5.62c3.08,0,6.15-.27,9.22-.52,3.42-.28,6.85-.27,10.26-.53A.15.15,0,0,0,203.78,283Zm39.58-9.3c-2.08,2.39-4.13,4.72-7,6.28a22.29,22.29,0,0,1-7.43,2.1c-5,.84-10.19,0-15.28.65.37-.31.72-.63,1-.95.16-.17,0-.47-.25-.34-3,1.69-5.6,3.74-9.14,2.24,0,0-.08.05,0,.07a10.54,10.54,0,0,0,2.65.74c1.32.24.44.62,1.69.37a9.13,9.13,0,0,0,3.73-1.87,50.91,50.91,0,0,1,8.9-.43,80.82,80.82,0,0,0,8.08.22c5.64-.45,10.41-4.13,13.2-8.92C243.63,273.75,243.46,273.59,243.36,273.71Z"/><path class="cls-9" d="M269.2,161.88a22,22,0,0,0-4.74,2.1c-2.08,1.32-8.9,2.37-11.57,2.1s-13.94-.52-16.61-.26c-2.15.21-6.38,4-10.58,9.66.58-2.19,1.84-6,3.83-8.21,0,0-6.67,5.71-9.57,13.58a28.7,28.7,0,0,0,6.33-1.52,117.77,117.77,0,0,0,15.33-3.79C248.14,173.17,255,174,260,174a31.9,31.9,0,0,1,11,2.1c1.19.53,2.67,6.57,2.67,6.57A30.91,30.91,0,0,0,269.2,161.88Z"/><path class="cls-10" d="M127.47,161.88a36.48,36.48,0,0,1,6.44,2.1c2.81,1.32,12.07,2.37,15.69,2.1s18.91-.52,22.53-.26c2.91.21,8.66,4,14.36,9.66-.8-2.19-2.5-6-5.2-8.21,0,0,9.05,5.71,13,13.58a51,51,0,0,1-8.59-1.52,208.45,208.45,0,0,1-20.79-3.79C156,173.17,146.78,174,139.94,174a56.87,56.87,0,0,0-14.89,2.1c-1.61.53-3.62,6.57-3.62,6.57S118.61,172.38,127.47,161.88Z"/><path d="M230.11,198.25s2.56-7.09,6.3-10,14.38-4.93,21.47-2c0,0,3.94,2.36,3.94,9.25L253,197.66C252.17,197.86,230.11,198.25,230.11,198.25Z"/><path class="cls-11" d="M260,196a13,13,0,0,0-2.36-7.21L256.5,188A26.77,26.77,0,0,0,238,189.19c-3.55,2.36-6.3,7.09-9.06,10.64l-.66.92,2.89.13,2.1.52c9.79,1.18,18.41,1.95,26.64-4.61A2.56,2.56,0,0,1,260,196Z"/><path class="cls-12" d="M253,192.75a9.91,9.91,0,0,0-1.86-5.8A27.11,27.11,0,0,0,238,189.19a17.17,17.17,0,0,0-3.22,2.92c0,.21,0,.42,0,.64a9.51,9.51,0,0,0,7.25,9.42c1.35,0,2.68,0,4-.07A9.54,9.54,0,0,0,253,192.75Z"/><path class="cls-12" d="M243.85,201.26a8.3,8.3,0,0,0,8.06-8.51,8.77,8.77,0,0,0-2.24-5.88A27.05,27.05,0,0,0,238,189.19a14.86,14.86,0,0,0-2,1.62,9.53,9.53,0,0,0-.21,1.94A8.3,8.3,0,0,0,243.85,201.26Z"/><path d="M248.6,192.75a4.76,4.76,0,1,1-4.75-5A4.89,4.89,0,0,1,248.6,192.75Z"/><path d="M247.21,192.75a3.37,3.37,0,1,1-3.36-3.55A3.46,3.46,0,0,1,247.21,192.75Z"/><path class="cls-11" d="M243.85,190.63a2,2,0,0,0,1.94-2,2.09,2.09,0,0,0-.56-1.45,27.64,27.64,0,0,0-3.17.64,2.13,2.13,0,0,0-.16.81A2,2,0,0,0,243.85,190.63Z"/><path d="M229.12,200c2.88-3.64,5.62-9.15,10.16-10.89a28.83,28.83,0,0,1,17.12-.77.36.36,0,0,0,.2-.7c-5.59-2.07-12.06-1.56-17.56.59-4.76,1.86-7.47,7.56-10.35,11.44-.19.25.24.58.43.33Z"/><path d="M257.48,188.92A16.2,16.2,0,0,1,259,192c.3.79,1.16,3.17.6,3.87a.58.58,0,0,0,.56,1c1.59-.39,3.27-.62,4.41-1.9.23-.27-.07-.73-.4-.52a6.22,6.22,0,0,1-2.54.92l-1.13.2q-.56.28-.27-.27c0-.33,0-.66-.1-1a13.48,13.48,0,0,0-2.28-5.6c-.17-.25-.57,0-.41.24Z"/><path class="cls-13" d="M233.26,201.42c9.42,1.36,19.15,1.89,26.88-4.65.12-.1,0-.3-.16-.21a26.6,26.6,0,0,1-13.32,5.29c-4.44.46-9,0-13.4-.47,0,0,0,0,0,0Z"/><path d="M136.56,195.89s.59-3.55,4.73-9.46c0,0,9.26-2.16,17.33-1.37s13.59,5.31,18.71,13l-20.09-.19Z"/><path class="cls-11" d="M178.44,199.83c-3.49-3.55-7-8.28-11.46-10.64A42,42,0,0,0,143.57,188l-1.49.79a11.22,11.22,0,0,0-3,7.48l-.21-.05a2.43,2.43,0,0,1,0,.38l.18.07c10.46,6.69,21.41,5.9,33.87,4.72l4.63-.26,1.71.26Z"/><path class="cls-12" d="M165,192.75a9.52,9.52,0,0,0-1.13-4.52,42.85,42.85,0,0,0-16.38-1,9.6,9.6,0,0,0,3.8,14.19,43.74,43.74,0,0,0,6.19.69A9.61,9.61,0,0,0,165,192.75Z"/><path class="cls-12" d="M155.34,201.26a8.5,8.5,0,0,0,7-13.39,43.13,43.13,0,0,0-13.29-.81,8.5,8.5,0,0,0,6.32,14.2Z"/><path d="M160.37,192.75a5,5,0,1,1-5-5A5,5,0,0,1,160.37,192.75Z"/><path d="M158.89,192.75a3.55,3.55,0,1,1-3.55-3.55A3.55,3.55,0,0,1,158.89,192.75Z"/><path class="cls-11" d="M153.28,188.58a2.06,2.06,0,1,0,3.39-1.56c-.8-.07-1.63-.12-2.49-.14A2.06,2.06,0,0,0,153.28,188.58Z"/><path d="M178.66,199.61c-4-4.27-7.66-9.78-13.52-11.56-6.89-2.09-14.77-2.53-21.68-.43a.41.41,0,0,0,.22.78,47,47,0,0,1,21.19.63c5.67,1.57,9.37,7,13.35,11,.28.28.71-.15.44-.44Z"/><path d="M141.89,188.61a11.71,11.71,0,0,0-3.08,7.67l.35-.27-.16.11a.68.68,0,0,0-.49-.64,15.4,15.4,0,0,1-4.71-1.09c-.36-.19-.77.28-.45.58a8.9,8.9,0,0,0,4.81,1.79.67.67,0,0,0,.75-.3l.1.09a.28.28,0,0,0,.36-.27,12.36,12.36,0,0,1,2.89-7.3c.21-.26-.15-.63-.37-.37Z"/><path class="cls-13" d="M173,201.38a120,120,0,0,1-17.06.44,38.27,38.27,0,0,1-16.73-5.28.16.16,0,0,0-.16.27c10.08,6.81,22.45,6,34,4.62,0,0,0-.05,0-.05Z"/><path class="cls-3" d="M327.62,165.63c-2-3.38-5.17-6-7.77-9-3.66-4.14-5-8.58-5.1-14.08s1-11,1.55-16.39a50.42,50.42,0,0,0-.65-15.6,43,43,0,0,0-2.17-7.25c.18,0,.35-.17.28-.35-4.69-11.38.28-25.91-10.26-34.75A22.51,22.51,0,0,0,301,66.47c-3.08-8.35-9.47-14.1-17.46-17.77s-17.61-4.11-24.43-10.25c-3.05-2.75-5.25-6.33-7.28-9.86-.41-.7-1.63-3.88-2.36-4.05l-1-.22c-5.83-1.19-11.75-2-17.67-2.67A218,218,0,0,0,198,20.48a163.91,163.91,0,0,0-18.24,1.78c-1.69.26-3,2.34-4.32,3.41A39.28,39.28,0,0,1,158,34.21c-2.32.48-4.64,1-6.94,1.52-18,4.28-35.39,11.49-50.31,22.47A100.71,100.71,0,0,0,75.83,84.5,102.13,102.13,0,0,0,61,125.12a129.58,129.58,0,0,0-1.1,25.21.43.43,0,0,0,.4.42l-.44,3.93-.2.28c-.15.2.18.38.32.19,6.21-8.05,12.15-16.06,20.86-21.6,0,0,0,0,0-.05L94,117.78a0,0,0,0,0,0,0,54.69,54.69,0,0,0,5.69-13.91c.07-.12.08-.19,0-.22,0-.19.1-.37.14-.55s-.18-.25-.24-.1c-2.37,5.35-6,9.41-10.08,13.51-3.77,3.77-7.56,7.57-10,12.34.49-9.19,1.85-18,5.23-26.6A80.65,80.65,0,0,1,99.15,79c12.2-14,28.41-24.23,45.56-31.13,5.22-2.1,10.59-3.92,16-5.49a.21.21,0,0,0,.15-.27c2-.56,18.36-5.11,25-7.82,6.07-2.47,9.83-2.63,10.78-2.63C183.46,44.19,168.38,54,153.6,64.54c-13.95,9.92-27.23,21.09-36.06,36a82.74,82.74,0,0,0-7.43,16.68c0,.1,0,.16.14.15h0l0,.59h0l0,.59a101.58,101.58,0,0,0-13.92,34.06l-1,2.1a1.19,1.19,0,0,0-.08.16c-5.44,11-9.66,21.53-10.4,23.4a.29.29,0,0,0-.4.12c-6.24,12.09-10.24,25.44-10.53,39.1-.11,5.07.12,10.66,1.74,15.54a.43.43,0,0,0,.84-.12,59.66,59.66,0,0,1,9.6-28,93.8,93.8,0,0,0-4.84,35.69,59.63,59.63,0,0,0,2.81,15.94c.13.34.74.44.81,0a91.53,91.53,0,0,1,9.62-27.66c4.88-9.36,11.64-17.34,19.06-24.78s16.06-12.41,24.6-18.09q2.52-1.67,5-3.38A179.66,179.66,0,0,0,165,173.94c15.94-7.57,31-17.82,42.51-31.29a76.54,76.54,0,0,0,15.43-28l-2.37,12a0,0,0,0,0,0,0c-5.53,9.83-11.46,19.49-18.75,28.13a77.76,77.76,0,0,1-12.37,11.89,51.83,51.83,0,0,1-7,4.48c-2.54,1.34-5.66,3-8.55,3.35a.49.49,0,0,0,0,1c17.33,1.09,33-8,44.56-20.3a89.69,89.69,0,0,0,12.08-16.29V139c0,.66.06,1.11.07,1.26a.06.06,0,0,0-.07.07c.16,8.28-2.47,16.29-6.45,23.48a59.09,59.09,0,0,1-7.09,10,56.82,56.82,0,0,1-4.19,4.31c-1.45,1.35-3.14,3.09-5,3.86-.38.17-.1.83.29.68,9.35-3.59,19-10,25.67-18.33a48.67,48.67,0,0,1-4.21,9.45,52.94,52.94,0,0,1-3.32,5c-1.3,1.78-2.88,4.08-4.74,5.31a.31.31,0,0,0,.31.53,78.56,78.56,0,0,0,11.09-7.85l-.08.3-.24.08c-.47.16-.27.91.21.76,11.14-3.54,19.13-12.59,24.37-22.71a72.1,72.1,0,0,0,6.43-17.93,63.06,63.06,0,0,1-.21,11.89c-.54,4.8-1.41,9.56-2,14.35-1.2,9.4-.91,19.5,4.09,27.86a.37.37,0,0,0,.68-.29c-.55-2.28-.18-5,0-7.29a66.1,66.1,0,0,1,1.2-7.92,129.4,129.4,0,0,1,3.66-13.36l-1,6a.05.05,0,0,0-.07,0,55.37,55.37,0,0,0-.37,16.9c.84,6.15,3.2,11.6,5.29,17.37a.39.39,0,0,0,.29.25l.09.59a.1.1,0,0,0-.09.13c1.91,7.08,4,15.82,1.31,23-.18.47.56.66.74.2,3.23-8.17,7.31-15.82,11.15-23.71,3.69-7.56,6.81-15.53,7.54-24l1.38,1.84s0,0,0,.06c.2,2.84.33,5.68.27,8.53s-.06,6.06-1,8.73c-.12.35.41.48.54.15,5.21-13,16.48-23.8,17.37-38.33l.51.3.19.12a0,0,0,0,0,0,.05c2.31,4.12,4.8,8.28,6,12.89,1.28,4.89.4,10.07-.84,14.88a.14.14,0,0,0,.26.11c2.55-4,5.79-7.48,7.72-12A11.64,11.64,0,0,0,327.62,165.63ZM297.05,64.41c-2.3-1-4.7-1.84-7-2.72-5.41-2-10.1-4.64-13.44-9.47l1.39.23h0l1.3.26h0C286.18,54.47,293.67,57.89,297.05,64.41ZM275.93,52.12Z"/></g></g></svg>