<svg xmlns="http://www.w3.org/2000/svg" xmlns:xlink="http://www.w3.org/1999/xlink" viewBox="0 0 380.54 380.54"><defs><style>.cls-1{fill:#f0b494;}.cls-2{fill:#683021;}.cls-3{fill:#783a2a;}.cls-4{fill:#713526;}.cls-5{fill:#65291a;}.cls-6{fill:#531f15;}.cls-7{fill:url(#linear-gradient);}.cls-8{fill:url(#linear-gradient-2);}.cls-9{fill:url(#linear-gradient-3);}.cls-10{fill:#26110b;}.cls-11{fill:#fff;}.cls-12{fill:#3f0d00;}.cls-13{fill:url(#linear-gradient-4);}.cls-14{fill:url(#linear-gradient-5);}</style><linearGradient id="linear-gradient" x1="204.67" y1="218.85" x2="204.67" y2="178.8" gradientUnits="userSpaceOnUse"><stop offset="0" stop-color="#3f170c"/><stop offset="1" stop-color="#783a2a"/></linearGradient><linearGradient id="linear-gradient-2" x1="188.69" y1="103.18" x2="188.69" y2="43.7" gradientUnits="userSpaceOnUse"><stop offset="0" stop-color="#0c1417"/><stop offset="1" stop-color="#3e6070"/></linearGradient><linearGradient id="linear-gradient-3" x1="188.7" y1="111.96" x2="188.7" y2="44.17" gradientUnits="userSpaceOnUse"><stop offset="0"/><stop offset="1" stop-color="#294653"/></linearGradient><linearGradient id="linear-gradient-4" x1="2242.31" y1="192.19" x2="2233.64" y2="191.01" gradientTransform="matrix(-0.86, 0, 0, 1, 2179.73, 0)" gradientUnits="userSpaceOnUse"><stop offset="0" stop-color="#cf8464"/><stop offset="1"/></linearGradient><linearGradient id="linear-gradient-5" x1="152.88" y1="192.07" x2="144.73" y2="190.96" gradientTransform="matrix(1, 0, 0, 1, 0, 0)" xlink:href="#linear-gradient-4"/></defs><g id="Capa_2" data-name="Capa 2"><g id="Avatar_17"><circle class="cls-1" cx="190.27" cy="190.27" r="190.27" transform="translate(-78.81 190.27) rotate(-45)"/><path class="cls-2" d="M260.18,344.44c-8.16-19.29.74-71.2.74-71.2l-134.24-8.9s1.48,68.23-3.71,81.58c-1.87,4.82-8.87,10.12-17,14.93A190.55,190.55,0,0,0,275,360.68C268.42,356,262.75,350.52,260.18,344.44Z"/><path class="cls-3" d="M298,195a14.33,14.33,0,0,0-10.38-1.85s-.25-21.75-.25-23.24,2.47-53.89,0-57.35.49-17.31-10.88-22.75c-9.74-4.66-22-11.85-32.82-9.14a3,3,0,0,0-.8-.75C237.43,77,224.58,75,215.68,74S151.4,75.47,139,81.4,112.34,115,112.34,115s-7.82,51.47-11,71.65c-5.34,0-9.49.17-9.49.17-5.93-1.12-11.12,3-11.12,3-4.45,11.5-2.6,30.41-2.6,30.41,3.71,13.72,13.72,29.3,13.72,29.3,4.08,3,11.5,3,15.58,0l1,.67-.25.07c1.11,9.64,4.45,20.76,10.75,33.74,0,0,8.9,16.32,48.58,37.46,0,0,14.83,14.09,40.05,13s40.79-13,43.76-22.62c0,0,13-14.09,20.39-31.14,0,0,4.31-8.35,7.37-27.81h0a48.28,48.28,0,0,0,6.3-3c3.34-6.68,5.94-14.09,9.64-21.14C300.6,217.24,297.63,207.23,298,195Z"/><path class="cls-3" d="M182.05,226c3-2.09,5.53-8.75,7-12.06a58,58,0,0,0,4.39-14.89c.47-3.27,1.61-9.28-.06-12.36-2.73-5.05-9.35,5.4-11.86,7.42-3.54,2.84-8.39,4.5-11.53,7.66-2.95,3-4.28,8.77-4.49,12.85-.44,8.78,3.95,16,10.09,21.49,1.28-3.93,2.23-6.11,5.24-9.12Z"/><path class="cls-3" d="M225.87,226.7c-.23-2.66-2.12-5-3.47-7.23s-3.8-4.67-3.94-7.23c0,0-2.23-15.21-1.11-26,0,0,2.41,8.34,3.33,9.83s14.65,10.94,16.88,19.28-3.16,21-3.16,21-2.78-7.41-7.23-8.71Z"/><path class="cls-3" d="M136.07,149.14s-3.95-33.13,6.43-40.55,33.62-21.75,72.68-17.8c0,0,44,6.93,49.94,22.75s-1,21.26,3,42L235,166.44l-13.35,5.93-35.1-1.48L154.86,162Z"/><path class="cls-3" d="M205.48,236.9c-21.61,0-39.12,12.87-39.12,28.74s17.51,28.74,39.12,28.74,39.12-12.87,39.12-28.74S227.09,236.9,205.48,236.9Z"/><path class="cls-3" d="M101.76,193.59c1.83,11,2.19,22.57,3.66,31.69,1.54,9.54,6.64,18.93,9.51,28.16a122.54,122.54,0,0,0,12.55,28,27.05,27.05,0,0,0,13.43-4.14c16.17-10.31,17.9-36.51,3.86-58.53C133.82,201.62,116.52,192.07,101.76,193.59Z"/><path class="cls-3" d="M284.5,193.24c-13.35,2.41-26.91,13.39-34.71,29.76-11.24,23.57-6.32,49.36,11,57.61a26.18,26.18,0,0,0,8.64,2.41l-.34-4.34c0-11.36.41-25.72,7-35.61,2.4-3.59,5.79-5.81,7.8-9.91a34.51,34.51,0,0,0,3-10.34C288.24,213.72,284.11,203,284.5,193.24Z"/><path class="cls-3" d="M182.3,305.13l7-4.08s27.44,1.86,36.71-1.11l4.08,4.45S206.78,308.47,182.3,305.13Z"/><path class="cls-3" d="M208,240.11a22.13,22.13,0,0,1-12.15-3.78c-6.86-4.9-6.57-12.6-.7-18.47,4.2-4.2,4.94-22.49,4.45-31.89,0,0,8.15-3.71,15.82-.49,0,0-1.48,20.52,1.73,28.43,0,0,2.23,4.2,3.46,6.42s3.46,7.42,1.48,11.13S216.17,240.61,208,240.11Z"/><path class="cls-3" d="M175.44,234.3c.93,1.48.05,2.82,2,3.67,2.85,1.22,5.11-1.07,5.79-3.57.78-2.85,0-5.85-.82-8.61-2.44,1.39-5.43,4.11-5.9,7a3.22,3.22,0,0,0,0,.93Z"/><path class="cls-3" d="M233.85,237.83c-1.15,5.65-4.75-1.22-6.13-2.79-1-1.18-2.54-1.87-3.1-3.33s-.28-3.6-.2-5.13c4.45,1.38,9.05,4.86,9.06,9.95Z"/><path class="cls-3" d="M107.77,205.38s4.08-22.62,10.75-33.38,11.13-19.65,13.35-30.77S130,113,140.77,104.88s67.12-33.74,120.89-.74c0,0,8.9,7,8.16,18.54s0,27.44,1.85,32.27,11.5,26.32,13.35,43.38l1.49-18.54s3.33-34.12,2.22-35.23,0-29.66-1.86-31.15-4.81-19.28-8.15-21.88-17.43-9.64-24.85-10.75-47.09-5.19-59-4.82-50.8,7.79-52.28,7.79-23,13-26.33,18.17-9.65,28.92-9.65,33-3.33,23-4.45,31.15.75,17.06.75,21.14a68.52,68.52,0,0,0,.74,10.75Z"/><path class="cls-3" d="M105.17,233.93c-3.84,2-11.78-.43-12.86-4.94-.59-2.45.54-5.26-.23-7.68-.56-1.73-3-4.56-4.72-2.05,0-1.93,3.83-8.78-.93-7.85.72-2.29,1.37-4.83-1.28-5.66-3.12-1-4.24,1.74-5.39,3.94a28,28,0,0,1,1.62-11.61c2.39-6.07,7.72-.25,10,3,3.27,4.82,6.26,9.48,7.61,15.33.59,2.53-.15,5.35,1.29,7.54,1.25,1.9,3.7,3.23,5.13,5a8.71,8.71,0,0,1,1.79,3Z"/><path class="cls-3" d="M282.92,239.37c4.35,1.1,5.63-5.54,5.92-8.41.21-2.08,1.16-10.4,4.67-6-.29-1.07-1.26-2.53-1.21-3.65.05-1.55,1.22-3.22,1.79-4.68a4.31,4.31,0,0,1,1.88,1.62c.52-3.35,1.63-7.25.56-10.55-1.95-6-6.12,2.71-7.24,5.13-2,4.21-1.3,7.84-2.15,12.17-.95,4.79-4.74,8-5.95,12.86Z"/><path class="cls-3" d="M101.83,225c-2.22-7.41-7.41-35.23-19.28-31.52l-2.1,9s1.73-5.2,3-5.44,4.94,4.2,4.94,4.2S96,213.66,96,216.87a32.1,32.1,0,0,1-1,6.93,7.78,7.78,0,0,0,3.7,9.14c5.69,3.22,7.91-1,7.91-1Z"/><path class="cls-3" d="M288,216.13c.74-5.19,4.08-10,7-14.46h.75c.37,2.22.37,4.45.74,7l-1.73-2s-5,8.4-5.44,12.6-1,6.93-1,6.93,1,10.38-5.44,10.88l-.25-3.22,3.22-6.18Z"/><path class="cls-4" d="M142.25,291.78c-3-8.9-13.72-29.67-23-41.9S107.77,205,107.77,205l-7-.74a15.66,15.66,0,0,1,1.45,4.62L100,211.68l-5.19-10,7,22.36a26.91,26.91,0,0,1-1.4,5.82c-.74,1.11,4.45,3.71,4.45,3.71a13.26,13.26,0,0,1,1.48,10.38c-1.33,5.67-6.84,7.44-8,7.74a14.1,14.1,0,0,0,9.07-2.17l1,.67-.25.07c1.11,9.64,4.45,20.76,10.75,33.74,0,0,8.9,16.32,48.58,37.46C167.47,321.45,145.22,300.68,142.25,291.78Zm145.37-77.87c-.37,10.38-4.08,17.43-9.27,24.1s-7.05,13.72-13,35.6a233.61,233.61,0,0,1-14.46,38.94l.06.13a9.18,9.18,0,0,0,.31-.88s13-14.09,20.39-31.14c0,0,4.31-8.35,7.37-27.81h0l.52-.21c0-3.56-.15-7.2-.15-7.2A63.56,63.56,0,0,0,287.62,213.91Z"/><path class="cls-3" d="M221.05,237.08c-5.37,6.31-15.57,6.86-20,5.19s-8-5-13.91-4.82-9.08,6.31-9.08,6.31l4.45,3.89a39,39,0,0,0,17.71,8.63c1.1,1.35,3.43,3.89,5.46,4.17s4.18-2.65,5.18-4.23c9.28-1.77,14-7.51,15.78-7.83,2-.37,4.26-4.45,4.26-4.45C230.14,237.45,221.05,237.08,221.05,237.08Z"/><path class="cls-3" d="M127.79,186.47s-11.49-6.31-7.41-13.35,20.76-16,20.76-16l15.58.74L173,166.44l8.9,5.93,5.56-.37s0,18.55-14.83,19.29Z"/><path class="cls-3" d="M225.32,191.29s-7.42-10-4.08-19.66c0,0,8.53,0,9.27-1.11s7.42-8.16,7.42-8.16,9.27-3.71,11.86-2.59,8.53.74,10.39,1.48,11.12,5.56,11.12,5.56l5.56,6.31s-.37,11.49-10.38,13.35-28.18,4.82-29.29,4.45-8.53-.37-8.53-.37Z"/><path class="cls-5" d="M159.92,277.44s8.6,6.18,12.35,9.15S184,299.2,198,299.94s22.08-.74,28.78-7.79,16.75-14.28,18.33-15l-11.43-.74-18.33-3.34-26,.37Z"/><path class="cls-6" d="M233.63,276.39l-18.33-3.34-26,.37-29.36,4s8.6,6.18,12.35,9.15c.49.39,1.06.9,1.7,1.48-.89-1.15-2.84-4-1.18-5.19,2.1-1.48,22.87,1,32.85.49s23.92-2.22,25.23-.74-3.3,8.28-4.09,9.47c6.7-7,16.71-14.23,18.28-15Zm-37.19,22.07c-8.14-.5-16.29-5.44-16.29-5.44l-.05.25A32.63,32.63,0,0,0,198,299.94c12.77.68,20.61-.51,27-6.08l-.11-.35C217.2,299,204.59,299,196.44,298.46Z"/><path class="cls-6" d="M242.89,276.39c-2.49.55-4.53-.56-7.69-3s-8.27-7-13-9.27S212,263.78,209,265.64s-6.7.74-6.7.74c-4.53-2.78-10.45-2.78-10.45-2.78-10.83,1.3-25,12.79-29,13.16s-8.47-5-8.47-5c8.67,14.47,30.35,4.46,43.75,7.05l.79.37a27.31,27.31,0,0,0,7.49,1.86,23.5,23.5,0,0,0,4.64-2.81c11.87-1.9,35.66,5.37,38.72-7.21C249.79,271,246.24,275.65,242.89,276.39Z"/><path class="cls-6" d="M198.21,278.61c-14-3.68-34.21,8-43.79-6.87,0,0-.07,0,0,0,4.06,6.83,11.45,8.2,19.17,8.29,8.24.1,16.37-1.94,24.61-1.06A.2.2,0,0,0,198.21,278.61Zm51.5-7.62c-2.39,7.32-11.25,7.56-18.06,7.37-6.36-.17-13.08-1.51-19.44-.5a11.34,11.34,0,0,0,2.27-3c.09-.18-.15-.4-.31-.23a28.35,28.35,0,0,1-4.08,3.69l-.15,0a.11.11,0,0,0-.08.13c-.49.35-1,.69-1.55,1a5.83,5.83,0,0,1-4.31,1,21.1,21.1,0,0,1-5-1.38c-.09,0-.16.08-.08.12a22,22,0,0,0,4.39,1.41,8.62,8.62,0,0,1,2.91.75c.3.21.79-.11,1-.22a18.35,18.35,0,0,0,4.47-2.85,60.63,60.63,0,0,1,9.53.05c4.35.23,8.7.5,13.07.47,6.09,0,14.2-1,15.55-7.81C249.88,270.94,249.74,270.91,249.71,271Z"/><path d="M196.39,243.94s-6.3-6.3-11.49-3a7,7,0,0,0,5,4.08A8,8,0,0,0,196.39,243.94Z"/><path d="M217.9,245.43a12.59,12.59,0,0,0,4.82-.74,5.43,5.43,0,0,0,3.15-3.34s-2.4-.93-3.89,0Z"/><path class="cls-3" d="M195.16,217.37s10.13-5.69,24.23-.5l-.75-3s-11.86-4.95-24.22.49Z"/><path class="cls-3" d="M107.38,249.48c-4,2.7-9.56,2.79-13.85.81-2-.9-2.61-2.69-3.65-4.5a115.34,115.34,0,0,1-11.09-24.58,22.5,22.5,0,0,1-.58-5.5,109.86,109.86,0,0,1,.1-11,55.75,55.75,0,0,1,2.16-13,3.35,3.35,0,0,1,2-2.56,15.77,15.77,0,0,1,6.47-2.07,12.34,12.34,0,0,1,2.78.12c.48.07.7-.64.2-.73a15,15,0,0,0-10.41,2.28c-2.35,1.43-2.55,5.11-3,7.61a87.43,87.43,0,0,0-.93,21.74,24.2,24.2,0,0,0,1.56,6.65,103.28,103.28,0,0,0,5.62,12.85c1.65,3.27,3.45,6.47,5.37,9.58,1.14,1.86,1.6,2.73,3.69,3.63a14.84,14.84,0,0,0,13.62-1.28s0-.07,0-.05Z"/><path class="cls-3" d="M105,233.73c-1.24-1.18-2.64-2.2-3.93-3.32s-.16-3.33.55-4.55a.18.18,0,0,0-.31-.18c-.76,1.24-.8,2.86-1.6,4a.31.31,0,0,0,.05.37,22.39,22.39,0,0,0,4.89,4.11A.29.29,0,0,0,105,233.73Zm-8.74-25s0,0,0,0c-3-5-5.67,1.86-6.79,4.53s-2.69,5.68-3,8.73a11.77,11.77,0,0,0,2.69,8.69c.08.1.22,0,.16-.12-1.44-2.42-2.65-4.75-2.58-7.64,0-2.38,1.08-4.7,2-6.87.78-1.93,1.53-3.88,2.41-5.76a10.14,10.14,0,0,1,1.59-2.54C94,206.28,95.37,207.58,96.26,208.72Zm1.45,13a6.48,6.48,0,0,0,1.74-4.31c.68,2.53,1.12,5.31,2.2,7.7.11.24.42.05.39-.16a88.17,88.17,0,0,0-2.26-9.06,90.57,90.57,0,0,0-3.89-11.84c-2.23-5.31-6.45-12.91-13.36-10.65-.1,0-.06.19,0,.16a6.67,6.67,0,0,1,5.17.72c4.75,10.18-5.71,19.65-3,30,0,0,0,0,0,0-2.07-9.87,8.27-20.08,3.62-29.56,3.68,2.58,6.06,8.23,7.47,11.77a100.41,100.41,0,0,1,3.23,9.71c.16,2.94-1.53,4.84-3.46,6.81a8.9,8.9,0,0,0-2.87,5.7c-.43,4.87,5.27,6.23,6.4,10.42,0,.1.16.06.14,0a9.38,9.38,0,0,0-2.82-4.63c-2-1.93-3.4-3.64-3-6.61C93.9,225.26,96.09,223.6,97.71,221.75Z"/><path class="cls-3" d="M108.09,250.25A97.54,97.54,0,0,0,115.52,277c1.35,3.18,2.57,6.42,4.63,9.21,6.15,8.31,14.7,14.93,23.07,20.82,3.94,2.77,8,5.36,12.12,7.85q3.43,2.07,6.93,4c1.57.88,3.8,1.62,5.12,2.82a44.56,44.56,0,0,0,9.3,6.25c15.73,8.28,34.82,8.63,51.48,3,6.77-2.3,13.35-5.87,18.35-11.05a22.69,22.69,0,0,0,4.45-6.41,6.22,6.22,0,0,1,.71-1.69c.5-.56,1-1.13,1.48-1.7,8.13-9.54,15.39-20.36,20-32.07a101.4,101.4,0,0,0,4.31-14.92c.92-4.15,1.64-8.34,2.26-12.54.13-.92.26-1.84.38-2.76s0-2.63.43-3.43.92-1.81,1.36-2.73a54.65,54.65,0,0,0,5.76-22.42,111.92,111.92,0,0,0-.88-15.74c0-.31-.53-.31-.49,0a110.71,110.71,0,0,1,.67,17.74c-.35,8-3.21,15.86-7,22.88a7.63,7.63,0,0,0-.31,2.31c-.19,1.55-.41,3.09-.63,4.63-.38,2.59-.83,5.18-1.32,7.75-.73,3.84-1.6,7.65-2.65,11.42a60.68,60.68,0,0,1-3.56,10.11,138.82,138.82,0,0,1-12.9,21.91q-2.86,3.92-6,7.6c-.44.51-.88,1-1.33,1.52a6.16,6.16,0,0,0-.8,1.81c-2.49,5.85-8.08,10.14-13.44,13.19-8.34,4.74-18,6.94-27.48,7.62-14.32,1-29.66-2.74-40.91-12a34.57,34.57,0,0,0-5.43-3.26q-7-3.87-13.76-8.21a157,157,0,0,1-18.93-14.12c-4-3.55-8.06-7.43-11-11.94-.14-.2-.27-.41-.39-.62A90.88,90.88,0,0,1,113.86,272a91.83,91.83,0,0,1-5.67-21.72c0-.07-.11-.07-.1,0Z"/><path class="cls-3" d="M287.65,193.27a16.58,16.58,0,0,1,5.07,0c1.11.16,4.91.85,4.82,2.41a83.2,83.2,0,0,0,.21,8.93c.29,5.82.66,11.58-.59,17.32-1.3,6-4.75,11.2-6.89,16.89-.64,1.7-1.72,3.14-2.48,4.79-.65,1.42-1.31,2.83-2,4.23a5.62,5.62,0,0,1-3.28,2.93c-1.21.59-2.42,1.16-3.65,1.7-.48.2-.14,1,.35.84a40.85,40.85,0,0,0,6.46-2.93c.64-.38,1-2,1.33-2.6.58-1.26,1.11-2.54,1.64-3.81.6-1.47.84-3,1.47-4.48s1.4-2.89,2.08-4.34c1.29-2.73,2.71-5.42,3.87-8.2,4.26-10.13,2.42-21.27,2.36-31.94a.42.42,0,0,0-.31-.4c-1.82-.45-3.39-1.42-5.28-1.76a14.27,14.27,0,0,0-5.25.18c-.17,0-.09.28.07.26Z"/><path class="cls-3" d="M295.87,201.67s0-.07-.07-.09c-.78-.31-.85-.31-1.38.36a46.1,46.1,0,0,0-3,4.47l-.45.75c-.05,0-.13,0-.14.05a2,2,0,0,0,0,.26,23.29,23.29,0,0,0-3.18,8.66c0,.37.59.45.66.09a25.84,25.84,0,0,1,2.24-6.34,38.22,38.22,0,0,0,.42,8.62,17.11,17.11,0,0,0,1.48,5c.36.72.93,1.07.79,1.93a11.2,11.2,0,0,1-.87,3.66c0,.09.08.16.13.08a7.1,7.1,0,0,0,.73-2.24,14.26,14.26,0,0,0,.51-2.25c0-.41-.59-1.11-.77-1.48a15.44,15.44,0,0,1-1.13-3.38c-.84-3.59-.74-7.29-.77-11,.67-1.25,1.4-2.48,2.16-3.69.47-.74.94-1.48,1.42-2.21s1-2,1.23-.06.31,3.91.57,5.85c0,.08.14.06.13,0C296.28,206.38,296.1,204,295.87,201.67Zm-8.8,22a15.94,15.94,0,0,1-1.32,16.21,0,0,0,1,0,0,0c3.5-4.33,4.43-11.49,1.65-16.42A.2.2,0,0,0,287.07,223.65Z"/><path class="cls-7" d="M176.47,239.92c-1.84-5.47,1.86-10.12,5.59-13.65a.18.18,0,0,0-.22-.28c-4.59,3-7.55,8.32-6.41,13.82,1.25,6,7,8.67,12.43,9.73,0,0,.06-.06,0-.07C183,248.29,178.12,244.81,176.47,239.92Zm5.82,3.65s0,0,0,0c3.59-6.47,13.51-1.4,16.65,3,0,0,.09,0,.06,0C195.91,241.12,185.85,236,182.29,243.57ZM227.13,245c0,.05.06.09.08,0,1.6-3.48-2.06-4.86-4.9-4.25a9.6,9.6,0,0,0,.61-1.65.21.21,0,0,0-.38-.16,18.85,18.85,0,0,1-19.44,9.64c-.14,0-.2.18-.06.21,6.32,1.32,15.45-1.27,18.88-7.29a6.37,6.37,0,0,1,3.67-.09C227.27,242,227.55,243.54,227.13,245ZM225,226.28c-.31-.09-.42.36-.13.47,4.44,1.71,7.91,4.88,8.19,9.87.26,4.66-3,9.2-6.68,11.7-.09.06,0,.2.08.15,4.38-2.61,7.74-6.52,7.69-11.85S229.71,227.66,225,226.28Zm-5.52-10.41a71.28,71.28,0,0,1,5.8,9.18,0,0,0,0,0,.06,0c-1.1-3.1-3-5.72-4.57-8.57a28.87,28.87,0,0,1-3.07-10.32c-.89-6.87-.31-13.88-.47-20.78a.08.08,0,1,0-.16,0c-.2,7.15-.7,14.26.1,21.38C217.51,209.65,217.75,213.41,219.49,215.87Z"/><path class="cls-8" d="M190.21,47.1a2.72,2.72,0,0,1,0,.28S190.21,47.23,190.21,47.1Zm74.38,29a2,2,0,0,0-.69.38A2.19,2.19,0,0,0,264.59,76.1ZM88.56,164h0C88.65,164.11,88.65,164.1,88.56,164Zm206-31.74.25-1.23c1.46-1,2.43-2.44,1-3.69-.25-1.49.49-1.23-1-2,2.68-2.94-1-3.23-1.22-5.72-.24-2,3.17-2.93,0-4.71,1.22-1.48,1.22-3-1-3.5,1.71-1.47,1.46-3.46-.74-4,1-1.73,1-5-1.72-3.27-.25-1.76-.49-1.51-1.48-2.78,1.23-1.48,1.72-3.47-1-3.52,1.47-1.72.73-4-1.73-3.28.49-2-.5-4-2.71-2.56l-.5-.76c1.72-1.73,1.22-3.75-1-3.54,1.72-1.73.48-3.27-1.74-2.3,1.23-2,0-3.53-2.23-3.07.48-2.26-.51-3.54-2.48-2.07a22.35,22.35,0,0,0-2.48-1.56c1.72-1.74,1.22-3.77-1.26-3.57,1-1.75,0-3.55-2.25-2.83.25-1-.26-2-.26-3.06-.5.25-1.49.23-2,.47-.5-1.54-1.5-2.32-3-1.84.24-.51.23-1.78.48-2.28-.5.24-1.5-.29-2.24-.31,1.48-2.26-.52-2.81-2.51-1.83,1.23-2.53-.28-3.84-2.51-2.36.48-2.28-1-3.85-2.76-1.85-1.51-1-1.26-1-3-1.34a5,5,0,0,0,.24-1.79,6.68,6.68,0,0,0-2.26-.05c1.23-2.79-1-2.84-3-1.61-.28-2.57-2.28-2.36-2-1.07l-1.52-1.06c-.27-2.58-2.54-2.89-4-1.13-.53-2.06-1.79-2.61-2.77-.58a3.3,3.3,0,0,0-4.06-2.15c.72-2.3-1.05-3.12-2.8-1.62,0-2.83-2.31-2.89-3.81-1.38-.79-2.08-2.31-2.38-3-.33a3.05,3.05,0,0,0-3.55-.61c0-1.81-1-1.83-2.55-.84,0-.77-.53-1.82-.55-2.6-.49.51-2,.47-2.52,1-.8-2.36-2.84-2.93-3.56-.61-1.3-1.33-3.36-2.68-4.08-.37-1.3-1.32-1.3-1.32-3.06-.59-.3-2.35-2.09-2.39-3.07-.34-1.05-1.58-2.33-1.88-3.06.18-.52-.53-1.54-.56-2.06-.83a2.45,2.45,0,0,0-.23,1.29l-.75.5c-.83-3.13-4.18-4.26-5.91-1.45-1.31-1.59-2.85-1.63-3.57.43-1.06-1.32-1.82-1.08-3.12-1.64a3.13,3.13,0,0,1-.22,1.56c-1.3-1.08-2.59-1.11-3.58.17-.32-2.35-2.61-1.63-3.59.17-1.08-2.12-2.87-1.64-3.33.69-1.59-2.12-3.65-1.91-3.58.69-.79-.54-2.07-.31-2.85-.59,0,.52.3,1.57.32,2.09a2.93,2.93,0,0,0-4.37.68c-1.35-2.38-3.09-.08-3.29,2-1.61-2.39-3.4-1.65-3.34.7-1.83-1.09-2.85-.59-2.53,1.5-.79-.28-1.81,0-2.34-.32l0,1.57A3.2,3.2,0,0,0,144.05,51a3.93,3.93,0,0,0-.81-1.06c-.49.77-1.52,1-1.75,2-1.84-1.08-3.13-.85-2.8,1.5a5.42,5.42,0,0,0-2.07,0,3,3,0,0,0,.33,2.09l-1,.76a7.65,7.65,0,0,0-4.16-.36c.28.53.56,1.32.84,1.84-1.84-.56-3.62.18-4.08,2-1.63-2.12-3.89.17-3.29,2.53-1.31-.29-2.33.2-3.11.19a2.94,2.94,0,0,1,.57,1.31c-2.09-.31-3.86,1-2.22,3.33-1.57-.3-2.85.2-3,1.75-1.86-1.08-3.12-.06-2.27,2-2.35-.31-3.34,1-1.71,2.82-2.08,0-3.36.45-2,2.55-1.81.22-1.53.74-2.54,1.5-1.85-.81-2.33.21-1.74,2a5.45,5.45,0,0,0-2.08,0c.54.52.84,1.56,1.11,1.83-2.33.21-1.27.75-.7,2l-.48,1c-1.82,0-2.82,1.24-2.74,3a3.35,3.35,0,0,0-3.2,4.58c-1.82,0-3.07,1.24-2.21,3.31-2.35-.29-3.35.72-2,2.8l-.77.51a3.25,3.25,0,0,0-1.55.23l2.17,2.09a4.34,4.34,0,0,0-2.49,2.79c-1.87-1.32-3.33,1-2.47,3-.78,0-1.52.75-2,.74a8.48,8.48,0,0,0,1.13,2.07,4.76,4.76,0,0,0-2.05.74c.8.52,1.11,1.55,2.17,2.08-1.8.49-2.53,1.5-2.21,3-2.62-.55-3.29,2-1.4,3.82-.77,0-1.26.75-2,.74.54.51.84,1.54,1.39,2.06-2.32.48-.67,2.54,1.16,3.07a13,13,0,0,1-1,2c-2.88-.8-3,2.26-1.63,4.06-2.32.48-2.77,2-1.15,3.54-.25.25-.75.5-1,.75,1.33.78,1.09,1.29,2.91,1.56A2.56,2.56,0,0,0,83,141.18c-2.85-.28-2.2,2.77.17,3.8-2.83.23-3,2.51-.6,4-1.24,1.26-.17,2,1.64,2-.23.75-.43,2-.67,2.52-1.5,1-2,2.5-.11,3.53-2,1-2,2.5-.09,3.77-1.48,1.5-.41,2.51,1.66,2.53,0,.25-.43,2-.41,2.5-2.6-.52-1.71,2.25.38,2.77-2.56.48-1.94,2.74.15,3.5-1.74,1.5-1.16,3,1.4,2.76a11.43,11.43,0,0,0-.38,3c-2.28.74-1.41,3,.42,4-1.56.88-1.26,2.17.31,3.15l.08-.16c-.42-1.43.28-2.65,1.86-2.52a1.55,1.55,0,0,1,.18-2.76c-1.12-1.17-1-2.86.57-3.44-1.36-.88-1.47-2.76.13-3.3-1.24-1.25-.71-2.73.89-3.21-1.56.3-4.33-1.27-2.37-2.57-1-1.06-1.62-3.16.36-3.13-.36-.32-.46-.8-.74-1.08.62-.2,1.19-.73,1.92-.79-1.82-.58-1.46-2.38-.06-2.91-1.64,0-2.48-1.51-1.21-2.59-2.62.17-1.35-3.77.18-3.3-1.19-1-.17-2.52,1.39-2.47-1.26,0-3.08-1.19-1.64-2.1-1.65-.4-2.69-2.47-.64-3a1.69,1.69,0,0,1,1.43-3c-1.73-.88-.71-2.1.65-2.55-1.47.14-1.92-1.08-1-2-2.31.17-2.46-3-.18-2.83-1.92-.82-1.68-4.34.5-2.89-.77-1.21-.42-2.49,1.14-2-.25-1-.15-2.11.89-2.5a2.35,2.35,0,0,1-1.75-1.42c.64-.19.91-.66,1.73-.6-1.52-.88-2.08-3.2.33-2.79-1.13-1.47,0-2.71,1.57-2.08a4.19,4.19,0,0,0-.12-1.65,10.16,10.16,0,0,0-1.22-.09c-.22-1.07.34-1.56,1.43-1.52-1.12-1.19-1.18-3,.87-2.8-1.56-1.15-1-3,.57-2.28a1.32,1.32,0,0,1,2.22-1.31,11.09,11.09,0,0,1,.68-1.48c-1.19-.81-1.53-2.24.38-2-1.26-.94-1-2.81.72-2.54-.3-1.24,0-2.46,1.47-2.21a3.43,3.43,0,0,0,0,.65c.32-1.2,1.49-2.4,2.49-2.23a1.61,1.61,0,0,1-1.11-2c.35.16.88.19,1.31.41-.93-1.43-1-3.81,1.16-3-.67-1.57.49-4.27,2.28-2.85a2.22,2.22,0,0,1,2.48-1.79c-1.57-.91-1.25-2.66.7-2.24-.92-1.29-.51-3.42,1.26-2.09a2.28,2.28,0,0,1,2.71-2.65,6.53,6.53,0,0,1-.5.89,6.41,6.41,0,0,1,2.73-2.18c-1-.37-1.21-.82-1.24-1.79.37.05.85-.08,1.22-.06-.6-1.19-.47-2.57,1.21-2.3a9.76,9.76,0,0,1,.17-3c.31.2,1,.28,1.29.5,0-.92,0-1.88,0-2.81.58.19,1.43,0,2,.25a2.44,2.44,0,0,1,2.52-2.21c0,.38.14.44.1.72a3.3,3.3,0,0,1,2.9-2.3c-1.27-1.75.22-2.48,1.81-1.76-.77-1.58.19-2.58,1.79-1.84.1-1.49,2.73-4.13,3.29-1.73a2.38,2.38,0,0,1,3.08-1.44c0-.45.34-1.16.23-1.74.21,0,.47.15.69.2-.25-.48-.06-1.2-.23-1.74a3.71,3.71,0,0,1,2.76,0c.29-1.58,3.59-3.76,2.66-1.29,2-1.19,5.78-2.71,7.53-5,.42.14.86.33,1.27.48-1.41-2,.44-3.09,1.82-1.25-.42-1.88,2.12-3.14,2.52-1,.61-1.31,2.12-1.6,3.49-1.38-.65-.47-.79-1.09-1.23-1.57.7.23,1.28,0,2,.44-.08-.41.12-1,0-1.43.72.29,1.31.1,2,.77.48-2,2.28-1.76,2.29.06a2,2,0,0,1,3.55-1,8.6,8.6,0,0,1-.42-1.51,3.35,3.35,0,0,1,2.8,1,7.57,7.57,0,0,1-.27-2.5c1.35-.35,2.21.74,2.52,1.83.34-2.4,3.57-3.07,2.86,0a1.82,1.82,0,0,1,3-.64c-.08-.45.14-1.06,0-1.51a2.81,2.81,0,0,1,2.31,1,4.64,4.64,0,0,1,.23-2.23,3.09,3.09,0,0,1,2,1.52c-.15-2,2-1.9,2.16.1a5,5,0,0,1,2.94-1.17,6,6,0,0,1,.33,2.23c.71-1.33,2.54-1.72,2.59-.06a.86.86,0,0,0,0-.27,5.05,5.05,0,0,1,3,.53c-1.27-2.36,1-2,1.83-.25-.15-2.43,2.54-1.54,3.36,0,.52-2.16,3.47-2,3.08.6,1.38-.74,4.46-1.21,3.09,1.17.61-1.37,2.36-1.1,3.06.16-.75-2,1.92-2.12,2.3.18,1.33-2.55,3.86-1.4,4.07,1.2,1.58-1.2,5.95-1.27,3.53,1.26a2.67,2.67,0,0,1,3.76.38c-.82-2.21,1.28-1.89,2.05-.21,1.1-3.75,3,1.27,3.53,1.49,1,.43,4.42-2.19,3.15,1.3,1.73-.95,4.47-.73,2.79,1.85a2.19,2.19,0,0,1,3.16,1.06c.22-2,2.14-1.63,2.35.37,1.81-1.13,4.8-1.41,3.56,1.8,2.13-.81,4.54-1.25,2.73,1.65,1.81-.47,3.26-.38,3.44,1.82.28-2.44,2.42-1.23,2.11.86,2.33-1,3.87-1.76,3,1.79a2.85,2.85,0,0,1,2.18-.59c-.19.83.06,1.23-.67,1.89.49-.42,1.06-.35,1.67-.59a2.81,2.81,0,0,1-.09,3.29c1.19-.62,2.32,0,2.92,1.22a3.34,3.34,0,0,0,0-.64c1.5-.07,1.36,1.51,1.27,2.71,2.86-2.34,3-1,2.94,2.09.63-.87,1-.53,2-.61a1.88,1.88,0,0,1-.73,1.55,11.58,11.58,0,0,1,1.31-.28,3.11,3.11,0,0,1-.49,2.71c.75.13,1.48.42,2.16.56,1-1.8,1.89.37,2.35,1.57,1.49-1.27,2.23.67,1.22,2,.53-.38.86-.18,1.42-.36-.19.83.1,1.22-.61,1.94,1.39-1.08,2.58-.2,2.13,1.49,1.29-.46,1.55.92,1.95,1.87.07-.24,0-.46.08-.69,1.68-.27,1.9,1.6,1.75,2.92.34-.24.87-.22,1.14-.36a5.66,5.66,0,0,1,.59,3.23,5.06,5.06,0,0,1,1.42-.56,3.19,3.19,0,0,1,.07,3c1.68-1.93,2.52.75,1,2.13,2.1-.38,2.36,1.73.48,2.31a2.33,2.33,0,0,1,1.47,1.63c1.38-2.2,2.31.18,1.44,1.82.36,0,.82.13,1.17.09a2.4,2.4,0,0,1-1.22,2.59c1.62-1.14,1.88,1,1.1,2.1.25-.26.86-.5,1.14-.77a3.45,3.45,0,0,1,.78,2.76c1.43.57,1.08,2.41-.26,2.92,1.71-.7,2.41,1.21.79,2.06,2.14.34,2.36,2.45.44,3.29a4,4,0,0,1,.95,3.16,6,6,0,0,1,.77-.38,5,5,0,0,1-.29,3.84,3.45,3.45,0,0,1,.46-.13c.68,1.17-.14,2.08-1.33,2.19,2.14.35,1.24,2.14-.24,2.72,1.51,1,1,2.65-.73,2.89,1.73.49,1.43,1.92.71,3,.5-.57,1.05-.41,1.62-.66a3.06,3.06,0,0,1-.17,2.63c1.92.47.4,2.16-.93,2.23,1.71.17,1.69,1.66.19,2.29,1.55,1.2-.15,2.18-1.22,2.82,1.34-.2,1.76.79,1.49,2,2,.52.72,2.1-.5,2.81,1.19.73.36,1.8-.91,2.13,1.86.44.22,2-.29,2.89,3.26.61-.3,16.9-.72,19.77a43.75,43.75,0,0,0,.26,11.09c.15,1.36.29,2.71.43,4.06a173.59,173.59,0,0,1,1.48-18.77c1.2-8,2.16-18.77,2.16-18.77,1.94-.72,2.18-2.67,1-4.15.73-1.72,3.15-4.39.72-5.64,1-1.22,1.22-2.2,0-3.45,1.46-1,1.7-1.95,0-2.71C296.52,135,297,132.78,294.57,132.26Z"/><path class="cls-9" d="M132.81,101.25a29,29,0,0,0-8.55,8c-.73,1-1.43,2-2.08,3a1.18,1.18,0,0,0-.23.39c-.31,1.27.09,3.14.11,4.48a227.93,227.93,0,0,1-.78,24.69c0,.52-.1,1.05-.16,1.57,0,.36-1.24,1.25-1.51,1.55a25.76,25.76,0,0,0-1.77,2.14,54.52,54.52,0,0,0-6,10.67A76.49,76.49,0,0,0,105.88,178c-.75,5.56.22,11.5.76,17.07q.44,4.49,1,8.95c.07.66.15,1.31.22,2,.18,1.49-2.33,3.28-3.44,4-.18.13-7.73-13.18-8.38-14.37q-1.9-3.47-3.78-7c-.22-.39-.43-.78-.64-1.17-.59-1.11-3.47-.6-4.32-.43-.09,0,0,.15,0,.13,1.32-.27,3.62-.64,4.41.82.34.65.69,1.3,1,1.95q1.94,3.58,3.9,7.16c2.4,4.37,4.65,9,7.56,13.08a.09.09,0,0,0,.12,0c1.34-.85,3.86-2.66,3.66-4.45q-.39-3.3-.73-6.62c-.65-6.27-1.62-12.79-1.34-19.1.3-6.77,2.68-13.7,5.14-19.91a60.85,60.85,0,0,1,5.66-11,34.73,34.73,0,0,1,3.71-4.67c.53-.56,1-.73,1-1.46.69-6.72.91-13.54,1-20.36q0-4.23-.11-8.46A4.24,4.24,0,0,1,123.4,111a31.18,31.18,0,0,1,9.55-9.48C133.09,101.39,133,101.17,132.81,101.25ZM87.52,185.31c-1-.53-3.14-1.77-.91-3.26a.14.14,0,0,0,0-.23c-1.43-.89-2.66-2.83-.42-3.76a.14.14,0,0,0,.06-.12,12.26,12.26,0,0,1,.38-3,.14.14,0,0,0-.13-.17c-1.33.05-2.25-1.62-1.3-2.53a.13.13,0,0,0,0-.21c-1.72-.74-2.35-2.66-.19-3.31a.09.09,0,0,0,0-.17c-1.38-.44-2.92-2.93-.4-2.59a.09.09,0,0,0,.08-.09c0-.84.33-1.64.41-2.48a.09.09,0,0,0-.09-.11c-1.37.17-1.89-.62-1.58-2.37a.1.1,0,0,0,0-.14c-1.45-1.12-1.33-2.79.1-3.59a.13.13,0,0,0,0-.22c-1.17-1.53-1.14-2.63.11-3.31a.16.16,0,0,0,.07-.07c.3-.82.44-1.68.66-2.52a.15.15,0,0,0-.14-.18c-1.19.2-1.71-.4-1.54-1.81a.12.12,0,0,0,0-.19c-.87-.62-1.72-1.36-1.58-2.53.12-1,1.4-1.19,2.16-1.29a.12.12,0,0,0,0-.22c-1.42-.72-3.55-3.72-.22-3.62,0,0,.1,0,.07-.1a2.55,2.55,0,0,1,1.1-3.7.08.08,0,0,0,0-.15c-1.13-.23-3.27-1-1.85-2.15a.1.1,0,0,0,0-.15c-1.31-1.41-.74-2.87,1.11-3.35a.12.12,0,0,0,.07-.19c-1.1-1.61-1.39-4.5,1.51-3.88a.14.14,0,0,0,.13,0,11.35,11.35,0,0,0,.94-2,.11.11,0,0,0-.07-.16c-.7-.24-4-2.06-1.17-2.9.06,0,.07-.08,0-.13-1.21-1.46-1.47-2.32.63-2.67.06,0,.06-.09,0-.12-1.49-1.63-1.25-4,1.35-3.69a.07.07,0,0,0,.08-.08c-.24-1.66.65-2.51,2.14-3,0,0,0-.07,0-.09-1-.63-.73-.6-1.47-1.42-.89-1,.51-1.2,1.35-1.3a.05.05,0,0,0,0-.09c-1.28-1.6-1.15-2.38.9-2.7.05,0,.07-.06.06-.1l-.24-1c-.15-1.4.71-2,2.58-1.93a.1.1,0,0,0,.14,0,4.93,4.93,0,0,1,2.41-2.78s0-.1,0-.07a5.93,5.93,0,0,0-2.14,1.8c-.62.92-1.07.37-2,.67-.74.23-1,1.18-1.11,1.83a2.71,2.71,0,0,0,.08,1.06c.2.61-1.56,1.11-1.82,1.17,0,0-.06.06,0,.11a9.4,9.4,0,0,0,.85,1.71c.13.17-1.61,1-1.73,1s0,.06,0,.08c.61.51,1,1.36,1.7,1.79.37.24-1,.91-1.19,1.05a2.13,2.13,0,0,0-.67,1.37c-.14.81-.49.67-1.21.81a1.73,1.73,0,0,0-1.18,2,3.12,3.12,0,0,0,.74,1.58c.37.51-1.59,1-1.66,1s-.07.09,0,.13c1,1.27,1.26,1.56.36,2.5-.42.43.07,1.15.35,1.51.51.65,1.87.83,1.49,1.71-.24.57-.28,1.23-1,1.18a2,2,0,0,0-1.17.13,1.88,1.88,0,0,0-.94,1.6c0,.55.77,2.45.33,2.58-.63.17-1.56.75-1.58,1.51,0,1.13,1.11,1.77,0,2.67,0,0,0,.13,0,.16a18,18,0,0,0,1.88,1.3c.94.43.4.44-.12,1.1a2.32,2.32,0,0,0-.38,1.36c-.07,1,.31,1.23-.77,1.55a1.28,1.28,0,0,0-.73,1.54,3,3,0,0,0,.67,1.3c.61.64,1.28.62.39,1s-1.58,1-1.3,2a3.54,3.54,0,0,0,.85,1.43c.59.66.34.59.28,1.32-.08.94.83,1.33,1.7,1.38s-.29,2.39-.59,2.62a2.54,2.54,0,0,0-1,1.52c-.29,1.18,1.44,1.42.28,2.37s-.42,2.09.39,2.89-.84,1.6.11,2.32a3.13,3.13,0,0,0,1.56.58c.75.12.14,1.74.08,2.19,0,.08-1.42.26-1.6.84-.27.9.94,1.79,1.61,2.13-.4-.2-1.35,1-1.35,1.4a2.15,2.15,0,0,0,.44,1.28c.48.69,1.41.66.72,1.53-.82,1-.11,1.95,1,2.22.61.15,1-.1.83.65a14,14,0,0,0-.19,1.45c-.08.9-1.14,1.19-1.37,2.12a2.41,2.41,0,0,0,.71,1.87c.66.85.88.47.35,1.31a1.36,1.36,0,0,0-.18,1.46c.84,1.45,2.06,1.25.64,2.91-.11.13.09.32.19.19.42-.49.81-1,1.22-1.49A.14.14,0,0,0,87.52,185.31Zm6.64-86.37s0,0,0,0a3.55,3.55,0,0,0-1.55.23s0,0,0,0A3.48,3.48,0,0,1,94.16,98.94Zm2.73-3.26a0,0,0,0,0,0-.06c-.61-1.83.24-3.18,2.16-3.19a.1.1,0,0,0,.1-.13,3.31,3.31,0,0,1,3.1-4.42.15.15,0,0,0,.14-.14c0-1.68.79-2.81,2.6-2.91a.14.14,0,0,0,0-.28,2.71,2.71,0,0,0-2.2.9c-.64.89-.39,2-1.61,2.29a3.49,3.49,0,0,0-2.21,2c-.21.41-.06,2.48-.42,2.55a2.38,2.38,0,0,0-1.93,1.43c-.38.85.52,1.7-.77,1.86a2.5,2.5,0,0,0-.68.17A4.76,4.76,0,0,1,96.89,95.68Zm-2.44,1.78a2.24,2.24,0,0,0,.36.79A4.54,4.54,0,0,1,94.45,97.46Zm.4-1.57a1.27,1.27,0,0,0-.4,1.57A2,2,0,0,1,94.85,95.89Zm.09,2.54-.13-.18a1.74,1.74,0,0,0,.1.19S95,98.44,94.94,98.43Zm-.09-2.55h0a1.33,1.33,0,0,1,.36-.17A1.17,1.17,0,0,0,94.85,95.88Zm38.09-40a7.39,7.39,0,0,1,3,.48c.11,0,.15-.13,0-.17a8.21,8.21,0,0,0-4.19-.34.07.07,0,0,0,0,.11c.42.92,1,1.61-.19,1.48a3.36,3.36,0,0,0-2,.54,2.84,2.84,0,0,0-1,1.19c-.17.3-1-.28-1.21-.37-.95-.31-1.73.71-2.09,1.38a3.26,3.26,0,0,0-.26,1.55c0,.42-2.65.59-2.89.61a.12.12,0,0,0-.11.19c1,1.38-.13,1-1.11,1.27a1.72,1.72,0,0,0-1.12,1.05,2.34,2.34,0,0,0,.24,1.8c.07.11-1.62.42-1.87.63s-.79,1.32-1.19,1.19-1.23-.37-1.68,0a1.48,1.48,0,0,0-.54,1.42c.18,1.08-1.08.75-1.81,1.21a1.13,1.13,0,0,0-.46,1c.11.75.87,1.37,0,1.49-1.27.18-2.22.88-1.4,2.27.09.15-1.27.86-1.46,1-.72.74-1.41.24-2.27.58a1,1,0,0,0-.48.93c0,1.39-.37,1.17-1.73,1.27-.07,0-.1.08,0,.15.63.77,1.37,1.6.19,1.86a.85.85,0,0,0-.46.26c-.27.48.53,1.33.73,1.71,0,0,0,0,0,0-.47-1-.85-1.8.7-2,0,0,.09-.06.06-.1a8.09,8.09,0,0,1-.56-1c-.52-1.07.54-.81,1.44-.62.09,0,.16,0,.13-.13-.3-1.14.22-2.39,1.6-1.86a.16.16,0,0,0,.12,0c1-.56,1.24-1.26,2.51-1.47a.16.16,0,0,0,.09-.24c-1.11-1.89.27-2.3,1.85-2.31a.16.16,0,0,0,.14-.25c-.74-.7-.69-1.54.13-2.52a3.93,3.93,0,0,1,1.45-.05.15.15,0,0,0,.14-.2c-.56-1.66.49-2.63,2-1.86a.15.15,0,0,0,.22-.09c.35-1.55,1.49-1.83,2.91-1.64.12,0,.18-.13.13-.23-1.26-2,.13-3.29,2.09-3.12.1,0,.14-.08.12-.16s-.42-1.17-.27-1.18a12.73,12.73,0,0,1,2.7-.16.12.12,0,0,0,.12-.13,3,3,0,0,1,0-1.53q.51-2.3,3.06-.9a.14.14,0,0,0,.23-.06c.62-1.8,2.13-2.32,3.92-1.9a.13.13,0,0,0,.14-.19C132.35,57,131.43,56,132.94,55.9Zm47.82-15.64c.05-.15.24-1.33.45-1.25a5.2,5.2,0,0,1,2.54,1.44.22.22,0,0,0,.35,0,1.93,1.93,0,0,1,3.2-.36.26.26,0,0,0,.41,0c1.79-2.5,4.5-1.33,5.37,1.38.13.41.75.26.62-.16-.84-2.64-4.25-4.73-6.15-1.94,0,0-2.27-1.17-3-.48s-.51,1-1.32.56a14.63,14.63,0,0,0-2.42-.9.17.17,0,0,0-.23.18c0,1.78-1.43.21-2.49.66-.58.24-.9.88-1.22.15a1.55,1.55,0,0,0-.58-.61c-.68-.5-1.66.09-2.18.48-.1.08-.67,1-.86.65a2.1,2.1,0,0,0-1.08-.89,1.52,1.52,0,0,0-1.72.67c-.4.65-.3,1.26-1,.55a2.87,2.87,0,0,0-1.22-.64,1.42,1.42,0,0,0-1.6.76s-.26,1.26-.47,1.16a12,12,0,0,0-2.46-.39c-.09,0-.2,0-.19.14,0,.33.34,1.78.09,1.63a3.74,3.74,0,0,0-1.56-.42c-.65-.07-2.4,1.11-2.62.91a1.41,1.41,0,0,0-2-.22,3.28,3.28,0,0,0-.88,1.23c-.41.8-.08,1.38-.9.56a1.71,1.71,0,0,0-2-.37c-.47.22-.78,1.84-1.07,1.72-.78-.31-1.5-.5-2.07.16a1.55,1.55,0,0,0-.24.78c0,1.1-1.25.77-2.09.52a.15.15,0,0,0-.19.15c.06,2-.88.81-2.24,1.38s-1.27,1.63-2.36.5a.13.13,0,0,0-.2,0c-.45.55-1.34,1-1.6,1.65-.17.47-1.58-.35-2-.23a1.08,1.08,0,0,0-.9.81c-.25,1.34-.66,1.18-2,1.27a.09.09,0,0,0-.09.06,3.63,3.63,0,0,0,.36,2.13c0,.07.14.05.11,0-.61-1.76.06-2.27,1.67-1.92a.11.11,0,0,0,.13-.1c-.16-1.87,1.36-2.09,2.63-1.39a.12.12,0,0,0,.18-.07,2.82,2.82,0,0,1,1.11-1.34c.65-.52.66-.52,1.21.39a.15.15,0,0,0,.24,0,3.2,3.2,0,0,1,3.93-1.4.14.14,0,0,0,.19-.14c0-1.62.5-1.47,2.1-1.09a.16.16,0,0,0,.2-.16c-.15-1.48,1.13-2,2.29-1.35a.17.17,0,0,0,.26-.15l.12-1c1.16-1.21,2.11-1.08,2.87.38.09.13.34.15.37,0,.12-.74,1.19-4.45,2.91-2,.08.11.25.17.34,0a2.85,2.85,0,0,1,4.1-.65.21.21,0,0,0,.32-.17c0-.45-.17-.88-.26-1.33-.24-1.16,2.34-.12,2.5,0a.16.16,0,0,0,.24-.13c-.16-1.3.57-1.85,2.2-1.65a4.52,4.52,0,0,1,1.1,1.08.18.18,0,0,0,.29-.08c.4-1.5,2-2.24,3-.65a.2.2,0,0,0,.34,0c.67-1.06,2.71-2.63,3.23-.23a.2.2,0,0,0,.33.1,2.34,2.34,0,0,1,3.35-.15A.19.19,0,0,0,180.76,40.26Zm13.52.56c0-1.48,1.16-1,2.08-.34a.15.15,0,0,0,.2,0c.65-1.52,1.85-1.47,2.79-.18a.17.17,0,0,0,.29,0c.66-1.16,2.43-1.3,2.73.3a.2.2,0,0,0,.24.14,2.14,2.14,0,0,1,2.86.56c.09.09.29.09.34,0,.85-2.06,2.72-.57,3.72.41a.23.23,0,0,0,.39-.09c1.12-2.85,2.67-.51,3.11.59a.26.26,0,0,0,.36.16,9.79,9.79,0,0,1,2.19-.76s.5,2,.51,2.17a.26.26,0,0,0,.37.22c.65-.4,2-1.39,2.18.62a.25.25,0,0,0,.31.24,3.24,3.24,0,0,1,3.36.58.24.24,0,0,0,.34-.08c.53-1.21,2.1-.82,2.62.32a.24.24,0,0,0,.37.06c1.4-1.28,3.25-1.17,3.4,1.2,0,.17.21.34.37.22a3.24,3.24,0,0,1,1.22-.67c1.25.34,1.65,1,1.19,2a.28.28,0,0,0,.33.34,3.23,3.23,0,0,1,3.76,2,.26.26,0,0,0,.45,0c.79-1.41,1.86-.93,2.29.51a.27.27,0,0,0,.45.13c1.39-1.42,3.15-1.18,3.59,1,.06.29.55.24.51-.06-.35-2.56-2.51-3.09-4.19-1.61-.68-1.66-1.84-2.06-2.87-.6a3.59,3.59,0,0,0-3.72-2,2,2,0,0,0-.68-2.14,1.7,1.7,0,0,0-1.25-.11c-.7.1-.91.87-1.11-.09a1.94,1.94,0,0,0-1.62-1.55,3.26,3.26,0,0,0-1.44.29c-1,.42-.43.59-1.23-.28-.49-.54-1.33-1.13-2-.54s-.58.94-1.48.56a2.85,2.85,0,0,0-1.79-.26c-1.07.23-.69-.81-1.6-1.21a1.69,1.69,0,0,0-1.17.19c-1,.48-.93-1.13-1-1.91,0-.17-.21-.33-.37-.22-.68.47-1.6.33-2.25.78a6.35,6.35,0,0,0-1-1.43,1.6,1.6,0,0,0-2.45.23c-.43.72-.49.39-1.09-.08a3.5,3.5,0,0,0-1.9-.78,1.47,1.47,0,0,0-1,.51c-.58.53-.43.44-1.13-.11a1.22,1.22,0,0,0-1-.17c-1.07.3-1,.19-1.54-.75a1.33,1.33,0,0,0-2-.19c-.51.5-.62,1-1.26.37a1.6,1.6,0,0,0-1.15-.52,1.33,1.33,0,0,0-1,.56c-.62,1-1.41.45-2.39.08a.13.13,0,0,0-.17.09,3.36,3.36,0,0,0-.23,1.33A.14.14,0,0,0,194.28,40.82ZM244.64,53.4,245.7,53a3,3,0,0,1,.58,1.54.21.21,0,0,0,.31.13c1.45-.83,3.64-1.07,2.71,1.36-.06.16.12.29.26.27,1.6-.3,2.33-.14,1.76,1.57a.22.22,0,0,0,.15.26,6.52,6.52,0,0,1,3,1.33.21.21,0,0,0,.25,0c1.38-1.38,2.67-.13,2.42,1.63,0,.18.14.35.3.25a3.47,3.47,0,0,1,1.59-.6c1,.83,1.26,1.71.63,2.65a.23.23,0,0,0,.3.31,3.84,3.84,0,0,1,1.63-.43c1.11.53,1.3,1.19.58,2a.23.23,0,0,0,.19.34,7.47,7.47,0,0,0,1.95.36,13.22,13.22,0,0,0-.41,1.93.24.24,0,0,0,.28.29,2.26,2.26,0,0,1,2.71,1.68.25.25,0,0,0,.29.17,11.23,11.23,0,0,1,1.63-.34c.22-.05.34,2.47.31,2.69a.25.25,0,0,0,.31.24,1.66,1.66,0,0,1,2,2.46.27.27,0,0,0,.22.4c.94-.14,1.6.4,2,1.62a3.22,3.22,0,0,1-.9,1.5.28.28,0,0,0,.05.42,24.67,24.67,0,0,1,2.5,1.54.23.23,0,0,0,.24,0c.61-.57,1.33-.51,2.16.16a3.55,3.55,0,0,1,0,1.62.27.27,0,0,0,.32.33c1.9-.27,2.84,1,1.92,2.66-.11.2.07.51.32.43.94-.54,1.42.07,1.45,1.8a.31.31,0,0,0,.21.52c2.24,0,1.66,2,.8,3-.22.26.14.65.38.4,1.41-1.51,1.5-3.72-.62-4,1-1.59,0-2.85-1.8-2.47.62-1.8-.49-3-2.43-2.92a2.65,2.65,0,0,0-.55-2.41c-.87-.83-2,.47-3-.2-1.19-.8-1.21-.64-.62-1.81a2.09,2.09,0,0,0,.17-1.33A2,2,0,0,0,272,74.89a2.32,2.32,0,0,0-.37-2.52,2,2,0,0,0-1.26-.46c-.05,0-.75.2-.7-.2a14.19,14.19,0,0,0-.34-2.44A.24.24,0,0,0,269,69c-.42.15-1.63.62-1.91.1a3.4,3.4,0,0,0-1.19-1.38,2,2,0,0,0-1.4-.2,6.37,6.37,0,0,1,.28-1.88c.06-.17-.12-.31-.27-.28-1.14.2-1.9,0-1.52-.94a1.26,1.26,0,0,0-.15-1.16,2.37,2.37,0,0,0-2.64-.21c.33-.94.48-2-.47-2.64a2,2,0,0,0-1.57,0c-1,.28-.47-.4-.77-1.32a1.51,1.51,0,0,0-2.57-.44c-.45.45-1.5-.54-2-.72s-1,0-.89-.75a6.4,6.4,0,0,0,.06-1.07.22.22,0,0,0-.21-.22c-.29,0-1.94-.08-1.86-.3a1.91,1.91,0,0,0,0-1.57c-.55-.95-1.94-.49-2.66-.21s-.66-.18-1-.83a1.49,1.49,0,0,0-1-.74c-.68-.14-1,.56-.91,1.13C244.31,53.62,244.65,53.64,244.64,53.4Zm38.71,38.79c1.81-1,2.73.7,2.43,2.33a.19.19,0,0,0,.23.24c2.23-.48,2.57,1.6,1.52,3-.09.12,0,.27.16.28,2.15.17,1.78,2,.85,3.19a.2.2,0,0,0,0,.28,5.11,5.11,0,0,1,1.42,2.69.2.2,0,0,0,.29.12c2.48-1.39,2.11,1.71,1.45,3a.2.2,0,0,0,.12.28c2.05.65,2,2.34.65,3.67a.21.21,0,0,0,.09.34c1.58.48,1.76,2,.86,3.19a.21.21,0,0,0,.07.28c1.74,1.08.94,2,.23,3.19a2.44,2.44,0,0,0-.26,1.76c.39,2.27,3.42,2.56,1.22,5.16a.21.21,0,0,0,0,.32c.9.48.78,1,.88,1.81.24,2.08.33,2.53-.91,3.56-.17.14.05.43.23.31,1.1-.7,2-1.66,1.71-3-.14-.69-.72-1-.67-1.82a.76.76,0,0,0-.31-.74c-.79-.66.56-1.38.33-2.35-.32-1.33-1.71-2-2.13-3.3-.47-1.47,1.28-2.25,1.3-3.61a1.57,1.57,0,0,0-.55-1c-.75-.81-.24-1,0-2a1.83,1.83,0,0,0-1.37-2c-.14-.05.52-1.15.61-1.37a1.91,1.91,0,0,0-.11-1.55,2.71,2.71,0,0,0-1.27-1.07c-.48-.23,0-.83.1-1.24.17-.65.3-2-.43-2.48-1.05-.62-1.56.64-2-.8a3.13,3.13,0,0,0-.7-1c-.66-.72.07-1.06.3-1.8A1.65,1.65,0,0,0,289.1,98c-.54-.37-1.21,0-.76-.77a2.42,2.42,0,0,0,.24-1.63,1.82,1.82,0,0,0-2.12-1.29c-.18,0-.31-2.16-.86-2.57a2,2,0,0,0-2.45.13C282.93,92,283.13,92.32,283.35,92.19Zm11.27,39.91a.17.17,0,0,0-.09.32c2.34.67,1.16,2.66-.28,3.39a.17.17,0,0,0,0,.29c1.35.71,1.11,1.61,0,2.42a.16.16,0,0,0,0,.26c1.2,1.42.76,2.16,0,3.24a.18.18,0,0,0,.06.23c2.19,1.39-.08,3.9-.79,5.41a.2.2,0,0,0,0,.17c1.08,1.5.87,3.12-.9,3.92a.19.19,0,0,0-.09.15c-.66,7.35-1.7,14.61-2.57,21.9-1.18,9.85-.76,19.78-2.08,29.54-.22,1.67-.48,3.33-.75,5l-.12.7c-.44-3.21-.87-6.43-1.32-9.65-.68-4.95-1.37-9.89-1.83-14.88a127.3,127.3,0,0,0-1.72-13.3,38.49,38.49,0,0,0-1.18-4.49,37.67,37.67,0,0,1-1.51-3.78c-.33-1.64-1.42-2.93-1.4-4.68q.06-5.4,0-10.81c-.09-5.82-.33-11.65-.82-17.49-.43-5.1-.93-10.42-2.56-15.34a.11.11,0,0,0-.22.06c2,6.94,2.5,14.22,2.9,21.33.38,6.48.48,13,.46,19.42a18.35,18.35,0,0,0,0,4c.3,1.29,1.11,2.31,1.37,3.59a7.08,7.08,0,0,0,.67,1.58,26.71,26.71,0,0,1,1.29,3.64c2.56,8.83,2.49,18.36,3.74,27.34q1,7.22,2,14.4c0,.15.25.21.28,0a150.06,150.06,0,0,0,2.1-21.1c.21-5.24.51-10.5,1.14-15.73.57-4.71,1.28-9.4,1.79-14.14.19-1.69.36-3.39.52-5.09.05-.5.1-1,.14-1.5.07-.68.19-.44.8-.84a2.53,2.53,0,0,0,.85-2.73c-.21-1-.62-1.18-.07-2.16a11.27,11.27,0,0,0,1.16-2.52c.33-1.26-1.07-1.81-.44-2.87.71-1.22-.75-2.32.17-3.18a1.17,1.17,0,0,0,0-1.79c-.76-.59.13-.81.61-1.34a2,2,0,0,0,.47-1.38C296.36,132.72,295.31,132.3,294.62,132.1ZM179.1,85.75a8.87,8.87,0,0,1-2.78-.59.1.1,0,0,0-.15.08c-.09,1.42-1.06,1.43-2,.61a.18.18,0,0,0-.29.07c-.38,1.31-1.53,1.51-2.51.39a.17.17,0,0,0-.26,0c-.3.69-1.53,3.28-2.72.5a.18.18,0,0,0-.18-.14c-.77,0-1.52.17-2.29.22a.17.17,0,0,0-.17.13c-.31,1.73-1.58,2.11-3,1.39a.15.15,0,0,0-.23.17c.51,1.72-1.08,2-2.26,1.09-.09-.06-.23-.06-.25.07-.18,1.08-.66,3.2-2.76,1.4a.17.17,0,0,0-.21,0,2.7,2.7,0,0,1-2.41.45.17.17,0,0,0-.21.12c-.48,1.32-1.32,1.56-2.61,1.36a.15.15,0,0,0-.14.08c-.61,1-.86,1.29-2.09.91a.16.16,0,0,0-.2.12c-.18,1.31-.85,1.33-2.07,1.12a.17.17,0,0,0-.21.11c-.4,1.06-2.64,3.41-3,.26,0-.09-.08-.2-.19-.19-1,.1-1.86.6-2.84.74a.17.17,0,0,0-.12.21c.41.73.16,1.37-.75,1.91a6.14,6.14,0,0,1-1.31-.33.12.12,0,0,0-.16.12c.13.86-.43,1.8-1.33,1.19a.07.07,0,0,0-.11,0c-.4,1.11-1.39,1.35-3,.74a0,0,0,1,0,0,0c.83,1,1.56,1.12,2.5.29.64-.57.72-.61,1.59-.39a.52.52,0,0,0,.52-.23c.1-.22.21-1.44.43-1.36a2.9,2.9,0,0,0,1.56.16c.91-.16.56-2.09.55-2.09.36-.05,2.18-.94,2.35-.33a1.79,1.79,0,0,0,.55,1.07c.89.65,1.77.17,2.43-.51s.39-1.12,1.34-1a1.62,1.62,0,0,0,.95,0,1.1,1.1,0,0,0,.47-.66c.35-1,.65-.2,1.33-.4a.84.84,0,0,0,.49-.4c.56-.8.8-.76,1.74-.82a1.7,1.7,0,0,0,1-.49c.67-.55.29-.81,1.38-.8a2,2,0,0,0,1.17-.47c.58-.36,1.2.5,1.76.48a1.68,1.68,0,0,0,1.14-.43c.63-.51.33-1.88,1.39-1.24a1.38,1.38,0,0,0,2-.19,1.79,1.79,0,0,0,.05-1.27s1.47.15,1.62.1a1.7,1.7,0,0,0,1-.69c.41-.7.27-1.2,1.16-1.29s1.22-.13,1.79.75a1.37,1.37,0,0,0,1.07.56c1.38.16,1-2.09,2.3-1.2,1,.69,1.68.37,2.12-.7.12-.29,1.54.66,2.12.2.26-.22.25-.75.27-1.06a14.71,14.71,0,0,1,2.69.12C179.15,85.88,179.16,85.77,179.1,85.75Zm60.46,3.33A2.71,2.71,0,0,1,236,87.77a.21.21,0,0,0-.36,0c-1.42.89-2.29.78-2.59-.34a.28.28,0,0,0-.47,0q-2.33,1.57-2.52-.49a.28.28,0,0,0-.33-.2,5.1,5.1,0,0,1-1.77.14,4.25,4.25,0,0,1,.53-1.3c.13-.18-.08-.41-.27-.36-1.47.35-3,.74-4.28-.54a.26.26,0,0,0-.4,0c-.84,1.81-2.48,1.21-3.63.15a.23.23,0,0,0-.36,0c-.74,1.23-.9,1.64-2.14,0-.07-.1-.23-.16-.32,0a3.54,3.54,0,0,1-1,.93c-1.28,0-1.94-.45-2-1.4a.23.23,0,0,0-.21-.17,9.68,9.68,0,0,0-1.19.15c-.86.15-.86.5-.89-.48,0-.13-.17-.25-.29-.17a2.92,2.92,0,0,1-4.06-.3.19.19,0,0,0-.3,0c-.08.15-.5,1.3-.71,1.19-.59-.29-1.21-.48-1.8-.79a.19.19,0,0,0-.26.06,1.8,1.8,0,0,1-3,.16.18.18,0,0,0-.26,0c-.72.64-2.69,1.54-2.73-.18a.19.19,0,0,0-.18-.18c-2.23.08-4.05,1.08-6-.82a.17.17,0,0,0-.29.12c-.15,1.68-.94,1.93-2,1.1a.15.15,0,0,0-.19,0q-1.48,1.73-3.36,0a.11.11,0,0,0-.18,0,2.45,2.45,0,0,1-3.66.69s-.11,0-.1.06c.22,1.81-1,1.55-2.18,1.22,0,0,0,0,0,0,.65.21,1.61.7,2.2.2.23-.2.18-.7.18-1s1.53.21,1.78.22a2,2,0,0,0,1.27-.53c.9-.89.93,0,1.84.17a2.1,2.1,0,0,0,1.48-.16c.92-.57,1.1-.41,2.06.1a.16.16,0,0,0,.22-.06,16,16,0,0,0,1-1.52c.07-.19,1.12.6,1.26.65a4.14,4.14,0,0,0,2,.21c.74-.11,2.56-.81,2.58.45a.2.2,0,0,0,.14.18,3.76,3.76,0,0,0,2.3-.08c.9-.36,1.08-.08,1.93.39,1.78,1,2.07-2.29,4-.2a.2.2,0,0,0,.31,0c.15-.31.37-1.39.95-1a4.39,4.39,0,0,0,1.63.7,2.7,2.7,0,0,0,1.2-.13c.65-.15.88-.75.88.17,0,.13.14.26.26.21,1-.37,1.67-.63,2.28.4a1.73,1.73,0,0,0,1.16,1,1.89,1.89,0,0,0,1.51-.53s.53-.59.63-.47a11.45,11.45,0,0,0,1.53,1.27.22.22,0,0,0,.37-.09c.51-1.86,1.1-.63,2.29-.25a1.93,1.93,0,0,0,1.67-.26c.87-.75.65-.61,1.75-.17a4.69,4.69,0,0,0,2.84-.1c-.2.41-.33.84-.5,1.3-.08.22.17.39.36.36s2-.2,2,.09a2.07,2.07,0,0,0,.79,1.26,1.64,1.64,0,0,0,2.36-.73c.72,1.32,1.8,1.78,2.89.4.24-.3,1.09.86,1.47,1a3.11,3.11,0,0,0,2.5-.19C239.81,89.27,239.7,89,239.56,89.08Zm33.58,24.38a5.24,5.24,0,0,1-.17-1.58c0-.14-.11-.21-.2-.29-.83-.82-2.66-.3-1.3-2.85a.27.27,0,0,0-.29-.39l-.93.14c-1.29.12-1.64-.71-1.05-2.48a.27.27,0,0,0-.26-.45c-.82.21-1.53-.43-.73-1.06a.29.29,0,0,0,.07-.27,13.57,13.57,0,0,0-1.3-2.58.26.26,0,0,0-.34-.1c-1.44.85-2.65-.14-2.61-1.83a.24.24,0,0,0-.41-.18c-1.29,1.13-3.5,1-2.37-1.26.07-.15-.06-.41-.25-.33a4.48,4.48,0,0,1-.87.3c-.94.26-3,.07-1.41-2a.22.22,0,0,0-.05-.35,18.43,18.43,0,0,1-2.49-1.55.22.22,0,0,0-.22,0c-1.52,0-2.34-.54-2.45-1.68a.19.19,0,0,0-.35,0,2.52,2.52,0,0,1-1,1.18c-1.22-.31-1.61-.84-1.15-1.57.06-.13-.11-.3-.24-.25a8.62,8.62,0,0,1-3.53.53c-.62,0,.54-1.89.69-2.09s-.1-.26-.19-.16c-.84,1-2.48,2.38-3.53.21a.14.14,0,0,0-.24,0c-1.65,2.3-3.07.48-3.84-.78,0,0-.11,0-.08,0,.41.79,1.13,2,2.16,2.08s1.69-1.12,2.26-.35a1.55,1.55,0,0,0,1.92.27,2.63,2.63,0,0,0,.72-.47c-.22.41-.42.84-.66,1.25a.19.19,0,0,0,.15.27c.43.06,3.71.28,3.84-.19-.13.5-.29,1.4.35,1.69a1.7,1.7,0,0,0,1.88-.33c.19-.14.55-.72.58-.61a3.36,3.36,0,0,0,.76,1.43,1.36,1.36,0,0,0,1.8.25c.4-.33,1.8.81,2.17,1s-.29,1-.35,1.22c-.54,1.69,1.82,1.53,3,1.24-.82,2.18,1.18,2.84,2.88,1.7a2.2,2.2,0,0,0,1.09,2.11,1.86,1.86,0,0,0,1.37.12c.43-.18.58-.5.81-.06l.54,1c.47.93.21.64-.29,1.35a1.19,1.19,0,0,0-.33,1c.19.67,1,.63,1.66.49-1,1.71.41,3,2.39,2.71a2,2,0,0,0,1.11,2.76c1,.45.17.45.36,1.23s.69,1,1,1.55c.16.31.61,0,.46-.27A2.88,2.88,0,0,0,273.14,113.46Z"/><path d="M294.57,132.26c2.44.52,1.95,2.74-.24,3.69,1.7.76,1.46,1.75,0,2.71,1.22,1.25,1,2.23,0,3.45,2.43,1.25,0,3.92-.72,5.64,1.21,1.48,1,3.43-1,4.15,0,0-1,10.74-2.16,18.77s-1.43,17.19-1.66,23.69a132.26,132.26,0,0,1-1.89,15.6s-1.22-9.11-2.45-17.78-1.26-21.56-5.17-28.9l-.25-1.22a6.85,6.85,0,0,1-1.22-3.19c0-1.46.61-31.5-3.37-44.23l-1-.26c-.25-.76-1.48-1-.75-2.26v-.25l-.25-.25a1.81,1.81,0,0,1-1.24-3c-2.22.72-4.2-.81-2.24-2.78-2.21.71-2.71-.3-1-1.52a24.18,24.18,0,0,0-1.25-2.53c-1.72,1.23-3.22,0-3-2-1.72,1.73-4.2.93-2.73-1.56-2,1-4.46.18-2.5-2a13.88,13.88,0,0,1-2.49-1.55c-1.23,1.23-2.48,0-2.74-1.82-1,2.25-3.71,2-2.49-.54a7.84,7.84,0,0,1-4.23.42,18.27,18.27,0,0,1,1.22-2.25c-1.23,1.5-3,2.22-3.73.19-1.22,2-3,1.21-4-.83l-.5-.52a2.69,2.69,0,0,1-3.77-1.33c-1,1.75-2.22,1.73-3-.31-1,2-2.73,1.47-3-.56-.75.49-1.75,0-2.25.21.24-.51.23-1.27.73-1.77-1.75.48-3.51.7-4.53-.59-.72,2-2.74,1.47-4,.18-.25.5-.74,1-.73,1.51-.51-.52-1.53-1-1.79-1.56-1.23,1.76-3,1.73-3.28-.57a6.91,6.91,0,0,0-2.25.47c0-.26,0-.76,0-1-1.49,1.25-3,1-4.29-.34-.25.51-.49,1-.73,1.52-.26-.51-1.27-.53-2-1.06-.73,1.77-2,1.75-3.28.19a2.69,2.69,0,0,1-3,.71c0-.25,0-.51,0-1-2,0-4,1.46-6.09-.88,0,1.28-.74,1.26-1,2a5.58,5.58,0,0,1-1.29-.79c-1.24,1.26-2.51,1.23-3.55-.06q-1.47,2.27-3.79.69c.3,2.05-.47,1.78-2.26,1.24l-1.28-.28c-.77-.27-1.77.22-2.81-.56,0,2-.71,2-2.27.72-.46,2-1.48,2-2.79.46-.71,2-2.22,2.77-3.05.45-.51,0-2,.22-2.29.22-.21,1.78-1.46,2.53-3.28,1.47.83,2.32-.69,2.8-2.52,1.24-.2,2-1.45,3-3,1.48-1.51.74-1,1-2.55.46-.46,1.53-1.22,1.77-2.77,1.49-1,1.52-.46,1.53-2.27,1-.2,1.79-.47,1.53-2.27,1.24-.7,2.29-3.25,2.76-3.32.2-.77,0-2.29.73-2.8.72.83,2.06-.18,2.56-2.26,1.76.32,1.79-.18,2.29-1.5,1.25-.72,1.52-2,2.27-3.05.72l-1.38,1.25c-6,3.36-10.79,11.33-10.79,11.33a229,229,0,0,1-.84,30.77c-10,9.34-15.33,30.71-15.47,37.06s2.14,25.62,2.14,25.62c-.67,2.21-3.65,4.06-3.65,4.06-2.41-3.32-12.76-22.65-12.76-22.65a5.52,5.52,0,0,0-4.24-.38l-1-.26c.5-.49.73-1,1.22-1.48-2.09-1-2.67-2.5-.92-3.49-1.83-1-2.7-3.26-.42-4a11.43,11.43,0,0,1,.38-3c-2.56.24-3.14-1.26-1.4-2.76-2.09-.76-2.71-3-.15-3.5-2.09-.52-3-3.29-.38-2.77,0-.5.42-2.25.41-2.5-2.07,0-3.14-1-1.66-2.53-1.86-1.27-1.93-2.78.09-3.77-1.85-1-1.39-2.54.11-3.53.24-.5.44-1.77.67-2.52-1.81,0-2.88-.78-1.64-2-2.39-1.53-2.23-3.81.6-4-2.37-1-3-4.08-.17-3.8a2.56,2.56,0,0,1,1.13-3.79c-1.82-.27-1.58-.78-2.91-1.56.25-.25.75-.5,1-.75-1.62-1.54-1.17-3.06,1.15-3.54-1.38-1.8-1.25-4.86,1.63-4.06a13,13,0,0,0,1-2c-1.83-.53-3.48-2.59-1.16-3.07-.55-.52-.85-1.55-1.39-2.06.78,0,1.27-.75,2-.74-1.89-1.82-1.22-4.37,1.4-3.82-.32-1.54.41-2.55,2.21-3-1.06-.53-1.37-1.56-2.17-2.08a4.76,4.76,0,0,1,2.05-.74,8.48,8.48,0,0,1-1.13-2.07c.53,0,1.27-.75,2-.74-.86-2.07.6-4.36,2.47-3a4.34,4.34,0,0,1,2.49-2.79l-2.17-2.09a3.25,3.25,0,0,1,1.55-.23l.77-.51c-1.39-2.08-.39-3.09,2-2.8-.86-2.07.39-3.34,2.21-3.31a3.35,3.35,0,0,1,3.2-4.58c-.08-1.81.92-3.08,2.74-3l.48-1c-.57-1.3-1.63-1.84.7-2-.27-.27-.57-1.31-1.11-1.83a5.45,5.45,0,0,1,2.08,0c-.59-1.83-.11-2.85,1.74-2,1-.76.73-1.28,2.54-1.5-1.37-2.1-.09-2.6,2-2.55-1.63-1.85-.64-3.13,1.71-2.82-.85-2.09.41-3.11,2.27-2,.2-1.55,1.48-2,3-1.75-1.64-2.37.13-3.64,2.22-3.33a2.94,2.94,0,0,0-.57-1.31c.78,0,1.8-.48,3.11-.19-.6-2.36,1.66-4.65,3.29-2.53.46-1.81,2.24-2.55,4.08-2-.28-.52-.56-1.31-.84-1.84a7.65,7.65,0,0,1,4.16.36l1-.76a3,3,0,0,1-.33-2.09,5.42,5.42,0,0,1,2.07,0c-.33-2.35,1-2.58,2.8-1.5.23-1,1.26-1.27,1.75-2a3.93,3.93,0,0,1,.81,1.06,3.2,3.2,0,0,1,4.09-1.46c0-.52,0-1.05,0-1.57.53.28,1.55,0,2.34.32-.32-2.09.7-2.59,2.53-1.5-.06-2.35,1.73-3.09,3.34-.7.2-2.08,1.94-4.38,3.29-2a2.93,2.93,0,0,1,4.37-.68c0-.52-.3-1.57-.32-2.09.78.28,2.06,0,2.85.59-.07-2.6,2-2.81,3.58-.69.46-2.33,2.25-2.81,3.33-.69,1-1.8,3.27-2.52,3.59-.17,1-1.28,2.28-1.25,3.58-.17a3.13,3.13,0,0,0,.22-1.56c1.3.56,2.06.32,3.12,1.64.72-2.06,2.26-2,3.57-.43,1.73-2.81,5.08-1.68,5.91,1.45l.75-.5a2.45,2.45,0,0,1,.23-1.29c.52.27,1.54.3,2.06.83.73-2.06,2-1.76,3.06-.18,1-2.05,2.77-2,3.07.34,1.76-.73,1.76-.73,3.06.59.72-2.31,2.78-1,4.08.37.72-2.32,2.76-1.75,3.56.61.5-.51,2-.47,2.52-1,0,.78.54,1.83.55,2.6,1.51-1,2.52-1,2.55.84a3.05,3.05,0,0,1,3.55.61c.73-2,2.25-1.75,3,.33,1.5-1.51,3.77-1.45,3.81,1.38,1.75-1.5,3.52-.68,2.8,1.62a3.3,3.3,0,0,1,4.06,2.15c1-2,2.24-1.48,2.77.58,1.49-1.76,3.76-1.45,4,1.13l1.52,1.06c-.26-1.29,1.74-1.5,2,1.07,2-1.23,4.25-1.18,3,1.61a6.68,6.68,0,0,1,2.26.05,5,5,0,0,1-.24,1.79c1.76.29,1.51.29,3,1.34,1.73-2,3.24-.43,2.76,1.85,2.23-1.48,3.74-.17,2.51,2.36,2-1,4-.43,2.51,1.83.74,0,1.74.55,2.24.31-.25.5-.24,1.77-.48,2.28,1.49-.48,2.49.3,3,1.84.5-.24,1.49-.22,2-.47,0,1,.51,2,.26,3.06,2.23-.72,3.23,1.08,2.25,2.83,2.48-.2,3,1.83,1.26,3.57a22.35,22.35,0,0,1,2.48,1.56c2-1.47,3-.19,2.48,2.07,2.22-.46,3.46,1.08,2.23,3.07,2.22-1,3.46.57,1.74,2.3,2.21-.21,2.71,1.81,1,3.54l.5.76c2.21-1.47,3.2.56,2.71,2.56,2.46-.71,3.2,1.56,1.73,3.28,2.7,0,2.21,2,1,3.52,1,1.27,1.23,1,1.48,2.78,2.7-1.71,2.7,1.54,1.72,3.27,2.2.53,2.45,2.52.74,4,2.2.53,2.2,2,1,3.5,3.17,1.78-.24,2.73,0,4.71.25,2.49,3.9,2.78,1.22,5.72,1.47.76.73.5,1,2,1.46,1.25.49,2.72-1,3.69Z"/><path d="M120.25,173.36s13.85-5.93,20-9.14c0,0,13.35-1.24,18.78,0s18.54,8.65,24.23,8.9l4.45-1.24s-3.7-1.73-8.16-4.45-8.9-8.41-11.12-13.84c0,0-17.31-8.41-32.63-4.7a8.94,8.94,0,0,1-3,3.21C130.88,153.34,120,162.24,120.25,173.36Z"/><path d="M276.86,173.36s-11.33-5.93-16.39-9.14c0,0-10.93-1.24-15.38,0s-15.18,8.65-19.84,8.9l-3.64-1.24a71.78,71.78,0,0,0,6.68-4.45c3.64-2.72,7.28-8.41,9.11-13.84,0,0,14.16-8.41,26.71-4.7a8.66,8.66,0,0,0,2.43,3.21C268.16,153.34,277.06,162.24,276.86,173.36Z"/><path class="cls-10" d="M263.56,180.07c-4.54-4.25-11.2-5.52-17-5.58a30.91,30.91,0,0,0-8.91,1.17,17.52,17.52,0,0,0-3.87,1.38,38.13,38.13,0,0,0-5.13,3.59c-.17.13-.38-.17-.22-.31,9.4-8,26.25-10.34,35.16-.29,0,0,0,.07,0,0Z"/><path d="M250.08,193.51a37.27,37.27,0,0,0,17-7.23s-4.94-5.56-15.32-8.9-20.09,2.78-23.49,8.9l-1,2.78Z"/><path class="cls-11" d="M262.79,187c-6.13,7.17-19.75,8.65-31.32,4.94a6.88,6.88,0,0,0-2.95-1,23.16,23.16,0,0,0-3,.24l1.13-2c8.85-14.83,26.78-10.63,36.09-3Z"/><path class="cls-12" d="M255.4,184.17a9.88,9.88,0,0,0-.34-2.56c-5.9-2.47-12.8-3.33-18.82-.89a9.87,9.87,0,0,0,7.26,13.14,36.19,36.19,0,0,0,5-.27A9.89,9.89,0,0,0,255.4,184.17Z"/><path class="cls-12" d="M245.51,192.93a8.76,8.76,0,0,0,8.76-8.76,8.67,8.67,0,0,0-.58-3.1c-5.09-1.87-10.8-2.49-16-.87a8.75,8.75,0,0,0,7.8,12.73Z"/><path d="M250.67,184.17a5.17,5.17,0,1,1-5.16-5.17A5.16,5.16,0,0,1,250.67,184.17Z"/><path d="M249.16,184.17a3.65,3.65,0,1,1-3.65-3.65A3.65,3.65,0,0,1,249.16,184.17Z"/><path class="cls-11" d="M245.51,182a2.11,2.11,0,0,0,2.11-2.12,2.19,2.19,0,0,0,0-.36,25.58,25.58,0,0,0-4.1-.25,2.05,2.05,0,0,0-.1.61A2.12,2.12,0,0,0,245.51,182Z"/><path d="M262.75,186.29c-5.2-3.62-11.58-6.36-17.77-6.67a20.4,20.4,0,0,0-10.08,2c-3.47,1.71-5.81,4.45-8.14,7.62-.06.09-.19,0-.14-.12,3.44-6.89,10.65-10.17,17.55-10.21a26.91,26.91,0,0,1,18.67,7.23c.07.06,0,.18-.09.13Z"/><path class="cls-13" d="M231.48,191.87c10,2.74,23.4,3.83,31.28-4.94,0,0,.08,0,.05.06-3.5,4.06-8.44,5.71-13.39,6.5a37.06,37.06,0,0,1-18-1.55s0-.08,0-.07Z"/><path class="cls-10" d="M131.28,180.07c4.94-4.25,12.2-5.52,18.51-5.58a36.45,36.45,0,0,1,9.7,1.17,20.43,20.43,0,0,1,4.22,1.38,41.39,41.39,0,0,1,5.58,3.59c.19.13.42-.17.24-.31-10.24-8-28.6-10.34-38.3-.29,0,0,0,.07.05,0Z"/><path d="M146,193.51a42.79,42.79,0,0,1-18.54-7.23s5.38-5.56,16.69-8.9,21.88,2.78,25.59,8.9l1.11,2.78Z"/><path class="cls-11" d="M132.12,187c6.67,7.17,21.51,8.65,34.11,4.94a7.93,7.93,0,0,1,3.22-1,27.63,27.63,0,0,1,3.21.24l-1.24-2c-9.64-14.83-29.17-10.63-39.3-3Z"/><path class="cls-12" d="M160.47,184.17a10,10,0,0,0-.8-3.91c-6-1.8-12.74-1-18.59,1.14a9.76,9.76,0,0,0-.4,2.77,9.91,9.91,0,0,0,6.82,9.41,44.42,44.42,0,0,0,5.07.29A9.91,9.91,0,0,0,160.47,184.17Z"/><path class="cls-12" d="M150.57,192.93a8.76,8.76,0,0,0,7.64-13.05,30.24,30.24,0,0,0-15.77,1.05,8.76,8.76,0,0,0,8.13,12Z"/><path d="M155.74,184.17a5.17,5.17,0,1,1-5.17-5.17A5.16,5.16,0,0,1,155.74,184.17Z"/><path d="M154.23,184.17a3.65,3.65,0,1,1-3.66-3.65A3.65,3.65,0,0,1,154.23,184.17Z"/><path class="cls-11" d="M150.57,182a2.12,2.12,0,0,0,2.12-2.12,2.05,2.05,0,0,0-.1-.61,29.63,29.63,0,0,0-4.1.28,1.84,1.84,0,0,0,0,.33A2.11,2.11,0,0,0,150.57,182Z"/><path d="M132.16,186.29c5.66-3.62,12.61-6.36,19.36-6.67a23.88,23.88,0,0,1,11,2c3.78,1.71,6.33,4.45,8.86,7.62.08.09.21,0,.16-.12-3.75-6.89-11.59-10.17-19.11-10.21a30.82,30.82,0,0,0-20.34,7.23c-.07.06,0,.18.1.13Z"/><path class="cls-14" d="M166.22,191.87c-10.83,2.74-25.49,3.83-34.08-4.94,0,0-.08,0,0,.06,3.82,4.06,9.2,5.71,14.58,6.5a43.81,43.81,0,0,0,19.57-1.55,0,0,0,1,0,0-.07Z"/></g></g></svg>