<svg xmlns="http://www.w3.org/2000/svg" xmlns:xlink="http://www.w3.org/1999/xlink" viewBox="0 0 380.54 380.54"><defs><style>.cls-1{fill:#625d9d;}.cls-2{fill:#d9805d;}.cls-3{fill:#de8868;}.cls-4{fill:url(#radial-gradient);}.cls-5{fill:url(#radial-gradient-2);}.cls-6{fill:#b34d2e;}.cls-7{fill:#5c1817;}.cls-8{fill:#e4304a;}.cls-9{fill:#c5081b;}.cls-10{fill:#fff;}.cls-11{fill:#64c2c2;}.cls-12{fill:#ffb;}</style><radialGradient id="radial-gradient" cx="1605.7" cy="1200.33" r="20.42" gradientTransform="translate(-455.34 -273.65) scale(0.4)" gradientUnits="userSpaceOnUse"><stop offset="0" stop-color="#e2a28a"/><stop offset="1" stop-color="#de8868"/></radialGradient><radialGradient id="radial-gradient-2" cx="2019.63" cy="1505.13" r="20.42" gradientTransform="matrix(0.3, -0.02, 0.03, 0.37, -511.72, -304.49)" xlink:href="#radial-gradient"/></defs><g id="Capa_2" data-name="Capa 2"><g id="Avatar_20"><circle class="cls-1" cx="190.27" cy="190.27" r="190.27"/><path class="cls-2" d="M250,337.27c-.2-.31-.4-.64-.61-1s-.23-.38-.35-.57l-.54-.89c-.13-.22-.26-.44-.4-.66l-.54-.91-.4-.67L246.2,331c-6.23-10.82-7.78-34.81-8.1-50.35,0-.33,0-.65,0-1s0-.35,0-.52c0-.35,0-.69,0-1s0-.46,0-.69v-.74c0-.2,0-.41,0-.61v-.61c0-.31,0-.61,0-.91v-2.24h0c0-.46,0-.9,0-1.32v-.32c0-.18,0-.35,0-.52v-.22c0-.31,0-.6,0-.87v-.23c0-.15,0-.29,0-.43a.92.92,0,0,1,0-.16c0-.26,0-.49,0-.7v-.09a2.62,2.62,0,0,1,0-.29v-.33c0-.11,0-.2,0-.27v-.11a.25.25,0,0,1,0-.09v-.1l-59.67,31.34c.12,1.17.23,2.3.32,3.43,0,.37.05.74.08,1.11,0,.74.1,1.48.14,2.2,0,.43.05.85.07,1.27,0,.65.06,1.3.08,1.94,0,.43,0,.86,0,1.29l0,1.81v1.26c0,.6,0,1.19,0,1.77,0,.39,0,.79,0,1.17,0,.62,0,1.23-.07,1.83,0,.33,0,.67-.05,1,0,.81-.1,1.6-.16,2.37,0,.12,0,.24,0,.35-.07.89-.16,1.75-.26,2.6,0,.29-.07.56-.1.83-.07.57-.15,1.14-.23,1.69l-.15,1c-.08.49-.16,1-.25,1.47q-.08.48-.18,1c-.09.46-.18.92-.28,1.38l-.21.93c-.1.45-.21.89-.32,1.33-.07.29-.15.58-.22.87l-.39,1.36-.21.74c-.18.56-.36,1.11-.55,1.66,0,.11-.07.23-.11.35-4.36,12.49-12,19.75-20.2,24.3-4.81,2.65-11.3,6.83-17.86,11.24A190.87,190.87,0,0,0,277.4,359.46l-.36-.16C263.11,353.21,257.42,349,250,337.27Z"/><path class="cls-3" d="M284.39,171.74c-1-.72-4.78-1.77-5.83-2.05,2.53-19.72,8.82-56.42-18.44-85.51-30.69-32.72-72.62-32.72-95.63-27.1s-50.12,28.64-55.75,53.7-2.09,32.62-4.62,40.71-7.08,19.21-1,31.35a119.74,119.74,0,0,1,3,25.78c0,13.65,8.09,32.87,23.26,52.08s24.35,39.3,42,41c26.79,2.53,64.88-21.62,77.86-49.51a147.1,147.1,0,0,0,8.6-25.39c4.25.78,7.67-2,10.63-6.48,3.8-5.69,8.73-9.48,12.52-14.79C286.67,197.53,292.73,177.81,284.39,171.74Z"/><path class="cls-3" d="M115.91,109.53a43.17,43.17,0,0,1,13-19.24C140.53,80.54,157.35,76,172.38,77c7.94.52,17.49,2.5,24.58,6.27,13,6.89,20.28,14.28,22.57,29.17,1,6.26.94,12.66,2.1,18.9.21,1.14,5.25,15.72,7.4,13.86,0,0-8.72,7.58-9.86,7.58s-113,4.17-113,4.17l-2.66-1.51s7.59-10.62,8-19C111.89,127.36,112.92,118,115.91,109.53Z"/><path class="cls-3" d="M146.34,234.16s.25,2.78,4.3,3.28a7.37,7.37,0,0,0,8.34-4.8c1.52-3.54,4.55-22.25,3.54-42.72l-15.17.25s2.78,21.23,2.28,28.06S146.34,234.16,146.34,234.16Z"/><path class="cls-3" d="M147.26,230.2a8,8,0,0,1,4.05-1.52c2,0,9.44,2.86,9.44,2.86l1-2s-7.75-3-10.45-3a5.28,5.28,0,0,0-2.87,1Z"/><path class="cls-4" d="M194.52,206.06a8.91,8.91,0,1,1-8.91-8.91A8.91,8.91,0,0,1,194.52,206.06Z"/><path class="cls-5" d="M148.23,205.5c.39,4.59-2.31,8.56-6,8.87s-7-3.16-7.4-7.75,2.31-8.57,6-8.87S147.85,200.91,148.23,205.5Z"/><path class="cls-3" d="M252.75,237.35C243.54,253.4,226.63,261,215,254.29s-13.67-25.13-4.46-41.18,26.13-23.63,37.79-16.94S262,221.3,252.75,237.35Z"/><path class="cls-3" d="M135,221.59c-5.27-15.73-18.44-26.7-29.49-24.6a107.21,107.21,0,0,1,.66,11.63c0,12.12,6.38,28.62,18.42,45.62C135.59,252,140.25,237.36,135,221.59Z"/><path class="cls-3" d="M107.3,183.88S103.51,157,113,152.78s21.24.76,21.24.76l6.44,8,.76,2.66s3.79,16.68,2.66,43.6l-11-8.72s-9.1-9.1-11-9.48-9.48-.38-9.48-.38Z"/><path class="cls-3" d="M182.39,205.87s-7.59-39.44,1.51-51.57,23.89-11,23.89-11l15.93,1.52s14.79,4.17,17.82,7.58c0,0,0,22-9.86,42.09Z"/><path class="cls-3" d="M145.41,236.77c-.2.88,2.79,2.68,3.36,2.92,4,1.72,8.53-.42,12.31-1.74,3.38-1.18,8.77,1.85,9.28,3.71,0,0,.16,2.19-1.19,2.53s-21.4.16-21.4.16L145.58,243l-.84-3.21Z"/><path class="cls-3" d="M145.07,239.21s1.27,3.54,6.58,3.29,8.59-2.78,10.36-3.29,8.09,1.27,7.84,3.29l-.51,2s-3,13.4-9.1,13.66-5.05-8.6-9.35-10.62C150.89,247.56,145.07,244,145.07,239.21Z"/><path class="cls-3" d="M164.54,285.48s8.09.5,10.37,0c0,0-1.27,4.3-3.8,4S164.54,285.48,164.54,285.48Z"/><path class="cls-3" d="M141.53,262,140,265.51S136.73,262,141.53,262Z"/><path class="cls-3" d="M212.07,260.45l2.78,4.3S218.13,261,212.07,260.45Z"/><path class="cls-6" d="M202.86,163.78s11-4.93,25.79,2.65C228.65,166.43,214.62,153.54,202.86,163.78Z"/><path class="cls-6" d="M133.59,167.48s-8.43-4-18.85,3.77C114.74,171.25,124.26,158.57,133.59,167.48Z"/><path class="cls-3" d="M280.71,174.49l-2.11,2c-2.25,1.36-7.12,8.49-7.12,8.49l-2.82,4.38-.09-.09c-1.51,1.39-4.55,8.47-4.55,8.47l.16.5-.16.13a7,7,0,0,1,.4.6l.57,1.79a7.89,7.89,0,0,1-1.47,4.95s4.29-1.52,5.18-4.55a5.32,5.32,0,0,0-1.5-5c.45-1.06.9-2,1.25-2.67a2.59,2.59,0,0,1,3-1.39l-1.07-1,.44.14c-.63-1.26,2.4-4.3,2.4-4.3l-.07-.07c1.15.89,2.47,1.71,2.47,1.71s-1.26-3.41,0-5.43c.93-1.48,3.42-3,4.68-3.65a27.75,27.75,0,0,1,4,5.42S282.48,176.39,280.71,174.49Zm-9.1,25.92.75-4.3S270.6,197.12,271.61,200.41Zm2.9,2.78c2.66-5.06,1.39-8.47,1.39-8.47A48.34,48.34,0,0,0,274.51,203.19Zm7.34-15.3c1.26,3.42-1.27,13.15-1.27,13.15,4.05-6.95,3.41-12.39,3.41-12.39Z"/><path class="cls-3" d="M149.79,244.86s4.89,3,7.08,2.86a5,5,0,0,0,4-3.37S154.17,246,149.79,244.86Z"/><path class="cls-3" d="M288.38,178.4a11.71,11.71,0,0,0-3.21-6.43,9.53,9.53,0,0,0-10-1.8,12.53,12.53,0,0,0-4.49,2.93,8.69,8.69,0,0,0-1.3,2.14c-.49.86-.91,1.75-1.35,2.64-1.95,3.87-3.7,7.89-6.44,11.29,0,0,0,0,0,0a43.66,43.66,0,0,0,5-8.07c.71-1.38,1.42-2.77,2.22-4.1a11.64,11.64,0,0,1,2.93-3.73c2.86-2,5.72-3.29,9.28-2.63a8.42,8.42,0,0,1,6,4.71c2.16,4.54,1.31,10.29.2,15a50.77,50.77,0,0,1-5.74,14c-3.25,5.54-8.55,9.56-12.36,14.69-1.85,2.48-3.5,5.06-6.27,6.62s-6,.88-8.7-.68a.19.19,0,0,0-.19.34,9,9,0,0,0,7.34,1.43c2.55-.69,4.56-2.78,6.12-4.79,1-1.24,1.78-2.6,2.73-3.86a58.69,58.69,0,0,1,3.91-4.58c2.31-2.5,4.75-4.94,6.8-7.66A41.28,41.28,0,0,0,287,193C288.36,188.33,289.2,183.22,288.38,178.4Zm-27.13,32.78h0c.3-2.75,2-4.74,3.31-7.05a6,6,0,0,0,.15-6.1c-.29-.58-1.18-.07-.87.51a6.14,6.14,0,0,1-.34,6.8A12.23,12.23,0,0,0,261.25,211.18ZM281,175.13c.44-.36-.16-1.13-.62-.79a32.8,32.8,0,0,0-4.34,4.32,56.78,56.78,0,0,0-4.36,5.54,74.76,74.76,0,0,0-7.47,12.87c-.07.17.16.32.25.15,1.23-2.34,2.46-4.65,3.78-6.91a.27.27,0,0,0,.26.28c3.27.22,4.44,3.75,3.77,6.55a0,0,0,1,0,0,0c1-2.76-.38-7-3.82-7.1a.24.24,0,0,0-.12,0c1-1.64,2-3.25,3.05-4.82a4.5,4.5,0,0,0,2.28,2.58,11.76,11.76,0,0,1,1.9,1.21c.7.63.64,1.86.6,2.72-.21,3.87-1.91,7.52-1.64,11.44h0c-.24-4,1.6-7.79,1.88-11.76.09-1.37.13-2.67-1-3.58s-3.07-1.5-3.73-3v0a55.44,55.44,0,0,1,4.49-5.54A41.21,41.21,0,0,1,281,175.13Z"/><path class="cls-6" d="M149,215.73a22.69,22.69,0,0,1-1,12.18c-1.07,3.2-2.9,6.18-3.62,9.5a8.14,8.14,0,0,0,2,7.51,12.93,12.93,0,0,0,5.13,3.21,22.66,22.66,0,0,0,3.81.89,11.15,11.15,0,0,0,3.68.29c.21,0,.21-.39,0-.43-1.17-.2-2.35-.23-3.51-.47a16.59,16.59,0,0,1-3.88-1.59,14.29,14.29,0,0,1-4.74-3.47c-1.86-2.22-1.44-5.13-.84-7.74.73-3.17,2-6.18,2.8-9.34a21.27,21.27,0,0,0,.25-10.54Z"/><path class="cls-6" d="M163.16,246c-.62-1.55.55-1.89,1.84-2a9.86,9.86,0,0,1,3.71.21c.12,0,.17-.16,0-.2-1.57-.51-3.23-1.14-4.88-.66-1.37.4-1.51,1.59-.93,2.71.06.12.26,0,.21-.08Z"/><path class="cls-6" d="M168.38,245.73c2-1.37,2.6-4.2,2.37-6.49a.12.12,0,0,0-.24,0c-.29,2.51-.37,4.47-2.19,6.41a.05.05,0,0,0,.06.08Z"/><path class="cls-7" d="M163.15,245s-.19-1.26,3.54-.88C166.69,244.08,164.79,245.53,163.15,245Z"/><path class="cls-3" d="M144.4,263.91s5.11-4.4,8.82-5.08c2.36-.43,4.23,1.65,6.48,1.89,2.65.28,4.9-1.27,7.52-1.38,3.87-.17,5.9.38,13.65,1.89s26.39,1.66,28.08,1.5c0,0-10.79,6.06-13.82,6.06s-23.59,2-24.44,2.2-10.62-.51-12.47-.51Z"/><path class="cls-8" d="M202.19,263.48c-2.06.46-4.18,1.27-6.72,1.27-6.11,0-31.69.5-32.37.76s-12.22-.26-12.9-.26h-4.75a54.65,54.65,0,0,0,4.3,6.32,6.27,6.27,0,0,1,.42.59,2.39,2.39,0,0,0,.13.21l.23.4c.05.09.1.19.14.28l.18.37a2.88,2.88,0,0,0,.13.31l.15.37c1,2.52,1.25,5.38,2.69,6.83,2.27,2.27,15.39,4.8,23.09,1.26A114.54,114.54,0,0,0,189,275l.85-.56.41-.28,1-.68.33-.23.8-.53.44-.29,1-.67.41-.28L195,271l.44-.3,1-.66.39-.26.7-.49c.14-.08.26-.17.39-.26l.93-.64.37-.26c.22-.14.43-.29.64-.44l.38-.26.85-.59.34-.24.58-.41.33-.22.75-.53.31-.22.55-.38.21-.15.67-.47L205,264l.44-.31.19-.13.51-.37.22-.15.25-.18.24-.17.33-.24,0,0,.28-.2h0l.15-.12.1-.07S205.08,262.84,202.19,263.48Z"/><path class="cls-9" d="M207.83,262h0l-.05,0-5.06.73a83.4,83.4,0,0,1-18.34.75c-6.79-.5-14.71-2.78-18.56-2a13.85,13.85,0,0,0-6.11,2.78s-4.08-3.54-5.89-3.54-4.75,1.52-6.79,2.78-4.63-.45-5-.7l0,0s0,0,0,0a18,18,0,0,0,1.67,1.4l.1.07.75.53a22,22,0,0,0,7,3.1c1.08.32,2.18.62,3.29.91.08,0,.82,0,.87.13a3.28,3.28,0,0,0,.78,1A5.31,5.31,0,0,0,159,271a7.86,7.86,0,0,0,2.94.06,7.77,7.77,0,0,0,2.87-.62.11.11,0,0,0,.05-.13l2.93-.73s0,0,0,0a107.43,107.43,0,0,0,19.77-1.45A85.54,85.54,0,0,0,198,265.91c1.64-.47,3.27-1,4.87-1.6s3.32-1.54,5-2.31C207.84,262,207.83,262,207.83,262Z"/><path d="M179.06,161.75a110.11,110.11,0,0,0,13.48-7.95,36,36,0,0,1,14.31-6.63c7.27-1.47,18.43-2.19,34.39,4.86,1,0,2.1-.05,3.16,0a107.58,107.58,0,0,0-22.34-9.3c-13.17-3.78-25.17-1.88-34.31,3C178.36,150.82,175,158.88,179.06,161.75Z"/><path d="M184.32,158.61c-2.15,1.24-3.89,2.17-4.7,2.58a4,4,0,0,1-1.13-3.51c.35-3.35,4-8,9.85-11.18a39.89,39.89,0,0,1,7-2.94,44.75,44.75,0,0,1,26.58.27,99.9,99.9,0,0,1,19.8,8.55h-.54c-12-6-22.86-7-31-6a34.79,34.79,0,0,0-16.91,6.49l-1.08.76a90.49,90.49,0,0,1-7.89,5Z"/><path d="M141.76,164.72a24.84,24.84,0,0,1-8.22-5.43c-2.1-2-4.18-4.14-8.3-5.4-4-1.1-10.24-1.36-18.58,4.37-.67-.21-1.35-.4-2-.58a66.54,66.54,0,0,1,12-8.23,18.3,18.3,0,0,1,18.55,1C140.88,154,143.7,160.59,141.76,164.72Z"/><path d="M138.41,162.55a23.27,23.27,0,0,0,2.88,1.49,7.57,7.57,0,0,0,.21-3.94c-.56-3.17-3.1-6.84-6.64-9a20.09,20.09,0,0,0-4-1.95,16.73,16.73,0,0,0-14.08,1.25A58.72,58.72,0,0,0,106.37,158l.35.1C113,153.3,119,152.31,123.36,153a17.21,17.21,0,0,1,9.61,5.19l.66.64a26.7,26.7,0,0,0,4.78,3.72Z"/><path d="M207,205.87l7.2,3.79s10.24-5.31,17.06-8.34l.76-9.1-24.65,12.13Z"/><path d="M230.78,180s9.38-5.58,12.23-13.25c0,0-.72,9.91-12.09,17.67Z"/><path d="M233.56,182.33a17.73,17.73,0,0,0,5.05-6.83s-10.11-8.59-28.06-6.82-24,22.25-27.3,35.14l17.44-6.07Z"/><path d="M185.07,201.85c1.69-6.32,3.92-13.26,7.45-19.12,4.73-7.87,10.67-12,18.16-12.79a46.48,46.48,0,0,1,4.69-.24c11.81,0,19.4,4.61,21.7,6.22a17.34,17.34,0,0,1-4.19,5.33l-32.67,15.33-15.14,5.27Z"/><path class="cls-10" d="M208.93,174.77c-14.41,1.9-22.75,19-26.54,31.48a42.15,42.15,0,0,1,7.83-1.13,83.49,83.49,0,0,0,17.27,2.22l.3,0c5.31.75,4.55,0,4.55,0,5.69-1.52,11.38-3.42,15.55-7.59a25.25,25.25,0,0,0,5.31-15.55V181.6A33.55,33.55,0,0,0,208.93,174.77Z"/><path class="cls-11" d="M229,188.61a20.43,20.43,0,0,0-3.45-11.45,32.46,32.46,0,0,0-16.6-2.39c-6.51.86-11.79,4.82-16,10a21.46,21.46,0,0,0-.34,3.79c0,8.74,5.34,16.15,12.72,18.64l2.14.09.3,0c5.31.75,4.55,0,4.55,0a49.86,49.86,0,0,0,9.76-3.48A20.06,20.06,0,0,0,229,188.61Z"/><path class="cls-11" d="M210.8,205.58c8.73,0,15.8-7.6,15.8-17a17.49,17.49,0,0,0-5.64-13,32.18,32.18,0,0,0-12-.83,22.35,22.35,0,0,0-12.1,5.91,18,18,0,0,0-1.82,7.93C195,198,202.08,205.58,210.8,205.58Z"/><path d="M222,188.61c0,6.63-5,12-11.17,12s-11.17-5.37-11.17-12,5-12,11.17-12S222,182,222,188.61Z"/><path d="M220.51,188.61c0,5.76-4.35,10.43-9.71,10.43s-9.7-4.67-9.7-10.43,4.34-10.43,9.7-10.43S220.51,182.85,220.51,188.61Z"/><path d="M220.51,188.61c0,5.76-4.35,10.43-9.71,10.43s-9.7-4.67-9.7-10.43,4.34-10.43,9.7-10.43S220.51,182.85,220.51,188.61Z"/><path class="cls-10" d="M206.59,179.09a4.23,4.23,0,1,0,8.43,0,4.42,4.42,0,0,0-3.86-4.51c-.42,0-.85,0-1.27.09A4.47,4.47,0,0,0,206.59,179.09Z"/><path d="M233.27,181.53c-9-8.21-24.09-10.69-34.26-3.34a36.46,36.46,0,0,0-10.24,12.33,74.81,74.81,0,0,0-6.17,14.86l-.24.86a0,0,0,1,0,0,0c3.27-9.81,8-20.07,16.41-26.51,4.63-3.53,10-4.77,15.77-4.47,6.69.35,12.92,2.95,18.55,6.42A.1.1,0,0,0,233.27,181.53Zm-5.4,18.25a30.53,30.53,0,0,1-7.27,4.66c-2.67,1.21-5.5,2-8.26,2.93,0,0,0,0,0,0,5.52-1.06,11.72-3.28,15.57-7.57A0,0,0,0,0,227.87,199.78Z"/><path d="M119.06,200.18V204s5.69,3,11.37,6.83l5.69-4.17Z"/><path d="M117,192.19s-9.45-4.27-13.5-12.11c0,0,9.46,8.82,14.77,9.84Z"/><path d="M116.51,191.18s-2.53-.51-5.57-3.79c0,0,.14-11.16,9.86-14.92,7.84-3,14.14,3.12,17.43,9.69A41.09,41.09,0,0,1,141.55,194c.3,1.78.33,10.21,1.75,11.32,0,0-9.1-7.08-10.11-7.33S116.51,191.18,116.51,191.18Z"/><path d="M141,201.93c-6.43-4.89-7.18-5.08-7.45-5.15-.85-.24-10.57-4.28-16.5-6.77l-.11,0-.12,0a10.58,10.58,0,0,1-4.54-3c.15-2.12,1.25-10.25,9-13.26a10.09,10.09,0,0,1,3.63-.71c6.78,0,11.06,7.5,12.21,9.79,1.79,3.57,2.54,7.48,3.21,11.49.07.42.13,1.43.2,2.49.13,2.13.27,3.85.44,5.22Z"/><path class="cls-10" d="M116,191.46l.37,1.52a29,29,0,0,0,4.55,9.1c2.51,3.24,4.43,4.41,8,6.06,4.66,2.18,11-3.25,14.79-.38-1.14-8-1.52-16.3-6.45-23.88C130.94,174.14,117.54,174,116,191.46Z"/><path class="cls-11" d="M125.68,177.34c-2.38,3.34-3.75,8.31-3.45,13.79.53,9.63,6,17.16,12.24,16.82,3.51-.2,6.5-2.84,8.36-6.82-.81-5.86-2-11.76-5.57-17.25C134.3,179.32,129.79,176.87,125.68,177.34Z"/><path class="cls-11" d="M123.71,191.05c.46,8.37,5.22,14.91,10.64,14.61,3.55-.19,6.5-3.29,8-7.76a36.26,36.26,0,0,0-5.07-14,13.85,13.85,0,0,0-9.1-6.48C125.21,180.12,123.39,185.26,123.71,191.05Z"/><path d="M132.92,179.8c-3.83.21-6.67,5.18-6.34,11.09s3.69,10.55,7.52,10.34,6.57-5,6.36-10.8a30.48,30.48,0,0,0-3.2-6.55,16.43,16.43,0,0,0-3.71-4.07A4.42,4.42,0,0,0,132.92,179.8Z"/><path d="M139.54,190.18c.28,5.14-2.19,9.46-5.51,9.64s-6.26-3.83-6.54-9,2.18-9.45,5.51-9.64S139.26,185,139.54,190.18Z"/><path d="M139.54,190.18c.28,5.14-2.19,9.46-5.51,9.64s-6.26-3.83-6.54-9,2.18-9.45,5.51-9.64S139.26,185,139.54,190.18Z"/><path class="cls-10" d="M130.43,182.16c.12,2.24,1.39,4,2.84,3.91s2.52-2,2.39-4.19v-.11a14.6,14.6,0,0,0-4.08-3.22A4.73,4.73,0,0,0,130.43,182.16Z"/><path d="M142.46,197.72a43.89,43.89,0,0,0-2.83-10c-1.75-4.07-4.54-8.43-8.84-10.17a9.6,9.6,0,0,0-9.59,1.05c-3.69,2.92-4.87,8-5.17,12.44l0,.4s0,0,0,0c.54-4.42,1.93-9.34,5.74-12.07a9,9,0,0,1,9.17-.54c4.21,1.94,6.82,5.79,8.63,9.93a40.71,40.71,0,0,1,2.64,9.45c.54,3.16.66,6.44,1.38,9.56a.1.1,0,0,0,.19,0A85.48,85.48,0,0,0,142.46,197.72ZM129,208.07c-1.38-.83-2.84-1.54-4.18-2.45A19.78,19.78,0,0,1,121,202s-.1,0-.07.06a16.21,16.21,0,0,0,8,6.13A.09.09,0,0,0,129,208.07Z"/><path class="cls-12" d="M270.53,335.31c-14.65-6.8-16.88-24-15.19-38.39,1-8.2,4.45-15.62,9.21-22.27,8.55-11.93,20.46-20.9,29.64-32.29,10.44-12.93,15.79-28.82,18.31-45.09.21-1.35.4-2.72.59-4.08l.15-1.29c.12-.93.24-1.86.34-2.8.07-.59.12-1.18.19-1.77.07-.77.16-1.55.23-2.32s.11-1.38.17-2.07.11-1.35.16-2,.09-1.52.13-2.27.08-1.22.1-1.82c.05-.8.07-1.6.1-2.41,0-.56,0-1.13.06-1.69,0-.82,0-1.64,0-2.46,0-.55,0-1.1,0-1.65,0-.82,0-1.64,0-2.46,0-.38,0-.76,0-1.13s0-.89,0-1.34c-.57-27.78-3.71-55.83-16.12-81.11C270.46,25.21,189.76,14,139.57,48.11a154.3,154.3,0,0,0-34.13,31.28C86.14,103.81,77,133.58,66.16,162.28a265.42,265.42,0,0,1-31.84,58.6c-8.64,11.84-18.16,20.46-23.58,32.51A191.82,191.82,0,0,0,100,357.81c12.36,6.67,54.45,28.68,66.14,16.27,21.74-23.07,15-72.54,12.65-72.37a45,45,0,0,1-7.44,0c-17.62-1.66-26.8-21.74-42-41A136.28,136.28,0,0,1,113.67,236c0-.3,0-.59,0-.89s0-.67,0-1c0-.49,0-1-.06-1.47,0-.33,0-.65,0-1l0-1.53v-.95c0-.52,0-1.05,0-1.58,0-.31,0-.61,0-.92,0-.55,0-1.09,0-1.66,0-.77,0-1.55.1-2.33s.09-1.77.16-2.66c4-57.14,65.22-101.63,71.29-132.48,0,0,10.11,26.29,29.83,41.46s32.87,19.72,38.43,36.92c.16.48.31,1,.45,1.42.05.15.09.3.14.45.1.32.19.64.28.94l.14.47c.09.31.17.61.26.91,0,.13.07.26.11.39.11.4.22.8.32,1.19,0,.1.05.2.08.29.07.3.15.59.22.87s.07.29.1.43.12.46.17.68.06.29.1.43.1.47.16.69,0,.22.07.33c.07.31.13.62.19.92,0,.13.06.25.08.38s.07.35.11.52.05.28.08.42.05.3.08.44,0,.28.07.41.05.26.07.39c.06.29.1.57.15.84l0,.19.09.53s0,.07,0,.1c.18,1.08.31,2,.45,2.76v.05c0,.17.07.34.1.5l.09.44s0,.05,0,.07.06.22.08.32l0,.11c0,.09,0,.17.08.25l0,.11c0,.09.06.18.1.27v0l.12.27a.41.41,0,0,1,.05.09l.09.16.07.09.09.13.08.1a3,3,0,0,0,2,.84c4.55.51,4.55-8.6,12.13-13.15,6-3.59,8.83-3.4,12.73-1.92a11.31,11.31,0,0,1,2.91,5.42c.07.29.13.59.19.89.82,4.82,0,9.93-1.41,14.57a41.28,41.28,0,0,1-6.11,12.95c-2.05,2.72-4.49,5.16-6.8,7.66a58.69,58.69,0,0,0-3.91,4.58c-.95,1.26-1.76,2.62-2.73,3.86-1.56,2-3.57,4.1-6.12,4.79a7.8,7.8,0,0,1-3.52.14,146.94,146.94,0,0,1-8.55,25.2A73.56,73.56,0,0,1,238.05,269c0,2.58-.06,6.8,0,11.91.34,15.55,1.91,39.3,8.1,50.05l.49.84c0,.08.09.16.14.24l.34.59.16.26c.11.2.22.39.34.58l.13.22.38.63.08.15c.65,1.07,1.28,2.09,1.9,3.06,7.36,11.49,13.06,15.69,26.88,21.74l.36.16q7.56-3.9,14.72-8.46A75.4,75.4,0,0,0,270.53,335.31Z"/></g></g></svg>