<svg xmlns="http://www.w3.org/2000/svg" xmlns:xlink="http://www.w3.org/1999/xlink" viewBox="0 0 380.54 380.54"><defs><style>.cls-1{fill:#9dcac6;}.cls-2{fill:#b6623b;}.cls-3{fill:#c7704b;}.cls-4{fill:url(#linear-gradient);}.cls-5{fill:#110502;}.cls-6{fill:#673007;}.cls-7{fill:#b54d34;}.cls-8{fill:#a03d2d;}.cls-9{fill:#fff;}.cls-10{fill:#3f0d00;}</style><linearGradient id="linear-gradient" x1="188.5" y1="17.55" x2="188.5" y2="91.38" gradientUnits="userSpaceOnUse"><stop offset="0" stop-color="#581d0c"/><stop offset="1" stop-color="#120603"/></linearGradient></defs><g id="Capa_2" data-name="Capa 2"><g id="Avatar_19"><circle class="cls-1" cx="190.27" cy="190.27" r="190.27" transform="translate(-78.81 190.27) rotate(-45)"/><path class="cls-2" d="M251.36,336.6c-8.16-19.28.74-71.2.74-71.2l-134.24-8.9s1.48,68.23-3.71,81.58c-2.08,5.36-10.49,11.31-19.82,16.52a190.5,190.5,0,0,0,182.8,5C266.57,353.89,255.31,345.94,251.36,336.6Z"/><path class="cls-3" d="M288.62,194.35l.33-.73c1.09-6.37,3.38-11.77,3.52-18.63.08-3.93.17-8.11-2.45-10.31a8.66,8.66,0,0,0-5.76-2.43s-.12-.35-.32-.82c.58-3.59,8.68-55.7-6.26-86C262.09,43.81,213.53,24.38,188,24s-65.86,18.64-87.51,53.88c-21.54,35.05-9.38,85.4-9.38,85.4l.59.82-.35,0c-4.17-2.7-8.35,3-10.07,6.24-3.68,7.43-2.45,21.73,0,28.86a126.36,126.36,0,0,0,11.22,23.24l.73,1c2.92,6.59,4.85,16.34,13.63,13.84a51.11,51.11,0,0,1,4.85,5.32l.66-.4c.85,6.82,2.4,15.9,5.58,20.54,4,5.78,10.5,11.54,15.56,16.94a164.09,164.09,0,0,0,34.57,26.43s15.14,14.48,35.66,14.27c0,0,23,.13,30.74-12.15,0,0,7.58-8.94,10.51-12.2s17.23-18.9,20.58-25.07,7.79-21.19,7.63-39.94l.33.21c1.21-.5,2.92-1.48,4.13-2V229a95.91,95.91,0,0,0,4.58-12.43l0-1c3.71-4.66,8-14.93,6.46-21C288.67,194.51,288.64,194.43,288.62,194.35Z"/><path class="cls-3" d="M101.27,180.34c-12.13,8.54-9.89,32.62,5,53.79s36.81,31.42,48.94,22.88,9.88-32.61-5-53.78S113.4,171.81,101.27,180.34Z"/><path class="cls-3" d="M273.17,231l.33.21c1.21-.5,2.92-1.48,4.13-2V229a95.91,95.91,0,0,0,4.58-12.43l0-1c3.71-4.66,8-14.93,6.46-21,0-.09-.05-.17-.07-.25l.33-.73c.93-5.43,2.73-10.16,3.33-15.69-12.36-3.67-30.92,5.62-44.61,23.33-15.84,20.48-19.17,44.44-7.44,53.51,7.55,5.84,19.5,4.08,31.28-3.36A113.49,113.49,0,0,0,273.17,231Z"/><path class="cls-3" d="M134.84,140.15a74.23,74.23,0,0,0,3-19.42c.07-11.12-1-22.84,1.91-33.78,4.13-15.68,24.11-6.77,33.92-3.86a108.33,108.33,0,0,0,24,4.17c8.11.49,24.39,1.46,31.33-3.73,0,0,11.41-8.54,18.73-6.55s15.43,13,14.68,27.94-.64,35.72-.64,35.72l-41.19,20.92-39,.18Z"/><path class="cls-3" d="M181.21,290.49l7.64-4.77s22,.89,29.26-1l6,5.36A293.6,293.6,0,0,0,181.21,290.49Z"/><path class="cls-3" d="M171.69,183.73l-3.9-.23s-7.35,5-15.41,6C152.38,189.49,163.35,190.16,171.69,183.73Z"/><path class="cls-3" d="M225.2,183.44l3.2-.27s5.92,4.88,12.49,5.82C240.89,189,231.9,189.78,225.2,183.44Z"/><path class="cls-3" d="M183.55,220.11a6.68,6.68,0,0,1,1.3-1.16c4.42-3,7.2-2.6,8.62-8.54,1.1-4.57.81-9.38,1.09-14,.62-10.28-3.3-20.61-8.33-29.22,0,0,.11,13.06-3.11,18.24s-10.66,20.91-11,25.32c-.39,6.17,7.29,10.08,9.28,15.21A11,11,0,0,1,183.55,220.11Z"/><path class="cls-3" d="M225,221.07a8.16,8.16,0,0,1,2.26,2.71c1.28-3.12,3.5-5.58,4.66-8.89,1.33-3.8,2.51-9.27,2-13.27-.29-2.14-2.13-4.22-3.33-5.92-3-4.19-6.83-8.12-9.21-12.73-1.89-3.68-4.25-9.07-4.25-9.07,0,2,.31,13.26.49,17.92.17,4.34-1.43,14.62-.52,19.36a2.74,2.74,0,0,0,0,1.29,12.75,12.75,0,0,0,1.14,3.19c.86,1.8,2.72,3.65,2.73,5.74,0-1.39,2.25-1.11,3-.89A4.05,4.05,0,0,1,225,221.07Z"/><path class="cls-3" d="M199.75,234.61c-1.94-.8-6.6-6.52-7.09-8.41-1.22-4.74,3.59-11.16,6.09-14.81,0,0,1.57-9.55.56-16.52s-.46-23.22.31-26.92l15.34.29s.89,15.13.38,26-1.1,14.69-.23,17.62c1.17,3.94,5.14,8,4.72,12.44-.33,3.57-3.76,8.39-6.66,10.42A17.36,17.36,0,0,1,199.75,234.61Z"/><path class="cls-3" d="M182.9,230.71s-1.37-8.4,1.37-9.88a9.52,9.52,0,0,1,5.65-1s-.25,7.13,1.72,9.31C191.64,229.19,185.65,228.32,182.9,230.71Z"/><path class="cls-3" d="M225,231.88s-2.14-2.54-4-2.53c0,0,1.89-5.31,1.56-7.68C222.6,221.67,228.4,222.37,225,231.88Z"/><path class="cls-3" d="M197.65,212s13.14-3.26,18.67.13l0-2.93s-10.14-3.36-18.67.36Z"/><path class="cls-3" d="M105.37,189.13s7.75-15.2,10.74-29.68l12.6-21.26s6.69-10.85,5.64-21.31S130.83,82.34,141.62,74c0,0,12.24-4.55,29.91,4.85,0,0,30.86,10.09,57.12.27,0,0,13.74-9.05,23.22-4.55s13.68,15.73,14.21,27-3.85,31.3-1.42,38.34,6.88,22.17,6.88,22.17l5,25,3.08-27.64,4.88-1.6c1.74-12.91,6.24-56-6.79-82.41C262.09,43.81,213.53,24.38,188,24s-65.86,18.64-87.51,53.88C82.7,106.78,87.85,146.1,90.21,159l7.12,7.61Z"/><path class="cls-4" d="M188,24c-25.6-.38-65.86,18.64-87.51,53.88C99.18,80,98,82.11,97,84.3A6.12,6.12,0,0,1,102,81.67c-1.54-2.13-.78-4,2-4-1-2.39.53-4.53,3.07-3.64a3.35,3.35,0,0,1,2.76-4,9.14,9.14,0,0,0-.76-1.33c.64-.18,1.26.06,1.89-.16a5.51,5.51,0,0,1-.36-2.37c.8.28,1.9,0,2.82.38-.32-2.83,1.19-3.85,3.06-1.65a4.08,4.08,0,0,1,3.92-3c-.75-.57-1.42-2.39-1.87-2.85.74.07,1.64-.19,2.37-.18-.29-.46-.67-1.52-.88-1.84.67.22,1.64.14,2.34.37-1.85-3.69,2.32-5.48,2.94-1.49.31-2.55,2.69-3.52,5-2.72-.71-.55-1.28-1.66-1.88-2.21,1,.13,2.34-.34,3.36-.2-.68-.62-1-1.94-1.37-2.45,1.45,0,2.25-.73,3.86.35-1-2.83.71-3.61,2.56-1.49-.43-2.79,1.57-4.22,3.85-2.94.13-.48,0-.91.18-1.39,1.14.18,2.7-.42,3.82-.17-1.11-2.6.9-3.59,3.51-3-.6-.79-.49-1.67-.86-2.35,1.39.39,2.53.08,3.8,1.27-.18-2.86,3.2-5.57,4.57-2.29a2.84,2.84,0,0,1,4-1.28,7.65,7.65,0,0,0-.48-1.75c1.09.37,2.72.31,3.87.85-.25-.76-.15-1.66-.35-2.39.65.43,2,.56,2.79,1.27-.11-.79.29-2,.19-2.78,1.73.47,2.22-.1,3.37,1.78,1.12-1.57,2.22-1.69,3.9-1.79a10.42,10.42,0,0,1,.13,1.37,30.39,30.39,0,0,0,3.8,0,23.68,23.68,0,0,0-.32-2.41c.66.37,1.53.29,2.3.89.05-.62.17-1.29.19-1.9.77.5,2.39.51,3.27,1.38,1.66-2,3.13-1.78,3.16,1,1.2-2.18,5.14-3.34,4.92.37a2.84,2.84,0,0,1,4.27.65,7,7,0,0,0,.19-1.93c.37.23,1.29.63,1.78.9.67-3.06,2.94-1.87,4.14.37,2.22-2.23,4.95-1.25,4,2,1.21-.84,2.12-.36,3.21-.77.13.48-.05.91.13,1.37a18.41,18.41,0,0,0,3.29,1.41c.06-.74.53-1.75.58-2.3.38.55,1.47,1.13,2,1.94,2.26-2.61,4.72-.92,4,2.52,2.29-1.72,4.84-.9,3.46,2.2a10.93,10.93,0,0,1,3.85.69,20,20,0,0,0,.09-2.28c2,2.82,6.35-.8,5.84,3.91.58-.38,1.75-.52,2.32-.9-.14.85.26,2,.11,2.89,1.83-.72,3.39-.13,4,2a11.93,11.93,0,0,0,.48-2.41c.95,1,1.46.46,1.95,2.41,2.47-3.15,5-.47,3.48,2.89,4.26-3.49,3.52,1.49,6.69,2.51.12-.64.33-1.26.45-1.8,2.23,1.36,2,4.18,5.3,3.56-.36.78-.16,2-.77,3,1-.29,2.23.25,3.18,0-.07.71.21,1.65.1,2.36.59.47,2.12,1.46,2.85,1.92.31-.49.73-1,1-1.42,1.23,2.11,4,3.8,3.52,6.13.72-.1,1.51.11,2.19,0a20.26,20.26,0,0,0,.12,2.34,5.87,5.87,0,0,1,2.81,2.93c1.82-2.74,3,.11,2.47,2.6.45-.17,1.32-.2,1.77-.38,0,1,.77,2.14.61,3.37,2.76.19,2.3,3.27,2.86,5.52a5.42,5.42,0,0,1,1.39-.49c-.71-1.88-1.5-3.71-2.36-5.46C262.09,43.81,213.53,24.38,188,24Z"/><path class="cls-5" d="M102.62,185.08l2.62,4.92s.05-.3.11-.87a51.66,51.66,0,0,0,.16-7.51c-.23-5.43-2.15-22.48-.41-30.42s10.63-20.92,10.63-20.92-.39-29.72,8.29-42.77,19.84-17.88,19.84-17.88,13.35-2.29,28.79,7.49c0,0,35.06,8.21,55,.15,0,0,13.13-8.55,22.42-6.8s19.95,20,19.95,20,4.17,25.13,2.82,45.22a105.87,105.87,0,0,1,2.51,21.46c0,11.08.88,30.21.88,30.21s3.79-21.12,6.05-24.82l1.72-.83c0-.08-.06-.16-.1-.25.58-3.59,8.68-55.7-6.26-86C262.09,43.81,213.53,24.38,188,24s-65.86,18.64-87.51,53.88c-21.54,35.05-9.38,85.4-9.38,85.4l.59.82h0c1.08,1.48,6.36,8.86,7.51,12.68C99.15,176.78,100.61,182.88,102.62,185.08Z"/><path class="cls-3" d="M171.3,306.81c-1.77-3.59-10-16.87-15-21.16s-6.39-19.16-6.7-26.43-15.12-27.62-23.84-34.89-19.31-20.45-19.31-20.45l4,10.64c1.81,4.4-.78,14.69-2.62,18.73-1.47,3.23-6,3.21-7.7,3.07,1.68,1.28,3.82,1.79,6.72,1a51.11,51.11,0,0,1,4.85,5.32l.66-.4c.85,6.82,2.4,15.9,5.58,20.54,4,5.78,10.5,11.54,15.56,16.94a164.09,164.09,0,0,0,34.57,26.43,152.8,152.8,0,0,0,16.19,10.27C179.72,313.2,172.45,309.13,171.3,306.81Z"/><path class="cls-3" d="M275.38,227c-1-4.37,1.48-20.46,1.48-20.46-.43,3.66-5.33,13.92-10.52,20.89s-12.65,20.11-13.56,31.36-3.6,21.38-9.12,28.28c-4.68,5.87-10.48,20-11.74,24.42a17.5,17.5,0,0,0,1.5-2S242,299.3,245,296s17.23-18.9,20.58-25.07,7.79-21.19,7.63-39.94l.33.21c1.21-.5,2.92-1.48,4.13-2V229c.66-1.45,1.27-2.94,1.86-4.46A8.76,8.76,0,0,1,275.38,227Z"/><path class="cls-3" d="M252,265.39c-1.7,5.37-3.17,10.56-4.39,15.21A56,56,0,0,0,252,265.39Zm-95.72,20.26c-5-4.3-6.39-19.16-6.7-26.43s-15.12-27.62-23.84-34.89-19.31-20.45-19.31-20.45l4,10.64a7.94,7.94,0,0,1,.42,1.6c6.41,5.29,24.82,21.12,33.09,35,10.06,16.9,6.49,43,6.49,43l5.64,4.44q4.65,3.24,9.49,6.1l3.86-1.24C166.22,298.05,160.26,289,156.28,285.65Zm75.64,25.81a17.5,17.5,0,0,0,1.5-2s6.59-7.76,10.2-11.9c.62-3,2-9.23,4-16.95a32.64,32.64,0,0,1-4,6.44C239,292.91,233.18,307,231.92,311.46Zm34.42-84.06c-5.19,7-12.65,20.11-13.56,31.36-.18,2.26-.44,4.48-.78,6.63,5.2-16.35,12.59-34.33,21.91-43.39l1.35-1.32c.38-6.24,1.6-14.17,1.6-14.17C276.43,210.17,271.53,220.43,266.34,227.4Z"/><path class="cls-3" d="M252,265.39c-1.7,5.37-3.17,10.56-4.39,15.21A56,56,0,0,0,252,265.39Zm-95.72,20.26c-5-4.3-6.39-19.16-6.7-26.43s-15.12-27.62-23.84-34.89-19.31-20.45-19.31-20.45l4,10.64a7.94,7.94,0,0,1,.42,1.6c6.41,5.29,24.82,21.12,33.09,35,10.06,16.9,6.49,43,6.49,43l5.64,4.44q4.65,3.24,9.49,6.1l3.86-1.24C166.22,298.05,160.26,289,156.28,285.65Zm75.64,25.81a17.5,17.5,0,0,0,1.5-2s6.59-7.76,10.2-11.9c.62-3,2-9.23,4-16.95a32.64,32.64,0,0,1-4,6.44C239,292.91,233.18,307,231.92,311.46Zm34.42-84.06c-5.19,7-12.65,20.11-13.56,31.36-.18,2.26-.44,4.48-.78,6.63,5.2-16.35,12.59-34.33,21.91-43.39l1.35-1.32c.38-6.24,1.6-14.17,1.6-14.17C276.43,210.17,271.53,220.43,266.34,227.4Z"/><path class="cls-3" d="M252,265.39c-1.7,5.37-3.17,10.56-4.39,15.21A56,56,0,0,0,252,265.39Zm-95.72,20.26c-5-4.3-6.39-19.16-6.7-26.43s-15.12-27.62-23.84-34.89-19.31-20.45-19.31-20.45l4,10.64a7.94,7.94,0,0,1,.42,1.6c6.41,5.29,24.82,21.12,33.09,35,10.06,16.9,6.49,43,6.49,43l5.64,4.44q4.65,3.24,9.49,6.1l3.86-1.24C166.22,298.05,160.26,289,156.28,285.65Zm75.64,25.81a17.5,17.5,0,0,0,1.5-2s6.59-7.76,10.2-11.9c.62-3,2-9.23,4-16.95a32.64,32.64,0,0,1-4,6.44C239,292.91,233.18,307,231.92,311.46Zm34.42-84.06c-5.19,7-12.65,20.11-13.56,31.36-.18,2.26-.44,4.48-.78,6.63,5.2-16.35,12.59-34.33,21.91-43.39l1.35-1.32c.38-6.24,1.6-14.17,1.6-14.17C276.43,210.17,271.53,220.43,266.34,227.4Z"/><path class="cls-3" d="M252,265.39c-1.7,5.37-3.17,10.56-4.39,15.21A56,56,0,0,0,252,265.39Zm-95.72,20.26c-5-4.3-6.39-19.16-6.7-26.43s-15.12-27.62-23.84-34.89-19.31-20.45-19.31-20.45l4,10.64a7.94,7.94,0,0,1,.42,1.6c6.41,5.29,24.82,21.12,33.09,35,10.06,16.9,6.49,43,6.49,43l5.64,4.44q4.65,3.24,9.49,6.1l3.86-1.24C166.22,298.05,160.26,289,156.28,285.65Zm75.64,25.81a17.5,17.5,0,0,0,1.5-2s6.59-7.76,10.2-11.9c.62-3,2-9.23,4-16.95a32.64,32.64,0,0,1-4,6.44C239,292.91,233.18,307,231.92,311.46Zm34.42-84.06c-5.19,7-12.65,20.11-13.56,31.36-.18,2.26-.44,4.48-.78,6.63,5.2-16.35,12.59-34.33,21.91-43.39l1.35-1.32c.38-6.24,1.6-14.17,1.6-14.17C276.43,210.17,271.53,220.43,266.34,227.4Z"/><path class="cls-3" d="M128,176.07S114.86,167,116.6,160.31s17-11.22,17-11.22l37.17,4.79L182.14,162s-1.87,15.79-11.16,18.79Z"/><path class="cls-3" d="M224.76,180.49s-7.86-12-3.87-18.93,17.64-8.22,17.64-8.22L261.44,150l8.21,3.63,4.2,4.94s-1.84,10.59-9.46,16.53Z"/><path class="cls-3" d="M220.1,231.73c-3.62-.15-6.23,5-6.23,5-8.75,4.07-14.69-.08-14.69-.08s-5.74-5.61-10.28-5.76-6.77,3.88-6.77,3.88c4,7.38,12.9,12.93,20,13.69.47,1.43,1.71,4.55,3.52,4.53s3.43-3.93,4.1-5.79c5.86-2.45,11.11-7.42,12.57-8.16,1.82-.93,2.95-3.85,2.95-3.85A6.44,6.44,0,0,0,220.1,231.73Z"/><path d="M188.67,234.75s2.43-.26,5.67,2.27c0,0-4.74,1.25-7-2.14Z"/><path d="M216.83,236.5s1.6-1.84,2.93-1.48a3.34,3.34,0,0,1,1.91,1.32,7,7,0,0,1-5.32.65Z"/><path class="cls-6" d="M129.5,167.77c4.74-4.64,11.94-6.48,18.4-6.93a26.83,26.83,0,0,1,19.84,6.72.08.08,0,1,0,.12-.11c-5-6-12.59-6.87-20-6.91-6.7,0-14.28,1.37-18.44,7.2,0,0,0,0,0,0Z"/><path class="cls-6" d="M231.12,166.3c9.92-8.39,25.33-7,34.8,1.23,0,0,.08,0,.05-.05a24.69,24.69,0,0,0-18.89-7.56c-5.65.19-11.93,2.32-16,6.31a0,0,0,1,0,.07.07Z"/><path class="cls-3" d="M287.32,190.51A74.3,74.3,0,0,0,291,171.93l-.3-3.07a13.58,13.58,0,0,0-1.65-2,116.48,116.48,0,0,0-11,31.43s1,2.49-1.33,9.65c0,0,.4,7.49,2.41,6.74s7.61-9.92,7.23-18.15c0,0-1.12-7.15-.19-8.26Z"/><path class="cls-3" d="M281,201a18.22,18.22,0,0,0-.69-6c.34-.93.7-1.91,1.09-2.94l.2,3.1s.76-7.84,4.06-9.81l-.92-2.22c2.85-7.57,5.49-14.49,5.49-14.49L289,167.27c-.26.34-.53.74-.79,1.16-1.51,3-3,6.29-4.34,9.76-1,2.71-1.86,5.55-2.64,8.19l-.24.31,0,.4c-1.68,5.74-2.78,10.38-2.78,10.38l-.09,1.77a9.42,9.42,0,0,1,0,1.55c0-.11.07-.22.12-.34l-.14.61a28.08,28.08,0,0,1-1.26,6.16C277.27,206.94,280.66,204.45,281,201Z"/><path class="cls-7" d="M162,265.35s9.6,7.17,12.86,10.12,11,6.68,14.7,7.7c5.61,1.52,22.33,1.77,28.34-.8,4.64-2,10.91-9.73,13.56-11.86s9.82-7.82,9.82-7.82a88.32,88.32,0,0,1-10.37,2c-3.1.2-21.83-1.78-21.83-1.78l-19.58-.78Z"/><path class="cls-7" d="M178.3,276.85a2.3,2.3,0,0,0,.4,1.34,56.15,56.15,0,0,0,9.45,4.53,71.53,71.53,0,0,0,14,1.59c6.07,0,12.47-.55,15.73-1.94,2.69-1.15,5.92-4.22,8.68-7-3.13-2.89-12.33-5.09-23.3-5.25C189.62,269.88,178.43,272.91,178.3,276.85Z"/><path class="cls-8" d="M231.46,270.51c2.66-2.13,9.82-7.82,9.82-7.82a88.32,88.32,0,0,1-10.37,2c-3.1.2-21.83-1.78-21.83-1.78l-19.58-.78L162,265.35s6,4.46,10.09,7.79l.27-.13s-2-3.17-.92-3.64c1.65-.74,3.67-.05,5.35.09,3.73.33,7.26-.2,10.84.58,4.31.93,8.76.94,13.16,1.21,6.2.38,12.41-1,18.57-1.12,1.07,0,9.33.74,9.56-.38,0,0-1.72,4.56-3.58,6.22-.33.29-.36.55-.17.78C227.75,274.22,230.09,271.61,231.46,270.51Z"/><path class="cls-8" d="M217.9,282.37a24.8,24.8,0,0,0,6.42-4.8,22.37,22.37,0,0,1-7.41,3.82c-6.25,2.08-19.87,1.4-25.26.84s-14-4.79-14-4.79l0,.06a52.09,52.09,0,0,0,12,5.67C195.17,284.69,211.89,284.94,217.9,282.37Z"/><path class="cls-8" d="M235.58,263.81c-3.63.39-8.19-2.49-11.37-3.73a61,61,0,0,0-8-2.65,17.81,17.81,0,0,0-3.91-.69c-1.45,0-2.18.76-3.41,1.36a12.15,12.15,0,0,1-4.06,1.12c-2.25.23-4.53-1.83-6.43-2.61s-4.14-.13-6.22.29a67.47,67.47,0,0,0-7,1.86c-4.54,1.42-9,3.14-13.5,4.56a26.75,26.75,0,0,1-15,.26c11.74,4.78,22.89,3.49,38.16,2.27h.26c2.25,2,6.86,3,9.7,2.81l.27-.26.49.51c2.34-.45,5.71-.88,7.57-2.54,12.1.18,21.76,3.22,33-7.24C246.05,259.13,239.45,263.38,235.58,263.81Z"/><path class="cls-8" d="M204.76,268.26a21.39,21.39,0,0,1-5.46-.8,13.26,13.26,0,0,1-2.82-1.19c-.56-.3-.78-.57-1.42-.59a50.17,50.17,0,0,0-6,.47c-2.43.2-4.86.38-7.29.52-8.63.49-17.11-.05-25.15-3.11,0,0,0,0,0,0,8,3.32,16.52,3.77,25.16,3.36,2.43-.12,4.86-.3,7.29-.48l4.25-.34c.52,0,1.07-.12,1.59-.11-.1,0,.11.39.14.43,2.16,2.12,6.79,2.93,9.8,2.59C205.34,269,205.23,268.27,204.76,268.26ZM245.94,259a29.89,29.89,0,0,1-10.46,6.35,30.84,30.84,0,0,1-10.28,1.28c-3.32,0-6.59-.51-9.9-.64a12.4,12.4,0,0,0-2.28.11c-.47.07-1.35.84-1.85,1.08a27.76,27.76,0,0,1-5.7,1.55c-.23.05-.14.36.09.33a28.3,28.3,0,0,0,5.32-1.13,6.5,6.5,0,0,0,1.59-.77c.94-.65,1.72-.38,2.8-.33,3.64.14,7.27.33,10.91.33a28.26,28.26,0,0,0,20-7.94C246.31,259.1,246.09,258.88,245.94,259Z"/><path class="cls-3" d="M101.11,219.09c-1.13.78-3.21-6.39-3.38-7.17a11.1,11.1,0,0,1-.17-4.22c.39-2.18,1.88-2.08,3.51-2.58,2-.61,1.94-3.66,1.78-5.27a.07.07,0,0,0-.15,0,21.51,21.51,0,0,1-.44,3.67c-.47,1.64-2.09,1.42-3.31,1.79-1.4.42-1.71,2.28-1.78,3.51a16.83,16.83,0,0,0,3.52,10.76.12.12,0,0,0,.15,0c1.73-1.27,3.5-2.5,5.25-.34.06.08.17,0,.11-.11C104.65,217.21,103,217.8,101.11,219.09Zm-9.13-24c-.39,2.85-1.12,5.64-1.47,8.49-.32,2.65-.46,6,1.38,8.17.11.13.33,0,.24-.17-3-4.17-.89-10.64,0-15.26.34-1.79,1.14-10.86,4.31-7.27,0,.05.11,0,.07-.08C93.35,185.36,92.23,193.31,92,195.14Zm15.77,23.48c-1-1.91-2.35-3.74-2.91-5.88-.61-2.3,0-4.68.08-7,.21-3.79-1.88-7.47-3.7-10.62-2-3.53-3.93-7.14-6-10.64C93.5,181.6,84.77,166.75,81,174.81c0,.05,0,.09.07,0,1.81-3.17,4.47-2,7,.58a.11.11,0,0,0-.08.17c2.45,4,2.43,9,2.07,13.55a39.36,39.36,0,0,1-1.39,7.61A20.61,20.61,0,0,1,87.47,200a13,13,0,0,1-.63,1.16c-.47.78-1,.41-1.65,0-.07,0-.13.06-.06.11,1,.7.45.49,1.24.74a.06.06,0,0,0,.07,0c2.69-3.51,3.42-8.53,3.82-12.8.38-4,.63-9.78-1.8-13.34,3.35,3.55,6.51,9.32,7.48,11,2,3.58,4.13,7.19,6.07,10.81a22.93,22.93,0,0,1,2.23,5.76,18.82,18.82,0,0,1,0,6.22,9.17,9.17,0,0,0,.45,5.1,14.24,14.24,0,0,0,2.84,4.12C107.62,219,107.84,218.78,107.75,218.62Z"/><path class="cls-6" d="M181.77,232.82c-.83-3.79-.31-7.6.24-11.43a.1.1,0,0,0-.2,0c-.62,3.88-1.73,8.5-.73,12.37.83,3.2,3.41,5,6.44,5.93,0,0,.08-.06,0-.08C184.72,238.07,182.5,236.09,181.77,232.82Zm9.81,2.18c-2.13-.81-4.56-.78-6.24.94a.07.07,0,0,0,.1.11c4.14-3.33,8.73,1.47,12.14,3.33.19.1.46-.12.32-.31C196.44,237.15,193.77,235.83,191.58,235Zm22.64,4.53a22.24,22.24,0,0,1-8,2.16,27.74,27.74,0,0,1-7.81-.74.06.06,0,0,0,0,.11c4.61,1.65,12.11,2.57,16.2-1.05C214.88,239.76,214.52,239.4,214.22,239.53Zm8.91-2.57a6.44,6.44,0,0,0-3.86-2.69.41.41,0,0,0-.46.19c-.47.82-1.7,1.49-2.35,2.19A8.61,8.61,0,0,0,215,239c-.08.18.18.33.26.16a9.31,9.31,0,0,1,2.46-3.24c1.76-1.55,3.62.15,4.73,1.6C222.73,237.89,223.41,237.36,223.13,237Zm-.14-17.1a.16.16,0,0,0-.05.32c3.88,1.19,4.34,5.19,3.94,8.82-.36,3.33-1.65,7.85-4.62,9.83-.22.15,0,.5.2.35,3.28-2.13,4.59-6.93,5-10.56C227.81,225.38,227.15,220.08,223,219.86Zm-2,2.4c.05.13.26.08.22-.06a44.35,44.35,0,0,0-2.89-7.4,17.76,17.76,0,0,1-1.36-7.32c-.17-5.14.75-10.27.61-15.41a.06.06,0,0,0-.11,0c-.33,5.14-1,10.28-1.09,15.42,0,1.72-.29,4.46.59,6A63.55,63.55,0,0,1,221,222.26Z"/><path class="cls-5" d="M116.38,158.6s9.27-7,16.31-6.3,24.48,6.3,37.83,6.68c0,0,8.53,1.11,9.64,1.11a10.88,10.88,0,0,1,3,.74S179.42,150.45,175,146c0,0-7.42,1.48-22.25-3.34s-17.43-7.42-25.22-6.68C127.5,136,118.23,143,116.38,158.6Z"/><path class="cls-5" d="M180.67,158.63l-.51,0c-.66,0-5.36-.56-9.45-1.1h-.15c-8.35-.23-18.38-2.54-26.43-4.4a112.33,112.33,0,0,0-11.28-2.26,9.92,9.92,0,0,0-1.23-.07c-4.77,0-10.05,2.74-13.24,4.7,2.24-11,8.28-16.79,9.71-18,.67,0,1.28-.08,1.88-.08,3.69,0,6.46,1,11.5,2.92,2.76,1,6.19,2.31,10.79,3.81,9.22,3,15.68,3.62,19.48,3.62a26.33,26.33,0,0,0,2.67-.12c2.62,2.93,5,8,6.26,11.06Z"/><path class="cls-5" d="M273.94,158.6s-7.31-7-12.86-6.3-19.29,6.3-29.81,6.68c0,0-6.72,1.11-7.6,1.11a7.13,7.13,0,0,0-2.34.74s2.92-10.38,6.43-14.83c0,0,5.85,1.48,17.54-3.34S259,135.24,265.17,136C265.17,136,272.48,143,273.94,158.6Z"/><path class="cls-5" d="M223.57,158.61c1-3.05,2.82-8,4.86-11a17.67,17.67,0,0,0,1.88.09c3,0,8.21-.63,15.55-3.66,3.64-1.5,6.35-2.78,8.53-3.82,4-1.91,6.05-2.87,8.84-2.87.39,0,.8,0,1.24.06,1.25,1.42,5.74,7.12,7.51,17.64-2.59-1.93-6.48-4.28-10.05-4.28a7,7,0,0,0-1,.07,74.55,74.55,0,0,0-9,2.28c-6.32,1.85-14.18,4.15-20.69,4.38l-.19,0c-3.2.53-6.82,1.08-7.36,1.09Z"/><path d="M169.65,176.53c-5.07-15.95-21.14-14.71-21.14-14.71a27.45,27.45,0,0,0-14,5.14c-3.44,2.3-6.13,7-6.13,7,4.82,7.29,14.71,8.9,14.71,8.9l-3.45-6.69Z"/><path class="cls-9" d="M132,176.59c11.68,10.57,25.78,7.79,36.16,2.78,0,0,3.15.37,3.71-.19s-2-2.4-2-2.4c-6.86-13.54-24.48-16.14-35.23-5-1.11,1.11-2,2.59-3.15,3.89Z"/><path class="cls-10" d="M149.84,183.63a10.47,10.47,0,0,0,7.58-17.7,21.56,21.56,0,0,0-15.88.86,10.46,10.46,0,0,0,8.3,16.84Z"/><path class="cls-10" d="M140.57,173.16a9.27,9.27,0,1,0,14-8,21.46,21.46,0,0,0-10.27.56A9.26,9.26,0,0,0,140.57,173.16Z"/><path d="M155.31,173.16a5.47,5.47,0,1,1-5.47-5.47A5.47,5.47,0,0,1,155.31,173.16Z"/><path class="cls-9" d="M152.08,168.62a2.24,2.24,0,1,1-2.24-2.24A2.24,2.24,0,0,1,152.08,168.62Z"/><path d="M169.79,176.76c-3-6.88-10.5-11.88-17.94-12.44A21.6,21.6,0,0,0,141,166.51c-4.21,2-7.19,5.28-9.81,9-.14.21.17.43.34.26,1.53-1.56,2.73-3.35,4.38-4.83a24,24,0,0,1,4.72-3.24,21.71,21.71,0,0,1,10.76-2.4c8.18.2,14.23,4.62,18.35,11.45,0,0,0,0,0,0Z"/><path class="cls-3" d="M131.88,176.67A28,28,0,0,0,150,183.93a36.45,36.45,0,0,0,18.16-4.49c.08,0,0-.18-.06-.15-5.63,2.2-10.91,4.26-17.05,4.42a27.56,27.56,0,0,1-19-7.2c-.11-.09-.26.06-.15.16Z"/><path d="M228.88,176.53c4.68-15.95,19.49-14.71,19.49-14.71A24.16,24.16,0,0,1,261.28,167c3.17,2.3,5.65,7,5.65,7-4.44,7.29-13.55,8.9-13.55,8.9l3.18-6.69Z"/><path class="cls-9" d="M263.63,176.59c-10.76,10.57-23.75,7.79-33.32,2.78,0,0-2.9.37-3.42-.19s1.88-2.4,1.88-2.4c6.32-13.54,22.56-16.14,32.47-5,1,1.11,1.88,2.59,2.9,3.89Z"/><path class="cls-10" d="M245.18,183.63c5.46,0,9.89-4.69,9.89-10.47a10.76,10.76,0,0,0-2.95-7.46,18.34,18.34,0,0,0-15.28,1.85,10.8,10.8,0,0,0-1.55,5.61C235.29,178.94,239.71,183.63,245.18,183.63Z"/><path class="cls-10" d="M236.42,173.16a8.77,8.77,0,1,0,17.51,0A9.36,9.36,0,0,0,249.4,165a18.39,18.39,0,0,0-10.05,1.21A9.5,9.5,0,0,0,236.42,173.16Z"/><path d="M250.34,173.16a5.17,5.17,0,1,1-5.16-5.47A5.32,5.32,0,0,1,250.34,173.16Z"/><path class="cls-9" d="M247.29,168.62a2.12,2.12,0,1,1-2.11-2.24A2.19,2.19,0,0,1,247.29,168.62Z"/><path d="M228.76,176.76a20.44,20.44,0,0,1,16.53-12.44,18.56,18.56,0,0,1,10,2.19c3.88,2,6.63,5.28,9,9a.2.2,0,0,1-.31.26c-1.41-1.56-2.52-3.35-4-4.83a22.43,22.43,0,0,0-4.36-3.24,18.69,18.69,0,0,0-9.91-2.4c-7.54.2-13.11,4.62-16.91,11.45,0,0,0,0,0,0Z"/><path class="cls-3" d="M263.7,176.67a24.77,24.77,0,0,1-16.7,7.26,31.51,31.51,0,0,1-16.73-4.49c-.07,0,0-.18.06-.15,5.18,2.2,10,4.26,15.71,4.42a24.31,24.31,0,0,0,17.52-7.2c.1-.09.23.06.14.16Z"/></g></g></svg>