<svg xmlns="http://www.w3.org/2000/svg" xmlns:xlink="http://www.w3.org/1999/xlink" viewBox="0 0 380.54 380.54"><defs><style>.cls-1{fill:#ffaacb;}.cls-2{fill:#c0674c;}.cls-3{fill:#d1765d;}.cls-4{fill:url(#linear-gradient);}.cls-5{fill:url(#linear-gradient-2);}.cls-6{fill:#110502;}.cls-7{fill:#71300e;}.cls-8{fill:#c54f41;}.cls-9{fill:#b03f3a;}.cls-10{fill:#fff;}.cls-11{fill:#3f0d00;}.cls-12{fill:url(#linear-gradient-3);}.cls-13{fill:url(#linear-gradient-4);}.cls-14{fill:url(#linear-gradient-5);}.cls-15{fill:url(#linear-gradient-6);}.cls-16{fill:url(#linear-gradient-7);}.cls-17{fill:url(#linear-gradient-8);}</style><linearGradient id="linear-gradient" x1="288.13" y1="42.6" x2="288.13" y2="183.76" gradientUnits="userSpaceOnUse"><stop offset="0" stop-color="#581d0c"/><stop offset="1" stop-color="#120603"/></linearGradient><linearGradient id="linear-gradient-2" x1="290.95" y1="47.91" x2="290.95" y2="154.67" gradientUnits="userSpaceOnUse"><stop offset="0" stop-color="#270a03"/><stop offset="1"/></linearGradient><linearGradient id="linear-gradient-3" x1="220.42" y1="95.51" x2="223.84" y2="70.5" gradientUnits="userSpaceOnUse"><stop offset="0" stop-color="#5b2603"/><stop offset="1" stop-color="#0e0601"/></linearGradient><linearGradient id="linear-gradient-4" x1="216.19" y1="97.12" x2="217.1" y2="90.48" xlink:href="#linear-gradient-2"/><linearGradient id="linear-gradient-5" x1="171.16" y1="7.62" x2="171.16" y2="184.39" gradientUnits="userSpaceOnUse"><stop offset="0" stop-color="#421509"/><stop offset="1" stop-color="#120603"/></linearGradient><linearGradient id="linear-gradient-6" x1="170.21" y1="9.39" x2="170.21" y2="174.55" gradientUnits="userSpaceOnUse"><stop offset="0" stop-color="#682a09"/><stop offset="1" stop-color="#230c04"/></linearGradient><linearGradient id="linear-gradient-7" x1="168.84" y1="-2.9" x2="168.84" y2="269.71" xlink:href="#linear-gradient"/><linearGradient id="linear-gradient-8" x1="168.81" y1="11.3" x2="168.81" y2="164.83" xlink:href="#linear-gradient-2"/></defs><g id="Capa_2" data-name="Capa 2"><g id="Avatar_21"><circle class="cls-1" cx="190.27" cy="190.27" r="190.27" transform="translate(-2.78 377.72) rotate(-89.16)"/><path class="cls-2" d="M261.8,339.19c-8.16-19.28.74-71.19.74-71.19l-134.23-8.9s1.48,68.23-3.71,81.58c-2.3,5.91-12.3,12.54-22.74,18.1a190.52,190.52,0,0,0,178.44-.85C272.24,352.77,264.85,346.39,261.8,339.19Z"/><path class="cls-3" d="M298.05,184.86a23,23,0,0,0-1.37-8.23s-3.09-4.12-6.17-2.75-13.05,12.7-14.76,16.47-1.72,22-1.72,22,0,11,.35,12,6.17,8.58,6.17,8.58l2.41,2.4c2.74-9.27,6.17-16.82,6.52-27.11,0-1.55-.07-3-.13-4.51l.81-1C292.56,196.53,294.62,190.7,298.05,184.86Z"/><path class="cls-3" d="M298.2,183.6a21.5,21.5,0,0,0-1.51-7s0,0,0,0a25.77,25.77,0,0,1,1.18,7c.06,1.2-1.19,2.8-1.75,3.86s-1.13,2.25-1.66,3.39a105.67,105.67,0,0,0-4.49,11.8c-.08.24.3.41.41.17,2-4.36,3.61-8.87,5.68-13.2.55-1.15,1.14-2.28,1.75-3.4C298.63,184.68,298.27,185.29,298.2,183.6ZM289.48,203c-.12-1.94-.24-3.87-.29-5.81a.06.06,0,1,0-.12,0c0,1.72,0,3.45.06,5.17s.52,4.07-.12,5.68a8.5,8.5,0,0,0-.13,2c-.06.82-.15,1.63-.25,2.44-.2,1.7-.52,3.39-.88,5.07-.64,2.95-1.53,5.84-2.44,8.71s-2.18,5.88-2.69,8.9c-.06.35.46.65.63.26,1.18-2.66,1.92-5.59,2.84-8.36a95.42,95.42,0,0,0,2.64-9.24A47.15,47.15,0,0,0,290,208.2c0-.8-.28-1.77-.32-2.62S289.54,203.88,289.48,203Z"/><path d="M281.35,211.4l-1.83,10.53c10.07,9.15,26.54,7.77,35.23-2.29C305.15,227.87,286.39,222.38,281.35,211.4ZM280.44,226l-7.32,11.9c7.32,5,16.93,15.1,13.27,25.17,5.94-7.78,2.74-16.93-3.21-23.8l-.45-2.74a22.33,22.33,0,0,1,11.89,21.5C299.2,245.26,291.42,232.45,280.44,226Zm24.71-32c6.86-4.57,9.15-13.72,3.2-19.67,5.49,19.22-16.47,18.76-28.37,11.44l1.37,7.32C288.67,196.76,297.83,198.59,305.15,194ZM122.52,242.52c-1-.18-4.8-3.44-7.38-3.44a107.3,107.3,0,0,0-10.93.63l-.85-2.68c-6.4.91-13.73,7.32-15.1,13.72,9.15,10.07.92,30.2-13.72,27.46l1.82,1.37c11.9,1.37,25.63-6.41,24.71-20.13l1.38,2.28c0,13.73-5.49,30.66,15.1,30.2-9.07-1.81-12.15-10-11-17.88l0,1.41c3.67-7.78,14.19-9.61,17.39-17.84C124,257.62,123.55,242.69,122.52,242.52Z"/><path d="M314.63,219.52c-9.84,8.22-27.8,3-33.22-8.15,0-.08-.15,0-.12.06,5,10.89,21.77,16.06,32,9.5-9.14,8.78-23.87,9-33.62.88-.16-.14-.4.08-.24.23,9.92,9.4,26.67,7.74,35.48-2.28A.17.17,0,0,0,314.63,219.52ZM280.45,226s-.06,0,0,0c10.35,6.43,17.71,18.23,14.43,30.46-.21-8.23-4.34-16.42-12.06-20.07-.14-.06-.26.13-.12.21,3.71,2.5,6.88,5.06,9.1,9a23.2,23.2,0,0,1,2.63,12.37c0,.27.36.29.44.06C299.32,245.33,291.6,232.33,280.45,226Zm2.68,13.35c5.33,6.45,8.43,15,3.83,22.49,2.32-9.74-6.18-19.08-13.77-24.05-.16-.1-.3.15-.15.26,7.53,5.55,16.69,14.68,13.14,25-.09.25.26.35.39.16,5.84-7.87,2.61-17.21-3.33-23.95C283.17,239.18,283.07,239.29,283.13,239.37Zm12.5-48.73c4.44.14,9.48-.94,12.12-4.83a11.08,11.08,0,0,0,1.55-6.94,19,19,0,0,0-.25-2,7.93,7.93,0,0,0-.43-2.1,11.53,11.53,0,0,1,2.89,6.43c.54,4.22-1.58,8.34-4.57,11.17-3.71,3.51-9,4.48-14,4.1a33.84,33.84,0,0,1-11.61-3.4s0,0,0,0c7.67,3.95,17.76,5.89,25.11.16,6-4.68,7.46-13.42,2-19a.1.1,0,0,0-.17.1c1,3.54,1.41,7.49-.48,10.82-1.53,2.71-4.49,4.1-7.43,4.7-6.81,1.4-14.4-.84-20.28-4.25-.18-.11-.34.17-.16.28A31.5,31.5,0,0,0,295.63,190.64ZM92.09,263.56a16.49,16.49,0,0,0-3.24-12.35c-.93-1.18.81-3.65,1.46-4.73a20.31,20.31,0,0,1,3.61-4.29,20.89,20.89,0,0,1,9.49-5c.19,0,.15-.37,0-.35-5.51.45-10.63,4.89-13.47,9.38a14.67,14.67,0,0,0-1.6,3.57c-.39,1.28.23,1.41,1,2.47a15.18,15.18,0,0,1,2.57,7c1.27,10-6.59,20.73-17.31,19h0C83.74,279.91,91.06,272.32,92.09,263.56Zm8.88-4.11c-.16,3.19-.36,6-1.78,9a18.59,18.59,0,0,1-5.91,6.76,25.15,25.15,0,0,1-16.92,4.39s0,0,0,0a24.67,24.67,0,0,0,17.74-4.68c4.58-3.45,8-9.63,7.07-15.5C101.15,259.3,101,259.34,101,259.45Zm22.85-1.91c-3.42,8-13.38,9.94-17.17,17.58a23.44,23.44,0,0,1,5-11.95c.08-.09,0-.22-.13-.13-4.2,4.34-6,11-5.22,16.89a13.93,13.93,0,0,0,9.36,11.74,16.3,16.3,0,0,1-9-2.5c-2.51-1.74-3.74-4.63-4.3-7.53-1.26-6.51.2-13.34.11-19.91,0-.05-.08-.05-.09,0-.14,6.91-1.7,14.09-.23,20.93a11.42,11.42,0,0,0,4.27,6.93c3.13,2.33,7.36,2.62,11.11,2.6.28,0,.36-.45.06-.51-6.15-1.31-10.11-5.94-10.91-12.11a19,19,0,0,1-.08-4.06h0c4-7.69,14.24-9.6,17.46-17.84C124.15,257.5,123.89,257.39,123.82,257.54Z"/><path class="cls-4" d="M278.15,65.44c22,17.39,26.54,55.36,26.54,55.36-10.52,22.88-9.61,49.42-9.61,49.42l.46-.17c0-19.13,7.79-33.74,13.27-51.53,0,0-5.49-32.49-26.08-54.45,0,0-6.41-6.41-9.61-9.15l-5.67.48A68.29,68.29,0,0,0,278.15,65.44Z"/><path class="cls-5" d="M286.44,188.76c-.69,1.64-1.32,3.3-1.94,5-.2.54-.4,1.08-.61,1.61-.64,1.61-.32,3.7-.36,5.42-.16,7.84-.68,15.65-1.35,23.46-.06.71,1,.69,1.09,0,.68-6.68,1-13.4,1.24-20.11,0-1.56.06-3.13.08-4.69,0-.89,0-1.79,0-2.68a8.69,8.69,0,0,1-.14-1.63c.53-1.32,1-2.66,1.54-4,1.52-3.89,6.43-17.66,12.67-13.4.2.14.39-.19.19-.33C292.78,173.09,288.07,184.89,286.44,188.76Zm9.6-25.92c.1-1,.57-1.84.73-2.83.19-1.15.42-2.31.64-3.46.47-2.46,1.06-4.9,1.72-7.31,2.54-9.4,6.3-18.41,9.33-27.65.53-1.61,1-2.7.72-4.29s-.65-3-1-4.54A134.36,134.36,0,0,0,302.79,96,109,109,0,0,0,289.3,71.1a96.81,96.81,0,0,0-15.84-16.53c-.47-.4-1.16.27-.69.69a118.81,118.81,0,0,1,13.05,13.21,100.63,100.63,0,0,1,13.24,21.77,119.45,119.45,0,0,1,9.14,28.27c.05.28,0,0-.15.44-.42,1.35-.86,2.7-1.31,4-.88,2.64-1.81,5.25-2.75,7.86-1.88,5.25-3.79,10.51-5.36,15.86q-1.14,3.87-2,7.83c-.28,1.33-.54,2.67-.72,4-.06.43-.11.87-.16,1.31s.21,1.26.15,1.77a70.14,70.14,0,0,0-.5,8.57c0,.47,1.59,2.17,1.95,2.7.94,1.36,1.79,2.79,2.64,4.22a.11.11,0,0,0,.18-.11,73.45,73.45,0,0,0-4.15-6.34c-.7-.92-.37-2.53-.33-3.6C295.78,165.67,295.9,164.25,296,162.84Z"/><path class="cls-6" d="M298.74,177.54c-6.86-5-12.81,13.27-14.64,17.85h0q0,14.42-1.37,28.82L253.9,205,237,96.1l9.15-38.9,27-2.28c3.2,2.74,9.61,9.15,9.61,9.15,20.59,22,26.08,54.45,26.08,54.45-5.49,17.84-13.27,32.48-13.27,51.7a60.07,60.07,0,0,1,4.57,6.86Z"/><path class="cls-3" d="M283.43,214.43c-1.6-9.24-4.28-17.61-2.88-27.16,2.06-14.08,4.12-19.91-3.43-38.1a67.78,67.78,0,0,1-2.74-15.44c-.35-7.89-7.21-29.86-15.45-35.69L246.12,82.83s-28.37-.46-31.57-1.38-23.34-1.37-25.17-1.37-34.31,10.07-35.69,11l-29.28,19.68-19.67,38.43,3.66,45.76,7.77,49c-1,8.23,2.75,32.6,5.15,40.15s29.17,24.71,29.17,24.71c8.92,7.55,18.87,15.44,29.51,20.59,0,0,11.33,8.58,24.71,10.29s11.33,0,19.91-.68,17.84-1.38,24.7-18.19,18.88-27.11,21.28-35.35,3.09-36.37,6.87-43.92C281.55,233.32,285,223.67,283.43,214.43Z"/><path class="cls-3" d="M144.54,155.12s2.29-22.42,6.41-27.45c0,0,26.08-3.2,37.52-29.29a18.48,18.48,0,0,0,11.9,3.66c6.86-.45,20.13-.45,23.33.92s10.53,5.49,10.53,5.49l19.67,16.47,11.9.92s7.32,22.42,2.74,29.74-38,17.39-38,17.39l-35.23,1.37-41.18-9.61Z"/><path class="cls-3" d="M274.38,133.73c-.35-7.89-7.21-29.86-15.45-35.69L246.12,82.83s-28.37-.46-31.57-1.38-23.34-1.37-25.17-1.37-34.31,10.07-35.69,11l-29.28,19.68-19.67,38.43,2.19,27.44,7.87,8.71s1.37-22.42,15.56-33.4a61.16,61.16,0,0,0,19.21-26.54s26.09-2.74,37.07-27.91l6.86-1.83s1.37,3.2,8.24,3.2,22.42,1.37,22.42,1.37,16,6.87,14.18,10.07-6,16.93-27.45,15.1L221,128.13s32.06,5,42.23-16.89a25.94,25.94,0,0,1,2.4,4.17l-6.66,9.06a50.85,50.85,0,0,0,8.56-4.13c4.41,14,3.34,32.49,3.34,32.49l3.2,7.32,8.24,7.78.06,0c-.4-5-1.86-10.65-5.21-18.73A67.78,67.78,0,0,1,274.38,133.73Z"/><path class="cls-3" d="M156.44,206.83s15.78-2.06,21.5-8l4.58.91S175.2,207.74,156.44,206.83Z"/><path class="cls-3" d="M253.67,206.83s-11.08-2.06-15.09-8l-3.21.91S240.51,207.74,253.67,206.83Z"/><path class="cls-3" d="M195.79,308.86l9.15-7.78s17.39,2.29,30.66-1.83l5.49,7.33S218.67,304.74,195.79,308.86Z"/><path class="cls-3" d="M137.91,189.67s-21.74-9.38-16-22.42c0,0,7.55-6.64,15.56-5.95S195.56,170,195.56,170s3.2,17.62-12.81,26.54l-22.65-3Z"/><path class="cls-3" d="M234,196.76s-9.6-11-3-22.88,20.36-8.46,20.36-8.46l16.7-4.12h7.78s5.49,4.12,5.49,6.4.69,16.48-8.69,21.28l-14.18,4.81s-11.9,1.14-12.59,1.37-8.23.23-8.23.23Z"/><path class="cls-3" d="M210.55,233.94s5.49,13.72,15.09,12.69,10-9.6,6.87-15.44a44,44,0,0,1-4.46-21.28c.34-7.2.34-27.45.34-27.45l-22,1.37s2.74,23.34,2.4,30.89S210.55,233.94,210.55,233.94Z"/><path class="cls-3" d="M208.83,227.07s11.67-5.14,22.65-1l-1-3.08a33.75,33.75,0,0,0-23.34,2.74Z"/><path class="cls-3" d="M194.76,238.06s5.49-7.55,8.58-12.36-.69-29.17-1.72-32.94-24.27,16.91-25.74,22.65c-3.77,14.75,13.39,21.27,17.51,26.08Z"/><path class="cls-3" d="M241.77,235A55.45,55.45,0,0,1,231.48,226s-2.58-12.83-2.23-19.9.68-11.5.68-11.5,7.73,16.65,11.84,18.71,8.58,9.61,7.55,13.72-6.17,13.39-6.17,13.39Z"/><path class="cls-3" d="M194.63,243.16c1.23.87,3-.76,3.91-1.47,2-1.5,6.46-3.37,6.69-6,.32-3.79-3.53-3.72-5.84-2.1C197.71,234.73,191.37,240.88,194.63,243.16Z"/><path class="cls-3" d="M242.46,244.06c-.31-1.71-8.3-9.54-5-10.47,4.4-1.22,6,6.38,5.67,9.1Z"/><path class="cls-3" d="M194.42,247s4.12-4.81,10-4.46,10.29,4.11,15.1,5.83,13,1,16.47-4.81c0,0,6.18-.68,6.52,3.09,0,0-1.72,4.81-4.8,5.15a16,16,0,0,1-15.1,12c-12.7.69-22.65-7.55-26.08-13.38Z"/><path class="cls-3" d="M156,304.29c-3.2-4.58-6.86-15.1-10.52-24.25s-17.85-33-17.85-33l-13.72-18.76-.18,0,2.46,15.53c-1,8.23,2.75,32.6,5.15,40.15s29.17,24.71,29.17,24.71c8.92,7.55,18.87,15.44,29.51,20.59a59.72,59.72,0,0,0,8.52,5.1C180.06,328.1,159,308.62,156,304.29Zm123.54-67.72c-3.66,2.29-14.18,26.08-15.1,32.48s-1.83,18.31-4.57,24.71c-2.05,4.78-6.13,16.16-8.07,21.65,7-13.72,16.68-22.67,18.82-30,2.4-8.23,3.09-36.37,6.87-43.92.81-1.63,1.6-3.32,2.33-5.06A1.47,1.47,0,0,0,279.52,236.57Z"/><path class="cls-3" d="M156,304.29c-3.2-4.58-6.86-15.1-10.52-24.25s-17.85-33-17.85-33l-7.89-10.79a38.56,38.56,0,0,0-4.46,1.82l.91,5.77a36,36,0,0,0-.14,5.21,13.57,13.57,0,0,1,9.75,2.57c6.87,5,22,42.55,26.08,51.25,3.1,6.53,16,18,22.25,23.26,1.94,1.14,3.9,2.2,5.89,3.16a59.72,59.72,0,0,0,8.52,5.1C180.06,328.1,159,308.62,156,304.29Zm123.54-67.72c-3.66,2.29-14.18,26.08-15.1,32.48s-1.83,18.31-4.57,24.71c-2.05,4.78-6.13,16.16-8.07,21.65a88.8,88.8,0,0,1,4.88-8.4c1.85-4.62,5.91-15.09,7.31-21,1.72-7.33,3-26.84,11.23-36a33.47,33.47,0,0,1,2.27-8.53c.81-1.63,1.6-3.32,2.33-5.06A1.47,1.47,0,0,0,279.52,236.57Z"/><path d="M212.26,249.61C208.37,246.86,202,246,202,246,206.08,252.81,212.26,249.61,212.26,249.61ZM234,248.24l-.92,2.28c4.12-.68,5.72-3,5.72-3C236.28,246.18,234,248.24,234,248.24Z"/><path class="cls-7" d="M202.67,252.76c-4.23-1.6-8.2-4.5-8.59-9.3-.35-4.21,1.63-8.25,3.51-11.88a.1.1,0,0,0-.17-.09c-2.24,3.78-4.7,8.44-4.2,13,.55,5,5,7.26,9.42,8.38C202.7,252.88,202.73,252.79,202.67,252.76Zm5-5.87c-2.67-1.11-7-2.45-8.3,1.05-.11.31.37.43.48.13,1.17-2.94,6.78-.67,8.61.07,2.68,1.09,5.88,2.6,7.85,4.79.13.14.37-.05.26-.2C214.6,249.94,210.63,248.13,207.62,246.89Zm32.08,1.48s.05,0,0,0a4,4,0,0,0-4.71-1.17,17.25,17.25,0,0,0,1.06-3.9c1.44-10.42-6.72-19.45-5.88-29.91,0-.12-.17-.12-.18,0-1.24,9.34,5,17.38,5.68,26.48.68,9.64-9.43,19.12-18.93,14.61a.1.1,0,0,0-.1.18c4.08,2.14,8.07,2.49,12.15.08a15.2,15.2,0,0,0,5.7-6.42,6.64,6.64,0,0,1,2.37-.93A3.36,3.36,0,0,1,239.7,248.37Zm.05-17.21s-.11,0-.08.06a18.12,18.12,0,0,1,2.93,10.67c0,3.79-1.26,8.52-5.31,9.82a.08.08,0,0,0,0,.15C246.07,249.63,244.31,236.54,239.75,231.16Z"/><path class="cls-3" d="M116.13,243.89c-.73,6.08.23,12.51,1,18.54a165.85,165.85,0,0,0,3.45,19.42,13.22,13.22,0,0,0,2.2,5,38.79,38.79,0,0,0,5.09,5.32,151.31,151.31,0,0,0,14.26,11.1c2.72,1.93,5.47,3.81,8.28,5.61a69.47,69.47,0,0,1,5.63,4.68q2.94,2.38,6,4.66a126,126,0,0,0,13,8.69c2.21,1.26,4.46,2.33,6.57,3.74a63.48,63.48,0,0,0,8.12,4.57,56.08,56.08,0,0,0,24,5.35,29.9,29.9,0,0,0,5.8-.74c2.71-.53,5.45-.68,8.2-1,5.49-.56,10.49-2.28,14.49-6.22a33,33,0,0,0,6.55-10,120.26,120.26,0,0,1,6.42-12.85c4-6.52,8.94-12.32,13-18.77,2.74-4.37,3.49-9,4.11-14,.85-6.92,1.4-13.88,2.26-20.8.39-3.21.86-6.43,1.55-9.59a40.45,40.45,0,0,1,3.13-8.26,54.4,54.4,0,0,0,4.44-14.13c.77-4.84.12-9.41-.83-14.17a102.67,102.67,0,0,1-2.42-15.78c-.19-4.57.69-9.07,1.37-13.57,1-6.37,1.23-12.55-.2-18.88-.44-2-1-3.89-1.65-5.79-.78-2.33-1.88-4.56-2.61-6.89a64.48,64.48,0,0,1-2-8.67c-.61-3.55-.6-7.14-1.23-10.68a75.28,75.28,0,0,0-2.43-9.45,79.76,79.76,0,0,0-5.44-13.14c-1.81-3.42-4-6.92-7.2-9.23-.12-.09-.24.11-.11.2,5.49,4,8.5,11.53,10.82,17.65,2.23,5.89,4.21,12.25,4.53,18.58a63,63,0,0,0,2.1,12.72c.85,3.26,2.32,6.33,3.38,9.53a46.77,46.77,0,0,1,2.1,20.83c-.46,3.72-1.18,7.39-1.63,11.11a50.59,50.59,0,0,0,.9,14.88c.94,5.24,2.5,10.48,2.54,15.84s-1.45,10.57-3.36,15.49c-1.26,3.25-3.12,6.27-4.08,9.64a66.11,66.11,0,0,0-1.64,8.48c-1,6.85-1.55,13.75-2.29,20.63-.58,5.35-.92,11-3.56,15.75-3.51,6.38-8.5,11.93-12.46,18a84.36,84.36,0,0,0-6.62,12.27c-1.84,4.26-3.73,8.38-6.83,11.9-4.2,4.78-9.87,6.53-16,7.11-2.55.24-5.08.44-7.6.93a30.47,30.47,0,0,1-6.46.67,57.28,57.28,0,0,1-25.66-6.68,60.08,60.08,0,0,1-6.42-3.91,16,16,0,0,0-2.18-1.21c-2.4-1.22-4.72-2.58-7-4a143.43,143.43,0,0,1-13.23-9.48c-2.63-2.07-5.1-4.63-7.91-6.44-8.52-5.52-17.19-11.41-24.45-18.54a19.65,19.65,0,0,1-4.17-5.26c-1-2.12-1.37-4.78-1.85-7.07a204,204,0,0,1-3.29-21.72,57.06,57.06,0,0,1-.34-12s-.07,0-.08,0Z"/><path class="cls-8" d="M179.88,281.38s12.36,6.56,15.27,9,6.19,5.74,11.64,5.74,24.74.55,28.38-3,8.73-11.48,14.18-14.76l-11.64,2.19-31.28.54Z"/><path class="cls-8" d="M236.26,290c.08,3.09-8.08,5.72-18.22,5.88s-18.43-2.24-18.52-5.33,8.08-5.73,18.22-5.88S236.17,286.89,236.26,290Z"/><path class="cls-9" d="M237.71,280.56l-31.28.54-26.55.28s7,3.7,11.69,6.59l.31,0s-1.46-3,.36-3.56,19.65,1.92,25.83,1.92a45.25,45.25,0,0,0,14.55-2.19c2.91-1.09,8-.27,8-.27v3c2.67-3.21,5.64-6.56,8.73-8.42Zm-37.58,13.7a12.73,12.73,0,0,0,6.66,1.88c5.46,0,24.74.55,28.38-3,.56-.55,1.17-1.21,1.79-1.94l-.7.3C224.62,296.9,202.67,294.55,200.13,294.26Z"/><path class="cls-9" d="M242.08,278.64s-5.82-6-10.55-6c-3.29,0-4.73,2.73-9.09,2.73s-6.19-3-10.92-2.73S201,273.72,193,278.37a29.14,29.14,0,0,1-9.82,2.19c-4.73,0-13.82-4.11-13.82-4.11,9.82,8.75,32,4.65,45.1,6.84l1.24.22-.51.05c1.82.55,4.37.82,5.82,1.1a26.74,26.74,0,0,0,3.73-1.24l3.18-.4c4-1.1,8.73-1.1,13.1-1.37,5.09-1.64,10.91-4.1,13.82-7.93C254.81,273.72,247.9,278.64,242.08,278.64Z"/><path class="cls-9" d="M214.46,283.22a54.93,54.93,0,0,0-10.28-.8c-4.19-.1-8.37-.1-12.56-.25-7.92-.29-16.66-1-22.28-5.72,0,0,0,0,0,0,5,4.48,13,5.67,20.36,6,4.2.22,8.42.12,12.62.15s8,.29,12.11.71C214.53,283.38,214.59,283.25,214.46,283.22Zm12.64-1.11c-.94.39-1.87.77-2.84,1.11s-2.49.63-3.54,1.1a4.83,4.83,0,0,1-2.19-.15c-1.14-.17-2.26-.37-3.35-.64-.07,0-.09.05,0,.07a22.31,22.31,0,0,0,2.74.65c.37.07,2.46.21,2.58.51a.58.58,0,0,0,.65.28,16.74,16.74,0,0,0,6.14-2.77C227.37,282.18,227.23,282.05,227.1,282.11Zm27.66-8.41c-3,3.34-7.31,5.36-12.06,7a13.53,13.53,0,0,1-3,1l-4.47.24a36.92,36.92,0,0,0-7.38,1.09s0,.07,0,.06a49.37,49.37,0,0,1,9.28-1.14c1.45-.08,2.85-.08,4.29-.08a9.45,9.45,0,0,0,2.65-.91c4.21-1.63,8.49-4,10.74-7.17C254.9,273.69,254.8,273.65,254.76,273.7Z"/><path class="cls-6" d="M121.67,167.7s5.48-6.17,20.93-1.37,36.72,12,50.1,7.89c0,0,3.09-3.08,3.43-4.8s-2.06-8.24-2.06-8.24,1,5.49,0,7.21c0,0-1.37-5.83-4.12-7.89l.35,3.43s-3.78-1.37-16.47-2.4-23.68-4.12-32.26-10.64C141.57,150.89,126.12,151.92,121.67,167.7Z"/><path class="cls-6" d="M183.44,174.42c-11.59,0-26-4.53-37.65-8.17l-2.89-.9a37.41,37.41,0,0,0-11-1.88,18.82,18.82,0,0,0-8.23,1.67C128.31,154,139.08,152.2,141.27,152c8.07,6,18.7,9.49,32.47,10.6,12.31,1,16.17,2.34,16.21,2.35a1,1,0,0,0,.35.06,1,1,0,0,0,.63-.22,1,1,0,0,0,.4-.81,22.24,22.24,0,0,1,1.74,4.7,1.05,1.05,0,0,0,.85.78h.15a1,1,0,0,0,.88-.5,2.4,2.4,0,0,0,.17-.32,2.09,2.09,0,0,1,0,.62c-.18.92-1.78,2.88-3,4.1a31.1,31.1,0,0,1-8.71,1.1Z"/><path class="cls-6" d="M281.58,167.7s-3.93-6.17-15-1.37-26.27,12-35.84,7.89c0,0-2.21-3.08-2.46-4.8s1.47-8.24,1.47-8.24-.73,5.49,0,7.21c0,0,1-5.83,2.95-7.89l-.24,3.43s2.7-1.37,11.78-2.4,16.94-4.12,23.08-10.64C267.34,150.89,278.39,151.92,281.58,167.7Z"/><path class="cls-6" d="M237.38,174.42c8.29,0,18.63-4.53,26.94-8.17l2.07-.9a20,20,0,0,1,7.89-1.88,10.35,10.35,0,0,1,5.89,1.67C276.83,154,269.12,152.2,267.56,152c-5.78,6-13.39,9.49-23.24,10.6-8.81,1-11.57,2.34-11.59,2.35a.61.61,0,0,1-.25.06.63.63,0,0,1-.46-.22,1.21,1.21,0,0,1-.28-.81,28.91,28.91,0,0,0-1.25,4.7.92.92,0,0,1-.6.78h-.12a.73.73,0,0,1-.63-.5,2.39,2.39,0,0,1-.11-.32,2.62,2.62,0,0,0,0,.62,14.18,14.18,0,0,0,2.13,4.1,16.38,16.38,0,0,0,6.23,1.1Z"/><path class="cls-7" d="M136.55,182.59c11.44-9.73,29.62-9.54,40.91.25a0,0,0,0,0,.06-.07c-10.57-11.24-30-10.2-41-.21,0,0,0,.06,0,0Z"/><path d="M141.57,191.27l-3.66-1.83s5.72-10.3,17.39-11.9,23.56,5.26,25.39,16Z"/><path class="cls-10" d="M180.69,193.79c-5.49-16.48-31.92-18.88-39.81-3.09l.69,1.71c9.26,10,25.05,10,36.37,4.12h4.47Z"/><path class="cls-11" d="M170.5,189a11.53,11.53,0,0,0-2.85-7.58,24.51,24.51,0,0,0-18.05.87,11.5,11.5,0,0,0,5.74,17.65,30.9,30.9,0,0,0,4.41.55A11.53,11.53,0,0,0,170.5,189Z"/><path class="cls-11" d="M148.76,189a10.21,10.21,0,1,0,16.07-8.35,24.83,24.83,0,0,0-12.44.54A10.18,10.18,0,0,0,148.76,189Z"/><path d="M165,189a6,6,0,1,1-6-6A6,6,0,0,1,165,189Z"/><path d="M163.22,189a4.26,4.26,0,1,1-4.26-4.26A4.26,4.26,0,0,1,163.22,189Z"/><path class="cls-10" d="M161.43,183.94a2.47,2.47,0,1,1-2.47-2.46A2.46,2.46,0,0,1,161.43,183.94Z"/><path d="M140.93,190.73c4-7.37,12.54-10.71,20.58-10.28a21.49,21.49,0,0,1,19.09,13.36c0,.11.22.07.18-.05-2.44-8.29-10.76-13-18.91-13.92-8.69-1-17.17,2.86-21,10.83,0,.07.07.13.1.06Z"/><path class="cls-3" d="M141.49,192.49c9.44,10,24.86,10.2,36.47,4.07,0,0,0-.07,0-.06-11.49,5.58-27,5.56-36.28-4.17-.1-.1-.26.06-.16.16Z"/><path class="cls-7" d="M274,182.59a24.93,24.93,0,0,0-35.29.25s-.09,0-.06-.07c9.13-11.24,25.91-10.2,35.38-.21,0,0,0,.06,0,0Z"/><path d="M269.67,191.27l3.15-1.83s-4.93-10.3-15-11.9a19.19,19.19,0,0,0-21.91,16Z"/><path class="cls-10" d="M235.91,193.79c4.74-16.48,27.53-18.88,34.35-3.09l-.59,1.71c-8,10-21.62,10-31.4,4.12h-3.84Z"/><path class="cls-11" d="M252,200.48c5.84,0,10.57-5.17,10.57-11.53a12,12,0,0,0-3-8A19,19,0,0,0,242.48,184a12.4,12.4,0,0,0-1,4.94C241.45,195.31,246.19,200.48,252,200.48Z"/><path class="cls-11" d="M252,199.15c5.17,0,9.36-4.57,9.36-10.2a10.42,10.42,0,0,0-4.42-8.66,19.15,19.15,0,0,0-12.19,2.21,10.78,10.78,0,0,0-2.1,6.45C242.67,194.58,246.86,199.15,252,199.15Z"/><path d="M257.54,189a5.54,5.54,0,1,1-5.52-6A5.79,5.79,0,0,1,257.54,189Z"/><path d="M255.92,189a3.91,3.91,0,1,1-3.9-4.26A4.09,4.09,0,0,1,255.92,189Z"/><path class="cls-10" d="M254.29,183.94a2.27,2.27,0,1,1-2.27-2.46A2.38,2.38,0,0,1,254.29,183.94Z"/><path d="M270.21,190.73a18.07,18.07,0,0,0-17.75-10.28c-7.3.46-13.77,5.45-16.48,13.36,0,.11-.18.07-.15-.05,2.1-8.29,9.29-13,16.32-13.92,7.49-1,14.81,2.86,18.15,10.83,0,.07-.06.13-.09.06Z"/><path class="cls-3" d="M269.73,192.49c-8.15,10-21.45,10.2-31.47,4.07,0,0,0-.07,0-.06,9.91,5.58,23.3,5.56,31.31-4.17.08-.1.22.06.13.16Z"/><path class="cls-12" d="M199.74,74.32a.35.35,0,0,0-.35-.6c-7.36,4.11-9.25,12.82-6,19.83.31.13.62.25.94.36C190.78,87.11,192.45,78.38,199.74,74.32Zm31.4-10.6a.32.32,0,0,0,.22-.1c.19-.2.12-.61-.22-.58s-.95.09-1.42.16c-8.06,1.16-14.66,6.9-19.18,13.44a36.65,36.65,0,0,0-6.66,19l.66,0a36.61,36.61,0,0,1,6.1-17.83C215.16,70.68,222.46,64.37,231.14,63.72ZM198.51,83.17c.78-6.72,3.51-13.81,8.5-18.52.33-.3-.16-.79-.48-.48-5,4.73-7.78,11.8-8.65,18.55a30.73,30.73,0,0,0,.72,12.37l.75.13A29.71,29.71,0,0,1,198.51,83.17Zm53.39-1.55A14.64,14.64,0,0,0,247,80c-5.55-.86-11.37,1.32-16.09,4.4a34.77,34.77,0,0,0-11.4,11.93l.71.14a35.07,35.07,0,0,1,10.29-11c4.7-3.33,10.78-5.75,16.5-4.81a14.3,14.3,0,0,1,4.54,1.55C251.94,82.42,252.29,81.83,251.9,81.62Zm-1,8.57a19.38,19.38,0,0,0-3.7-1.59c-8.87-2.76-19.38,1-25.14,8.28l.74.18c5.68-6.94,15.86-10.52,24.42-7.74a18.55,18.55,0,0,1,3.33,1.47A.35.35,0,0,0,250.87,90.19ZM240.12,68.52a7.64,7.64,0,0,1,4.16,2.31c.31.32.79-.17.48-.49a8.14,8.14,0,0,0-5.21-2.58c-5.84-.56-12.44,4.87-16.24,8.54a63.77,63.77,0,0,0-10,12.64A35.08,35.08,0,0,0,210,95.51l.72,0a36.37,36.37,0,0,1,3-6,62.89,62.89,0,0,1,9.05-11.75C226.53,73.93,233.94,67.35,240.12,68.52Zm-27-3.47c.37-.25,0-.84-.35-.59-9.34,6.27-14.63,20.08-11.17,31.05l.75.06C198.8,84.87,204,71.19,213.12,65.05Z"/><path class="cls-13" d="M186.49,89.49c4.78,3.79,11.06,6.58,17.29,6.3,5.72-.26,11.77-.33,17.35,1.09l2.22.56c.48.12,1.51.61,2,.47.21-.06.45-.37.6-.5A23.73,23.73,0,0,1,228,95.86a20.37,20.37,0,0,1,19.18-2.42c.22.09.38-.29.16-.39-5.71-2.49-12-1.74-17.36,1.1a24.58,24.58,0,0,0-4.47,3c-.52.45-.08.33-.65.19l-3.18-.8c-5.35-1.32-11-1.38-16.43-1.19a28.29,28.29,0,0,1-18.73-5.95s-.1,0-.06.06Z"/><path class="cls-6" d="M247.26,93.24c-12-5.15-22,4.46-22,4.46l-4.12-1c-6.52-1.72-17.84-1-17.84-1a27.44,27.44,0,0,1-16.82-6.18s.35-11.67.69-13,8.24-9.61,13.38-11.67,13.73-4.11,20.94-3.09,16.13,3.09,17.84,5.84,6.87,6.52,7.55,8.58Z"/><path class="cls-14" d="M146.7,60a28,28,0,0,0-10-4.23c-2.31-.45-7.17.17-9.07-1.27-4.21-3.17.66-8.26,0-12.74-1.4.1-2.92-.24-4.34,0,1.43-3,5-6.76,5.33-9.64l-8.7,9.15c-6.65,3.07-14.38,13.54-15,21,9.11-7.21,19.49,1,25.18,7.8,7.28,8.71,18.52,17.74,30.51,12.43-.55,2.37-1.45,4.69-1.82,7.11,6.58-5.9,9.44-13.53,15.19-19.79C163.1,76.71,155.42,65.48,146.7,60Zm48.3-32a50.93,50.93,0,0,0,6.75-.72A21.64,21.64,0,0,0,195,27.93Zm46.1,30.19a15.81,15.81,0,0,0-3.22-6.51c-.93-1.18-4.61-3.61-5-4.92-.73-2.7,1.87-3,2.26-5,.58-3-1.83-2.92.85-5.63,1.76-1.77,5.49-1.2,5-4.47-.18-1.2-4.5-3.78-5.48-4.58a6,6,0,0,1,4-1.33c-12.09-5.76-25.33-.5-37.83,1.55,3.81.15,7.8,1.1,10.51,2.88,4.06,2.68,2.51,6.68,6,8.81,3.15,1.9,14-.47,11.94,6-1.24,3.85-10.11,6.14-13,8.65,3.56,4-3.39,4-5.78,4.93-3.19,1.17-5.16,3.32-7.88,5.16l-3.66,3.66c10-9.18,34.83-7.19,44.4,2.13-.1-2.39-1.48-3.47-2.21-5.44S241.6,60.27,241.1,58.12Zm25.17-3.2c-4.14-4.92-4.69-4.71-3.68-11,1.34-8.24-6.65-12.51-12.87-16.3,2.48,2.58,6.19,4.8,7.29,8.53.93,3.15-.19,6.69.89,9.71,1.52,4.21,10.08,14.51.26,13.7,5.28,3.67,2.61,9.24-.6,13.19l2.75.91a26.16,26.16,0,0,1,5.87,4.9c-.41-1-.1-2.37-.31-3.45,4.88.25,1.41-8.68,1.37-11.44C273,64.19,267.89,56.86,266.27,54.92ZM75.06,131.14l.85-1.18A4,4,0,0,0,75.06,131.14Zm33.79,21.69c-3.32-.69-1.89-1.59-3.77-3.66-2.36-2.57-1.86-2.12-5.47-2.29-5.19-.23-11.47.79-15.92-2.62s-2.69-7.35-9.08-6.59c-.11-2.13-.44-4.67.45-6.53l-1.44,2c-2.78,4.87-.1,11.9.92,16.54,1.72-2,5,4.77,6.75,6.45,4.78,4.69,4.87.82,7-3.69,4-.91,7.23,2.52,9.9,5.08,1.33,1.26,2.44,3.31,4.22,3.45s3-2.53,5.41-2.14c.42,2.87,1,5.73,1.54,8.59,1.49-2.83,1.58-7,3-10a39.54,39.54,0,0,1,6-8.52C116.07,151,112.26,153.54,108.85,152.83Z"/><path class="cls-15" d="M136.79,64a68.93,68.93,0,0,0-14.66-8.69c-4.72-2.15-7.21-6.57-4.13-11.78l-2.74,2.74c-3.91,1.77-4.88,6.51-6.82,9.87,10-1.84,20.38,3.4,28,9.35,4.18,3.28,7.05,8,11.69,10.66s9.13,1.08,14.22,1.3c0,1.23.33,2.69.05,3.92,1.48-2.41,3.32-4.66,4.9-7.12C154.68,76.06,146.58,71.55,136.79,64Zm92.76-8.48c-.53-3,2.07-5,2.87-7.85a15.37,15.37,0,0,0-.83-10.56c-1-2.08-5.78-7.33.18-7.29-2.43-1.14-4-3.17-3.49-6l-13.73,1.37c4.36,2.87,4.32,7,8.23,9.27s9,2.13,9.17,8.11c.08,3.41-1.33,3.72-3.67,5.6-3.1,2.48-2.78,1.53-3.33,5.06-.4,2.57,1.89,2.18-.89,4.81-1.37,1.29-5.26,2.23-6.73,2.74,6.67.49,12.82.86,19,2.33C234.12,60.54,230.18,59.05,229.55,55.47Zm31.38-7.14c-2.42-4.93,2.4-13.27-4.19-16.08a47.14,47.14,0,0,1,1.74,9.23c.15,2.9-.18,4.9,1.31,7.49,1.27,2.21,3,4.13,3.66,6.63.39,1.48.93,6.8-2,4.6.29,3.11,2.76,9.87-1.17,11.64l4.11,3.21a99.58,99.58,0,0,1-.19-11.86,3.25,3.25,0,0,1,2.26,1.26C267.13,58,263.55,53.7,260.93,48.33ZM104.05,153.75c-1.11-.95-1.54-2.36-2.74-3.2-1.69-1.2-3.92-1-5.89-1.2-4.56-.4-10.2-.39-14-3.38-1.83-1.46-3.38-6.55-6.45-4.58l-1.14,2.52c3.72,2.6,7.31,4.43,9.89,8.67,3.66-3.36,11.4-3.56,15.68-.94,2,1.25,3.07,4.73,5,4.91,1.36.12,1.84-1.06,3.27-.35.79.39,1.43,1.79,1.77,2.51a13.9,13.9,0,0,1,.7-4.48A5.33,5.33,0,0,1,104.05,153.75Z"/><path class="cls-16" d="M84.26,211.91l-.34.17-.78.42-.39.22c-.26.14-.51.29-.75.44l-.39.23-.73.47-.33.22c-.85.57-1.66,1.17-2.44,1.81l-.29.23-.63.54-.37.33-.58.54-.38.36-.54.55-.38.39-.51.56-.36.41c-.29.34-.57.68-.84,1-.13.16-.27.32-.39.48l-.39.54-.38.52-.36.55-.36.54L71,224c-.12.19-.23.38-.34.58s-.21.36-.3.54-.23.43-.34.65l-.25.5c-.16.34-.32.68-.46,1-.07.15-.13.3-.19.46s-.24.58-.35.87-.11.33-.17.49-.17.5-.25.75-.11.35-.16.53l-.21.74c0,.17-.09.35-.13.53s-.12.52-.17.79-.08.33-.11.49c-.06.32-.11.64-.15.95l-.06.36c-.06.43-.1.86-.14,1.3,0,.13,0,.25,0,.37,0,.33,0,.65,0,1s0,.33,0,.5,0,.58,0,.87,0,.35,0,.53,0,.57,0,.86,0,.35,0,.52.07.63.11.94c0,.15,0,.3.05.45.07.46.15.93.24,1.39l.57-1c1.73-22,18.08-27.56,18.08-27.56l-1.21-2.89ZM67.89,243.57l.24,0c0-.51.06-1,.1-1.51-.12.51-.24,1-.34,1.54Zm78-125.11c12.35-3.26,17.33-14.41,17.33-14.41-4.16,2.82-18.36,6.55-22.09,7.49-8.81,1.7-13.26.23-13.26.23,36.72.68,40-30.32,40-30.32-5.95,23.8-39.35,37.52-59,21,7.12,12.46,19.44,13.57,31.46,11.31,4.41-.18,18.07-5.47,18.07-5.47a25.93,25.93,0,0,1-25,8.75l-.51.86a36.63,36.63,0,0,0,5.49,1.54l.33.24.14-.18c17.28,3,43.27-9.94,43.72-27.57C174.53,113.37,145.86,118.46,145.86,118.46ZM276.68,88l0-.56c0-.36-.06-.72-.1-1.07,0-.17,0-.34-.05-.5-.06-.52-.13-1-.22-1.55-1.56-9.6-7-18.86-16.89-26.16,0,0,7.78,7,12.58,20s-1.37,26.08-1.37,26.08C272,86,256.64,76,256.64,76c11.9,14.19,17.85,33.86,1.38,48.05v.46c.4-.31.8-.61,1.19-.93h0l.37-.29.4-.33.39-.32h0l.41-.34h0l.72-.63c.14-.11.27-.23.41-.36h0l.75-.69h0l.31-.29h0l1-1,0,0h0l.09-.1c.3-.3.59-.61.88-.91h0l.28-.3.52-.59a1.29,1.29,0,0,0,.16-.17h0l.31-.36.09-.1.54-.64,0,0,.27-.33h0l.54-.69a1.58,1.58,0,0,1,.12-.15c.06-.09.13-.17.2-.26h0a.21.21,0,0,0,0-.06c.52-.68,1-1.37,1.49-2.07l.11-.16h0c.06-.08.11-.17.16-.25v0l.27-.41c.1-.16.21-.32.31-.49s.13-.21.2-.32h0c.17-.27.34-.55.5-.83a.43.43,0,0,1,0-.07l.16-.28c.2-.35.4-.7.58-1,0,0,0-.09.08-.14.43-.81.84-1.64,1.21-2.47v0h0c0-.06.05-.11.07-.16l.17-.39.3-.7.09-.23.42-1.08.06-.18c.22-.58.41-1.16.6-1.75l.12-.4c.18-.59.35-1.18.5-1.77v0h0c.1-.43.2-.85.29-1.28h0a.31.31,0,0,0,0-.08,0,0,0,0,0,0,0c.06-.31.12-.61.17-.92,0-.11,0-.23.07-.34a.43.43,0,0,1,0,0c.08-.45.15-.9.21-1.36a.13.13,0,0,0,0-.06,33.7,33.7,0,0,0,.33-4v0h0c0-.52,0-1,0-1.54,0-.17,0-.34,0-.5C276.72,88.68,276.7,88.32,276.68,88Zm-65.79,37.42.62.08h0l-.16-.08Zm73.86-34.32c0-.42,0-.86,0-1.3,0-.26,0-.54,0-.81q0-.63-.09-1.29c0-.3-.06-.6-.08-.9s-.1-.87-.15-1.32l-.12-1c-.06-.45-.13-.91-.2-1.38s-.1-.67-.16-1-.17-1-.26-1.46-.13-.69-.2-1c-.1-.52-.22-1.06-.34-1.59-.08-.34-.15-.68-.23-1-.14-.6-.29-1.22-.45-1.83l-.23-.91c-.25-.93-.51-1.88-.8-2.85,0,0-3.66-41.18-39.35-48.5s-53.07,7.78-63.14,8.69c0,0-22-11.44-42.1-5.49,0,0-17.38,7.78-28.82,23.79S98.79,77.34,79.57,85.57c0,0-6.86,3.21-7.78,9.15,0,0,2.75-5,6.86-5.49,0,0-8.23,5.49-7.32,13.27,0,0,.46-1.83,4.12-4.12,0,0-5,6-4.12,13.73,0,0,1.38-4.58,4.58-6.86a17.52,17.52,0,0,1-3.2,9.61c-3.21,4.11-1.84,9.61-1.84,9.61s-.45-3.67,3.67-6c0,0-4.12,7.32-1.83,12.35l-1.38,3.66s0,8.24,2.29,14.18c.09.22.16.45.24.69a1.72,1.72,0,0,1,.07.21c.06.17.12.34.17.52s.05.16.07.24.12.42.17.63a.65.65,0,0,1,0,.13c.07.27.13.54.2.81l0,.17.15.68c0,.07,0,.15,0,.23s.09.46.14.7a.76.76,0,0,0,0,.16q.15.9.27,1.83c0,.06,0,.11,0,.17,0,.27.07.53.1.8,0,0,0,.09,0,.14.07.64.12,1.28.17,1.93v.05c0,.3,0,.61,0,.92v.07c0,1,.06,1.93,0,2.85v.05c0,.3,0,.6,0,.9,1.24-6.52-.35-12-1.33-18.54-1.06-7,.1-12.13,4.68-17.51a10.51,10.51,0,0,0-4.27,2.38c-.46-7.33,4.78-12.69,6.46-19.58-.89,2.17-3.19,4.21-5.72,5.76,4.48-6.36,2.18-14,9.11-19a14.31,14.31,0,0,0-6.77,3.34c.76-5.17,6.69-8.25,10.8-10.29-2.58.06-4.46.06-6.71,1.34,2.57-4.94,9.32-7.13,13.1-11.21s6-8.34,8.23-13.1c5.13-10.81,13-22.5,22.64-29.43,6.33-4.58,14.83-9.41,22.91-9,9.82.49,17.16,2.06,27.46,5.15L162.5,38.33a80.18,80.18,0,0,0,27.8-4.46c14.41-5.15,44.95-15.79,66.23-.69S279.18,74,279.18,74s10.3,24-1.37,38.43l-.26.34.11-.1.12-.1.11-.1.17-.15.12-.12.2-.19.14-.14.22-.24.15-.17.25-.29.15-.17.27-.35.15-.19c.1-.14.21-.28.31-.43l.13-.18c.13-.18.26-.37.38-.57l.07-.11c.31-.49.63-1,.94-1.63,0,0,0-.09.07-.14.12-.25.25-.5.37-.77l.12-.28c.11-.23.22-.47.32-.72l.14-.36c.09-.24.18-.48.27-.74s.1-.26.14-.4.18-.51.26-.77.09-.3.13-.45.16-.55.23-.83l.12-.48c.08-.29.14-.6.21-.9s.07-.33.1-.5c.07-.33.13-.67.19-1,0-.16.05-.32.08-.48.06-.4.11-.81.16-1.22,0-.13,0-.24.05-.36q.19-1.65.24-3.51c0-.15,0-.32,0-.48,0-.46,0-.92,0-1.4C284.76,91.53,284.75,91.29,284.75,91.06Zm-26.5,17.76c.08-.13.15-.27.22-.41v0c.1-.2.21-.4.3-.59s.16-.34.23-.51a1.63,1.63,0,0,0,.11-.23h0l.27-.59h0c.11-.25.21-.51.31-.76h0l.22-.57h0c.1-.26.19-.52.27-.79,0,0,0,0,0,0l.18-.54h0l.2-.68a.74.74,0,0,1,0-.14l.15-.54c.07-.28.13-.55.19-.84l.12-.51h0c.06-.28.11-.57.16-.86v0c0-.16.06-.32.08-.48h0c.05-.3.08-.59.12-.89v0l.06-.45h0l0-.46c0-.15,0-.3,0-.45l0-.46c0-.32,0-.63,0-.94v-.43h0c0-.32,0-.64,0-1h0c0-.14,0-.27,0-.41h0c0-.33,0-.66-.06-1h0c0-.12,0-.25,0-.37h0c0-.34-.07-.68-.11-1h0c0-.12,0-.24-.05-.35,0-.35-.11-.7-.17-1l-.06-.32h0c-.06-.32-.13-.63-.2-.95a.59.59,0,0,0,0-.13c0-.1-.05-.2-.07-.3h0a2.33,2.33,0,0,0-.07-.25c-.06-.28-.13-.56-.21-.85a2.76,2.76,0,0,0-.08-.27h0c-.1-.37-.21-.74-.33-1.12h0a2.25,2.25,0,0,0-.08-.24c-.12-.38-.25-.77-.39-1.15,0-.07,0-.14-.08-.22h0c-.1-.27-.21-.54-.32-.81l-.14-.36c0-.06-.05-.13-.08-.19-.14-.33-.28-.67-.43-1l-.09-.21a1,1,0,0,1-.07-.15h0c-.19-.41-.38-.81-.59-1.22h0l-.06-.12-.27-.51c-.13-.25-.25-.5-.39-.74h0a.93.93,0,0,1-.05-.1h0c-.23-.42-.47-.84-.72-1.27h0l0-.07c-.26-.43-.53-.87-.81-1.3v0h0c-.29-.44-.58-.89-.89-1.33l-.69-1s.91,4.35,3.32,19.11-15.79,26.42-15.79,26.42c14.41-13.73,6.52-33.29,3.09-39.81s-11.33-17.16-33.29-13.38-23.68,23.68-23.68,23.68c6.41-22,31.58-23.34,43-17.85,16.93,8.7,22,35.69,5.95,46.67-.52.4-1.06.77-1.6,1.13l-.07,0h0l-1,.61-.42.25h0l-.9.52h0l-.46.25h0l-1,.5h0l-.17.08c-.5.24-1,.47-1.51.69l-.1,0h0c-1,.41-2,.78-3,1.1h0l-.07,0-1.46.41h0l-.08,0c-.5.13-1,.25-1.52.36h0l-.07,0-.27,0a33.54,33.54,0,0,1-7.57.65h0a35.81,35.81,0,0,1-3.72-.28c.39.19.79.38,1.19.55l.16.07,1.08.41.23.08,1.08.34.24.07,1.12.28.23,0c.4.09.8.16,1.21.23l.16,0a33.1,33.1,0,0,0,5.86.4h.18l1.29,0,.31,0c.4,0,.79,0,1.18-.09l.37,0,1.14-.13.38,0,1.16-.18.35,0,1.24-.24.25,0c1-.21,2-.45,3-.73h0c.44-.13.88-.25,1.32-.39h.08l0,0,1.2-.38.16-.06,1.15-.4h0l.23-.09.07,0,1-.38.16-.07.12,0,1-.41.27-.12.06,0h0l.89-.4h0l.4-.2.1,0,.71-.34.41-.22c.25-.13.51-.26.75-.4h0l.48-.27,0,0,.61-.35,0,0,.51-.31.16-.1.4-.25c.18-.11.35-.23.52-.35l0,0,.48-.32,0,0,.55-.4.18-.13.24-.17c.28-.21.56-.44.83-.66l.11-.08c.3-.25.6-.5.88-.76.43-.41.84-.82,1.24-1.24h0c.14-.14.27-.28.4-.43s.5-.53.74-.81l.44-.51,0,0c.21-.24.42-.48.61-.72h0l.24-.31.21-.27.54-.69,0-.06.4-.57,0-.05.44-.61h0c.15-.22.28-.44.43-.66h0c.14-.21.28-.42.4-.63h0l.1-.17.3-.51c.12-.21.25-.42.36-.63S258.2,108.92,258.25,108.82ZM83.69,188.07c-.46,1.37-6,8.23-14.19,8.69S51.2,186.69,54.86,173a.11.11,0,0,0,0,0c-.4.9-6.67,15.34,5.87,23.83l.21,0s14.76,7.21,25.74-7.89l-3-1.06A.76.76,0,0,1,83.69,188.07Z"/><path class="cls-17" d="M254,74.06c-.11-.14-.36,0-.25.15,4.37,6.47,7.64,13.72,7.53,21.68-.11,8.27-4.36,15.65-10.07,21.39-4.89,4.92-12.15,7.69-18.77,9.22-6.44,1.48-14,1.95-20.25-.77,14.52,1.89,31.42-6.57,34-21.82,2.11-12.24-4.3-27-15.9-32.3-7.29-3.33-16.27-3.28-23.85-1a28.84,28.84,0,0,0-11.66,6.64,27.79,27.79,0,0,0-7.36,12.92c0,.08.1.11.13,0,4.16-13.34,17.11-20.35,30.54-20a27.61,27.61,0,0,1,15.58,4.75A30.2,30.2,0,0,1,245,92.14c1.9,7.67.77,16.29-4.22,22.58-3.08,3.88-7.79,6.68-12.32,8.5a36.66,36.66,0,0,1-17.52,2c-.16,0-.2.25,0,.28.33.06.67.11,1,.15,6.21,3,13.16,3.13,19.89,1.9a41.33,41.33,0,0,0,19.75-9.16,31.24,31.24,0,0,0,10.44-21.56C262.32,88.61,258.87,80.55,254,74.06ZM258,124s0,0,0,0c7.2-6.11,11.27-14.26,10.39-23.81a37.78,37.78,0,0,0-3.72-12.63,40.4,40.4,0,0,0-8-11.71c-.11-.1-.3,0-.21.16,2.42,3.7,5.07,7.1,7.05,11.1a39.28,39.28,0,0,1,3.94,12.63C268.66,109,264.88,117.8,258,124Zm25.05-46.65a66.88,66.88,0,0,1-1.62-6.49c-.1-.88-.23-1.75-.38-2.62a68.33,68.33,0,0,0-8.86-24A46.29,46.29,0,0,0,243.38,23a83.71,83.71,0,0,0-46,2c-4.6,1.54-9,3.55-13.6,5.14-.82.29-1.66.55-2.5.77-.43.11-1.93.64-2.31.45-1.12-.58-2.29-1.08-3.45-1.58a73.47,73.47,0,0,0-20.07-5.3,51.23,51.23,0,0,0-13.15.15,21.39,21.39,0,0,0-6.5,1.66,75.74,75.74,0,0,0-30.32,26.87c-5.07,8-7.61,17.88-14.4,24.74a31.22,31.22,0,0,1-6.44,4.88c-1.84,1.09-3.84,1.84-5.72,2.86-3.47,1.89-6.59,5-7.31,9,0,.24.27.41.4.18a10.78,10.78,0,0,1,5.64-5.13c-3.93,3-7,7.76-6.51,12.79a.23.23,0,0,0,.44.06c.37-1.33,1.71-2.43,2.93-3.27a19.37,19.37,0,0,0-3.37,12.82.23.23,0,0,0,.44.06,15.13,15.13,0,0,1,3.12-5.52q.31-.34.66-.66c.41-.38.37-1,.35-.56,0,.33,0,.67-.07,1a18.87,18.87,0,0,1-.92,4.2c-1,3.19-3.53,5.42-4.15,8.79a12.7,12.7,0,0,0,.12,5.1c.06.24.46.2.44,0-.24-2.2,1.17-4.1,2.88-5.32a21.91,21.91,0,0,0-2,5.93,11.63,11.63,0,0,0,.06,4.59c.14.64.49,1,.26,1.61s-.49,1.31-.74,2c-.66,1.78-.42,3.39-.26,5.29a49,49,0,0,0,2.48,11.35,40.33,40.33,0,0,1,1.65,11.87,31.21,31.21,0,0,1-.36,5.37,30.88,30.88,0,0,1-1.28,4c-.89,2.92-.72,6.25-.48,9.25.11,1.37.85,1.37,2,2s8.78,4.34,8,5.9c-2.07,4-7.17,6.93-11.38,7.92-5.29,1.26-10.14-1.31-13.48-5.34-4.12-5-5-11.73-3.45-17.85.06-.21-.26-.36-.36-.15a23.15,23.15,0,0,0-2,9.13,18.09,18.09,0,0,0,1.55,7.77,16,16,0,0,0,2.46,3.84,17.86,17.86,0,0,0,2,1.94c.62.54,2,1.14,2.42,1.77a23.8,23.8,0,0,0,6.76,6.58,23,23,0,0,0,18.6,3c.13,0,.08-.24-.06-.21-9.3,2.23-19.69-1.39-25-9.6a3.93,3.93,0,0,0-.94-.65,19.65,19.65,0,0,1-2.57-2.15,16.44,16.44,0,0,1-3-4A17.33,17.33,0,0,1,53.11,182a23.23,23.23,0,0,1,1.12-6.91A20.13,20.13,0,0,0,59.89,193c4.87,4.68,11.28,4.93,17.08,1.75a19.69,19.69,0,0,0,6.24-5.42c1-1.31.69-1.85-.55-2.86a45.6,45.6,0,0,0-6.57-4.13c-.73-.4-1.45-.8-2.19-1.18l-.09,0v0c0-.49-.09-1-.12-1.46a26.06,26.06,0,0,1,.52-8.36c.27-1,.81-2,1.08-3a21.18,21.18,0,0,0,.52-3.8,45.91,45.91,0,0,0-.45-9.44c-.46-3.23-1.63-6.15-2.46-9.28a46.89,46.89,0,0,1-1.31-9.66,9.53,9.53,0,0,1,1-4.17,1.9,1.9,0,0,0,0-1.9,10.87,10.87,0,0,1,0-5.66,20.69,20.69,0,0,1,2.13-5.69.22.22,0,0,0-.3-.3,7.8,7.8,0,0,0-3.58,4.21c0-.45,0-.89,0-1.34,0-2.8,1.2-4.88,2.73-7.13a16.55,16.55,0,0,0,2.59-8.82c0-.16-.2-.3-.33-.19A13.62,13.62,0,0,0,71.48,111a18.74,18.74,0,0,1,4.13-12.46c.15-.18,0-.5-.27-.35a11.9,11.9,0,0,0-3.83,3.36c0-4.9,3.28-9.45,7.26-12.13a.22.22,0,0,0-.18-.4,9.78,9.78,0,0,0-6.24,4.39c1.9-6,8.39-7.72,13.3-10.7C91.18,79.35,95,74.49,97.9,68.79c3.36-6.57,6.22-13.23,10.56-19.25A74.17,74.17,0,0,1,127.08,32a66.27,66.27,0,0,1,9.79-5.67c2.08-.94,4.9-1.15,7.14-1.41a48.74,48.74,0,0,1,7.15-.24,62.48,62.48,0,0,1,13,1.9,69.13,69.13,0,0,1,14.37,5.13c.87.44,2.52-.24,3.4-.48a59.68,59.68,0,0,0,5.67-2,142.54,142.54,0,0,1,15.43-5.43,79,79,0,0,1,22.75-2.6c8.72.24,17.88,1.49,25.91,5.07a44.36,44.36,0,0,1,15.17,11.39c6.62,7.56,10.79,17.12,13.08,26.83a56.85,56.85,0,0,1,1.21,6.71,2.77,2.77,0,0,0,0,.3c.75,2.53,1.41,5.09,2,7.68a65.88,65.88,0,0,1,1.48,12.59c.11,6.88-1.2,14.73-6,20a9.85,9.85,0,0,1-1.2,1.13l-.21.16c.6-.41.81-1.6,1-2.22a33.09,33.09,0,0,0,1.05-3.52c1.85-7.53.64-15.48-2.45-22.5-1.69-10.8-8.4-20.4-17.36-26.76-.17-.11-.38.16-.22.29,10.39,8.19,17.39,19.64,17,33.17-.41,13.24-8.12,25-18.29,33-.09.06,0,.21.12.15,10.67-7.69,18.41-19.35,19.13-32.7a33.56,33.56,0,0,0-.33-6.89c3.87,9,4.29,19,.3,28a.08.08,0,0,0,.11.1c4.38-2.94,6.31-9.42,7.1-14.26C285.54,91.7,284.63,84.34,283.06,77.35ZM94.19,225.5c-14.09,4.1-26.93,18.38-22.62,33.75.52,1.85-.21,3.3.71,5,.06.11,2.48,1.48,1.63.75-.31-.27-.6-.56-.89-.85a18.57,18.57,0,0,1-2-2.42,20.75,20.75,0,0,1-3.36-10.19,31.6,31.6,0,0,1,5.87-20.65A28.74,28.74,0,0,1,76,228a.12.12,0,0,0-.17-.17c-4.25,3.76-6.84,9.36-8,15A27.36,27.36,0,0,1,73,221.54c4.67-6.28,11.58-10.14,19-12.33a.1.1,0,0,0,0-.19c-15.52,3-27.48,18.12-24.37,34a.13.13,0,0,0,.2.08,34,34,0,0,0-.63,4.61,24.59,24.59,0,0,0,1.67,11.07A18,18,0,0,0,71.29,263c.71.92,2,2.61,3.25,2.58a.19.19,0,0,0,.16-.29c-4.84-7.59-4.64-16.7-.18-24.38,4.27-7.39,11.74-12.57,19.72-15.24C94.35,225.64,94.3,225.46,94.19,225.5ZM138,120.24c-2.21,2.32-3,6.12-3.69,9.13a74.75,74.75,0,0,0-1.4,7.4c0,.1,0,.24.16.22l2.9-.36.18,0-.8.64c-2.1,1.68-4.3,3.25-6.35,5-5.48,4.61-9.63,10.75-12.93,17.05-1,1.92-1.94,3.9-2.77,5.91a16.23,16.23,0,0,0-.93,5.38c-.43,8,1.11,16.27,3.25,24a124.64,124.64,0,0,0,5.81,15.39c.6,1.43.59,3.45.85,5,.35,2,.72,4,1.09,6,.72,3.9,1.5,7.8,2.29,11.69q1.61,7.88,3.38,15.7c.08.35.15.7.23,1-.06-.26-4.53-.52-4.94-.59-3.68-.62-7.5-2-9.93-5-.1-.13-.28,0-.18.18,3.55,4.34,9.88,5.49,15.19,5.54a.15.15,0,0,0,.14-.18c-1-4.45-2-8.92-2.9-13.39q-1.34-6.44-2.57-12.89-.63-3.28-1.21-6.6c-.19-1.09-.38-2.18-.56-3.27a15.78,15.78,0,0,0-.54-3.24,123.31,123.31,0,0,1-6.47-17.83,94.26,94.26,0,0,1-2.28-12.58q-.35-3.18-.37-6.37c0-2-.22-4.7.45-6.57A65.86,65.86,0,0,1,121,151.82,46.35,46.35,0,0,1,131.11,141c1.95-1.47,3.86-3,5.78-4.52a.17.17,0,0,0-.13-.29l-2,.25-1.15.14-.31,0c.18-1.22.39-2.43.61-3.63.42-2.2.92-4.39,1.54-6.54s1.29-4.4,2.78-6C138.37,120.31,138.16,120.1,138,120.24Zm44.39-28.72c-.79,10.93-9.41,18.63-18.71,23.19a47.53,47.53,0,0,1-16.23,4.67c-4.81.46-10.32.2-14.79-1.85-.1,0-.18.09-.09.14,9.7,5,21.77,2.51,31.21-2,9.1-4.34,19.4-13.06,18.81-24.17A.1.1,0,0,0,182.42,91.52Zm-59.78,22.34c6.1,1.8,12.74,1.19,18.87-.1a95.45,95.45,0,0,0,9.77-2.68c1.53-.49,3.06-1,4.58-1.55l2.18-.77c.94-.34-.73,1.11-1,1.34-5.85,5.89-15.42,8.56-23.52,7h0c8.89,1.86,19.5-1.42,25.22-8.64.05-.06,0-.17-.08-.14a90.66,90.66,0,0,1-19.8,5.5c-7,1.17-14.49,1.1-20.86-2.32a23.58,23.58,0,0,1-8.28-7.88c-.57-.86-.9-1,0-.31.56.43,1.14.84,1.72,1.23a29.87,29.87,0,0,0,4.68,2.55,35.65,35.65,0,0,0,19,2.39c15-2,29-13.08,32.78-28,0-.15-.19-.21-.22-.07-6.23,23.58-39.28,37.17-58.86,21-.06,0-.17,0-.14.08,1.12,2.85,3.66,5.43,6,7.32A22.48,22.48,0,0,0,122.64,113.86Z"/><path class="cls-6" d="M67.67,243l.59-1.07c-2.13,8.62-.88,18.19,5.82,23.49h.46c-10.53-16.93,3.2-34.77,19.67-39.8l-2.29-16.47C76.37,212.77,64.47,227,67.67,243ZM281.35,71.39S277.69,30.21,242,22.89s-53.07,7.78-63.14,8.69c0,0-22-11.44-42.1-5.49,0,0-17.38,7.78-28.82,23.79S98.79,77.34,79.57,85.57c0,0-6.86,3.21-7.78,9.15,0,0,2.75-5,6.86-5.49,0,0-8.23,5.49-7.32,13.27,0,0,.46-1.83,4.12-4.12,0,0-5,6-4.12,13.73,0,0,1.38-4.58,4.58-6.86a17.52,17.52,0,0,1-3.2,9.61c-3.21,4.11-1.84,9.61-1.84,9.61s-.45-3.67,3.67-6c0,0-4.12,7.32-1.83,12.35l-1.38,3.66s0,8.24,2.29,14.18,2.75,17.39.92,21-.92,11.44-.92,11.44,10.52,5.49,10.07,6.87-6,8.23-14.19,8.69S51.2,186.69,54.86,173c0,0-7.32,15.55,6.41,24.25,0,0,8.69,13.72,25.16,9.61l9.85-19c2.21,10,5.25,29.07,5.25,29.07l12.81,27c3.21,4.12,10.07,5.49,15.1,5.49,0,0-5-22-7.77-39.35,0,0-2.75-6.41-4.58-11.44s-6-20.59-4.12-32c0,0,6.41-17.85,19.22-26.54l4.57-3.66-3.66.46s1.83-13.27,5-16.47l.64-.8c17.43,3,43.74-10.16,43.74-28l5-1.37c6.41-22,31.58-23.34,43-17.85,16.93,8.7,22,35.69,5.95,46.67a33.89,33.89,0,0,1-21,6.79l-4.11-.38c11.44,6,30.65.92,39.8-7.32,13.42-13,13.28-28.56,3.44-42.93,1.2.5,2,.83,2,.83,11.9,14.19,17.85,33.86,1.38,48.05v.46c14-10.46,20.61-25.71,18.26-40.19l.5.38c4.12,9.15,4.57,19.21.45,28.37C277.23,113,291,103.88,281.35,71.39Z"/><path class="cls-3" d="M111.74,223.3c-1-7.89-1.69-12.7-1.69-12.7-3.39-9.27-3.39-19.56-10.18-27.11,0,0-7.8-3.78-12.89,8.58,0,0-3,4.8-.68,13.73,0,0,3.06,18.87,9.5,29.17a12.31,12.31,0,0,0,5.77,7.2c4.75,2.75,12.89,1,12.89,1S112.76,231.19,111.74,223.3Z"/><path class="cls-3" d="M113.09,233.94s-8.58,3.09-13.39-3.09a32.18,32.18,0,0,1-5.83-13.73s-2.75-4.46-2.75-8.92-3.43-10.64-3.43-10.64-.34-5.49,3.43-4.46S100,202,100,202l7.21,15.44,4.46,5.5Z"/><path class="cls-3" d="M112.74,230.16l-1.37-7.89c-5.84-5.49-8.24-16.47-12-22.65-1.72-2.75-10.3-13.73-11-4.12,0,0,2.06-1.37,3.77,1.72.52.93,1.34,2.7,2.31,4.82a48.89,48.89,0,0,1-1.62,12,37.28,37.28,0,0,0,3.48-7.9L97.64,209c-1.37,4.53-2.46,8.78-.68,14.32,0,0-.66-6.85,2.09-11.33a47.18,47.18,0,0,0,2.37,4.47,45.53,45.53,0,0,0,2.94,3.94,10.14,10.14,0,0,0,2.2,8.75s2.06,3.43,5.84,3.09l-.28-2.81Z"/><path class="cls-3" d="M110.07,210.6c-2.94-8.31-3.22-17.58-8.28-25.06-1-1.49-1.6-2.39-3.31-2.71a8.23,8.23,0,0,0-5,.73c-4.32,2-7.14,7.73-8,12.29-.94,4.9.52,10.06,1.54,14.87a120.53,120.53,0,0,0,3.58,13.22,69.66,69.66,0,0,0,2.57,6.56c.76,1.7,2,3.31,2.57,5.06a12.46,12.46,0,0,0,8.29,7.85,22.66,22.66,0,0,0,10.55,0,.18.18,0,0,0,.12-.23c-1.6-10.84-3-21.72-4.49-32.57,0-.12-.2-.07-.18,0,.93,6.62,1.71,13.26,2.6,19.89q.72,5.29,1.43,10.59c.1.69.19,1.38.28,2.08,0-.22,0-.14-.42-.06-.71.12-1.42.19-2.13.26-4.12.39-8.38,0-11.72-2.63a12.27,12.27,0,0,1-3.23-4.09c-.37-.72-.51-1.53-.93-2.21-3.92-6.36-6-13.94-7.69-21.15-1-4.33-2.33-9.22-2.46-13.66a19.57,19.57,0,0,1,6.19-14.43,8.06,8.06,0,0,1,6-2c2.19.2,2.88,1.58,4.09,3.43,4.65,7.1,5.18,16.1,8,23.94C110,210.62,110.07,210.62,110.07,210.6Z"/><path class="cls-3" d="M111.44,222.2c-6.52-6.72-7.16-16.93-12.69-24.25C97,195.6,94.81,193,92.1,191.71s-3.8,1.49-3.89,3.79c0,.19.3.23.33.05.17-1.29.42-3.58,2.13-3.63,1.37,0,2.75,1.31,3.65,2.18a28.63,28.63,0,0,1,5,6.45l.23.43c-1.22,3.72-2.36,7.62-3.26,11.44a20.24,20.24,0,0,0,.61,10.88s0,0,0,0a20.65,20.65,0,0,1-.82-6.2,26,26,0,0,1,1.09-5.48c.86-3.37,2.34-6.77,2.53-10.29,3.8,7.05,5.38,15.43,11.52,21C111.39,222.42,111.53,222.29,111.44,222.2Zm-14.7-25a.13.13,0,0,0-.25.07c1.12,6-.9,11.55-3.67,16.77a0,0,0,1,0,0,0C95.72,209.27,98.91,202.8,96.74,197.18Zm9.3,18.66c.1-.21-.22-.4-.32-.18-2.13,4.41-2.6,9.61.83,13.49a0,0,0,0,0,0,0C103.39,225.29,104,220.06,106,215.84Z"/></g></g></svg>