<svg xmlns="http://www.w3.org/2000/svg" xmlns:xlink="http://www.w3.org/1999/xlink" viewBox="0 0 380.54 380.54"><defs><style>.cls-1{fill:#cdbbb7;}.cls-2{fill:#c1683f;}.cls-3{fill:#d57850;}.cls-4{fill:#753607;}.cls-5{fill:url(#linear-gradient);}.cls-6{fill:url(#linear-gradient-2);}.cls-7{fill:url(#linear-gradient-3);}.cls-8{fill:url(#linear-gradient-4);}.cls-9{fill:url(#linear-gradient-5);}.cls-10{fill:url(#linear-gradient-6);}.cls-11{fill:url(#linear-gradient-7);}.cls-12{fill:url(#linear-gradient-8);}.cls-13{fill:url(#linear-gradient-9);}.cls-14{fill:url(#linear-gradient-10);}.cls-15{fill:#b9462b;}.cls-16{fill:#a43725;}.cls-17{fill:#ca7460;}.cls-18{fill:#fff;}.cls-19{fill:#3f0d00;}</style><linearGradient id="linear-gradient" x1="257.08" y1="125.49" x2="269.72" y2="64.66" gradientTransform="translate(-10.1 -20.64) rotate(2.19)" gradientUnits="userSpaceOnUse"><stop offset="0"/><stop offset="1" stop-color="#294653"/></linearGradient><linearGradient id="linear-gradient-2" x1="254.64" y1="125.55" x2="264.82" y2="84.86" xlink:href="#linear-gradient"/><linearGradient id="linear-gradient-3" x1="113.71" y1="180.4" x2="195.95" y2="76.37" gradientTransform="translate(-10.1 -20.64) rotate(2.19)" gradientUnits="userSpaceOnUse"><stop offset="0"/><stop offset="1" stop-color="#35596f"/></linearGradient><linearGradient id="linear-gradient-4" x1="300.49" y1="161.42" x2="239.4" y2="68.03" xlink:href="#linear-gradient-3"/><linearGradient id="linear-gradient-5" x1="99.17" y1="170.36" x2="87" y2="172.39" xlink:href="#linear-gradient-3"/><linearGradient id="linear-gradient-6" x1="313.23" y1="167.24" x2="320.14" y2="170.15" xlink:href="#linear-gradient-3"/><linearGradient id="linear-gradient-7" x1="205.89" y1="114.99" x2="205.89" y2="46.8" gradientTransform="translate(-10.1 -20.64) rotate(2.19)" gradientUnits="userSpaceOnUse"><stop offset="0"/><stop offset="1" stop-color="#1a2d36"/></linearGradient><linearGradient id="linear-gradient-8" x1="202.47" y1="68.4" x2="202.47" y2="45.46" gradientTransform="translate(-10.1 -20.64) rotate(2.19)" gradientUnits="userSpaceOnUse"><stop offset="0" stop-color="#111820"/><stop offset="1" stop-color="#325865"/></linearGradient><linearGradient id="linear-gradient-9" x1="178.74" y1="80.68" x2="178.74" y2="38.11" gradientTransform="translate(-10.1 -20.64) rotate(2.19)" gradientUnits="userSpaceOnUse"><stop offset="0" stop-color="#111820"/><stop offset="1" stop-color="#3e6b7c"/></linearGradient><linearGradient id="linear-gradient-10" x1="176.75" y1="81.37" x2="176.75" y2="37.81" gradientTransform="translate(-10.1 -20.64) rotate(2.19)" gradientUnits="userSpaceOnUse"><stop offset="0"/><stop offset="1" stop-color="#1d313b"/></linearGradient></defs><g id="Capa_2" data-name="Capa 2"><g id="Avatar_11"><circle class="cls-1" cx="190.27" cy="190.27" r="190.27"/><path class="cls-2" d="M253.63,344.76c-8-19.28.72-71.2.72-71.2l-131.48-8.89s1.45,68.23-3.63,81.58c-1.7,4.45-7.68,9.31-14.9,13.82a190.64,190.64,0,0,0,166.31,2.7C263.19,357.74,256.47,351.63,253.63,344.76Z"/><path class="cls-3" d="M294.37,189.38c-.23-3.17-6.37-3.4-6.37-3.4l-.95-58.82c-.82-2.37-3-16-3.82-19.35s-15-12.28-22.17-16.3-34.16-13-36.42-13.57-30.47-2.1-35.06-1.34-30.25,4-35.33,5.67-35.55,23.47-35.55,23.47-12,15.93-12.52,17.32S98.08,156,98.08,156L80.63,180.16A13.87,13.87,0,0,0,74,191.85s2.33,10.63,11.22,28.53c0,0,2,11.32,4.89,15.29a24.16,24.16,0,0,0,16.71,10.13s2.37,27.49,10.45,39.74,28.11,20.3,40.67,27.55a107.5,107.5,0,0,0,24.93,10.37l.65.44-.62-.44.29.08s12.3,9.25,26.34,8.73c13.7-.5,28.79-3.3,37.74-19.11l-.08.18.83-1.46c1.27-1.18,17.55-16.42,24.4-32.36,7.13-16.58,12.37-46.24,12.37-46.24s4.94,5.1,6.88-9.93a188.54,188.54,0,0,0,1.15-21S294.59,192.55,294.37,189.38Z"/><path class="cls-3" d="M129.4,147.83s-4.59-23.12,9.57-35.7,45.19-25,69-16.56c0,0,13.53,3.79,20.38,3.59s28,7.62,36.6,20.6a60.71,60.71,0,0,1,3.71,34.33L224.47,166l-36.38-2.79-27.45-9.48Z"/><path class="cls-3" d="M127.24,186.51s-14.62-11.1-9-24.58L149,153.62l30.1-.26,7.9,8,1.19,4.61s3.3,21.21-12.9,24.45l-21.2-.11Z"/><path class="cls-3" d="M228.24,192.48s-7.05-12.22-4.86-24.78l4.8-9.3,12.75-2.68,16.19,5.89L276,168s3.1,17.33-4.67,23.71l-17.79.37-15.06.13Z"/><path class="cls-3" d="M101.55,187.63s10.41-30.86,23.16-42.32c0,0-3.73-18.76,7.69-31.32s43.64-32,75.43-22.76c0,0,9.69,6,24.44,4.8,0,0,21.71,4.69,36,23.86,0,0,4.84,16.69,2.13,33.8l4.93,14.24,7.22,8,1.1-28.76L273.4,111.65s-6.72-12.2-10.09-13.38-21.74-12.78-27.51-14-26.36-8.38-34.17-9.74-23.2-1.59-31.49.56-30.56,12.18-37.89,16.11S110.94,111.77,108,116.22s-6.62,21.18-9.38,30.56-2.8,19.56-3.31,24.11,0,9.13.62,10.56Z"/><path class="cls-3" d="M76.94,190.09s1.85-6.49,9.13-.12c0,0,6.71,9.39,7.79,10.83s5.08,10.27,4.45,14.93c0,0-2.48,5.29,3.52,9.27l0,4.92s-5.05.74-7.75-5.92a8.32,8.32,0,0,0,.69,5.65s-4.72-1.82-3.22-11.13c0,0-1.46-3.57-2.68-1.51l1.33-5.1A71.92,71.92,0,0,0,86,204c-2.79-4.56-2.77-11.12-4.78-12.13a6.1,6.1,0,0,0-4.09-.39Z"/><path class="cls-3" d="M86.38,193.73c2.17,2.89,6,9.83,6,9.83l-.09,2.34c2.76-.6,3.52,3.41,3.52,3.41l.37,2.12c.38,2.12-1.32,4.64-.82,9.57s6.34,7,6.34,7l.14,0,0-3c-6-4-3.52-9.27-3.52-9.27.63-4.66-3.36-13.48-4.45-14.93S86.07,190,86.07,190c-4.45-3.89-6.86-3-8.07-1.69C81.66,187.13,84.31,191,86.38,193.73Z"/><path class="cls-3" d="M286.27,225.25a69.39,69.39,0,0,0,2.9-10.19,42.6,42.6,0,0,0,.11-8.89l1-1.14,3-11.59s-3.65-.14-5.69,11.49Z"/><path class="cls-3" d="M199.92,226.52s12.5-4.79,22.24-.2l1.12-2.42s-11.82-4-23.95.14Z"/><path d="M194.81,243.89a11.9,11.9,0,0,1,8.27,4.41S196.79,248.88,194.81,243.89Z"/><path d="M222,247.62s4.32-2.64,7.45-1.12A7.05,7.05,0,0,1,222,247.62Z"/><path class="cls-4" d="M231.43,247.22c-4.09-2.86-8.29-1-11.75,1.94,0,0,0,.05,0,0,3.41-2.54,7.73-4.06,11.64-1.85C231.43,247.38,231.5,247.27,231.43,247.22Zm-7.8-33.73c-.12,3.77-.15,7.53,0,11.3a4.47,4.47,0,0,0,.28,1.78,33.39,33.39,0,0,1,1.88,6.67,13.93,13.93,0,0,1-1.44,9.21,13.73,13.73,0,0,1-1.23,1.78,12.94,12.94,0,0,0,3.16-8,19.66,19.66,0,0,0-.48-4.46,29.41,29.41,0,0,0-.83-3.06,14.26,14.26,0,0,1-1-2.8c-.12-3-.11-6.08-.06-9.12.09-6-.13-11.87-.5-17.84-.3-4.83-.81-9.69-.86-14.53a.11.11,0,0,0-.21,0c-.3,4.35.4,8.93.67,13.27C223.29,202.91,223.81,208.23,223.63,213.49Zm-2.84,33.07a18,18,0,0,0,2.29-2.33A20.14,20.14,0,0,1,220.79,246.56ZM184.84,244a16.44,16.44,0,0,1-1.47-6.26,9.31,9.31,0,0,1,6.37-9.54c.1,0,.07-.2,0-.17-4.31.9-6.7,4.55-7.09,8.86a15.82,15.82,0,0,0,1,6.85c.53,1.43,1.22,1.71,2.47,2.54a20.5,20.5,0,0,0,4.23,2.26s.06-.05,0-.06C188.34,247.57,185.78,246,184.84,244Zm32.34,5.3s0,0,0,0c1-.7,2-1.43,3-2.21C219.18,247.9,218.17,248.62,217.18,249.31ZM233,229.53s0,0,0,0c2.81,2.42,3,7.36,2.74,10.8a14.36,14.36,0,0,1-1.85,5.82,10.65,10.65,0,0,1-4.66,4.52s0,0,0,0a18,18,0,0,0,2-1.08c.3-.18,1.36-1.28,1.6-1.22.56.14,1.09-.78,1.37-1.16a12.78,12.78,0,0,0,2-6C236.82,237.29,236.32,232.07,233,229.53Zm-42.33,15.23s0,.07,0,.05c5.45-2.3,11.54,1.17,14.31,6.16,0,.05.09,0,.07,0C202.47,245.31,196.5,242.15,190.66,244.76Z"/><path class="cls-3" d="M103.09,226.05c-1.27-1.37-2.81-2.44-3.86-4a10.32,10.32,0,0,1-1.17-6.23,15.78,15.78,0,0,0-.6-7.24c-.47-1.23-1-2.43-1.56-3.62,0-.1,0-.21,0-.32a.14.14,0,0,0-.22-.12,78.13,78.13,0,0,0-4.31-7.64c-2.62-4.14-10.9-15.72-14.59-6.33,0,0,0,.05,0,0,3.62-8.28,10.59.83,14.2,6.5l-.36-.44a.11.11,0,0,0-.18.13c1.26,2.33,2.12,4.29,2,7a23.64,23.64,0,0,1-1.64,6.66c-1.3,3.68-2.93,7.5-2.28,11.49,0,.06.1,0,.09,0-1-7.15,6.68-15.82,3.65-22.8l.49.85c1,1.69,1.94,3.43,2.81,5.23-.4,7.08-6,13.07-4.08,20.37,0,0,.07,0,.06,0-1.63-7.18,3.68-12.93,4.28-19.82a35.47,35.47,0,0,1,1.64,4.13,11.35,11.35,0,0,1,.33,4.15c-.06,1-.18,2-.25,3a11.43,11.43,0,0,0-.19,2.47c.53,3.28,2.78,5.23,5.2,7.19C103,227,103.39,226.37,103.09,226.05Z"/><path class="cls-3" d="M294.4,188.77c-.63-2.37-4.44-2.84-6.4-2.93-.17,0-.18.27,0,.28,1.89.08,4.14.48,5.56,1.83,1,.93.69,2.56.6,3.77-.1,1.45-.29,2.88-.49,4.31q-.42,3.12-1,6.22a36.07,36.07,0,0,0-.08,5.2c-.1,4-.31,7.92-.66,11.86s-.73,7.88-2.17,11.5c-.77,1.94-2.82,4.32-4.79,2.32-.1-.1-.33-.09-.36.08A302,302,0,0,1,277,266.05c-2.38,8.05-5.3,15.75-9.79,22.82A119.86,119.86,0,0,1,252,307.66c-1,1-2,2-3.06,3a20.86,20.86,0,0,0,2.41-7s0,0,0,0c-.66,3-2.16,5.51-3.52,8.18a14.17,14.17,0,0,0-1.15,2,37.4,37.4,0,0,1-4.25,5.82c-5.29,6-12.52,9.38-20.1,11-8.09,1.75-16.66,2.12-24.64-.24a46.27,46.27,0,0,1-14.36-7,1.47,1.47,0,0,0-.58-.19c-4.69-3.52-9.67-6.76-14.51-10.05,0,0,0,0,0,0,4.46,3.21,8.81,6.8,13.46,9.76-.9-.26-1.8-.53-2.69-.81a111.45,111.45,0,0,1-11.24-4.28c-4.52-2-8.77-4.47-13.12-6.82-3.55-1.93-7.16-3.75-10.73-5.64-7.44-3.94-15-8.12-21.22-13.9-5.51-5.08-8.49-11.54-10.65-18.71a135.8,135.8,0,0,1-5-26.94.2.2,0,0,0-.19-.21c-7.5-1-15.14-5.79-18.18-13.13A55.36,55.36,0,0,1,86,222.89c-.18-.81-.34-1.62-.49-2.44a5.39,5.39,0,0,0-.65-1.4c-.67-1.38-1.32-2.76-2-4.14A149.36,149.36,0,0,1,75,194.84c-.3-1-.59-2-.82-3-.4-1.78.77-4.56,1.54-6.13a13.81,13.81,0,0,1,5-5.35c.21-.14,0-.5-.18-.36-4,2.62-7.76,8-6.4,13.14a121.68,121.68,0,0,0,5.74,16.09c.91,2.17,1.88,4.33,2.88,6.46.76,1.64,2,3.44,2.38,5.22A80.89,80.89,0,0,0,87.07,229a22.27,22.27,0,0,0,3.8,7.92A25.58,25.58,0,0,0,99,243.62a23.14,23.14,0,0,0,5.51,2c.12,0,2.18.48,2.16.2l0,.37c.15,1.6.34,3.19.55,4.78a148.76,148.76,0,0,0,3.68,19.31c1.72,6.49,4,13,8.33,18.19,5.12,6.15,12.22,10.46,19,14.32,7.23,4.08,14.64,7.84,21.93,11.81a104.66,104.66,0,0,0,21.6,8.8,6.64,6.64,0,0,1,2.4,1.1,52.08,52.08,0,0,0,7,3.91A46.13,46.13,0,0,0,202.82,332a47.1,47.1,0,0,0,12.27.1c7-.64,13.94-2.28,20.06-5.93a33.57,33.57,0,0,0,8.55-7.4,38.88,38.88,0,0,0,3.35-4.77,10.08,10.08,0,0,1,1.52-2.35c10.1-9.51,19.64-20.95,24.9-34.05s8.28-27.27,11-41.13c.18-.94.36-1.89.53-2.83l.09.07a3.22,3.22,0,0,0,1.06.5c4,1.08,5.13-6.72,5.53-9A127,127,0,0,0,293,207a49.61,49.61,0,0,1,.41-6.93q.5-3,.86-6.08C294.44,192.38,294.83,190.39,294.4,188.77Zm-.86,4.45s0,0,0,0c-3.37,1.33-4.62,5.52-5.43,8.78-1,4.18-1.38,8.49-2.36,12.68a.14.14,0,0,0,.27.09c1.21-3.5,1.35-7.43,2.07-11,.18-.93.39-2,.66-3,2.62,5.34,1.56,11.25,1.11,17a0,0,0,0,0,0,0c.71-5.85,1.86-11.85-.9-17.34a.14.14,0,0,0-.12-.09C289.65,197.32,290.94,194.36,293.54,193.22Z"/><path class="cls-5" d="M238.34,89.23c1-.29,2-1.16,3.19-1.38-3.19-3.61,1-6.82,3.17-9.61,3.58-4.58,2.72-5.62,1.21-10.7-1.78-6,2.65-4.08,3.2-8.78.39-3.43-5.65-5.38-7.85-6.42a55.65,55.65,0,0,1,30.44,7.75,11.26,11.26,0,0,1-4.38-1.18c-1.58,1.5-.44,3.44-1.44,5.25-1.15,2.08-3.86,3.16-5.77,4.26-4.4,2.52-7.84,3.5-8.46,9.14-.28,2.59.57,3.06-.65,5.72-1,2.09-2.61,1.63-2.59,4.47,0,3,4.23,7.73,5.59,10.34-2.21-5.34-13-7.79-17.95-8.47Z"/><path class="cls-6" d="M242.47,88.69c2.36-1.17-.13-2.5.22-4.21s2.56-3.84,3.56-5.21c1.93-2.66,3.91-5.34,3.42-8.92-.21-1.57-1.38-2.58-1.21-4.26.24-2.35,1.79-2.47,2.89-4.09,1.89-2.75,2.11-6.24-.79-7.43,3.62.66,8.14,3.43,11.35,5.37-8.76-.94-9.58,8-10.76,14.25-1.2,6.4-8.84,10-4.65,16.41Z"/><path class="cls-7" d="M103.48,91.83c-.63-2,.07-5.06-1.24-7-1.2-1.74-5-1.08-5.43-2.25-.73-2,.25-4.79,1.87-7.43A170.2,170.2,0,0,0,86.89,90.94c-15.48,23.3-15.51,59.83-15.51,59.83,3.44,5.28,9.36,29.39,9.36,29.39,6-2.11,11.5,9.34,15.77,17s5.11,33.45,5.11,33.45c2.69,1,5.35,3,8,4.52,0,0-8.7-35-8.65-48.1s1-25.73,2.91-28.46,11-14.1,11-14.1.35-21.06,4.26-27.94c1.13-2,4-5.3,7.5-9C116.43,106.87,106.74,102.14,103.48,91.83Z"/><path class="cls-8" d="M269.18,117.58c8.94,16.73,6.88,46.63,6.88,46.63,6.09,7.73,2.46,19.3,6.05,32.55s2,31.45,2,31.45l2.36-2.25c2.27-11.62,0-34.66.48-36.51s5.12-2.62,5.12-2.62,4.3-17.16,11.65-30.46,3.78-39.2-.49-46.86c-3.35-6-9.08-16.18-11.38-20.25a5.78,5.78,0,0,0-.86.56c-5.87,4.8,3.73,19.21-8.27,19.41-5.43.09-19.87-10.72-16,2.78a20.56,20.56,0,0,1-3.93-1.93A93.23,93.23,0,0,1,269.18,117.58Z"/><path class="cls-9" d="M82.8,177.08c-1.4-8.13-8.52-27.72-8.52-27.72-1.76-5.25,1-26.33,2-33.8a151.83,151.83,0,0,0-4.94,35.21c3.44,5.28,9.36,29.39,9.36,29.39,4.43-1.55,8.58,4.27,12.17,10.5,0-.07,0-.13,0-.2C91.8,183.05,82.8,177.08,82.8,177.08Z"/><path class="cls-10" d="M303.72,156.37c3.74-6.77,4.65-16.79,4.08-26-.52,6-2,16.41-6,24.54-5.93,12.07-11,28.39-11,28.39l-2.57,4.46.12.27a14.2,14.2,0,0,1,3.68-1.18S296.37,169.67,303.72,156.37Z"/><path class="cls-11" d="M307.53,125.91c-.65-5.8-1.71-12-4.56-17.11q-5.18-9.26-10.39-18.49c-.45-.79-.9-1.58-1.34-2.37-.31-.54-.29-.37-.07-.94q1.95-5,3.51-10.13c1-3.17,2-6.25,1.34-9.56a28.09,28.09,0,0,0-3.75-8.6,47.85,47.85,0,0,0-5.66-7.59c-1.21-1.32-2.68-2.95-4.44-3.48-5.7-1.7-12.35-3.66-18.26-2a12.25,12.25,0,0,0-3.61,2A11.58,11.58,0,0,1,256,49.52c-3.53.73-7.37.25-10.95.44a25,25,0,0,1-12.44-2.2,19.7,19.7,0,0,0-2.68-1.62c-2.44-.7-4.89-1.34-7.35-2a281,281,0,0,0-36.47-6.88c-13.7-1.59-27.62-2-40.76,2.87-16.74,6.18-31.24,17.69-43.27,31A152.12,152.12,0,0,0,85.7,92.54a86,86,0,0,0-9.42,22.65,144.14,144.14,0,0,0-5,34.51,3.39,3.39,0,0,0,.6,2.19,50.37,50.37,0,0,1,2.92,7.55c1.88,5.71,3.46,11.53,5,17.35.29,1.14.58,2.27.86,3.41a.14.14,0,0,0,.16.1c3-1,5.52,1.33,7.39,3.5a52.74,52.74,0,0,1,5.79,9,45.1,45.1,0,0,1,3.59,7.15,47.26,47.26,0,0,1,1.65,6.86,163.63,163.63,0,0,1,2.29,23.81.13.13,0,0,0,.09.14c2.85,1.16,5.35,3,8,4.51a.14.14,0,0,0,.2-.15c-2.33-9.4-4.41-18.89-6.17-28.42a122.59,122.59,0,0,1-2.46-18.59c-.16-4.94.1-9.94.4-14.88a65.11,65.11,0,0,1,1.57-12.3c.58-2.25,2.11-3.91,3.5-5.69,1.91-2.48,3.85-4.92,5.8-7.37l2-2.53c.14-.17.64-.6.64-.85,0-1.42.09-2.83.16-4.25.32-6.44.81-13,2.46-19.3,1.29-4.93,4.53-8.36,7.88-12,7-7.5,14.46-14.55,22-21.47A3.22,3.22,0,0,1,148.9,87l4.87-1.32,15.41-4.17,13-3.52a7.89,7.89,0,0,1,1.91-.51l3.42.51,26,3.89a11.62,11.62,0,0,1,1.81,1l4.79,2.77,7.22,4.16a.12.12,0,0,0,.12-.2c-3.69-2.14-7.38-4.31-11.07-6.45-.79-.46-2-1.48-2.86-1.62l-3.42-.51-26-3.88a5.27,5.27,0,0,0-1.68.43L177.21,79l-15.6,4.22-12.5,3.38a4.34,4.34,0,0,0-1.56.46l-2.39,2.21c-8.23,7.66-16.75,15.36-23.9,24.12-3.14,3.84-4.22,8.23-5,13.12a135,135,0,0,0-1.43,16.92c0,1.21-.34,1.34-1.18,2.39-1.81,2.28-3.63,4.56-5.43,6.85-1.52,1.95-3.16,3.86-4.52,5.94s-1.54,5.47-1.84,7.92c-.6,5-.8,10-.92,15a84.66,84.66,0,0,0,.17,10.2c.63,6.57,1.83,13.09,3.11,19.56,1.19,6.06,2.52,12.09,3.93,18.1q.57,2.47,1.17,4.93c.06.27.13.53.2.8-.18-.71-1.88-1.37-2.47-1.75-1.23-.76-2.47-1.51-3.75-2.18-.69-.36-1.54-.25-1.57-1.08s-.06-1.45-.1-2.18q-.19-3.87-.52-7.72a103.16,103.16,0,0,0-2.85-18.85,36.34,36.34,0,0,0-3.57-7.82,58.22,58.22,0,0,0-6.64-10.3c-1.69-2-4-3.83-6.68-3.42-.68.11-.47.38-.68-.44s-.41-1.62-.62-2.43c-1.49-5.79-3.07-11.56-4.92-17.24a65.14,65.14,0,0,0-2.74-7.33c-.51-1.11-.91-1.52-.88-2.7a144.43,144.43,0,0,1,5.26-35.39A83.13,83.13,0,0,1,87,91a164.43,164.43,0,0,1,17.49-22.15c12.75-13.55,28.27-24.78,46-30.16,6.2-1.89,12.81-2.25,19.25-2.22a161.6,161.6,0,0,1,21.52,1.73,289.48,289.48,0,0,1,34.34,7c1.67.44,3.56.7,4.95,1.65,6.19,4.2,13.46,3.22,20.49,3.2,2.69,0,5.31-.07,7.79-1.25,1.37-.65,2.48-1.73,3.81-2.42a12.62,12.62,0,0,1,5.68-1.07A41,41,0,0,1,279,47c2.27.6,4.07,1.11,5.85,2.72a38.46,38.46,0,0,1,10.66,16.61c1.12,3.81-.13,7.33-1.25,11-1,3.29-2.14,6.54-3.4,9.74-.33.87.65,1.87,1.07,2.6L296.66,98c3.15,5.59,6.91,11.08,8.67,17.34a75.47,75.47,0,0,1,2.48,22.4,53.39,53.39,0,0,1-1.62,11.94c-1,4-3.13,7.49-4.92,11.21a145.53,145.53,0,0,0-8.35,22.43c-.26.89-.51,1.79-.75,2.69-.17.63,0,.67-.53.77-1.39.29-4.57.93-4.81,2.77a31,31,0,0,0,.08,5.45c.14,3.38.3,6.76.39,10.15.11,3.9.14,7.8,0,11.7-.07,1.75-.18,3.5-.36,5.24-.15,1.46-.06,3.34-1.14,4.36l-1.33,1.27c-.2.19-.25.3-.25.35q.07-.91.12-1.83c.18-3,.24-6,.22-9a108.85,108.85,0,0,0-.77-12.24c-.58-4.69-2-9.16-2.73-13.82-.74-4.82-.71-9.71-1.06-14.57a25.76,25.76,0,0,0-2.58-10.52c-.3-.55-1.29-1.48-1.25-2.1s.06-1.06.08-1.6c.09-2.17.12-4.36.11-6.54a131.54,131.54,0,0,0-1.63-20.6A73.5,73.5,0,0,0,272,124c-.73-2.17-1.51-4.82-2.89-6.65-6.37-8.44-14.39-16.39-23.59-21.44a26.63,26.63,0,0,0-14.12-3.72c-.08,0-.09.14,0,.14,7.09-.38,13.72,3,19.4,7.08A85.31,85.31,0,0,1,265,112.59c1.21,1.38,2.38,2.78,3.5,4.23a20.38,20.38,0,0,1,2.59,5.12c2.89,7.35,4.05,15.43,4.67,23.29a146.77,146.77,0,0,1,.33,16.78c0,.39-.34,1.93-.09,2.26,2.71,3.56,3.48,7.92,3.82,12.33s.36,9,.9,13.4c.57,4.73,2.06,9.26,2.74,14a111.47,111.47,0,0,1,.69,22.29c0,.65-.08,1.3-.14,2a.1.1,0,0,0,.16.08,15.09,15.09,0,0,0,2.38-2.27,7.32,7.32,0,0,0,.38-2.28c.17-1.24.28-2.48.38-3.73a150.25,150.25,0,0,0,.16-15.74c-.12-4.05-.36-8.1-.47-12.15,0-1.05-.28-2.43.44-3.29,1-1.23,3.17-1.64,4.65-1.89a.08.08,0,0,0,.07-.07,149.7,149.7,0,0,1,4.74-15,122.25,122.25,0,0,1,5.83-13.44,43,43,0,0,0,4-10C308.45,141.15,308.36,133.35,307.53,125.91ZM292.3,65.55c-.81-2.8-3.45-5.36-5.32-7.4a32.51,32.51,0,0,0-4.9-4.41,17.62,17.62,0,0,0-6.69-2.63c-2.77-.64-7.64-1.79-8.42,2.19,0,.05,0,.13.07.14,3.26.65,6.95,3.36,9.2,5.72,2.53,2.68,4.28,6.27,6,9.54,2.84,5.5,5.38,11.19,7.69,17a.13.13,0,0,0,.23,0c.37-1.86.73-3.73,1.1-5.59a.1.1,0,0,0-.05-.11C292.15,75.3,293.66,70.25,292.3,65.55Zm-1.17,14.36A.09.09,0,0,0,291,80c-.18.87-.36,1.74-.55,2.62-.13.62-.25,1.26-.38,1.89-.05.22-.09.45-.14.68h0c-.43-1.06-.87-2.11-1.31-3.16a174.36,174.36,0,0,0-7.87-16.5,36,36,0,0,0-4.22-6.34,23,23,0,0,0-7.76-5.36,8.5,8.5,0,0,0-1.69-.6,9.12,9.12,0,0,1,1.06-1.79,4.22,4.22,0,0,1,2.78-.74,20.12,20.12,0,0,1,11.36,3.48,39.39,39.39,0,0,1,8.82,9.34C294.36,68,292.14,75,291.13,79.91Z"/><path d="M303.23,109.51c-4.27-7.65-12.38-22-12.38-22A123.67,123.67,0,0,0,296,71.3c1.65-7.43-10.09-22.4-13.69-23.47S266.56,43,261.39,47s-7.85,2.51-17,3.09S230,46.29,230,46.29s-53.21-15.61-79.5-7.72S102.37,67.65,86.89,90.94s-15.51,59.83-15.51,59.83c3.44,5.28,9.36,29.39,9.36,29.39,6-2.11,11.5,9.34,15.77,17s5.11,33.45,5.11,33.45c2.69,1,5.35,3,8,4.52,0,0-8.7-35-8.65-48.1s1-25.73,2.91-28.46,11-14.1,11-14.1.35-21.06,4.26-27.94,28.48-29.36,28.48-29.36l36.4-9.84,29.47,4.4,13.83,8,4,2.5c18.28-1.18,37.79,25.33,37.79,25.33,8.94,16.73,6.88,46.63,6.88,46.63,6.09,7.73,2.46,19.3,6.05,32.55s2,31.45,2,31.45l2.36-2.25c2.27-11.62,0-34.66.48-36.51s5.12-2.62,5.12-2.62,4.3-17.16,11.65-30.46S307.5,117.17,303.23,109.51ZM290,85.59s-9.16-22.83-14.46-27.25-8.47-5-8.47-5c.59-3.72,4.67-3.1,11-1.45s13.24,11.74,13.24,11.74c2.88,4.22.73,11.92-.17,16.39Z"/><path class="cls-12" d="M161.09,79.26c-1.76.56-5.05.53-5.41-2-.33-2.28,4.2-5.28,5.43-6.82,2.16-2.76,2.11-3.68,1.85-6.51-.33-3.6-.64-3.55,3.69-5.23,2.4-.92,9-1.4,9.34-4.21.3-2.28-3.47-5-3.76-7.52-1.12-9.9,22.28-8.93,27.61-7.41,1.53-2.7-2-4.65-1.06-7,1-2.63,6.07-1.49,8.26-1.08,5.83,1.1,12.09,3,16.34,7.33-5.56-2.84-15.2-2.62-17.2,4.52-5.34-.7-8.67-3-14.56-1.81-2.9.57-9.78,1.29-11.23,4.4s2,6.36,3.17,8.9c2,4.14,1.56,5.46-2.72,6.48-4.63,1.1-9,2.53-12.72,5.84-5.48,4.93-6.65,9.22.39,11.79-3.09,1-3.31,3.24-.16,4.39-3.09.88-5.92,3.59-8.82,4.26,1.9-2.86,3.24-5.48-.9-6.66Z"/><path class="cls-13" d="M182,42.82s-11.22-4.65-30,4.24a69.42,69.42,0,0,0-13.31,8.15l-.6.42c-6.2,4.66-12.16,8-16.85,12.58,2.44-1.61,6.48-4.16,11.28-6.67C140.38,57.39,154.71,40.37,182,42.82Zm54.85,14.39c-2.42-8.17-11.65-17.3-18-22.46-7.95-6.63-13.27-10.7-23.11-12.83-21.39-4-37.62,9.1-51.77,21.2l.53.33A46.43,46.43,0,0,0,133.86,52,53,53,0,0,1,144,45.82c6-2.58,11.22-7.3,19.28-9.33s38,.51,54.58,21.52c0,0-11.54-20.35-44-25.1,0,0-6.56-1.42-17,4.27a114.58,114.58,0,0,1-11.83,5.9l5.32-2.64s13.56-14.94,33.7-16.74S225.62,40.27,232.7,52a30.31,30.31,0,0,1,3.66,20.85C237.75,67.65,238.5,62.45,236.83,57.21Zm-73.53,21c-26.83,10-29.12,22.07-43.87,26.19l-1,1.1c11.2-16.57,24.77-49.87,70.61-38,0,0-23.71-12.64-49.43,4.81l.57-.11c-11.22,7.29-17.51,19.7-24.44,31-4.73,7.14-14.83,19.65-24.79,22.52l.1.07s9.09-1.87,18.44-10.08c4.79-3,20.64-13.11,33.48-24,15.31-13,45.49-21.21,62.61-9.79C205.56,81.89,190.13,68.19,163.3,78.17Zm-26-10.6c14.38-6.47,22.88-8,41-5.45,0,0-13-5.42-33.05-.33l-2.87.76-5,2.45c-9.35,4.77-16.92,13.13-22,22.87C118.47,83.08,126.32,72.5,137.26,67.57Z"/><path class="cls-14" d="M162.1,87.08a92.13,92.13,0,0,0-21.78,12.63c-6.81,5.21-13.11,11.1-19.94,16.28-7.64,5.8-16.21,10.84-25.79,12,0,0,0,0,0,0,17-1.33,29.81-14,42.5-24.44,13.64-11.18,30.22-20.17,48-20.63a39.65,39.65,0,0,1,24.31,7.53c.25.18.57-.21.34-.41C196.36,78.54,177.26,81,162.1,87.08Zm62.53-7.18a55.69,55.69,0,0,0-1.88-12.26,43.13,43.13,0,0,0-11-17.78c-10-9.91-23.88-15.52-37.58-17-.28,0-.29.41,0,.45,13.87,2,27.78,7.35,37.66,17.86A43.35,43.35,0,0,1,222.18,69.5c1.09,4.13,1.25,8.47,1.62,12.71a38.25,38.25,0,0,0,2.3,10.54c-1.59-1.09-3.15-2.23-4.75-3.31a.22.22,0,0,0-.33.13c-1.36,4.45-6.87,2.91-9.69,1-.12-.08-.23.11-.12.2,2.13,1.58,5,2.65,7.62,1.86a4,4,0,0,0,2.32-2.1c.43-.86,1.27.21,1.88.64,1.13.8,2.26,1.61,3.41,2.38.2.14.39-.1.31-.3C225.11,89.15,225,84.25,224.63,79.9Zm4.81-35.55a97.68,97.68,0,0,0-19.17-16.76,40.2,40.2,0,0,0-23.88-6.76c-16.55.54-30.55,11.41-42.55,22.11a.25.25,0,0,0,.33.37c13.6-11.16,28.14-22.72,46.53-21.63,9.11.53,16.94,4.57,24,10.19s14,11.7,18.83,19.43a23.44,23.44,0,0,1,3.67,10.82c.28,4.21-.77,8.43-1.92,12.44-1.11,3.84-2.41,7.63-3.31,11.54a34.08,34.08,0,0,0-.82,5.69c0,.43.28,2.68-.43,2.65a7.55,7.55,0,0,1-3.5-.77c-.07,0-.15.07-.07.12a5.11,5.11,0,0,0,1.6.66c.62.16,2.08,0,2.55.44a.41.41,0,0,0,.71-.28c-.08-9.58,4.82-18.16,6-27.52C239.26,58.15,235,50.79,229.44,44.35ZM127.78,61.6a55.9,55.9,0,0,1,6.32-9.19,44.16,44.16,0,0,1,8.21-7.06c6-4.1,12.57-7.22,19.11-10.33,0,0,0,0,0,0-13,5.92-28.28,11.67-34.07,26.39C127.23,61.66,127.64,61.84,127.78,61.6ZM112.93,84.16c1.64-7,7.78-12.1,13.44-15.69a73.77,73.77,0,0,1,18.36-8c.07,0,.05-.15,0-.13-11.28,3-24.53,8.85-30.5,19.76a32.41,32.41,0,0,1,9.27-13.32c5.07-4.4,10.81-7.94,16-12.19h0c-5.66,4.17-11.92,7.43-17.25,12.09A29.53,29.53,0,0,0,112.45,84C112.39,84.32,112.85,84.49,112.93,84.16Zm-4,23.74c.11-.42.21-.84.32-1.26s.4-.76.62-1.19a.09.09,0,1,0-.16-.1l-.22.3a86.79,86.79,0,0,1,2.76-9.91,64.51,64.51,0,0,1,6.08-12.26,54,54,0,0,1,19-18.47s0,0,0,0c-8,3.88-14.45,10.09-19.41,17.58a61.91,61.91,0,0,0-6.07,11.92c-1.61,4.15-3.16,8.82-3.44,13.32h0C108.45,108.1,108.88,108.22,109,107.9Zm4.76-1.5c4-5.44,7.08-11.55,10.78-17.2,4.31-6.58,9.27-12.49,15.81-16.78a.32.32,0,0,0-.22-.6c-7.15,1.24-13.07,5.92-17.76,11.4a56.06,56.06,0,0,0-10.53,18.69.21.21,0,0,0,.4.13c4.28-12.21,13.51-26,26.49-29.25A57,57,0,0,0,126,86.25c-4,5.68-7.15,11.94-11,17.69a81.34,81.34,0,0,1-11.81,13.89c-4.58,4.27-10.28,8.34-16.69,8.4a.06.06,0,0,0,0,.11c5.48.29,10.57-2.93,14.71-6.29A73.39,73.39,0,0,0,113.72,106.4Z"/><path d="M108.8,107.25a2.51,2.51,0,0,0-.1.57C108.73,107.63,108.77,107.44,108.8,107.25Zm128-50c-2.42-8.17-11.65-17.3-18-22.46-7.95-6.63-13.27-10.7-23.11-12.83-21.39-4-37.62,9.1-51.77,21.2l.53.33c-7,4.2-12.91,9.52-17,18l11.9-6.93c-12,9.38-23.42,13.16-26.78,29.54,3.57-12.86,21-20.62,32-23.72l.31.89L137.36,65c-15.19,7.76-25.71,25-28.56,42.25a9,9,0,0,1,1-1.85L112,102c3.86-11.44,14.39-27.55,28.16-29.83-11.22,7.29-17.51,19.7-24.44,31-5.45,8.22-18,23.55-29.27,23.11L94.59,128c18.88-1.74,33.2-18.4,47.62-29.09,14.45-11,38.77-21,56.64-14.35,4.39,1.58,7.08,2.73,10.73,5.68l1.39,0,.3.47c2.91,2.16,8.41,3.4,9.83-.66l5.08,3.09.38.26s0,0,0,0l.69.42c1,.74,3.05.82,4.41.87C231.1,81.93,240.8,69.66,236.83,57.21Z"/><path class="cls-15" d="M174.42,276.3s10.2,6.19,14.27,11.44,11.1,9.38,16.42,8.88,17.38,1.55,21.37-4.45,4.93-12.46,11.57-16.24l-6.8-1.14-27.51-.53Z"/><path class="cls-16" d="M231.25,274.79l-27.51-.53-29.32,2s3.07,1.86,6.5,4.41c2.08-.31,13.25-1.84,19.71-1.12,7.15.8,8.27,3,14.83,1.27s10.36-2.59,13.06-1.78a13,13,0,0,1,3.94,2.17,16.11,16.11,0,0,1,5.59-5.32Zm-12.36,19.37c-4.12.37-10.81.82-15.43.82s-12.8-5.06-12.8-5.06l0,0c4.14,4.15,9.92,7.11,14.47,6.68,5.32-.5,17.38,1.55,21.37-4.45a37.35,37.35,0,0,0,2-3.35C225.82,292.74,222.62,293.83,218.89,294.16Z"/><path class="cls-16" d="M237.84,272.41c-5.33.67-9.7-1.08-12.65-4.53s-5.7-3-7.1-2.2-4.08,3.88-6.46,3.44-4.29-3.85-8.75-3.5-20.71,9.4-27.39,9.67S162,269.68,162,269.68c12.43,13.79,29.51,4,44.37,8l.44.74c1,.74,2.71.81,3.72,1.2a12.52,12.52,0,0,0,6.12-1.53l1.12.05c6.62-3.26,11.62.09,17.49-1.44,4.5-1.23,12.54-5.84,14.08-10.35C249.36,266.35,243.17,271.73,237.84,272.41Z"/><path class="cls-16" d="M206.57,277.54c-7.18-2.17-14.88-1-22.21-.52a36.53,36.53,0,0,1-11.47-.82,23.61,23.61,0,0,1-10.84-6.54,0,0,0,0,0-.05,0c11.54,13.4,29.72,4.83,44.46,8.17C206.68,277.93,206.79,277.6,206.57,277.54Zm14-1.85c-4,1.91-9.26,5.31-13.65,2.61a.15.15,0,0,0-.16.25,9.28,9.28,0,0,0,3,1c.28.07.49.43.79.45a9.81,9.81,0,0,0,2.42-.12c2.89-.44,5.48-2.21,7.73-4C220.78,275.79,220.67,275.64,220.56,275.69Zm28.68-9.38c-2.24,5-8.48,8.27-13.36,9.8-3,1-6.19.38-9.31.3a17.81,17.81,0,0,0-8.8,1.7,0,0,0,0,0,0,.06c3.8-1.65,7.33-1.2,11.29-.75a16.31,16.31,0,0,0,8.15-1,31.79,31.79,0,0,0,7.36-4.19c2-1.51,4.11-3.35,4.88-5.85A.13.13,0,1,0,249.24,266.31Z"/><path d="M186.77,150v.23a41.87,41.87,0,0,0-1,5.64,27.48,27.48,0,0,0-3.86-8.64,23,23,0,0,1,.85,5.75c-2-3.32-4.7-7.39-6.65-9-3.54-2.95-11.53,3.3-20.21,3.91s-28.25-.61-28.25-.61-6.52,3.49-9.7,15.08c0,0,6.81.73,11.35,1.37s17.36-.74,25.26-4.65,20.66-3.9,25.53,0l8.84,7.36S189.31,155.27,186.77,150Z"/><path d="M225.92,151.52v.23a55.08,55.08,0,0,1,.41,5.7,32.28,32.28,0,0,1,3.44-8.36,30,30,0,0,0-1,5.68c1.72-3.18,4-7.06,5.55-8.55,2.83-2.7,8.36,4.07,14.78,5.25s21.07,1.27,21.07,1.27,4.61,3.93,6.21,15.7c0,0-5.12.27-8.54.61s-12.87-1.9-18.49-6.33-15.12-5.26-19-1.66l-7.07,6.75S223.69,156.59,225.92,151.52Z"/><path class="cls-17" d="M130.89,188.76s4.85,7.39,20,9c12.42,1.34,23.1-5.09,23.1-5.09Z"/><path class="cls-4" d="M134.9,179.43c4.24-4.63,10.7-6.37,16.69-6.78a28.63,28.63,0,0,1,9,.66c3.74.95,6.4,3.14,9.14,5.84,0,0,.08,0,0-.05a18.33,18.33,0,0,0-8.29-5.95,27.32,27.32,0,0,0-9.91-1.33c-6.12.3-12.71,2.63-16.73,7.61Z"/><path d="M132.46,189.41l-2.48-.57s7.5-11.42,20.12-13.51,20.54,5.46,23.84,14.49l-15.52.58Z"/><path class="cls-18" d="M132.24,189.16c7.42-9.08,19.48-14.47,30.94-10,5.39,2.07,8.4,6.87,11.42,11.44l3.56,2.24-4.81.52a61.4,61.4,0,0,1-22,3.38A30.16,30.16,0,0,1,132.24,189.16Z"/><path class="cls-19" d="M156,177.14c-3.75-.12-7.6.47-10.68,2.64a.66.66,0,0,1-.42.14,10.51,10.51,0,0,0-2.6,6.55,10.12,10.12,0,1,0,13.7-9.33Z"/><path d="M157.68,187.06a5.29,5.29,0,1,1-5.07-5.63A5.35,5.35,0,0,1,157.68,187.06Z"/><path class="cls-18" d="M154.74,182.43a2.17,2.17,0,1,1-2.08-2.3A2.2,2.2,0,0,1,154.74,182.43Z"/><path d="M132.27,189.19c5.78-6.26,13.55-10.81,22-11.33a19.09,19.09,0,0,1,12.49,3.33c3.4,2.48,5.37,6.05,7.79,9.4,0,.06.13,0,.09-.07a34,34,0,0,0-7.79-9.46c-3.47-2.66-8.29-3.75-12.55-3.84-8.8-.19-16.91,4.94-22.1,11.92,0,0,0,.08.06.05Z"/><path class="cls-17" d="M270.89,192s-4.88,7-18.58,7.54c-11.23.44-20.34-6.75-20.34-6.75Z"/><path class="cls-4" d="M268,182.4c-3.46-4.93-9.12-7.12-14.46-8a23.48,23.48,0,0,0-8.15,0c-3.42.68-6,2.67-8.61,5.16,0,0-.07,0,0-.05a16.39,16.39,0,0,1,7.85-5.33,22.18,22.18,0,0,1,9-.61c5.47.75,11.2,3.55,14.44,8.8Z"/><path d="M269.43,192.53l2.27-.38s-5.89-11.94-17-14.94-18.8,4-22.42,12.73l13.87,1.7Z"/><path class="cls-18" d="M269.65,192.3c-6-9.6-16.41-15.85-27-12.27-5,1.68-8,6.25-11.06,10.58l-3.35,2,4.27.87a50.67,50.67,0,0,0,19.48,5A25.7,25.7,0,0,0,269.65,192.3Z"/><path class="cls-19" d="M254.83,179.74a17.27,17.27,0,0,0-10.58-.53,10.54,10.54,0,1,0,10.58.53Z"/><path d="M243.6,188.23a5.5,5.5,0,1,0,5.7-5.22A5.46,5.46,0,0,0,243.6,188.23Z"/><path class="cls-18" d="M247,183.85a2.25,2.25,0,1,0,2.34-2.14A2.24,2.24,0,0,0,247,183.85Z"/><path d="M269.62,192.33c-4.72-6.66-11.36-11.76-18.9-12.89a15.76,15.76,0,0,0-11.44,2.41c-3.21,2.22-5.24,5.64-7.65,8.81,0,.05-.12,0-.08-.08,2.11-3.28,4.65-6.67,7.67-8.86,3.3-2.41,7.69-3.15,11.52-2.93,7.9.45,14.8,6.16,18.94,13.49,0,0,0,.08-.06.05Z"/></g></g></svg>